<svg width="223" height="189" viewBox="0 0 223 189" fill="none" xmlns="http://www.w3.org/2000/svg">
<g id="box-agir">
<g id="Group 2608089">
<path id="Vector" fill-rule="evenodd" clip-rule="evenodd" d="M220.099 72.8769C218.785 71.3712 217.824 71.243 216.126 72.3323C215.133 72.973 214.204 73.0371 213.051 72.8128C213.115 71.5313 213.339 70.3459 213.243 69.1926C213.115 67.1422 212.634 65.1559 213.243 63.0734C213.435 62.4647 213.115 61.6958 213.051 61.023C212.826 59.2289 212.538 57.4348 213.499 55.6407C214.781 55.3203 216.094 54.9679 217.376 54.6475C217.696 53.9747 217.376 53.7184 216.959 53.334C215.582 52.2127 213.531 51.668 213.531 49.3293C213.531 48.9769 212.794 48.4643 212.346 48.4002C212.025 48.3361 211.545 48.8167 211.193 49.1371C211 49.3293 210.904 49.6817 210.744 49.97C208.79 49.97 206.932 49.7778 205.137 49.073C203.023 48.272 200.908 47.3429 198.73 46.8303C196.327 46.2857 194.02 44.9401 191.425 45.677C191.361 45.677 191.233 45.5488 191.137 45.4527C191.329 44.9401 191.425 44.3314 191.714 43.8829C192.675 42.4412 193.54 40.8073 194.821 39.686C196.391 38.2763 198.41 37.3793 200.14 36.1298C202.542 34.3677 205.137 32.7338 206.611 29.9786C207.06 29.1456 207.508 28.3126 208.053 27.5437C209.527 25.4613 210.808 23.3468 210.648 20.6556C210.552 19.278 210.648 17.8684 210.456 16.5228C210.231 14.9209 209.334 14.2481 207.732 14.2801C206.964 14.2801 206.195 14.3442 205.458 14.2161C199.435 13.1268 193.412 13.7035 187.389 14.3122C186.908 14.3763 186.331 14.5685 186.043 14.8889C184.922 16.1063 183.576 17.1956 183.608 19.1819C183.608 20.079 183.192 21.008 182.967 21.9051C182.134 25.269 181.814 28.601 183.031 31.9329C183.768 34.0153 184.826 35.9376 186.427 37.5074C186.876 37.9559 187.389 38.3404 187.1 39.1093C186.588 40.4549 186.139 41.8325 185.627 43.1781C185.178 44.2994 184.986 44.3314 183.768 43.9149C182.871 43.5946 181.974 43.3382 181.045 43.0819C179.539 42.6655 178.034 42.249 176.496 41.8325C175.15 41.4801 173.837 41.0956 172.491 40.8073C171.754 40.6471 171.017 40.3908 171.049 39.5899C171.049 38.2122 171.242 36.8346 171.498 35.5211C171.85 33.8551 172.427 32.2532 172.779 30.5873C173.164 28.9854 173.644 27.3835 173.644 25.7816C173.612 23.6351 174.574 21.7769 175.022 19.7906C175.471 17.8684 175.727 17.9324 174.285 16.5869C174.509 15.5616 174.734 14.4403 174.958 13.2549C174.702 13.0307 174.477 12.6783 174.157 12.5822C172.331 11.9414 170.537 11.8453 168.967 13.1268C167.461 14.3442 166.692 15.9781 167.173 17.9965C167.397 18.9897 167.557 19.9508 167.173 20.944C166.82 21.9371 166.532 22.9944 166.34 24.0196C166.02 25.6215 165.923 27.2874 165.507 28.8573C164.642 32.0931 163.969 35.3288 163.745 38.6608C163.681 39.6539 163.36 40.4228 162.399 40.6151V41.4801C162.143 41.4801 162.015 41.5121 161.887 41.4801C159.452 41.0956 159.228 40.7752 159.708 38.4045C160.157 36.1939 160.701 34.0473 160.99 31.7727C161.63 26.7428 162.656 21.7449 163.585 16.715C163.745 15.7539 163.777 14.8889 163.328 13.9918C162.784 12.8705 162.495 11.6531 162.079 10.4677C160.605 9.79488 159.131 10.0512 157.658 10.4677C156.857 10.6919 156.312 11.1405 156.152 12.0055C155.96 13.1909 155.703 14.3442 155.607 15.5296C155.447 17.7402 155.607 19.9828 155.223 22.0973C154.646 25.237 154.582 28.4728 153.493 31.5164C153.429 31.6766 153.429 31.9008 153.461 32.0931C153.877 33.9512 152.596 35.1046 151.763 36.5783C149.937 36.0978 148.143 35.7133 146.445 35.1366C143.401 34.1114 140.421 32.9901 137.378 31.9008C137.09 31.8047 136.705 31.7406 136.545 31.5164C135.904 30.7154 135.071 30.4271 134.11 30.2669C133.021 30.0747 132.797 29.6262 132.989 28.5048C133.149 27.5758 133.373 26.6467 133.309 25.7176C133.277 24.8526 133.405 24.0196 133.501 23.1546C133.758 21.008 134.591 18.8615 133.918 16.5869C133.758 16.0422 134.014 15.4015 134.078 14.6646C136.128 14.7607 137.538 15.9461 139.172 16.4907C140.902 17.0674 142.632 17.6121 144.458 18.1887C144.65 17.7402 144.843 17.3237 145.035 16.9393C147.95 16.4267 148.847 15.5937 148.303 13.9918C147.918 14.184 147.502 14.3122 147.117 14.5364C145.323 15.6257 144.106 15.017 144.074 12.9025C144.074 12.3579 144.298 11.8132 144.49 11.2686C144.779 10.4677 145.419 10.1793 146.252 10.1153C147.085 10.0832 147.566 10.4677 147.886 11.1405C148.11 11.621 148.303 12.1336 148.591 12.9025C148.591 10.5104 147.641 9.06869 145.74 8.57745C145.74 8.57745 145.419 8.4493 145.259 8.38523C145.259 8.38523 145.259 8.38523 145.259 8.41726C145.227 8.41726 145.195 8.41726 145.163 8.41726C143.465 10.6599 143.465 10.724 142.664 15.2413C140.357 14.2161 138.115 13.2229 135.84 12.2297C135.263 11.9734 135.071 11.5569 134.943 10.9162C134.719 9.63469 134.206 9.44247 133.245 10.3075C132.732 10.756 132.284 10.8201 131.707 10.6919C131.515 10.6599 131.323 10.5958 131.163 10.4997C128.279 8.60949 124.787 8.73764 121.647 7.6804C121.135 7.52021 120.526 7.61632 119.949 7.61632C118.7 7.61632 117.963 7.07168 117.611 5.91833C117.226 4.7009 117.611 3.29125 118.668 2.81068C119.437 2.45827 120.334 2.39419 121.263 2.20197C121.712 3.77181 122.833 4.12422 124.082 4.54071C126.293 5.24554 128.407 6.17463 130.586 6.97557C131.291 7.23187 131.996 7.45613 132.732 7.64836C134.366 8.03281 136.032 8.51338 137.698 8.7056C139.044 8.86579 140.454 8.73764 141.831 8.7056C142.92 8.64153 144.01 8.51338 145.099 8.41726C145.099 8.41726 145.099 8.38523 145.163 8.35319C145.163 8.35319 145.163 8.35319 145.227 8.35319C145.515 7.64836 145.259 7.10372 144.554 6.94353C143.657 6.71927 142.696 6.46297 141.799 6.59112C140.357 6.78335 139.044 6.49501 137.698 6.17463C136.673 5.91833 135.616 5.69407 134.591 5.40573C133.437 5.11739 132.252 4.89313 131.131 4.47664C129.016 3.73977 126.902 2.87476 124.723 2.04178C124.691 1.91363 124.595 1.75344 124.563 1.59325C124.114 -0.00862715 123.954 -0.10474 122.32 0.055448C121.391 0.151561 120.43 0.215636 119.501 0.375824C118.828 0.503974 118.123 0.6962 117.579 1.04861C115.913 2.16993 115.048 5.02128 115.72 6.78334C116.297 8.32115 119.341 10.2114 121.007 10.1473C123.185 10.0512 125.107 10.8842 127.126 11.8773C127.03 13.7035 126.934 15.4015 126.838 17.0674C126.677 19.7586 126.613 22.4497 126.389 25.1409C126.261 26.5185 126.677 28.0563 125.62 29.3058C123.506 28.9534 121.455 28.6971 119.437 28.1845C118.444 27.9282 117.418 27.4156 116.618 26.7748C114.984 25.3972 114.407 25.3011 112.389 26.102C109.185 27.3515 105.885 28.4408 102.361 28.5048C101.336 28.5048 100.214 28.7611 99.2852 29.2097C97.9076 29.8825 96.4979 30.2669 94.9601 30.363C93.9669 30.4271 92.9738 30.6193 91.9806 30.7795C89.3215 31.2601 86.6624 31.7406 84.0033 32.2532C83.1382 32.4134 82.2732 32.5736 81.4082 32.7018C77.5957 33.2784 73.9755 34.9444 70.0349 34.9444C69.8426 34.9444 69.6504 34.9764 69.4902 35.0405C67.4398 35.5852 65.3574 36.1618 63.307 36.6424C62.3458 36.8667 61.3206 36.8987 60.3275 36.9948C59.2702 37.0909 58.213 37.0909 57.1878 37.3152C55.2335 37.7317 53.2471 38.2122 51.3569 38.8209C49.1463 39.5258 46.6474 38.853 44.565 40.1345C44.4048 40.2306 44.0844 40.0384 43.8281 40.0704C41.6816 40.3908 39.503 40.6791 37.3565 41.0636C36.1391 41.2878 34.9857 41.8004 33.7683 42.0567C31.814 42.4412 29.7956 42.7295 27.8413 43.0819C27.6171 43.114 27.3928 43.3062 27.1685 43.3703C25.7268 43.7868 24.3172 44.2994 22.8755 44.6198C20.4727 45.1324 18.0058 45.4207 15.635 45.9974C13.6487 46.4779 11.6623 46.6061 9.64397 46.3818C8.45858 46.2537 7.40133 46.3818 6.53632 47.1828C6.53632 47.343 6.53632 47.4711 6.53632 47.5993C6.53632 48.8808 7.72171 49.8419 7.46541 51.2515C7.14503 53.0777 7.56152 54.8718 7.68967 56.6659C7.78579 58.1396 7.68967 59.6454 7.68967 61.1512C7.24115 61.1832 6.95281 61.3113 6.76058 61.2152C4.22961 60.4463 3.23645 63.2016 1.21808 63.6501C0.993815 63.7142 0.801589 64.2588 0.705476 64.6433C-0.383802 68.1033 -0.479915 70.7624 2.37143 73.2614C2.53162 73.4216 2.69181 73.6138 2.81996 73.806C2.65977 74.0303 2.53162 74.1905 2.46754 74.3507C2.33939 74.7351 2.27532 75.1196 2.17921 75.504C2.59569 75.6001 3.01218 75.7603 3.39664 75.7283C3.8772 75.6642 4.32573 75.3438 4.80629 75.2157C6.08779 74.8312 7.33726 74.1584 8.87506 74.3186C9.00321 75.0555 9.19544 75.7283 9.22748 76.4011C9.61193 83.129 9.99638 89.8568 10.3808 96.5847C10.6692 102.223 10.9575 107.894 11.2458 113.533C11.4701 118.434 11.6623 123.304 11.9186 128.206C12.0468 130.897 12.2711 133.62 12.4953 136.311C12.6875 138.49 12.9438 140.668 13.1361 142.879C13.2322 144.032 13.2963 145.154 11.9827 145.923C11.9827 145.923 12.0147 145.955 12.0468 145.987C12.9438 146.595 13.905 147.108 14.8981 147.589C15.4748 147.589 15.9233 147.781 16.2758 148.197C17.2369 148.582 18.198 148.966 19.1591 149.351C19.3514 149.351 19.5756 149.447 19.7999 149.511C23.1959 150.856 26.6239 152.138 29.9878 153.516C36.3954 156.175 42.7708 158.834 49.1143 161.621C54.3044 163.864 59.2382 166.651 64.5885 168.669C68.6572 170.207 72.5017 172.226 76.4744 173.956C82.6897 176.711 88.937 179.402 95.1844 182.093C96.3057 182.574 97.2668 182.926 97.3309 184.368C97.3309 184.624 97.6833 184.848 97.9076 185.169C99.157 184.432 100.278 184.4 101.656 184.944C103.13 185.521 103.322 186.771 103.835 188.116C105.18 186.931 106.494 186.963 107.935 187.507C108.352 187.668 108.896 187.443 109.377 187.379C109.409 187.059 109.505 186.867 109.473 186.707C109.185 185.105 109.281 184.944 110.787 184.464C111.267 184.304 111.748 184.144 112.228 183.983C114.663 183.022 117.034 181.901 119.533 181.1C122.16 180.267 124.915 179.818 127.542 179.018C132.124 177.672 136.673 176.198 141.222 174.757C141.863 174.564 142.568 174.404 143.209 174.212C144.715 173.763 146.22 173.315 147.694 172.834C148.751 172.482 149.776 172.001 150.834 171.713C153.076 171.168 155.383 170.816 157.626 170.175C160.573 169.342 163.489 168.317 166.404 167.388C167.109 167.164 167.814 166.875 168.518 166.587C172.107 165.081 176.175 165.113 179.571 162.967C179.764 162.839 180.052 162.871 180.308 162.806C181.878 162.39 183.48 161.973 185.018 161.493C188.19 160.5 191.361 159.475 194.533 158.513C196.071 158.065 197.769 157.937 199.178 157.232C201.998 155.822 204.913 154.733 207.861 153.708C209.046 153.291 210.263 152.33 211.609 152.907C213.051 153.484 213.82 152.266 214.781 151.753C215.229 151.497 215.197 150.312 215.389 149.607C213.211 148.87 213.147 148.87 213.115 146.788C213.083 143.968 213.243 141.117 213.179 138.298C213.179 136.311 212.826 134.293 212.826 132.275C212.826 129.712 213.051 127.149 213.147 124.586C213.147 123.913 213.019 123.24 212.987 122.535C212.923 121.702 212.666 120.869 212.826 120.1C213.275 117.505 212.506 114.974 212.57 112.411C212.57 110.841 212.442 109.272 212.474 107.702C212.506 103.985 212.602 100.269 212.698 96.5847C212.73 94.6625 212.858 92.7402 212.923 90.7859C212.955 89.8568 213.051 88.9278 213.019 87.9987C212.987 86.4609 212.858 84.891 212.762 83.129C214.781 82.8406 216.639 82.328 218.465 82.328C220.195 82.328 221.316 81.5271 222.342 80.4378C222.726 80.0533 222.95 79.3485 222.982 78.7718C223.175 76.2409 221.765 74.3506 220.227 72.5886M5.57519 71.6915C2.88403 71.1149 2.37143 69.4489 2.43551 67.815C2.46754 66.6616 2.852 66.4053 4.54999 66.085C5.54315 67.7829 6.34409 69.513 5.57519 71.7236M7.75375 66.5335C7.3693 65.8927 6.98485 65.252 6.40817 64.2908C8.01005 64.6112 7.8819 65.5723 7.75375 66.5335ZM206.996 54.7116C207.925 54.3271 209.078 54.4553 210.231 54.3272C210.007 55.3524 209.27 55.3203 208.726 55.4485C204.785 56.4096 200.812 57.3707 196.84 58.2998C192.899 59.2609 188.99 60.4463 184.954 61.023C184.025 61.1512 183.096 61.5356 182.166 61.8239C182.134 61.6317 182.07 61.4715 182.006 61.2793C182.647 61.1191 183.288 60.9589 183.929 60.7347C187.549 59.5172 191.361 58.9406 195.046 58.0115C199.05 57.0183 203.119 56.3455 206.964 54.7116M191.233 49.97C192.963 50.2263 194.725 50.5467 196.423 50.9632C198.986 51.604 201.517 52.3408 204.08 53.0777C204.369 53.1418 204.625 53.334 204.977 53.4942C203.247 54.9359 201.133 54.4553 199.307 55.032C197.48 55.6087 195.558 55.9611 193.668 56.3776C191.778 56.794 189.92 57.1785 187.741 57.6591C188.222 55.5766 187.613 53.8145 188.254 52.0204C188.862 50.3224 189.439 49.7137 191.265 49.97M207.06 24.0837C206.355 26.3583 205.682 28.665 203.792 30.2669C201.421 32.2853 198.954 34.2396 196.455 36.1618C195.943 36.5783 195.206 36.8026 194.565 36.8987C193.444 37.0589 192.547 36.6744 191.842 35.6172C189.599 32.1892 189.279 28.633 190.817 24.7885C194.341 24.4361 197.705 24.0837 201.101 23.7312C201.293 24.9487 200.941 25.8457 200.236 26.6146C198.602 28.5048 196.968 30.4591 195.238 32.2853C194.661 32.894 193.796 33.2464 192.835 33.8551C192.931 34.2716 192.899 35.1046 193.251 35.2968C193.7 35.5531 194.501 35.425 195.014 35.1687C195.782 34.7842 196.487 34.2075 197.096 33.5668C198.826 31.7727 200.716 30.0747 202.094 28.0243C202.895 26.8709 204.176 25.8457 204.24 24.1798C204.24 23.8914 204.913 23.4109 205.33 23.3468C205.842 23.2507 206.419 23.4749 206.899 23.571C206.996 23.8273 207.092 23.9555 207.06 24.0516M186.652 33.6629C186.171 32.926 185.819 32.1251 185.37 31.3562C183.896 28.9854 183.929 26.4224 184.505 23.8914C185.018 21.6488 185.883 19.5023 186.524 17.4198C191.009 16.0742 202.094 16.0422 208.373 17.3558C207.957 18.413 207.604 19.3421 207.188 20.3993C206.547 20.3353 205.842 20.3993 205.33 20.1751C204.144 19.6304 202.991 19.7586 201.87 20.2391C199.114 21.4245 196.071 21.3284 193.187 21.9051C192.835 21.9692 192.451 21.8731 192.066 21.841C192.386 20.4954 192.675 19.246 192.963 17.9965C191.489 17.0995 190.272 17.5159 188.894 17.9965V19.5023C188.894 20.0149 189.087 20.6236 188.83 20.976C187.677 22.9303 187.965 25.1409 187.581 27.2233C187.228 29.0815 187.613 31.0678 187.677 33.0221C187.677 33.4386 187.709 33.8551 187.773 34.624C187.228 34.1755 186.844 33.9833 186.652 33.6629ZM171.722 42.3771C173.869 43.6266 176.24 44.2353 178.61 44.7799C180.436 45.1964 182.231 45.8051 184.153 46.3177C183.864 50.5467 181.398 54.0388 179.956 57.8833C181.782 58.492 182.935 57.4668 184.057 54.4233C182.647 53.2058 183.8 51.9243 184.217 50.7389C185.21 47.9837 186.524 45.3566 187.485 42.5693C187.901 41.3199 188.766 40.583 189.599 39.7821C189.791 39.5899 190.4 39.5258 190.592 39.686C190.849 39.9102 191.137 40.4228 191.073 40.7432C190.753 41.9606 190.304 43.114 189.92 44.2994C189.215 46.4779 188.574 48.6885 187.805 50.835C187.389 52.0204 186.748 53.1097 186.267 54.2631C185.723 55.5766 185.274 56.9222 184.665 58.6202C178.258 60.4463 171.274 61.2473 164.193 63.3618C164.674 62.6249 164.866 62.2404 165.122 61.9201C165.731 61.0871 165.987 60.2221 165.795 59.1008C165.603 58.0756 165.859 56.9863 165.955 55.929C166.052 55.1922 166.308 54.4553 166.34 53.6864C166.404 51.8282 167.077 50.3545 168.486 49.073C169.159 48.4643 169.319 47.3109 169.704 46.3818C169.832 46.0935 169.864 45.8051 170.024 45.1324C173.068 45.9013 175.919 46.574 178.77 47.3429C180.084 47.6954 180.981 47.7274 182.839 47.1828C182.327 46.9265 182.006 46.6702 181.654 46.574C179.635 46.1255 177.617 45.7411 175.599 45.2285C174.061 44.844 172.587 44.2994 171.081 43.9149C170.313 43.7227 169.896 43.3382 170.152 42.6334C170.441 41.8325 171.113 41.9286 171.722 42.281M95.3125 72.4925C94.832 72.3964 94.2232 72.108 93.8708 72.2682C92.1088 73.1012 90.571 72.2041 88.9691 71.8197C86.9827 71.3071 84.9644 70.7304 82.9781 70.1858C80.9276 69.6411 78.8132 69.1926 76.7948 68.5198C75.7375 68.1674 74.8085 67.4626 73.8473 66.9179C73.591 66.7577 73.3347 66.3733 73.1105 66.4053C71.028 66.6937 68.8495 65.7966 66.799 66.6937C66.4466 66.8539 66.1583 67.0781 65.87 67.3344C64.8768 68.1354 64.8768 68.2315 65.7738 69.7693C65.4214 70.0256 64.9409 70.2498 64.6525 70.6343C64.1079 71.3391 63.5312 71.6275 62.6021 71.5954C61.3206 71.5634 61.1284 71.8517 60.808 73.0691C60.4876 74.3186 60.0712 75.5681 59.6867 76.8816C57.1557 77.0738 55.0092 76.3049 53.0229 75.0234C52.4142 74.639 51.8375 74.1584 51.2608 73.6779C50.9725 73.4536 50.4919 73.0691 50.556 72.8769C50.9404 71.275 49.723 69.8654 50.2036 68.2315C50.4599 67.2703 50.8123 67.014 51.7414 67.0781C52.4462 67.1422 53.1831 67.0461 54.016 66.982C53.7918 66.117 53.6316 65.4762 53.4073 64.6753C52.5744 64.5792 51.6453 64.5471 50.7482 64.3549C50.1715 64.2268 49.5308 63.9064 49.1784 63.4899C48.3454 62.3686 46.8396 57.1144 46.7115 55.4485C50.6841 55.032 54.6888 54.6475 58.6615 54.167C60.0071 54.0068 61.4808 53.7184 62.6342 53.0456C64.5244 51.9564 66.5748 51.8923 68.6252 51.5399C70.5475 51.2195 72.4377 51.0914 74.2959 50.3545C75.7055 49.8098 77.3394 49.8098 78.9093 49.5856C81.1519 49.2972 83.3945 49.0409 85.6372 48.7526C86.1177 48.6885 86.6303 48.5924 87.1109 48.4002C88.5846 47.8235 90.0584 47.2468 91.6602 47.375C91.9806 47.375 92.333 47.375 92.5893 47.2148C94.6077 45.7411 97.1707 45.7411 99.4133 44.7799C101.624 43.8188 104.091 43.4023 106.462 42.6975C107.711 42.313 108.961 41.8004 110.242 41.5121C111.908 41.1597 112.485 41.384 113.125 42.8897C114.439 45.9333 115.624 49.0409 116.938 52.1166C117.579 53.6544 118.38 55.1601 119.052 56.6979C119.501 57.7231 119.885 58.8124 120.238 59.8697C120.462 60.5424 120.174 60.9589 119.629 61.4715C118.444 62.5608 117.322 63.7462 116.361 65.0277C115.977 65.5723 115.913 66.4374 115.913 67.1742C115.913 68.6159 116.009 70.0576 116.105 71.8197C113.286 71.8197 110.787 73.2934 107.999 72.5886C107.391 72.4284 106.654 72.7808 105.949 72.8128C103.706 72.973 101.432 73.2293 99.1891 73.2293C97.9716 73.2293 96.7222 72.7488 95.5047 72.4925M95.8892 76.8816C95.3125 76.7855 94.7038 76.6574 94.0951 76.5612C94.864 75.7283 95.4407 76.1448 95.8892 76.8816ZM91.5 77.4903C92.9738 78.0991 93.4223 79.1563 92.9738 80.6941C92.2049 80.5019 91.468 80.1815 90.6991 80.1174C88.2963 79.8611 86.31 78.3874 84.0033 77.8748C83.1382 77.6826 82.2732 77.5224 81.4723 77.2981C80.0947 76.8816 78.7491 76.4651 77.3715 75.9846C74.2318 74.9273 71.0921 73.8701 67.8243 72.7808C67.9204 72.6527 68.0165 72.3964 68.1446 72.3643C70.0669 71.9158 71.9891 71.1789 74.0396 71.7876C77.7559 72.909 81.4723 73.9662 85.1566 75.1196C87.3031 75.8244 89.4176 76.6574 91.5 77.4903ZM90.6991 74.2866C90.6991 74.2866 90.7952 74.0303 90.8593 73.9021C91.5321 74.1584 92.2049 74.4147 92.9097 74.671C91.8845 75.3118 91.3078 74.7992 90.7311 74.2545M41.6816 63.3618C43.2835 64.0025 44.7892 64.8675 46.327 65.6044C46.2629 65.7646 46.2309 65.9248 46.1668 66.085C45.3018 65.9888 44.4048 65.9888 43.6038 65.7325C41.201 65.0277 38.8302 64.2268 36.4594 63.4899C33.2236 62.4967 29.9878 61.5997 26.7841 60.5104C24.2211 59.6454 21.6901 58.5561 19.1591 57.4348C20.0562 57.1785 20.8892 57.3707 21.7221 56.73C22.1707 56.3776 23.324 56.6339 24.0609 56.8902C26.3356 57.5629 28.6102 58.2998 30.8529 59.1328C34.4731 60.4784 38.0934 61.888 41.6816 63.3618ZM36.5235 58.5561C37.6769 57.6911 38.5098 57.1144 39.2788 56.4737C39.8554 55.9611 40.368 55.3523 41.0729 54.6155C42.8349 54.4553 43.8281 55.1601 44.1805 57.1465C44.3407 58.0755 44.4368 59.0046 44.629 59.9337C44.7892 60.6386 45.0776 61.3434 45.3339 62.2084C45.2057 62.2084 44.8853 62.3045 44.565 62.2404C41.7136 61.6638 39.5671 59.6774 36.4594 58.5561M46.0707 68.8402C50.8443 77.234 52.7346 77.17 55.7461 78.6117C54.4966 78.7718 53.5035 78.9961 52.5423 79.0281C51.9656 79.0281 51.2288 78.868 50.8443 78.5155C49.4987 77.2981 48.0891 76.0807 46.9998 74.671C45.7824 73.0371 45.3659 71.1149 46.0707 68.9043M120.238 65.252C120.494 66.8539 120.718 68.4557 120.846 70.0576C120.846 70.378 120.462 70.8586 120.142 71.0187C119.725 71.243 119.181 71.211 118.444 71.3071C118.251 71.1469 117.803 70.9867 117.643 70.6663C116.938 69.2887 117.483 66.0209 118.604 64.8355C118.828 64.6112 119.277 64.387 119.565 64.451C119.821 64.5151 120.174 64.9316 120.206 65.2199M112.485 74.9914C114.887 74.5749 117.29 74.0943 119.693 73.6138C120.174 73.5177 120.686 73.3575 121.167 73.3575C122 73.3575 122.801 73.4856 123.41 72.6847C123.538 72.5245 123.858 72.4604 124.082 72.4284C126.485 71.9158 128.856 71.3391 131.259 70.9226C133.469 70.5382 135.712 70.3139 137.955 70.0256C138.275 69.9935 138.627 70.0256 138.884 69.8654C141.607 68.1674 144.875 68.7761 147.758 67.7189C147.822 67.7189 147.886 67.7189 147.95 67.7189C150.77 66.2451 154.069 67.2703 156.921 65.8927C157.722 65.5083 158.779 65.7325 159.708 65.5403C164.354 64.6433 168.967 63.6821 173.58 62.7851C174.766 62.5608 175.983 62.4967 177.201 62.3366C177.201 62.4967 177.233 62.6249 177.265 62.7851C174.894 63.3297 172.555 63.8744 170.184 64.419C168.486 64.8355 166.756 65.252 165.058 65.6685C164.129 65.8927 163.232 66.085 162.303 66.3092C161.63 66.4694 160.893 66.4694 160.317 66.7898C158.779 67.6548 157.049 67.8791 155.415 67.9431C152.852 68.0713 150.481 68.9363 148.046 69.4169C146.637 69.7052 145.195 69.8974 143.785 70.0897C143.241 70.1858 142.664 70.1537 142.087 70.2498C140.005 70.6663 137.89 71.0828 135.808 71.5313C134.783 71.7556 133.758 72.076 132.7 72.3323C128.76 73.3895 124.883 74.6069 120.782 74.9273C119.02 75.0875 117.29 75.1196 115.528 75.2477C115.272 75.2477 115.016 75.2797 114.791 75.3438C111.203 76.6253 107.391 76.4011 103.738 77.0738C106.558 75.9525 109.505 75.472 112.485 74.9914ZM128.6 67.9752C129.24 67.4946 129.881 66.982 130.522 66.5014C131.707 67.0781 131.227 68.1033 131.643 69.0965C128.375 69.513 125.46 70.5702 122.256 70.5061C122.256 68.68 122.224 67.0461 122.256 65.4442C122.288 64.6433 123.025 64.1627 123.89 64.3229C124.627 64.451 125.332 64.7394 126.069 64.9316C127.446 65.316 128.6 65.8607 128.247 67.6228C128.247 67.6868 128.407 67.7829 128.6 68.0072M163.713 58.7483C163.521 59.2609 163.36 59.8056 163.168 60.3182C163.168 60.3182 163.168 60.3823 163.168 60.4143C163.168 60.4143 163.168 60.4143 163.136 60.4143C163.136 61.4395 163.136 62.4327 163.136 63.4899H160.605C161.278 62.3686 161.855 61.3754 162.463 60.4463C162.527 60.3502 162.88 60.4143 163.104 60.4463V60.3823C162.944 59.7735 162.72 59.1648 163.649 58.8124M170.088 14.184C170.377 13.9918 170.953 14.0238 171.338 14.184C171.979 14.4083 172.523 14.7607 173.356 15.1772C172.811 16.1383 172.363 17.0674 171.786 17.9324C171.402 18.4771 170.056 18.6373 169.736 18.1247C169.255 17.3558 168.871 16.4587 168.839 15.5937C168.839 15.1452 169.576 14.5685 170.12 14.2161M164.546 42.6014C165.315 40.7112 164.834 38.6608 165.219 36.7385C165.635 34.7522 166.148 32.8299 166.532 30.8436C166.885 29.0174 167.525 27.2554 167.685 25.3652C167.814 23.7953 168.679 22.2895 169.287 20.7838C169.383 20.5595 169.736 20.3353 170.024 20.2712C170.857 20.0469 171.722 19.9188 172.587 19.7586C172.683 19.9508 172.844 20.111 172.844 20.2712C172.844 20.7838 172.811 21.2964 172.715 21.7769C171.178 29.9465 169.8 38.1482 167.557 46.3818C166.628 45.9653 166.02 45.645 165.699 45.5168C165.283 44.6198 164.994 43.979 164.706 43.3382C164.61 43.114 164.514 42.8256 164.578 42.6334M163.424 49.2972C164.898 50.1943 165.154 50.6108 164.706 51.5399C164.257 52.4369 163.905 53.3019 163.969 54.3592C163.969 54.7116 163.36 55.0961 163.04 55.4485C162.912 55.3844 162.752 55.3203 162.624 55.2242C162.88 53.334 163.136 51.4117 163.456 49.2652M158.971 12.454C159.932 12.7103 160.701 13.0627 160.765 14.3442C159.9 14.8248 159.163 15.4335 158.138 14.985C157.882 13.8957 158.298 13.1588 158.971 12.454ZM153.621 38.5967C153.973 36.3861 154.262 34.1114 155.383 32.061C155.639 31.5805 155.383 30.8436 155.479 30.2349C155.8 27.9282 156.12 25.6535 156.536 23.3468C156.761 22.1934 157.177 21.0401 157.433 19.8867C157.626 19.0858 157.69 18.2848 157.818 17.3558C159.035 16.9713 160.221 16.5548 161.759 16.0422C161.598 17.2276 161.47 18.0606 161.342 18.9256C160.926 21.4566 160.509 23.9555 160.093 26.4544C159.548 29.8504 159.067 33.2464 158.427 36.6104C158.074 38.5646 157.562 40.4869 156.921 42.3771C156.536 43.5305 155.767 44.5877 155.159 45.677C153.685 45.8372 153.493 45.8372 153.461 44.5557C153.365 42.5693 153.269 40.5189 153.589 38.5326M153.973 48.4963C153.973 48.4963 154.358 48.7206 154.39 48.9128C154.902 51.668 154.486 54.4233 153.941 57.1144C153.813 57.7552 152.916 58.2357 152.179 58.7163C152.115 55.1922 151.218 51.604 153.941 48.4963M139.845 35.1366C138.723 34.8803 137.602 34.624 136.481 34.3357C135.36 34.0473 134.27 33.6949 133.021 33.3425C134.559 32.6057 136.929 33.2144 139.845 35.1366ZM133.854 35.3929C134.783 35.5211 135.712 35.7453 136.609 36.0016C139.877 36.8667 143.145 37.7637 146.445 38.6928C147.502 38.9811 148.431 38.9171 149.104 37.8278C149.937 38.02 150.738 38.2122 151.603 38.4045C151.603 40.1345 151.667 41.7364 151.571 43.3382C151.506 43.979 151.026 44.5557 150.77 45.1964C150.545 45.7411 150.129 46.3818 150.225 46.8944C150.802 50.6749 150.225 54.4233 149.937 58.1717C149.808 59.8376 149.776 61.5356 149.68 63.2016C149.841 63.2977 150.001 63.4258 150.193 63.4899C150.898 63.2016 151.635 62.9132 152.468 62.5608C152.724 63.0093 152.948 63.4258 153.172 63.8103C155.095 63.586 155.928 62.8171 156.568 60.6706C154.967 59.7735 155.031 59.8056 155.511 57.9154C155.864 56.4737 155.928 54.9359 156.184 53.4621C156.376 52.3729 156.761 51.3156 157.017 50.1943C157.209 49.4254 157.498 48.5924 157.433 47.8235C157.273 45.8051 158.427 44.3635 159.324 42.7936C159.484 42.5373 160.253 42.3451 160.605 42.4732C162.752 43.1781 163.136 44.2033 162.303 46.3818C161.951 47.3109 161.791 48.3041 161.598 49.2652C161.214 51.4758 160.861 53.7184 160.477 55.9611C160.028 58.492 159.548 60.991 159.067 63.6821C158.619 63.8423 158.042 64.0986 157.433 64.1947C153.813 64.8355 150.225 65.6685 146.573 66.2131C142.664 66.8218 138.788 67.7829 134.911 68.5839C134.366 68.68 133.854 68.7441 133.149 68.8402V64.6112C131.932 64.2908 131.163 63.7142 131.451 62.3686C131.483 62.2084 131.451 61.9201 131.323 61.8239C129.657 60.2861 130.394 58.2998 130.33 56.5057C130.266 54.6796 130.33 52.8534 130.362 51.0593C130.362 50.771 130.362 50.4506 130.362 50.1302C130.746 47.7915 131.515 45.4207 131.451 43.0819C131.387 40.8073 132.412 38.8209 132.316 36.5783C132.316 35.425 132.764 35.1366 133.886 35.2968M125.748 32.4134C124.499 32.3493 122.224 31.5164 121.615 30.9397C123.41 30.7795 124.787 31.2601 125.748 32.4134ZM117.899 40.0704C116.073 37.5074 117.803 34.9124 117.643 32.3173C118.988 31.8688 120.014 32.5095 121.071 32.7018C122 32.894 122.897 33.1183 123.826 33.2464C125.332 33.4386 125.876 33.9512 125.748 35.457C125.332 40.1665 124.851 44.844 124.371 49.5535C124.05 52.6612 123.794 55.8009 123.442 58.9085C123.345 59.7415 123.377 60.4784 124.146 60.8308C124.467 60.991 125.043 60.8628 125.364 60.6706C126.005 60.2861 126.581 58.8124 126.197 58.3319C124.947 56.762 125.652 55.1281 125.812 53.4942C126.005 51.636 126.037 49.7458 126.229 47.8876C126.709 42.8256 127.35 37.7957 127.735 32.7018C127.991 29.0495 127.863 25.3972 127.959 21.7769C127.959 20.976 128.151 20.143 128.247 19.3421C128.407 17.6441 128.503 15.9461 128.664 14.2481C128.696 13.8316 128.856 13.4151 128.92 13.0627C129.144 12.9986 129.272 12.9346 129.401 12.9666C133.149 13.7996 132.732 14.2481 132.7 17.4839C132.7 19.7265 132.54 21.9692 132.284 24.2118C132.06 26.1341 131.643 28.0563 131.355 29.9786C131.259 30.5232 131.195 31.0999 131.131 31.6445C130.938 33.9512 130.81 36.29 130.586 38.5967C130.33 41.3519 129.977 44.1072 129.657 46.8303C129.497 48.272 129.336 49.7137 129.208 51.1554C128.984 53.7825 128.792 56.4096 128.536 59.0367C128.439 59.9978 128.183 60.9589 127.991 61.888C126.453 61.7919 125.332 61.7278 124.21 61.6638C123.506 61.6317 123.057 61.3754 122.897 60.5745C122.32 57.1465 120.718 54.0708 119.309 50.8991C118.476 49.0089 117.995 46.9905 117.322 45.0042C117.194 44.6518 117.066 44.2994 116.938 43.947C115.913 41.7684 115.977 41.5121 117.867 40.0384M54.0801 40.1986C60.4556 38.9811 66.7991 37.6996 73.1745 36.5463C77.7559 35.7133 82.3693 35.0085 86.9507 34.1755C89.3535 33.727 91.7243 33.0862 94.1271 32.6057C97.6513 31.9329 101.207 31.4203 104.7 30.6193C106.333 30.2349 108.031 30.2669 109.633 29.53C111.427 28.7291 113.446 28.8252 115.496 29.1456C115.496 30.0426 115.048 30.5232 114.215 30.6514C110.306 31.2921 106.398 31.9649 102.489 32.5736C98.0357 33.2784 93.5505 33.8872 89.0652 34.624C85.2207 35.2648 81.4082 35.9376 77.5957 36.6744C75.0007 37.187 72.4697 37.9239 69.8747 38.4685C67.1515 39.0772 64.4283 39.5578 61.7371 40.1025C59.8469 40.4869 57.9246 40.9034 56.0344 41.2878C52.7025 41.9927 49.3706 42.5693 46.0707 43.4023C42.8349 44.2353 39.5351 44.4596 36.2672 44.8761C35.3381 45.0042 34.409 45.1644 33.4799 45.2925C32.3586 45.4848 31.2693 45.645 30.148 45.8051C30.116 45.677 30.084 45.5488 30.0519 45.4207C37.9972 43.3382 46.0387 41.7043 54.1122 40.1345M39.0545 46.3177C43.2514 45.4848 47.4163 44.5877 51.6132 43.7227C51.9336 43.6586 52.2219 43.5625 52.5423 43.5305C56.0024 42.8577 59.4945 42.249 62.9225 41.5441C67.1515 40.6471 71.3484 39.5578 75.6094 38.7248C79.9985 37.8598 84.3877 37.123 88.7768 36.3861C95.9853 35.2327 103.194 34.0794 110.434 32.9901C111.299 32.862 112.196 32.9901 113.157 32.9901C113.862 34.3677 114.567 35.7453 113.99 37.4754C113.702 37.6035 113.35 37.7957 112.997 37.8598C109.665 38.5326 106.494 39.8141 103.29 40.9354C100.695 41.8645 97.9716 42.4732 95.3446 43.2421C92.7495 44.011 90.1865 44.8761 87.5594 45.5168C84.5479 46.2216 81.5043 46.6381 78.4928 47.2789C76.7948 47.6313 75.1288 48.1759 73.4308 48.5604C72.6619 48.7206 71.7969 48.5604 71.028 48.7526C67.8243 49.4254 64.6525 50.2904 61.4488 50.835C58.3411 51.3797 55.2014 51.604 52.0938 51.9564C51.453 52.0204 50.8443 52.0525 50.2356 52.1486C47.2241 52.5651 44.3407 52.0845 41.5534 51.0273C41.233 50.8991 40.7204 50.7389 40.4962 50.8991C39.4069 51.7321 38.1895 52.501 37.3885 53.5903C36.6837 54.5514 35.9789 55.4805 35.0177 56.2174C34.6974 56.4737 34.377 56.8261 34.1527 57.1465C33.8003 57.6591 33.3838 57.7552 32.8392 57.5629C31.9101 57.2426 30.981 56.8902 30.0199 56.5057C28.6743 55.9931 27.3287 55.4805 25.9511 54.9359C25.5346 54.7757 25.1181 54.6796 24.7016 54.4873C23.7726 54.0068 23.7085 53.5582 24.4774 52.501C22.6512 51.668 20.1843 52.9495 18.6465 50.6108C19.896 50.2584 21.0494 49.8419 22.2347 49.5856C27.8413 48.4643 33.4799 47.4391 39.1186 46.3177M27.3287 46.0935C25.5987 47.5031 18.8388 48.8167 16.4359 48.1759C20.0882 47.0867 23.6124 46.4779 27.3287 46.0935ZM14.2253 48.5924C14.0652 49.1371 14.0331 49.6817 13.8089 49.7778C13.1361 50.0661 12.5274 49.8739 11.9186 48.8808C12.7516 48.7526 13.3603 48.6885 14.2253 48.5604M13.7448 126.796C13.7448 125.066 13.4244 123.336 13.2963 121.606C13.1681 119.94 12.8157 118.242 13.2963 116.544C13.3924 116.192 13.2963 115.807 13.2642 115.423C12.8798 113.02 12.9118 110.617 12.9438 108.182C12.9438 107.061 12.6875 105.94 12.6235 104.818C12.3992 101.358 12.1429 97.9303 12.0788 94.4703C12.0147 91.5228 12.239 88.5753 12.207 85.6599C12.1749 83.0969 11.9507 80.5019 11.7905 77.9389C11.5983 75.1196 11.374 72.3002 11.1497 69.4809C11.0536 68.0392 10.8934 66.5975 10.7973 65.1559C10.6692 63.2656 10.6371 61.4075 10.4449 59.5172C10.2206 57.3387 9.83619 55.1601 9.54785 52.9816C9.4197 52.0525 9.32359 51.1234 9.25952 50.1623C9.22748 49.5856 9.45174 49.1691 10.1245 49.2011C10.2206 49.2652 10.3808 49.3613 10.3808 49.4254C10.6371 51.5078 10.8934 53.6223 11.1497 55.7048C11.2138 56.0572 11.0857 56.5377 11.2779 56.8261C12.5594 59.0687 12.3351 61.5997 12.5914 64.0025C13.104 68.8722 13.4564 73.774 13.7768 78.6437C13.937 81.0785 13.8729 83.5454 14.0011 85.9803C14.0652 87.3579 14.4176 88.7035 14.5137 90.0811C14.7059 92.8363 14.8341 95.5916 14.9942 98.3468C15.0583 100.045 15.1224 101.711 15.1544 103.409C15.1544 105.683 15.1544 107.926 15.1544 110.201C15.1544 112.155 15.1865 114.109 15.2185 116.032C15.2185 117.345 15.3146 118.659 15.3467 120.004C15.4107 122.087 15.4748 124.137 15.5389 126.22C15.635 131.057 15.7311 135.895 15.7952 140.733C15.7952 141.534 15.7952 142.334 15.7952 143.135C13.969 137.849 13.7448 132.307 13.8089 126.764M94.7679 180.555C92.5573 179.626 90.3787 178.697 88.2002 177.704C86.7264 177.031 85.3168 176.198 83.9071 175.461C83.7469 175.365 83.5547 175.269 83.3945 175.237C80.9917 174.885 78.8132 173.859 76.6666 172.866C73.9434 171.617 71.1562 170.431 68.4009 169.182C65.8059 167.997 63.2749 166.779 60.6799 165.594C57.4761 164.12 54.2724 162.646 51.0366 161.237C44.5009 158.417 37.9652 155.662 31.4295 152.875C28.0015 151.433 24.6055 149.959 21.1775 148.518C20.2484 148.133 19.5115 147.781 19.5436 146.531C19.5756 145.634 18.4543 145.058 18.6145 144C18.6786 143.456 18.4863 142.911 18.4863 142.366C18.4863 141.437 18.6465 140.508 17.7174 139.803C17.4291 139.611 17.333 139.003 17.301 138.586C17.1408 134.421 17.0447 130.224 16.8845 126.027C16.7563 122.663 16.5321 119.331 16.8845 115.967C17.0447 114.558 16.7563 113.116 16.5321 111.706C16.2758 110.008 16.0515 108.343 16.4039 106.645C16.5321 106.036 16.5321 105.363 16.4039 104.786C16.2117 103.921 15.9874 103.12 16.3398 102.223C16.468 101.871 16.1796 101.39 16.1476 100.942C16.0835 100.077 15.8272 99.1478 16.0195 98.3148C16.2117 97.5459 16.1156 96.8731 16.0195 96.1362C15.8593 94.214 15.7952 92.2917 15.6991 90.3695C15.5389 87.0055 15.4107 83.6416 15.1865 80.2776C15.0583 78.5155 14.7379 76.7855 14.5457 75.0555C14.4176 73.9342 14.5457 72.8128 14.3215 71.7236C13.8729 69.8013 13.937 67.9431 14.3215 65.9888C14.5137 65.0918 14.1613 63.9705 13.7768 63.0734C13.104 61.5036 13.7127 60.0298 13.7768 58.2678C14.6418 58.5241 15.3467 58.6843 16.0515 58.9406C18.5504 59.9337 21.0173 61.0871 23.5803 61.9521C26.5598 62.9773 29.6034 63.7142 32.6149 64.6433C34.7614 65.316 36.8759 66.117 39.0224 66.8218C40.368 67.2703 41.7777 67.6868 43.0271 68.0713C43.1873 68.3596 43.3155 68.4557 43.2835 68.5839C43.0912 71.9799 44.8213 74.5749 46.8396 77.0418C47.2882 77.5864 47.7367 78.0991 48.1852 78.6117C49.6269 80.2135 51.3249 81.3349 53.5996 81.2708C54.1762 81.2708 54.7529 81.2708 55.2976 81.2708C59.6226 81.3028 62.0895 79.3165 62.9545 75.0555C62.9866 74.8953 63.1147 74.7351 63.307 74.3507C64.7166 74.607 66.1903 74.7351 67.632 75.1196C70.0669 75.7603 72.4377 76.5612 74.8725 77.234C78.8132 78.3874 82.7217 79.4767 86.6303 80.63C88.873 81.3028 91.0515 82.1038 93.2621 82.7765C94.4155 83.129 94.6077 84.058 94.6718 84.9871C94.896 88.7355 95.0242 92.516 95.2164 96.2644C95.3766 99.5322 95.6329 102.8 95.761 106.036C95.8251 107.638 95.5688 109.272 95.5688 110.874C95.5688 113.693 95.6329 116.512 95.6329 119.331C95.6329 120.453 95.5368 121.542 95.5047 122.663C95.5047 124.842 95.5048 127.02 95.5368 129.199C95.5368 129.84 95.4727 130.481 95.5368 131.089C96.0494 135.542 95.5688 139.996 95.6009 144.481C95.6009 145.346 95.7931 146.211 95.9212 147.076C95.9533 147.46 96.0173 147.813 96.0173 148.197C96.0173 152.843 95.8892 157.488 95.9533 162.134C96.0173 165.273 96.3377 168.413 96.4659 171.553C96.594 174.084 96.6261 176.583 96.6261 179.114C96.6261 180.78 96.2096 181.036 94.7358 180.427M102.361 182.638C102.201 182.606 101.88 182.606 101.848 182.51C101.304 181.292 100.246 180.651 99.2852 179.818C98.8687 179.434 98.7405 178.569 98.6765 177.928C98.4522 174.34 98.3241 170.784 98.1318 167.196C98.0037 164.633 97.8755 162.038 97.7474 159.475C97.6513 157.552 97.459 155.63 97.459 153.708C97.459 151.081 97.7474 148.454 97.5872 145.827C97.459 143.456 98.0037 141.117 97.4911 138.746C97.3629 138.17 97.5552 137.497 97.5872 136.856C97.6513 135.414 98.0998 133.973 97.2668 132.595C97.1707 132.435 97.1066 132.211 97.1707 132.05C97.8755 130 96.6261 128.078 96.8503 126.059C97.0746 124.265 97.0425 122.407 97.0425 120.613C97.0425 118.979 96.9144 117.345 96.9464 115.743C96.9785 114.205 97.0746 112.636 97.2989 111.13C97.5872 109.4 97.9716 107.702 97.1707 106.036C96.8503 105.363 96.7222 104.786 97.2348 104.082C97.459 103.793 97.5231 103.281 97.4911 102.864C97.3309 101.134 97.0105 99.4041 96.9144 97.642C96.8503 96.3605 97.1066 95.0469 97.1066 93.7334C97.1066 90.7539 97.0105 87.8064 97.0105 84.859C97.0105 83.8338 97.0105 82.8406 97.1066 81.8475C97.1066 81.495 97.2668 81.0465 97.4911 80.8222C97.8115 80.5019 98.3241 80.1174 98.6765 80.1815C99.0289 80.2456 99.5415 80.7582 99.6056 81.1426C99.8619 82.9367 100.118 84.7629 100.15 86.589C100.214 90.3695 99.8939 94.1819 100.214 97.9303C100.535 101.743 100.086 105.587 100.599 109.4C100.823 111.13 101.047 112.892 101.143 114.654C101.207 115.903 100.983 117.153 100.983 118.402C100.983 120.228 101.047 122.055 101.079 123.849C101.079 124.586 100.983 125.322 101.015 126.059C101.207 131.986 101.4 137.881 101.656 143.808C101.784 146.948 102.137 150.056 102.265 153.195C102.361 155.502 102.265 157.841 102.329 160.179C102.617 166.331 102.937 172.482 103.29 178.633C103.386 180.075 103.162 181.452 102.393 182.702M211.289 149.062C211.16 150.216 210.52 150.856 209.463 151.241C206.932 152.106 204.401 153.099 201.838 153.9C197.577 155.246 193.284 156.495 189.023 157.777C187.1 158.353 185.146 158.898 183.256 159.539C178.002 161.301 172.844 163.223 167.557 164.825C162.271 166.427 156.857 167.644 151.539 169.15C146.893 170.463 142.28 171.969 137.666 173.315C133.822 174.436 129.913 175.397 126.037 176.454C124.819 176.775 123.602 177.095 122.416 177.512C118.988 178.729 115.592 180.075 112.132 181.164C110.146 181.773 108.16 182.862 105.917 182.157C105.725 182.125 105.565 182.029 105.276 181.901C105.02 177.32 104.86 172.898 104.571 168.445C104.219 162.871 103.77 157.328 103.418 151.753C103.29 149.575 103.354 147.364 103.258 145.186C103.066 141.245 102.809 137.305 102.553 133.332C102.521 132.723 102.361 132.082 102.489 131.506C102.937 129.103 102.233 126.764 102.137 124.393C102.072 122.727 102.265 121.029 102.265 119.331C102.265 116.288 102.265 113.212 102.265 110.137C102.265 108.15 101.944 106.164 102.201 104.05C102.681 104.146 103.034 104.146 103.258 104.306C104.443 105.171 105.693 105.203 107.038 104.786C107.391 104.69 107.839 104.626 108.128 104.786C109.249 105.299 110.114 104.85 111.139 104.434C112.869 103.697 114.727 103.281 116.553 102.832C116.906 102.736 117.386 103.024 117.771 103.217C118.764 103.729 119.821 104.242 120.718 104.882C121.423 105.363 121.936 106.132 122.544 106.741C122.865 107.061 123.249 107.285 123.922 107.798C123.794 106.933 123.73 106.548 123.698 106.164C123.57 104.338 123.858 103.953 125.716 103.793C126.645 103.729 127.638 103.729 128.536 103.921C130.81 104.37 131.451 104.082 132.284 101.999C132.412 101.679 132.508 101.326 132.572 101.166C133.694 100.75 134.687 100.365 135.648 99.9807C135.84 99.9167 136.032 99.7885 136.193 99.8205C139.364 100.397 141.959 98.3468 144.907 97.9303C145.772 97.8022 146.637 97.5138 147.47 97.2896C150.738 96.4566 154.037 95.5916 157.337 94.7586C157.818 94.6305 158.33 94.4703 158.811 94.4703C161.15 94.4703 163.456 94.4382 165.795 94.5664C166.596 94.6305 167.974 94.1819 167.974 95.8799C167.974 95.944 168.775 96.2323 169.095 96.1042C171.113 95.3353 173.292 94.9829 175.022 93.5091C176.015 92.6762 177.585 92.9004 178.546 91.8111C179.155 91.1063 179.86 90.5296 180.949 90.7219C181.269 90.7859 181.654 90.5296 182.006 90.3695C182.423 90.2093 182.775 89.8889 183.192 89.8248C186.652 89.152 190.048 88.1909 193.604 88.255C193.956 88.255 194.533 88.319 194.629 88.5113C195.526 90.2093 197.192 89.5365 198.089 89.1841C199.723 88.5753 201.005 88.9598 202.414 89.5044C203.279 89.8248 204.08 90.4015 205.234 89.7287C204.785 89.2161 204.433 88.7676 204.112 88.3831C206.323 87.7103 208.597 87.0055 211.096 86.2046C211.513 86.4288 211.353 87.0696 211.321 87.6783C211.321 90.818 211.321 93.9897 211.257 97.1294C211.193 100.846 211.064 104.53 210.968 108.246C210.968 109.624 210.968 111.002 211.032 112.411C211.16 115.679 211.353 118.947 211.481 122.215C211.545 124.554 211.481 126.86 211.481 129.199C211.481 132.531 211.481 135.863 211.481 139.163C211.481 140.156 211.321 141.149 211.257 142.174C211.225 142.687 211.16 143.199 211.257 143.68C211.769 145.506 211.513 147.3 211.321 149.126M104.475 98.1226H107.07C107.551 100.91 107.519 101.23 106.59 102.768C103.802 102.384 103.354 101.454 104.475 98.1226ZM117.579 96.4886C118.155 96.4566 118.732 96.841 119.309 97.0653C119.981 97.2896 120.654 97.5779 121.327 97.8342C121.359 97.7701 121.423 97.674 121.455 97.5779C120.943 97.0974 120.43 96.6168 119.693 95.976C121.039 95.5916 122.096 95.2392 123.153 94.9508C124.21 94.6945 125.236 95.5275 125.492 96.777C125.748 98.0585 125.364 98.6992 123.986 98.8274C121.295 99.1157 118.636 99.4681 116.041 100.269C114.343 100.782 112.645 101.166 110.947 101.583C110.594 101.679 110.21 101.679 109.761 101.743V97.0333C112.485 96.809 115.048 96.5527 117.611 96.4566M117.29 93.4451C117.867 89.953 120.526 88.4792 124.114 89.5685C123.89 91.5548 120.142 93.7654 117.29 93.4451ZM126.613 93.6693C126.197 93.0927 125.588 92.6441 124.979 92.0354C125.973 91.3947 126.709 90.8821 127.606 91.8432C127.799 92.0674 128.151 92.2597 128.407 92.2597C130.041 92.3237 130.458 93.5732 130.714 94.7906C130.97 96.1362 131.131 97.5459 129.817 98.6031C128.76 99.4681 127.991 100.686 126.357 100.718C126.357 100.525 126.229 100.269 126.325 100.205C127.799 99.1157 127.703 97.4498 127.735 95.944C127.735 95.1751 127.126 94.3742 126.645 93.6693M122.416 103.088C121.808 102.832 121.423 102.672 120.975 102.512C121.701 101.956 122.181 102.149 122.416 103.088ZM132.829 92.2597C134.398 92.0034 135.103 92.3878 135.424 93.7654C135.488 94.0538 135.52 94.3742 135.584 94.6945C135.936 96.2323 135.584 96.6809 133.758 96.8731C133.085 96.2323 133.213 95.4314 133.213 94.5984C133.213 93.8295 132.957 93.0606 132.829 92.2597ZM137.474 97.2575C137.634 95.1751 137.762 93.2849 137.923 91.2024C138.435 91.2024 139.044 91.2024 139.653 91.2024C142.888 91.2665 146.06 90.9461 149.008 89.4724C149.392 89.2802 149.873 89.2802 150.289 89.1841C151.795 88.7676 153.301 88.319 154.806 87.9026C154.87 87.9026 154.935 87.8385 154.967 87.8385C159.131 87.3579 162.848 85.3395 166.917 84.5706C167.589 84.4425 168.326 84.3784 168.967 84.5386C169.448 84.6347 170.056 85.0192 170.248 85.4677C171.049 87.2938 171.979 89.12 170.825 91.1704C170.697 91.3947 170.665 91.651 170.537 91.9713C169.704 91.9713 168.999 92.0354 168.326 91.9713C165.379 91.5869 162.431 91.8432 159.484 92.1636C158.875 92.2276 158.234 92.2276 157.594 92.3237C156.568 92.516 155.543 92.7723 154.518 92.9645C152.051 93.413 149.776 94.4062 147.245 94.7586C144.522 95.1431 141.895 96.1362 139.236 96.8731C138.723 97.0012 138.179 97.1294 137.474 97.2896M173.484 85.8201C173.388 85.5318 173.388 85.2114 173.356 84.9231C173.612 84.7949 173.741 84.6347 173.933 84.6347C177.905 84.3464 181.782 83.6095 185.562 82.4241C187.421 81.8475 189.343 81.463 191.233 80.9504C192.707 80.5339 194.181 80.0854 195.654 79.6048C197.545 78.9961 200.108 80.7582 200.204 82.7445C200.236 84.1221 198.858 85.6599 197.48 85.4997C194.341 85.0833 191.393 86.1725 188.35 86.4609C183.384 86.9414 179.091 89.0239 174.67 90.9782C174.445 91.0743 174.189 91.1063 173.677 91.2345C173.612 90.4976 173.26 89.6967 173.516 89.2481C174.189 88.0307 173.933 86.9735 173.516 85.8201M208.149 85.0192C206.932 85.1153 205.97 85.1794 204.881 85.2434C205.394 84.058 205.842 83.0649 206.259 82.0076C206.707 80.9184 206.515 79.9252 205.81 78.9961C205.618 78.7398 205.49 78.4515 205.33 78.1631C204.881 77.2661 204.433 76.369 203.984 75.4399C205.298 74.671 206.163 74.8312 207.476 75.7283C209.046 76.8175 209.559 78.2913 209.591 80.1174C209.591 80.9824 209.462 81.7834 208.758 82.328C207.925 82.9688 207.861 83.7697 208.149 85.0192ZM211.577 67.6868C211.417 69.0644 211.417 70.4421 211.321 71.8197C211.225 73.1012 210.744 73.5817 209.655 73.1012C207.829 72.3002 206.034 72.2682 204.272 73.0691C204.048 72.8449 203.856 72.7488 203.76 72.5886C202.703 70.5382 202.19 70.3139 199.883 70.7945C198.698 71.0508 197.448 72.0439 196.84 73.3575C197.609 73.0691 198.185 72.8769 198.73 72.6847C200.524 71.9799 201.005 72.1721 202.158 73.9342C201.613 74.7671 200.652 74.9594 199.755 75.0875C198.698 75.2477 197.705 75.4079 196.744 76.0486C195.943 76.6253 195.526 76.337 194.982 75.0875C192.771 78.3233 189.343 78.9641 185.883 79.5728C185.402 79.6369 184.922 79.8611 184.441 79.9893C180.821 81.1106 177.105 81.7193 173.324 81.7513C172.075 81.7513 170.825 81.463 169.608 81.1747C168.55 80.9184 167.653 80.9504 166.724 81.5591C166.148 81.9115 165.507 82.1999 164.834 82.3921C162.367 83.161 159.932 83.9619 157.433 84.6668C153.941 85.6599 150.385 86.4929 146.893 87.5181C143.369 88.5433 139.813 88.4152 136.225 88.1909C135.103 88.1268 133.886 88.5433 132.797 88.9918C131.675 89.4404 130.65 89.5365 129.497 89.2802C128.055 88.9278 126.677 88.5113 125.3 87.8385C122.833 86.589 120.494 87.6783 118.412 89.0879C116.714 90.2413 115.432 91.7791 115.368 94.3742C113.093 94.3742 111.011 94.5023 108.961 94.3742C106.654 94.214 104.732 94.7906 103.226 96.5527C102.97 96.8731 102.553 97.0653 102.169 97.3857C101.336 96.3284 101.528 95.1431 101.464 94.0858C101.368 92.4519 101.432 90.818 101.464 89.1841C101.464 87.8705 101.56 86.557 101.528 85.2434C101.528 83.7377 101.4 82.2319 101.304 80.5019C102.809 80.2135 104.251 79.9572 105.725 79.7009C111.043 78.7078 116.361 77.7146 121.647 76.7214C124.979 76.0807 128.247 75.2477 131.547 74.4147C136.096 73.2293 140.806 72.5245 145.387 71.5954C149.072 70.8265 152.756 69.9935 156.44 69.1926C160.605 68.2955 164.802 67.4305 168.967 66.5014C169.832 66.3092 170.633 66.0209 171.498 65.7966C174.381 65.1238 177.265 64.4831 180.148 63.8103C182.967 63.1375 185.755 62.4327 188.542 61.7599C192.29 60.8949 196.007 60.0619 199.755 59.1328C202.19 58.5561 204.625 57.8833 207.028 57.1465C208.437 56.73 209.815 56.5057 211.417 56.8261C211.417 58.5882 211.417 60.2861 211.417 61.9521C211.417 62.2725 211.353 62.6249 211.481 62.8812C212.122 64.4831 211.833 66.0849 211.609 67.7189M219.875 77.9068C219.811 78.3233 219.394 78.8359 219.042 79.0281C217.28 79.9572 215.421 80.3737 213.243 80.3096C213.083 78.8359 212.923 77.5544 212.762 76.2729C214.268 75.9205 215.71 75.5681 217.184 75.2797C218.753 74.9594 220.195 76.337 219.907 77.9068" fill="#231F20"/>
<g id="box">
<path id="Vector_2" d="M72.4805 116.138L73.3072 121.73L77.7814 118.275L79.7404 119.065L73.9377 123.156L75.2798 130.128L73.3207 129.338L72.4011 123.977L68.0199 127.2L66.0609 126.411L71.8059 122.296L70.5215 115.348L72.4805 116.138Z" fill="#231F20"/>
<path id="Vector_3" d="M59.5076 124.036C58.5089 123.633 57.7284 123.042 57.1663 122.263C56.6089 121.485 56.2912 120.584 56.2133 119.559C56.1402 118.536 56.334 117.453 56.7948 116.31C57.2595 115.158 57.8739 114.236 58.6382 113.545C59.4073 112.856 60.2622 112.425 61.2029 112.252C62.1484 112.08 63.1205 112.196 64.1192 112.599C65.1179 113.001 65.896 113.591 66.4533 114.369C67.0155 115.148 67.3322 116.052 67.4034 117.08C67.4794 118.109 67.285 119.2 66.8204 120.353C66.3596 121.496 65.7456 122.409 64.9785 123.093C64.2161 123.78 63.3622 124.208 62.4167 124.38C61.476 124.553 60.5063 124.439 59.5076 124.036ZM60.1232 122.509C60.8819 122.815 61.5845 122.872 62.2311 122.681C62.8776 122.489 63.4463 122.124 63.9372 121.585C64.428 121.046 64.8225 120.407 65.1206 119.667C65.4188 118.928 65.579 118.192 65.6012 117.458C65.6234 116.725 65.469 116.062 65.138 115.471C64.807 114.88 64.2622 114.431 63.5036 114.125C62.7449 113.82 62.0413 113.765 61.3928 113.961C60.7443 114.157 60.1737 114.527 59.6809 115.071C59.1882 115.615 58.7927 116.256 58.4946 116.996C58.1964 117.735 58.0372 118.469 58.0169 119.198C57.9966 119.927 58.1529 120.584 58.4859 121.17C58.8188 121.757 59.3646 122.203 60.1232 122.509Z" fill="#231F20"/>
<path id="Vector_4" d="M42.7397 117.007L48.6873 102.257L50.387 102.942L48.1915 108.387L48.3356 108.445C48.5378 108.303 48.8094 108.128 49.1503 107.92C49.498 107.708 49.9281 107.569 50.4407 107.502C50.96 107.432 51.5798 107.543 52.3 107.833C53.2315 108.209 53.9587 108.773 54.4815 109.525C55.0044 110.277 55.2927 111.161 55.3466 112.176C55.4005 113.192 55.1932 114.28 54.7247 115.442C54.2523 116.614 53.6436 117.549 52.8985 118.248C52.1554 118.942 51.336 119.382 50.4405 119.568C49.5469 119.749 48.6391 119.654 47.7172 119.282C47.0066 118.995 46.485 118.648 46.1526 118.241C45.822 117.828 45.6025 117.425 45.494 117.029C45.3875 116.629 45.3124 116.303 45.2689 116.051L45.0672 115.969L44.3819 117.669L42.7397 117.007ZM46.641 112.149C46.3041 112.985 46.1294 113.771 46.1168 114.509C46.1061 115.241 46.2634 115.882 46.5888 116.432C46.916 116.977 47.4206 117.387 48.1024 117.662C48.813 117.949 49.4815 118.001 50.1079 117.818C50.741 117.632 51.3063 117.268 51.8039 116.726C52.3082 116.182 52.7191 115.516 53.0366 114.728C53.3502 113.95 53.5129 113.201 53.5245 112.48C53.5428 111.756 53.3855 111.115 53.0525 110.556C52.7262 109.995 52.2029 109.569 51.4827 109.279C50.7913 109 50.1397 108.941 49.5278 109.102C48.9178 109.258 48.367 109.599 47.8752 110.127C47.3854 110.649 46.974 111.324 46.641 112.149Z" fill="#231F20"/>
</g>
<g id="agir">
<path id="Vector_5" d="M175.321 125.555L171.974 113.275L173.796 112.778L174.302 114.633L174.43 114.598C174.488 113.93 174.759 113.326 175.242 112.788C175.725 112.25 176.334 111.88 177.07 111.68C177.208 111.642 177.382 111.598 177.591 111.546C177.801 111.495 177.96 111.46 178.07 111.442L178.593 113.36C178.524 113.362 178.371 113.378 178.133 113.408C177.899 113.432 177.657 113.478 177.407 113.546C176.81 113.709 176.311 113.979 175.91 114.358C175.513 114.729 175.239 115.171 175.086 115.682C174.937 116.186 174.938 116.715 175.089 117.27L177.208 125.04L175.321 125.555Z" fill="#231F20"/>
<path id="Vector_6" d="M169.979 127.011L166.632 114.732L168.518 114.217L171.866 126.497L169.979 127.011ZM167.033 112.424C166.665 112.524 166.314 112.485 165.979 112.307C165.65 112.128 165.437 111.863 165.341 111.511C165.245 111.159 165.294 110.822 165.487 110.501C165.685 110.177 165.968 109.966 166.335 109.866C166.703 109.765 167.052 109.805 167.381 109.984C167.716 110.162 167.931 110.427 168.027 110.778C168.123 111.13 168.072 111.468 167.874 111.791C167.681 112.112 167.401 112.323 167.033 112.424Z" fill="#231F20"/>
<path id="Vector_7" d="M162.542 134.26C161.631 134.509 160.816 134.605 160.096 134.549C159.378 134.499 158.749 134.344 158.209 134.085C157.675 133.829 157.223 133.523 156.851 133.167L158.066 131.702C158.298 131.879 158.583 132.076 158.923 132.293C159.264 132.514 159.69 132.67 160.201 132.76C160.719 132.853 161.348 132.799 162.089 132.597C163.08 132.327 163.833 131.864 164.347 131.209C164.861 130.553 164.979 129.714 164.7 128.691L164.02 126.196L163.86 126.24C163.782 126.502 163.661 126.833 163.495 127.233C163.333 127.626 163.05 128.015 162.645 128.4C162.245 128.779 161.645 129.077 160.845 129.295C159.854 129.565 158.9 129.573 157.983 129.319C157.072 129.064 156.265 128.551 155.563 127.781C154.866 127.009 154.343 125.983 153.994 124.704C153.651 123.447 153.574 122.291 153.762 121.238C153.948 120.179 154.366 119.287 155.016 118.56C155.663 117.828 156.504 117.321 157.538 117.039C158.338 116.821 159.008 116.781 159.55 116.92C160.095 117.052 160.539 117.251 160.881 117.519C161.227 117.78 161.498 117.998 161.695 118.173L161.887 118.121L161.355 116.17L163.178 115.673L166.621 128.304C166.909 129.359 166.903 130.283 166.604 131.074C166.311 131.87 165.804 132.532 165.084 133.061C164.37 133.593 163.523 133.993 162.542 134.26ZM160.639 127.53C161.396 127.324 161.988 126.977 162.416 126.488C162.844 125.999 163.105 125.392 163.199 124.668C163.294 123.944 163.218 123.129 162.971 122.223C162.73 121.338 162.383 120.593 161.932 119.989C161.481 119.385 160.943 118.962 160.316 118.721C159.689 118.48 158.992 118.464 158.224 118.673C157.425 118.891 156.814 119.275 156.391 119.825C155.974 120.374 155.725 121.026 155.645 121.781C155.569 122.534 155.645 123.327 155.872 124.158C156.104 125.011 156.443 125.728 156.888 126.311C157.337 126.887 157.877 127.29 158.506 127.519C159.139 127.742 159.85 127.745 160.639 127.53Z" fill="#231F20"/>
<path id="Vector_8" d="M147.268 133.512C146.49 133.724 145.744 133.77 145.03 133.65C144.314 133.525 143.693 133.233 143.168 132.775C142.641 132.312 142.268 131.68 142.05 130.881C141.858 130.178 141.841 129.57 141.999 129.057C142.156 128.539 142.432 128.092 142.827 127.715C143.223 127.338 143.683 127.012 144.21 126.737C144.74 126.455 145.28 126.199 145.83 125.969C146.55 125.669 147.135 125.432 147.585 125.258C148.04 125.077 148.357 124.896 148.537 124.715C148.722 124.533 148.773 124.29 148.69 123.986L148.673 123.922C148.458 123.134 148.075 122.58 147.524 122.26C146.978 121.94 146.271 121.898 145.403 122.134C144.502 122.38 143.85 122.77 143.445 123.304C143.041 123.837 142.796 124.357 142.711 124.861L140.745 124.71C140.862 123.876 141.13 123.179 141.549 122.618C141.973 122.05 142.479 121.597 143.068 121.259C143.661 120.914 144.267 120.658 144.885 120.489C145.28 120.382 145.746 120.306 146.284 120.262C146.825 120.212 147.375 120.265 147.933 120.422C148.497 120.578 149.018 120.903 149.496 121.396C149.974 121.89 150.346 122.625 150.612 123.6L152.817 131.69L150.931 132.205L150.477 130.542L150.381 130.568C150.326 130.869 150.191 131.212 149.975 131.598C149.759 131.983 149.433 132.349 148.995 132.698C148.558 133.046 147.982 133.318 147.268 133.512ZM147.094 131.739C147.84 131.536 148.429 131.218 148.86 130.785C149.297 130.351 149.583 129.866 149.718 129.332C149.858 128.795 149.858 128.271 149.719 127.76L149.248 126.033C149.194 126.151 149.042 126.287 148.792 126.441C148.546 126.588 148.255 126.739 147.92 126.893C147.588 127.041 147.262 127.181 146.944 127.314C146.629 127.44 146.374 127.544 146.178 127.626C145.705 127.823 145.275 128.052 144.888 128.312C144.505 128.566 144.221 128.869 144.037 129.223C143.857 129.57 143.832 129.983 143.963 130.463C144.142 131.118 144.519 131.548 145.096 131.751C145.676 131.948 146.342 131.944 147.094 131.739Z" fill="#231F20"/>
</g>
</g>
</g>
</svg>
