<svg width="223" height="189" viewBox="0 0 223 189" fill="none" xmlns="http://www.w3.org/2000/svg">
<g id="box-acreditar">
<g id="Group 2608088">
<path id="Vector" fill-rule="evenodd" clip-rule="evenodd" d="M220.194 72.8411C218.88 71.3347 217.918 71.2065 216.219 72.2962C215.226 72.9372 214.296 73.0334 213.143 72.777C213.239 71.4949 213.431 70.309 213.335 69.1552C213.207 67.1039 212.726 65.0846 213.335 63.0333C213.527 62.4244 213.239 61.6551 213.143 60.9821C212.918 59.1872 212.63 57.3923 213.591 55.5974C214.873 55.2769 216.187 54.9243 217.469 54.6038C217.79 53.9307 217.47 53.6743 217.053 53.2897C215.675 52.1679 213.623 51.623 213.623 49.2833C213.623 48.9628 212.886 48.45 212.437 48.3538C212.117 48.2897 211.636 48.7705 211.284 49.091C211.091 49.2833 210.995 49.6359 210.835 49.9243C208.88 49.9243 207.021 49.7 205.226 49.0269C203.11 48.2256 200.995 47.2961 198.816 46.8153C196.412 46.2705 194.104 44.9243 191.508 45.6615C191.444 45.6615 191.316 45.5333 191.219 45.4371C191.412 44.9243 191.508 44.3153 191.796 43.8666C192.79 42.4243 193.623 40.7897 194.905 39.6679C196.476 38.2576 198.495 37.3602 200.226 36.1102C202.63 34.3473 205.226 32.7127 206.732 29.9563C207.181 29.1229 207.63 28.2896 208.175 27.5204C209.649 25.4691 210.931 23.3537 210.771 20.6614C210.675 19.2832 210.771 17.8729 210.578 16.5267C210.354 14.9242 209.457 14.2511 207.854 14.2511C207.085 14.2511 206.316 14.3152 205.578 14.187C199.553 13.0972 193.527 13.6742 187.501 14.2831C187.021 14.3152 186.444 14.5396 186.155 14.8601C185.033 16.1101 183.687 17.1678 183.719 19.155C183.719 20.0524 183.303 20.9819 183.078 21.8793C182.245 25.2127 181.924 28.5781 183.142 31.9114C183.88 33.9948 184.937 35.9178 186.54 37.4884C186.989 37.9371 187.501 38.3217 187.213 39.0909C186.7 40.4371 186.251 41.8153 185.739 43.1615C185.29 44.2833 185.066 44.3474 183.88 43.8986C182.982 43.5781 182.085 43.3217 181.155 43.0653C179.649 42.6486 178.142 42.232 176.604 41.8153C175.258 41.4627 173.944 41.0781 172.598 40.7897C171.86 40.6294 171.123 40.373 171.155 39.5717C171.155 38.1935 171.348 36.8153 171.604 35.5012C171.957 33.8345 172.533 32.2319 172.886 30.5653C173.271 28.9947 173.783 27.3601 173.751 25.7575C173.719 23.6101 174.681 21.7511 175.13 19.7639C175.578 17.8408 175.835 17.905 174.392 16.5588C174.617 15.5331 174.841 14.4113 175.066 13.2254C174.809 13.0011 174.585 12.6485 174.264 12.5524C172.437 11.8793 170.642 11.8152 169.072 13.0972C167.565 14.3152 166.796 15.9498 167.277 17.937C167.501 18.9306 167.662 19.8921 167.277 20.9178C166.924 21.9114 166.636 22.9691 166.444 23.9947C166.123 25.5973 166.027 27.264 165.61 28.8345C164.745 32.0717 164.04 35.3089 163.848 38.6422C163.783 39.6358 163.463 40.405 162.501 40.5974V41.4627C162.245 41.4627 162.117 41.4948 161.989 41.4627C159.553 41.0781 159.296 40.7576 159.777 38.3858C160.226 36.1743 160.771 34.0268 161.059 31.7512C161.7 26.7191 162.726 21.7191 163.655 16.687C163.815 15.7255 163.847 14.8921 163.399 13.9626C162.854 12.8408 162.565 11.6229 162.149 10.437C160.674 9.76389 159.2 10.0203 157.726 10.437C156.924 10.6613 156.38 11.11 156.219 11.9754C156.027 13.1613 155.771 14.3152 155.674 15.5011C155.514 17.6806 155.674 19.9242 155.29 22.0716C154.713 25.2127 154.649 28.4499 153.559 31.5268C153.495 31.6871 153.495 31.9114 153.527 32.0717C153.944 33.9307 152.662 35.0845 151.828 36.5589C150.001 36.0781 148.206 35.6935 146.508 35.1166C143.463 34.0909 140.482 32.9691 137.437 31.8794C137.149 31.7832 136.764 31.7191 136.604 31.4948C135.963 30.6935 135.129 30.405 134.168 30.2447C133.078 30.0524 132.854 29.6037 133.046 28.4819C133.206 27.5524 133.431 26.6229 133.367 25.6934C133.335 24.796 133.463 23.9947 133.559 23.1293C133.815 20.9819 134.649 18.8344 133.976 16.5908C133.815 16.046 134.072 15.4049 134.136 14.6678C136.187 14.7639 137.597 15.9498 139.232 16.4947C140.963 17.0396 142.694 17.6165 144.52 18.1934C144.713 17.7447 144.905 17.328 145.097 16.9434C148.014 16.4306 148.912 15.5972 148.367 13.9947C147.982 14.187 147.565 14.3152 147.213 14.5396C145.418 15.6293 144.2 15.0203 144.136 12.9049C144.136 12.3601 144.36 11.8152 144.553 11.2703C144.841 10.437 145.482 10.1806 146.315 10.1165C147.149 10.0844 147.629 10.469 147.95 11.1421C148.174 11.6229 148.367 12.1357 148.655 12.9049C148.655 10.5118 147.704 9.06944 145.803 8.57799C145.642 8.54594 145.482 8.44978 145.322 8.38568C145.322 8.38568 145.322 8.38568 145.322 8.41773C145.29 8.41773 145.258 8.41773 145.226 8.41773C143.527 10.6613 143.527 10.7254 142.726 15.2447C140.418 14.219 138.174 13.2254 135.899 12.2318C135.322 11.9754 135.129 11.5588 135.001 10.9177C134.777 9.63568 134.264 9.44338 133.302 10.3088C132.79 10.7575 132.341 10.8216 131.764 10.6934C131.572 10.6613 131.379 10.5972 131.219 10.5011C128.335 8.61004 124.841 8.73824 121.7 7.68055C121.187 7.52029 120.578 7.61644 120.001 7.61644C118.751 7.61644 118.014 7.07157 117.661 5.91772C117.277 4.69977 117.661 3.2895 118.751 2.80873C119.52 2.45617 120.418 2.39206 121.347 2.19976C121.796 3.77027 122.918 4.12284 124.168 4.53951C126.379 5.24464 128.495 6.17413 130.674 6.97542C131.379 7.23183 132.085 7.45619 132.822 7.6485C134.456 8.03311 136.123 8.51388 137.79 8.70619C139.136 8.86645 140.546 8.7703 141.892 8.70619C142.982 8.67414 144.072 8.51388 145.194 8.41773C145.194 8.41773 145.194 8.38568 145.226 8.35363C145.226 8.35363 145.258 8.35363 145.29 8.35363C145.578 7.6485 145.322 7.10362 144.617 6.94336C143.719 6.719 142.758 6.46259 141.86 6.5908C140.418 6.81516 139.104 6.49465 137.758 6.17413C136.732 5.91772 135.674 5.69336 134.649 5.4049C133.495 5.11643 132.309 4.89207 131.187 4.47541C129.072 3.73822 126.956 2.87283 124.777 2.0395C124.745 1.94334 124.649 1.75104 124.617 1.59078C124.168 0.0202589 124.008 -0.107947 122.405 0.0523103C121.476 0.148465 120.514 0.212567 119.584 0.372824C118.911 0.50103 118.206 0.693339 117.661 1.0459C115.995 2.1677 115.129 5.02028 115.802 6.78311C116.379 8.32158 119.424 10.2126 121.091 10.1485C123.27 10.0524 125.193 10.8857 127.213 11.8793C127.117 13.7062 127.02 15.3729 126.924 17.0716C126.764 19.7639 126.7 22.4563 126.476 25.1486C126.347 26.5268 126.764 28.0652 125.706 29.3153C123.591 28.9627 121.54 28.7063 119.52 28.1935C118.527 27.9691 117.501 27.4242 116.7 26.7832C115.065 25.405 114.488 25.3088 112.469 26.1101C109.264 27.3601 105.963 28.4499 102.437 28.4819C101.411 28.4819 100.29 28.7383 99.36 29.187C97.9818 29.8601 96.5716 30.2447 95.0331 30.3409C94.0395 30.405 93.0459 30.5973 92.0523 30.7576C89.3921 31.2383 86.7318 31.7191 84.0715 32.2319C83.2061 32.3922 82.3407 32.5524 81.4754 32.6807C77.6612 33.2576 74.0394 34.9243 70.0971 34.9563C69.9048 34.9563 69.7125 34.9884 69.5522 35.0204C67.5009 35.5653 65.4176 36.1743 63.3343 36.655C62.3727 36.8794 61.3471 36.8794 60.3535 37.0076C59.2958 37.1037 58.2381 37.1037 57.2124 37.3281C55.2573 37.7448 53.2701 38.2255 51.3791 38.8345C49.1675 39.5397 46.6675 38.8345 44.5842 40.1486C44.4239 40.2448 44.1034 40.0525 43.847 40.0845C41.6995 40.405 39.52 40.6615 37.3726 41.0781C36.1546 41.3025 35.0008 41.8153 33.7828 42.0717C31.8277 42.4563 29.8085 42.7448 27.8533 43.0974C27.629 43.1294 27.4046 43.3217 27.1803 43.3858C25.7379 43.8025 24.3277 44.3153 22.8854 44.6358C20.4815 45.1487 18.0135 45.4371 15.6417 46.014C13.6546 46.4948 11.6674 46.623 9.64813 46.3987C8.46222 46.2705 7.40453 46.3987 6.53914 47.1999C6.53914 47.3602 6.53914 47.4884 6.53914 47.6166C6.53914 48.8987 7.72504 49.8923 7.46863 51.2705C7.14811 53.0974 7.56478 54.8923 7.69299 56.6872C7.78914 58.1615 7.69299 59.6679 7.69299 61.1744C7.24427 61.2064 6.95581 61.3346 6.7635 61.2705C4.23144 60.5013 3.23784 63.2577 1.2186 63.7064C0.994243 63.7705 0.801935 64.3154 0.70578 64.668C-0.383968 68.1295 -0.480122 70.7898 2.37245 73.2898C2.53271 73.4501 2.69297 73.6424 2.82117 73.8347C2.66092 74.059 2.53271 74.2193 2.46861 74.3795C2.3404 74.7642 2.2763 75.1488 2.18015 75.5334C2.59681 75.6296 3.01348 75.8219 3.3981 75.7578C3.87887 75.6937 4.32759 75.3731 4.80836 75.2449C6.09042 74.8603 7.34042 74.1872 8.87889 74.3795C9.0071 75.1167 9.19941 75.7898 9.23146 76.4629C9.61607 83.1937 10.0007 89.9245 10.3853 96.6553C10.6738 102.296 10.9622 107.969 11.2507 113.61C11.4751 118.514 11.6674 123.386 11.9238 128.29C12.052 130.982 12.2763 133.707 12.5007 136.399C12.693 138.579 12.9494 140.758 13.1417 142.97C13.2379 144.123 13.302 145.245 11.9879 146.014C11.9879 146.014 12.0199 146.047 12.052 146.079C12.9494 146.688 13.911 147.2 14.9046 147.681C15.4815 147.681 15.9302 147.873 16.2828 148.29C17.2443 148.675 18.2059 149.059 19.1674 149.444C19.3597 149.444 19.5841 149.54 19.7764 149.604C23.1738 150.95 26.6033 152.232 29.9687 153.611C36.379 156.271 42.7572 158.931 49.1034 161.688C54.2958 163.963 59.2637 166.752 64.5843 168.739C68.6548 170.277 72.501 172.297 76.4753 174.059C82.6933 176.784 88.9433 179.508 95.1934 182.168C96.3152 182.649 97.2767 183.034 97.3408 184.444C97.3408 184.701 97.6934 184.925 97.9177 185.245C99.1677 184.508 100.29 184.476 101.668 185.021C103.142 185.598 103.334 186.848 103.847 188.194C105.193 187.008 106.508 187.04 107.95 187.585C108.366 187.745 108.911 187.521 109.36 187.457C109.392 187.136 109.488 186.944 109.456 186.784C109.168 185.181 109.264 184.989 110.77 184.508C111.251 184.348 111.732 184.22 112.213 184.027C114.649 183.066 117.02 181.944 119.52 181.175C122.149 180.342 124.905 179.893 127.533 179.092C132.117 177.745 136.668 176.271 141.219 174.829C141.86 174.636 142.565 174.476 143.206 174.284C144.713 173.835 146.219 173.386 147.694 172.906C148.751 172.553 149.777 172.072 150.835 171.784C153.078 171.207 155.386 170.886 157.63 170.245C160.578 169.412 163.495 168.386 166.412 167.457C167.117 167.233 167.822 166.944 168.527 166.656C172.117 165.149 176.187 165.181 179.585 163.034C179.777 162.906 180.066 162.938 180.322 162.874C181.892 162.425 183.495 162.04 185.033 161.559C188.207 160.566 191.348 159.54 194.553 158.579C196.091 158.098 197.79 158.002 199.2 157.297C202.021 155.886 204.937 154.797 207.886 153.771C209.072 153.354 210.29 152.393 211.636 152.97C213.078 153.547 213.848 152.361 214.809 151.816C215.258 151.559 215.226 150.406 215.418 149.668C213.239 148.931 213.175 148.931 213.143 146.848C213.111 144.027 213.271 141.175 213.207 138.354C213.207 136.335 212.854 134.348 212.854 132.329C212.854 129.764 213.078 127.2 213.175 124.636C213.175 123.963 213.046 123.258 213.014 122.585C212.95 121.784 212.694 120.918 212.822 120.149C213.271 117.553 212.502 115.021 212.566 112.457C212.566 110.886 212.437 109.316 212.469 107.745C212.502 104.027 212.598 100.309 212.694 96.6232C212.726 94.7001 212.854 92.7771 212.918 90.8219C212.95 89.8924 213.046 88.9629 213.014 88.0334C212.982 86.495 212.854 84.9245 212.758 83.1937C214.777 82.8732 216.636 82.3924 218.463 82.3924C220.194 82.3924 221.316 81.5911 222.341 80.5014C222.726 80.1167 222.95 79.4116 222.982 78.8667C223.175 76.3347 221.764 74.4436 220.226 72.6808M5.5776 71.6872C2.88528 71.1103 2.37245 69.4116 2.43656 67.777C2.46861 66.6231 2.85323 66.3667 4.55195 66.0462C5.54554 67.7449 6.34683 69.4757 5.5776 71.6872ZM7.75709 66.4949C7.37248 65.8539 6.98786 65.2128 6.41093 64.2513C8.0135 64.5718 7.8853 65.5334 7.75709 66.4949ZM207.085 54.6679C208.014 54.2833 209.168 54.4115 210.322 54.2833C210.098 55.309 209.361 55.2769 208.816 55.4051C204.873 56.3666 200.899 57.2961 196.925 58.2577C192.982 59.2192 189.072 60.4051 185.033 60.9821C184.104 61.1103 183.174 61.4949 182.245 61.7833C182.213 61.591 182.149 61.3987 182.085 61.2385C182.726 61.0462 183.367 60.918 184.008 60.6936C187.63 59.4756 191.444 58.8987 195.13 57.9692C199.136 56.9756 203.207 56.3025 207.053 54.6679M191.316 49.9243C193.046 50.1807 194.809 50.5012 196.508 50.9179C199.072 51.5589 201.604 52.2961 204.168 53.0012C204.457 53.0654 204.713 53.2577 205.066 53.4179C203.335 54.8602 201.219 54.3795 199.393 54.9564C197.566 55.5333 195.643 55.8859 193.751 56.3025C191.86 56.7192 190.001 57.1038 187.822 57.5846C188.303 55.5333 187.694 53.7384 188.335 51.9436C188.944 50.2448 189.521 49.6359 191.348 49.8923M207.149 24.0268C206.444 26.3024 205.771 28.6101 203.88 30.2127C201.508 32.2319 199.04 34.1871 196.54 36.1102C196.027 36.4948 195.29 36.7512 194.649 36.8473C193.527 37.0076 192.63 36.623 191.925 35.5653C189.681 32.1358 189.328 28.6101 190.899 24.7319C194.425 24.3793 197.758 24.0268 201.187 23.6742C201.38 24.8922 201.027 25.7896 200.322 26.5588C198.687 28.4499 197.053 30.405 195.322 32.2319C194.745 32.8409 193.88 33.1935 192.918 33.8025C193.014 34.2191 192.982 35.0525 193.335 35.2448C193.784 35.5012 194.585 35.373 195.098 35.1166C195.867 34.7319 196.572 34.155 197.181 33.514C198.912 31.7191 200.803 30.0204 202.181 27.9691C202.982 26.8152 204.264 25.7896 204.328 24.1229C204.328 23.8345 205.002 23.3537 205.418 23.2896C205.931 23.1934 206.508 23.4178 206.989 23.5139C207.085 23.7704 207.181 23.8986 207.149 23.9947M186.732 33.6101C186.251 32.873 185.899 32.0717 185.45 31.3024C183.976 28.9306 184.008 26.3665 184.585 23.8345C185.098 21.5909 185.963 19.4434 186.604 17.3601C191.091 16.0139 202.181 15.9819 208.463 17.296C208.046 18.3537 207.694 19.2832 207.277 20.3409C206.636 20.2768 205.931 20.3409 205.418 20.1165C204.232 19.5716 203.11 19.6998 201.957 20.1806C199.2 21.3665 196.155 21.2703 193.271 21.8473C192.918 21.9114 192.534 21.8152 192.149 21.7832C192.469 20.437 192.758 19.187 193.046 17.937C191.572 17.0396 190.354 17.4562 188.976 17.937V19.4434C188.976 19.9562 189.168 20.5652 188.912 20.9178C187.758 22.8729 188.046 25.0845 187.662 27.1678C187.309 29.0268 187.694 31.014 187.758 32.9691C187.758 33.3858 187.79 33.8025 187.854 34.5717C187.309 34.123 186.925 33.9307 186.732 33.6101ZM171.796 42.3281C173.944 43.6102 176.315 44.1871 178.687 44.764C180.514 45.1807 182.309 45.7576 184.232 46.3346C183.944 50.5653 181.508 54.0589 180.033 57.9051C181.86 58.5141 183.014 57.4884 184.136 54.4436C182.726 53.2256 183.88 51.9436 184.296 50.7577C185.29 48.0012 186.604 45.373 187.566 42.5845C187.982 41.3345 188.848 40.5974 189.681 39.7961C189.873 39.6038 190.482 39.5397 190.675 39.6679C190.963 39.8922 191.219 40.405 191.155 40.7256C190.835 41.9435 190.386 43.0974 190.001 44.2833C189.296 46.4628 188.655 48.6743 187.886 50.8218C187.469 52.0077 186.828 53.0974 186.348 54.2513C185.803 55.5654 185.354 56.9115 184.745 58.5782C178.335 60.4051 171.348 61.2064 164.264 63.3218C164.745 62.5846 164.937 62.2321 165.194 61.8795C165.803 61.0462 166.059 60.1808 165.867 59.059C165.674 58.0333 165.931 56.9436 166.027 55.8859C166.123 55.1487 166.38 54.4115 166.412 53.6423C166.476 51.7833 167.149 50.3089 168.559 49.0269C169.232 48.4179 169.392 47.264 169.777 46.3346C169.905 46.0461 169.937 45.7576 170.098 45.0846C173.174 45.8538 175.995 46.5269 178.848 47.2961C180.162 47.6487 181.059 47.6807 182.918 47.1358C182.405 46.8794 182.085 46.623 181.732 46.5269C179.713 46.0461 177.694 45.6935 175.674 45.1807C174.136 44.7961 172.662 44.2512 171.155 43.8666C170.386 43.6743 169.969 43.2897 170.226 42.5525C170.514 41.7512 171.187 41.8474 171.796 42.1999M95.3536 72.4565C94.8728 72.3603 94.2639 72.0718 93.9113 72.2321C92.1485 73.0654 90.61 72.2001 89.0074 71.7834C87.0202 71.2706 85.001 70.6936 83.0138 70.1488C80.9305 69.6039 78.8471 69.1552 76.8279 68.4821C75.7702 68.1295 74.8407 67.4244 73.8792 66.8795C73.6228 66.7193 73.3663 66.3346 73.142 66.3667C71.0586 66.6552 68.8791 65.7257 66.8279 66.6552C66.4753 66.8154 66.1868 67.0398 65.8984 67.2962C64.9048 68.0975 64.9048 68.1936 65.8022 69.7321C65.4496 69.9885 64.9689 70.2129 64.6804 70.5975C64.1355 71.3026 63.5586 71.5911 62.6291 71.559C61.3471 71.527 61.1548 71.8154 60.8342 73.0334C60.5137 74.2834 60.0971 75.5334 59.7124 76.8475C57.1804 77.0398 55.0329 76.3026 53.0457 74.9885C52.4368 74.6039 51.8598 74.1231 51.2829 73.6424C50.9945 73.418 50.5137 73.0334 50.5778 72.8411C50.9624 71.2385 49.7444 69.8282 50.1932 68.1936C50.4816 67.2321 50.8022 66.9757 51.7316 67.0718C52.4368 67.1359 53.174 67.0398 54.0073 66.9757C53.7829 66.1103 53.6227 65.4693 53.3983 64.668C52.565 64.5718 51.6355 64.5398 50.738 64.3154C50.1611 64.1872 49.5201 63.8987 49.1675 63.45C48.3342 62.3282 46.8278 57.0718 46.6996 55.4051C50.6739 54.9884 54.6804 54.6038 58.6547 54.1231C60.0009 53.9628 61.4753 53.6743 62.6291 53.0012C64.5202 51.9115 66.6035 51.8474 68.6227 51.4948C70.5458 51.1743 72.4369 51.0461 74.2958 50.3089C75.7061 49.7641 77.3407 49.732 78.9112 49.5397C81.1548 49.2512 83.3984 48.9948 85.642 48.6743C86.1228 48.6102 86.6356 48.5141 87.1164 48.3217C88.5908 47.7448 90.0331 47.1679 91.6677 47.2961C91.9562 47.2961 92.3408 47.2961 92.5972 47.1358C94.6164 45.6615 97.1805 45.6615 99.4241 44.6999C101.636 43.7384 104.104 43.3217 106.443 42.6166C107.725 42.232 108.943 41.7192 110.225 41.4627C111.892 41.1102 112.469 41.3345 113.11 42.841C114.424 45.8858 115.61 48.9948 116.924 52.0718C117.565 53.6102 118.367 55.1166 119.04 56.6551C119.488 57.6808 119.873 58.7705 120.226 59.8282C120.45 60.5013 120.161 60.918 119.617 61.4308C118.431 62.5205 117.309 63.7064 116.347 64.9885C115.963 65.5334 115.899 66.3987 115.899 67.1359C115.899 68.5782 115.995 70.0206 116.091 71.8154C113.27 71.8154 110.77 73.2898 107.982 72.5847C107.373 72.4244 106.636 72.777 105.931 72.809C103.687 72.9693 101.411 73.2257 99.1677 73.2257C97.9498 73.2257 96.6998 72.7449 95.4818 72.4885M95.9305 76.8475C95.3216 76.7514 94.7446 76.6231 94.1357 76.527C94.9049 75.6937 95.4818 76.1103 95.9305 76.8475ZM91.5395 77.4565C93.0139 78.0334 93.4626 79.1232 93.0139 80.6296C92.2446 80.4373 91.5075 80.1168 90.7382 80.0206C88.3344 79.7642 86.3472 78.2898 84.0395 77.777C83.1741 77.5847 82.3407 77.4244 81.5074 77.168C80.1292 76.7834 78.783 76.3347 77.4048 75.8539C74.2638 74.7962 71.1227 73.7385 67.8535 72.6488C67.9497 72.5206 68.0458 72.2642 68.174 72.2321C70.0971 71.7834 71.9881 71.0462 74.0715 71.6552C77.7894 72.777 81.5074 73.8347 85.1933 74.9885C87.3408 75.6616 89.4562 76.527 91.5395 77.3603M90.7382 74.2513C90.7382 74.2513 90.8344 73.9949 90.8985 73.8667C91.5715 74.1231 92.2446 74.3795 92.9498 74.636C91.9241 75.277 91.3472 74.7642 90.7382 74.2513ZM41.6995 63.3218C43.3021 63.9628 44.8085 64.8282 46.347 65.5654C46.2829 65.7257 46.2508 65.8859 46.1867 66.0462C45.3214 65.95 44.4239 65.95 43.6226 65.6936C41.2188 64.9885 38.847 64.1872 36.4752 63.45C33.238 62.4564 30.0008 61.559 26.7956 60.4692C24.1995 59.6038 21.6995 58.5461 19.1674 57.3923C20.0648 57.1359 20.8982 57.3602 21.7315 56.6872C22.1802 56.3026 23.3341 56.591 24.1033 56.8154C26.379 57.4884 28.6546 58.2256 30.8982 59.091C34.52 60.4372 38.1418 61.8474 41.7316 63.3218M36.5393 58.5141C37.6931 57.6487 38.5265 57.0718 39.2957 56.4308C39.8726 55.9179 40.3854 55.309 41.0906 54.5718C42.8854 54.4115 43.847 55.1166 44.1996 57.1038C44.3598 58.0333 44.456 58.9628 44.6803 59.8923C44.8406 60.6295 45.129 61.3026 45.3855 62.168C45.2893 62.168 44.9367 62.2641 44.6162 62.2C41.7636 61.6231 39.6162 59.6359 36.5072 58.5141M46.0906 68.8026C50.8662 77.2001 52.7573 77.136 55.7701 78.5783C54.5201 78.7385 53.5265 78.9629 52.565 78.9949C51.9881 78.9949 51.2509 78.8347 50.8662 78.4821C49.5201 77.2642 48.1098 76.0783 47.0201 74.6039C45.8021 72.9693 45.3855 71.0462 46.0906 68.8346M120.29 65.2128C120.546 66.8154 120.77 68.418 120.899 70.0206C120.899 70.3411 120.514 70.8218 120.193 70.9821C119.777 71.2065 119.232 71.1424 118.495 71.2706C118.302 71.1424 117.854 70.95 117.693 70.6295C116.988 69.2513 117.533 65.95 118.655 64.7962C118.879 64.5718 119.328 64.3475 119.649 64.4116C119.905 64.4757 120.258 64.8603 120.29 65.1808M112.533 74.9565C114.937 74.5719 117.341 74.059 119.745 73.5783C120.226 73.4821 120.738 73.3218 121.219 73.3218C122.052 73.3218 122.854 73.4501 123.431 72.6488C123.559 72.4885 123.879 72.4244 124.136 72.3924C126.54 71.8795 128.911 71.3026 131.315 70.8859C133.527 70.5013 135.803 70.277 138.014 69.9885C138.335 69.9565 138.687 69.9885 138.944 69.8282C141.668 68.1295 144.937 68.7385 147.822 67.6808C147.886 67.6808 147.95 67.6808 148.014 67.6808C150.835 66.2064 154.136 67.2321 156.988 65.8539C157.79 65.4693 158.847 65.6616 159.777 65.5013C164.392 64.6039 169.04 63.6423 173.655 62.7449C174.841 62.5205 176.059 62.4244 177.277 62.2962C177.277 62.4564 177.309 62.5846 177.341 62.7449C174.969 63.2898 172.63 63.8026 170.258 64.3795C168.559 64.7962 166.828 65.2128 165.13 65.6295C164.2 65.8539 163.303 66.0462 162.373 66.2705C161.7 66.4308 160.963 66.4308 160.386 66.7513C158.847 67.6167 157.117 67.8411 155.482 67.9052C152.918 68.0334 150.546 68.8988 148.11 69.3795C146.7 69.668 145.258 69.8603 143.847 70.0526C143.303 70.1167 142.726 70.1167 142.149 70.2129C140.065 70.5975 137.95 71.0462 135.867 71.4949C134.841 71.7193 133.815 72.0077 132.758 72.2962C128.815 73.3539 124.937 74.5719 120.834 74.9244C119.072 75.0847 117.341 75.1167 115.578 75.2449C115.322 75.2449 115.065 75.277 114.841 75.3731C111.251 76.6552 107.437 76.4308 103.751 77.0719C106.572 75.9501 109.552 75.4693 112.501 74.9885M128.655 67.9372C129.296 67.4564 129.937 66.9436 130.578 66.4308C131.764 67.0077 131.283 68.0334 131.7 69.059C128.431 69.4757 125.514 70.5654 122.309 70.4693C122.309 68.6103 122.277 67.0077 122.309 65.4052C122.341 64.6039 123.078 64.1231 123.943 64.2833C124.681 64.4116 125.386 64.7 126.123 64.8923C127.501 65.2769 128.623 65.8218 128.302 67.5846C128.302 67.6488 128.463 67.777 128.655 67.9693M163.783 58.7064C163.591 59.2192 163.431 59.7641 163.239 60.2769V60.341H163.206C163.206 61.3667 163.206 62.3603 163.206 63.418H160.674C161.347 62.2641 161.924 61.3026 162.533 60.3731C162.598 60.2769 162.95 60.3731 163.174 60.3731V60.309C163.014 59.7 162.79 59.091 163.719 58.7385M170.162 14.1229C170.45 13.9306 171.027 13.9626 171.412 14.1229C172.053 14.3472 172.598 14.6998 173.431 15.1485C172.886 16.1101 172.437 17.0396 171.86 17.8729C171.508 18.4178 170.13 18.578 169.809 18.0652C169.328 17.296 168.944 16.3985 168.912 15.5331C168.912 15.0844 169.649 14.5075 170.194 14.1549M164.617 42.5525C165.386 40.6615 164.905 38.6102 165.29 36.7191C165.706 34.7319 166.219 32.8089 166.604 30.8217C166.956 28.9947 167.598 27.2319 167.758 25.3409C167.886 23.7704 168.751 22.2639 169.36 20.7575C169.456 20.5332 169.809 20.3088 170.065 20.2447C170.899 20.0203 171.764 19.8921 172.63 19.7319C172.726 19.9242 172.886 20.0844 172.886 20.2447C172.886 20.7575 172.854 21.2703 172.758 21.7511C171.219 29.9242 169.841 38.1294 167.598 46.3346C166.668 45.8858 166.059 45.6294 165.739 45.4692C165.322 44.5717 165.033 43.9307 164.745 43.2897C164.649 43.0653 164.553 42.7769 164.617 42.5845M163.495 49.2512C164.969 50.1166 165.226 50.5653 164.777 51.4948C164.328 52.4243 163.976 53.2577 164.04 54.3154C164.04 54.6679 163.431 55.0525 163.11 55.4372C162.982 55.3731 162.822 55.309 162.694 55.2128C162.95 53.3218 163.206 51.4307 163.527 49.2512M159.04 12.3921C160.001 12.6806 160.771 13.0011 160.835 14.2831C159.969 14.7639 159.232 15.3729 158.206 14.9562C157.95 13.8665 158.399 13.1293 159.04 12.4242M153.687 38.5461C154.04 36.3345 154.328 34.0589 155.45 32.0076C155.706 31.5268 155.45 30.7896 155.546 30.1806C155.867 27.8729 156.219 25.5973 156.604 23.2896C156.828 22.1357 157.245 20.9819 157.501 19.828C157.694 19.0268 157.758 18.2255 157.886 17.296C159.104 16.9114 160.29 16.4947 161.828 15.9819C161.636 17.1678 161.54 18.0011 161.412 18.8665C160.995 21.3665 160.578 23.8986 160.162 26.3986C159.617 29.796 159.136 33.1935 158.495 36.5589C158.142 38.514 157.63 40.4371 156.988 42.3281C156.604 43.482 155.835 44.5397 155.226 45.6615C153.751 45.8217 153.559 45.7897 153.527 44.5397C153.431 42.5525 153.335 40.5012 153.655 38.514M154.04 48.45C154.04 48.45 154.424 48.7064 154.456 48.8666C154.969 51.623 154.553 54.3795 154.008 57.0718C153.88 57.7128 152.982 58.1936 152.245 58.6744C152.181 55.1487 151.283 51.5589 154.008 48.45M139.905 35.0845C138.783 34.8281 137.661 34.5717 136.54 34.2832C135.418 33.9948 134.328 33.6422 133.078 33.2896C134.617 32.5524 136.988 33.1614 139.905 35.0845ZM133.911 35.3409C134.841 35.4691 135.77 35.6935 136.668 35.9499C139.937 36.8473 143.206 37.7448 146.508 38.6422C147.565 38.9307 148.495 38.8666 149.136 37.7768C149.969 37.9691 150.771 38.1614 151.636 38.3538C151.636 40.0845 151.732 41.6871 151.604 43.2897C151.572 43.9307 151.059 44.5076 150.803 45.1487C150.578 45.6935 150.162 46.3346 150.258 46.8474C150.835 50.6294 150.258 54.3795 149.969 58.1295C149.841 59.7962 149.809 61.4949 149.713 63.1615C149.873 63.2577 150.033 63.3539 150.226 63.4821C150.931 63.1936 151.668 62.9051 152.501 62.5526C152.758 63.0013 152.982 63.418 153.206 63.8346C155.13 63.6103 155.963 62.841 156.604 60.7256C155.001 59.8282 155.097 59.8603 155.546 57.9692C155.899 56.4949 155.963 54.9884 156.219 53.482C156.412 52.3923 156.796 51.3025 157.053 50.2448C157.245 49.4435 157.533 48.6423 157.469 47.873C157.309 45.8858 158.463 44.4115 159.36 42.841C159.521 42.5845 160.29 42.4243 160.642 42.5204C162.79 43.2256 163.174 44.2512 162.341 46.4307C161.989 47.3602 161.828 48.3538 161.636 49.3153C161.251 51.5589 160.899 53.7705 160.514 56.0141C160.065 58.5461 159.585 61.0462 159.104 63.7385C158.655 63.8987 158.078 64.1551 157.469 64.2513C153.847 64.8923 150.258 65.7257 146.604 66.2705C142.694 66.8795 138.815 67.8411 134.937 68.6423C134.424 68.7385 133.879 68.8026 133.142 68.8988V64.668C131.924 64.3475 131.155 63.7705 131.444 62.4244C131.476 62.2641 131.444 62.0077 131.315 61.8795C129.649 60.341 130.386 58.3538 130.322 56.5269C130.258 54.7 130.322 52.9051 130.354 51.0782C130.354 50.7577 130.354 50.4692 130.354 50.1487C130.738 47.8089 131.508 45.4371 131.444 43.0974C131.379 40.8217 132.405 38.8025 132.309 36.5909C132.309 35.4371 132.758 35.1486 133.879 35.3089M125.802 32.3601C124.52 32.296 122.277 31.4627 121.668 30.8858C123.463 30.7255 124.841 31.1742 125.802 32.3601ZM117.95 40.0204C116.123 37.4563 117.854 34.8601 117.693 32.264C119.04 31.8153 120.065 32.4563 121.123 32.6807C122.02 32.873 122.95 33.0973 123.879 33.2255C125.386 33.4178 125.931 33.9307 125.802 35.4371C125.386 40.1486 124.905 44.8281 124.424 49.5076C124.104 52.6166 123.847 55.7577 123.495 58.8667C123.399 59.7 123.431 60.4372 124.2 60.7897C124.52 60.95 125.097 60.8218 125.418 60.6295C126.059 60.2449 126.636 58.7705 126.251 58.2897C125.001 56.7192 125.706 55.0846 125.867 53.4179C126.059 51.5589 126.091 49.7 126.283 47.8089C126.764 42.7448 127.405 37.7127 127.79 32.6166C128.046 28.9947 127.918 25.3088 128.014 21.687C128.014 20.8857 128.206 20.0524 128.302 19.2511C128.463 17.5524 128.559 15.8537 128.719 14.187C128.751 13.7703 128.911 13.3536 128.976 13.0011C129.232 12.937 129.328 12.8729 129.456 12.9049C133.206 13.7383 132.79 14.187 132.758 17.4242C132.758 19.6678 132.597 21.9114 132.341 24.155C132.117 26.0781 131.732 28.0011 131.411 29.9242C131.315 30.4691 131.251 31.046 131.187 31.5909C130.995 33.8986 130.867 36.2384 130.642 38.5461C130.386 41.3025 130.033 44.0269 129.713 46.7833C129.552 48.2256 129.392 49.6679 129.296 51.1102C129.072 53.7384 128.879 56.3666 128.623 58.9949C128.527 59.9564 128.27 60.9179 128.078 61.8474C126.54 61.7513 125.418 61.6551 124.296 61.6231C123.591 61.591 123.11 61.3346 122.982 60.5654C122.405 57.1359 120.802 54.0269 119.424 50.8859C118.591 48.9948 118.11 46.9756 117.437 44.9884C117.309 44.6358 117.181 44.2833 117.052 43.9307C116.027 41.7512 116.091 41.4948 117.982 40.0204M54.1034 40.1486C60.4817 38.9307 66.8279 37.6486 73.2061 36.4948C77.7894 35.6614 82.4048 34.9563 86.9882 34.123C89.3921 33.6742 91.7639 33.0332 94.1677 32.5524C97.6934 31.8794 101.251 31.3665 104.745 30.5653C106.379 30.1806 108.078 30.2127 109.681 29.4755C111.475 28.6742 113.495 28.7704 115.546 29.0909C115.546 29.9883 115.097 30.4691 114.264 30.5973C110.354 31.2383 106.443 31.9114 102.533 32.5204C98.0459 33.2255 93.5587 33.8345 89.1036 34.5717C85.2574 35.2127 81.4433 35.8858 77.6292 36.623C75.033 37.1358 72.501 37.873 69.9048 38.4179C67.1804 38.9948 64.456 39.5076 61.7637 40.0525C59.8727 40.4371 57.9496 40.8538 56.0586 41.2384C52.7252 41.9435 49.3919 42.5204 46.0906 43.3538C42.8534 44.1871 39.5521 44.4115 36.2829 44.8281C35.3534 44.9563 34.4239 45.1166 33.4944 45.2769C32.3726 45.4371 31.2828 45.6294 30.161 45.7897C30.129 45.6615 30.0969 45.5333 30.0649 45.4051C38.0136 43.3217 46.0585 41.6871 54.1355 40.1166M39.0713 46.2705C43.2701 45.4371 47.4367 44.5397 51.6355 43.6743C51.956 43.6102 52.2445 43.5461 52.565 43.482C56.0265 42.8089 59.5201 42.1999 62.9496 41.4948C67.1804 40.5974 71.3792 39.5397 75.642 38.6743C80.033 37.8089 84.4241 37.0717 88.8151 36.3345C96.0267 35.1486 103.238 34.0268 110.482 32.9371C111.347 32.8089 112.245 32.9371 113.206 32.9371C113.911 34.3153 114.617 35.6935 114.04 37.4243C113.751 37.5525 113.431 37.7448 113.046 37.8089C109.713 38.482 106.54 39.764 103.334 40.8858C100.738 41.8153 98.0139 42.4243 95.3857 43.1935C92.7895 43.9627 90.2254 44.8281 87.5972 45.4692C84.5843 46.1743 81.5395 46.591 78.5266 47.232C76.8279 47.5846 75.1612 48.1615 73.4625 48.5141C72.6933 48.6743 71.8279 48.5141 71.0586 48.7064C67.8535 49.3794 64.6804 50.2448 61.4753 50.7897C58.3663 51.3346 55.2252 51.5589 52.1163 51.9115C51.5073 51.9756 50.8662 52.0077 50.2573 52.1038C47.2444 52.5205 44.3598 52.0397 41.5713 50.982C41.2508 50.8538 40.738 50.6936 40.5136 50.8538C39.4239 51.6871 38.2059 52.4564 37.4047 53.5141C36.6995 54.5077 35.9944 55.4051 35.0328 56.1423C34.7123 56.3987 34.3918 56.7513 34.1675 57.1038C33.8149 57.6167 33.3982 57.7128 32.8534 57.5205C31.9239 57.1679 30.9944 56.8154 30.0328 56.4628C28.6867 55.95 27.3405 55.4372 25.9623 54.8923C25.5456 54.732 25.129 54.6359 24.7123 54.4436C23.7828 53.9628 23.7187 53.5141 24.4879 52.4243C22.661 51.591 20.193 52.873 18.6546 50.5333C19.9046 50.1807 21.0584 49.7641 22.2443 49.5397C27.8533 48.4179 33.4944 47.3923 39.1354 46.3025M27.3405 46.0461C25.6097 47.4564 18.8469 48.7705 16.443 48.1294C20.0969 47.0397 23.6225 46.4307 27.3405 46.0461ZM14.2315 48.5782C14.0712 49.123 14.0392 49.6679 13.8148 49.7641C13.1417 50.0525 12.5328 49.8602 11.9238 48.8666C12.7571 48.7705 13.3661 48.6743 14.2315 48.5782ZM13.7507 126.784C13.7507 125.053 13.4302 123.322 13.302 121.591C13.1738 119.925 12.8212 118.226 13.302 116.527C13.3981 116.175 13.302 115.758 13.2699 115.405C12.8853 113.002 12.9174 110.598 12.9494 108.162C12.9494 107.04 12.693 105.918 12.6289 104.796C12.4045 101.367 12.1481 97.9053 12.084 94.4437C12.0199 91.495 12.2443 88.5463 12.2122 85.5975C12.1802 83.0334 11.9558 80.4373 11.7956 77.8732C11.6033 75.0526 11.3789 72.2321 11.1545 69.4436C11.0584 68.0013 10.8981 66.559 10.802 65.1167C10.6738 63.2257 10.6417 61.3667 10.4494 59.5077C10.2251 57.3282 9.84043 55.1487 9.55197 52.9692C9.42377 52.0397 9.32761 51.1102 9.26351 50.1487C9.23146 49.5718 9.45582 49.1551 10.1289 49.1871C10.2251 49.2833 10.3853 49.3153 10.3853 49.4115C10.6417 51.4948 10.8981 53.6102 11.1545 55.6936C11.1866 56.0782 11.0904 56.5269 11.2827 56.8154C12.5648 59.059 12.3404 61.591 12.5969 63.9949C13.1097 68.8667 13.4622 73.7706 13.7828 78.6424C13.943 81.0783 13.8789 83.5463 14.0071 85.9822C14.0712 87.3604 14.4238 88.7065 14.5199 90.0847C14.7122 92.8412 14.8405 95.5976 15.0007 98.354C15.0969 100.053 15.161 101.719 15.161 103.418C15.161 105.694 15.161 107.937 15.161 110.213C15.161 112.168 15.193 114.123 15.2251 116.046C15.2251 117.361 15.3212 118.707 15.3533 120.021C15.4174 122.104 15.4815 124.155 15.5456 126.239C15.6417 131.079 15.7379 135.918 15.802 140.758C15.802 141.559 15.802 142.361 15.802 143.162C13.9751 137.873 13.7507 132.329 13.8148 126.784M94.8087 180.566C92.5972 179.668 90.4177 178.707 88.2382 177.713C86.7638 177.04 85.3536 176.207 83.9433 175.47C83.7831 175.374 83.6228 175.277 83.4305 175.245C81.0266 174.861 78.8471 173.867 76.6676 172.874C73.9433 171.592 71.1548 170.438 68.3984 169.188C65.8022 168.034 63.2701 166.784 60.674 165.63C57.4688 164.156 54.2637 162.649 51.0265 161.271C44.488 158.45 37.9495 155.694 31.411 152.906C28.0136 151.463 24.5841 149.989 21.1546 148.547C20.2251 148.162 19.4879 147.809 19.52 146.559C19.552 145.662 18.4302 145.085 18.5905 144.027C18.6546 143.482 18.4623 142.938 18.4623 142.393C18.4623 141.463 18.6225 140.534 17.693 139.829C17.4046 139.636 17.3084 139.027 17.2764 138.611C17.1161 134.444 17.02 130.245 16.8597 126.046C16.7315 122.713 16.5071 119.348 16.8597 115.982C17.02 114.572 16.6994 113.13 16.5071 111.719C16.2507 110.021 16.0264 108.386 16.3789 106.687C16.5071 106.078 16.5071 105.405 16.3789 104.796C16.1866 103.931 15.9623 103.13 16.3148 102.232C16.443 101.88 16.1866 101.399 16.1225 100.95C16.0264 100.085 15.802 99.1553 15.9943 98.354C16.1866 97.5848 16.0905 96.9117 15.9943 96.1425C15.834 94.2194 15.7699 92.2963 15.6738 90.3732C15.5135 87.0078 15.3853 83.6424 15.161 80.277C15.0328 78.5462 14.6802 76.7834 14.5199 75.0526C14.3917 73.9308 14.5199 72.777 14.2956 71.7193C13.8789 69.7962 13.911 67.9372 14.2956 65.9821C14.4879 65.0846 14.1353 63.9628 13.7507 63.0654C13.0776 61.4949 13.6866 60.0205 13.7507 58.2577C14.6161 58.5141 15.3212 58.6744 16.0264 58.9308C18.5264 59.9244 20.9943 61.0782 23.5584 61.9436C26.5392 62.9692 29.5841 63.7064 32.5969 64.6359C34.7444 65.309 36.8598 66.1103 39.0072 66.8154C40.3534 67.2641 41.7636 67.6488 43.0137 68.0334C43.1739 68.3218 43.3021 68.418 43.2701 68.5462C43.0778 71.9436 44.8085 74.5398 46.8278 77.0078C47.2765 77.5526 47.7252 78.0655 48.1739 78.5783C49.6162 80.1809 51.315 81.3027 53.5906 81.2065C54.1675 81.2065 54.7124 81.2065 55.2893 81.2065C59.6163 81.2065 62.0842 79.2514 62.9496 74.9885C62.9817 74.8283 63.1099 74.668 63.2702 74.2834C64.6804 74.5398 66.1548 74.7001 67.5971 75.0526C70.033 75.6937 72.4048 76.4629 74.8407 77.168C78.751 78.3219 82.6933 79.4116 86.6036 80.5655C88.8151 81.2385 91.0267 82.0398 93.2382 82.7129C94.3921 83.0655 94.5844 83.995 94.6485 84.9245C94.8728 88.6745 95.0011 92.4565 95.1934 96.2386C95.3536 99.5079 95.61 102.777 95.7382 106.014C95.8023 107.617 95.5459 109.219 95.5459 110.854C95.5459 113.675 95.61 116.495 95.61 119.316C95.61 120.437 95.5139 121.527 95.5139 122.649C95.5139 124.828 95.5139 127.008 95.5459 129.187C95.5459 129.829 95.4818 130.437 95.5459 131.079C96.0588 135.534 95.578 139.989 95.61 144.476C95.61 145.341 95.8023 146.207 95.9305 147.072C95.9626 147.457 96.0267 147.809 96.0267 148.194C96.0267 152.841 95.8985 157.489 95.9626 162.136C95.9946 165.277 96.3152 168.418 96.4754 171.559C96.6036 174.059 96.6357 176.592 96.6357 179.092C96.6357 180.758 96.219 181.015 94.7446 180.406M102.405 182.649C102.245 182.617 101.924 182.617 101.892 182.521C101.347 181.303 100.29 180.662 99.328 179.861C98.9113 179.476 98.7831 178.611 98.719 177.97C98.4947 174.412 98.3665 170.822 98.1741 167.265C98.0459 164.668 97.9177 162.104 97.7895 159.54C97.6934 157.617 97.5011 155.694 97.5011 153.739C97.5011 151.111 97.7895 148.482 97.6293 145.854C97.5011 143.482 98.0459 141.143 97.5331 138.771C97.4049 138.194 97.5972 137.521 97.6293 136.88C97.6934 135.438 98.1421 133.995 97.3088 132.617C97.2126 132.457 97.1485 132.232 97.2126 132.072C97.9177 130.021 96.6677 128.098 96.8921 126.078C97.1164 124.284 97.0844 122.457 97.0844 120.63C97.0844 118.995 96.9562 117.393 96.9882 115.758C97.0203 114.219 97.1164 112.649 97.3408 111.143C97.6293 109.412 98.0139 107.713 97.2126 106.046C96.8921 105.373 96.7639 104.796 97.2767 104.123C97.5011 103.803 97.5652 103.29 97.5331 102.905C97.3729 101.175 97.0523 99.4438 96.9562 97.6809C96.8921 96.3668 97.1485 95.0527 97.1485 93.7707C97.1485 90.8219 97.0844 87.8411 97.0523 84.8924C97.0523 83.8668 97.0523 82.8732 97.1485 81.8796C97.1485 81.527 97.3088 81.0783 97.5331 80.8539C97.8536 80.5334 98.3665 80.1488 98.719 80.2129C99.0716 80.277 99.6165 80.7898 99.6485 81.1424C99.9049 82.9373 100.161 84.7642 100.193 86.5911C100.257 90.3732 99.937 94.1873 100.257 97.9373C100.578 101.784 100.129 105.598 100.642 109.412C100.866 111.143 101.091 112.905 101.187 114.668C101.251 115.918 101.027 117.168 101.027 118.418C101.027 120.245 101.091 122.072 101.123 123.867C101.123 124.604 101.027 125.341 101.059 126.078C101.251 131.976 101.443 137.905 101.7 143.803C101.828 146.944 102.181 150.053 102.309 153.194C102.405 155.502 102.309 157.841 102.373 160.181C102.661 166.335 102.982 172.489 103.334 178.643C103.431 180.117 103.206 181.463 102.437 182.745M211.38 149.091C211.252 150.245 210.611 150.886 209.553 151.239C207.021 152.136 204.489 153.098 201.925 153.899C197.662 155.245 193.367 156.495 189.104 157.777C187.181 158.354 185.226 158.899 183.335 159.508C178.078 161.271 172.918 163.194 167.63 164.797C162.341 166.399 156.924 167.617 151.604 169.124C146.956 170.438 142.341 171.944 137.726 173.29C133.879 174.38 129.969 175.374 126.091 176.399C124.873 176.72 123.655 177.04 122.469 177.457C119.04 178.675 115.642 180.021 112.181 181.111C110.193 181.72 108.206 182.809 105.963 182.104C105.77 182.04 105.61 181.976 105.322 181.848C105.065 177.297 104.905 172.842 104.616 168.386C104.264 162.809 103.815 157.265 103.463 151.688C103.334 149.508 103.399 147.297 103.27 145.117C103.078 141.175 102.822 137.232 102.565 133.29C102.533 132.681 102.373 132.04 102.501 131.463C102.95 129.059 102.245 126.72 102.149 124.348C102.084 122.681 102.277 120.982 102.277 119.316C102.277 116.239 102.277 113.194 102.277 110.117C102.277 108.13 101.956 106.143 102.213 104.027C102.693 104.123 103.046 104.091 103.27 104.251C104.456 105.117 105.706 105.149 107.052 104.732C107.405 104.636 107.854 104.572 108.142 104.732C109.264 105.245 110.129 104.796 111.155 104.38C112.886 103.642 114.745 103.226 116.572 102.777C116.924 102.681 117.405 102.969 117.79 103.162C118.783 103.675 119.841 104.187 120.738 104.828C121.443 105.309 121.956 106.078 122.565 106.655C122.886 106.976 123.27 107.2 123.943 107.713C123.815 106.848 123.751 106.463 123.719 106.046C123.591 104.219 123.879 103.835 125.77 103.675C126.7 103.61 127.694 103.61 128.591 103.803C130.867 104.251 131.508 103.963 132.341 101.88C132.469 101.559 132.565 101.207 132.629 101.046C133.751 100.63 134.745 100.245 135.706 99.8604C135.899 99.7963 136.091 99.6681 136.251 99.7002C139.424 100.277 142.02 98.2258 144.969 97.8091C145.835 97.6809 146.7 97.3925 147.533 97.1681C150.835 96.3348 154.104 95.4694 157.405 94.636C157.886 94.5078 158.399 94.3476 158.88 94.3476C161.219 94.3476 163.527 94.3155 165.867 94.4437C166.668 94.4758 168.046 94.0591 168.046 95.7578C168.046 95.854 168.848 96.1104 169.168 95.9822C171.187 95.213 173.367 94.8604 175.098 93.386C176.091 92.5527 177.662 92.8091 178.623 91.6873C179.232 90.9822 179.937 90.4053 181.027 90.6296C181.348 90.6937 181.732 90.4373 182.085 90.2771C182.501 90.1168 182.854 89.7963 183.271 89.7001C186.732 89.027 190.13 88.0655 193.687 88.1296C194.04 88.1296 194.617 88.1937 194.713 88.386C195.61 90.0847 197.245 89.4117 198.175 89.0591C199.809 88.4501 201.091 88.8347 202.502 89.3796C203.367 89.7001 204.168 90.277 205.322 89.604C204.873 89.0911 204.521 88.6424 204.2 88.2578C206.412 87.5527 208.687 86.8796 211.187 86.0783C211.604 86.3027 211.444 86.9437 211.412 87.5527C211.38 90.6937 211.412 93.8668 211.348 97.0079C211.284 100.726 211.155 104.412 211.059 108.13C211.059 109.508 211.059 110.886 211.123 112.264C211.252 115.534 211.444 118.803 211.572 122.072C211.636 124.412 211.572 126.72 211.572 129.059C211.572 132.393 211.572 135.726 211.572 139.059C211.572 140.053 211.412 141.046 211.348 142.072C211.316 142.585 211.252 143.098 211.348 143.579C211.861 145.405 211.604 147.2 211.412 149.027M104.52 98.0976H107.116C107.597 100.854 107.565 101.207 106.636 102.745C103.847 102.36 103.399 101.431 104.52 98.0976ZM117.629 96.463C118.206 96.463 118.783 96.8155 119.36 97.0399C120.033 97.2963 120.706 97.5527 121.379 97.8091C121.411 97.713 121.476 97.6489 121.508 97.5527C120.995 97.072 120.482 96.6232 119.745 95.9502C121.091 95.5655 122.149 95.213 123.206 94.9566C124.264 94.7001 125.29 95.5335 125.546 96.7835C125.802 98.0655 125.418 98.7066 124.04 98.8668C121.347 99.1232 118.687 99.5079 116.091 100.309C114.392 100.822 112.693 101.207 110.995 101.623C110.642 101.719 110.29 101.719 109.809 101.784V97.104C112.533 96.8796 115.097 96.6232 117.661 96.495M117.341 93.4181C117.918 89.9245 120.578 88.4501 124.168 89.5399C123.943 91.5271 120.161 93.7386 117.341 93.4181ZM126.668 93.6424C126.251 93.0655 125.642 92.6168 125.033 92.0078C126.027 91.3668 126.764 90.854 127.661 91.8155C127.854 92.0399 128.206 92.2322 128.463 92.2322C130.097 92.2963 130.546 93.5463 130.77 94.7643C131.027 96.1104 131.187 97.4886 129.873 98.5784C128.847 99.4438 128.046 100.662 126.411 100.694C126.411 100.501 126.283 100.245 126.347 100.181C127.822 99.0912 127.726 97.4245 127.758 95.9181C127.758 95.1489 127.149 94.3476 126.668 93.6424ZM122.469 103.066C121.86 102.809 121.476 102.681 121.027 102.489C121.753 101.933 122.234 102.125 122.469 103.066ZM132.886 92.2642C134.456 92.0078 135.161 92.3924 135.482 93.7707C135.546 94.0912 135.578 94.3796 135.642 94.7001C135.995 96.2386 135.642 96.6873 133.815 96.8796C133.142 96.2386 133.27 95.4373 133.27 94.604C133.27 93.8348 133.014 93.0655 132.886 92.2642ZM137.533 97.2322C137.694 95.1489 137.822 93.2578 137.982 91.1745C138.495 91.1745 139.104 91.1745 139.713 91.1745C142.95 91.2386 146.123 90.9181 149.072 89.4437C149.456 89.2514 149.937 89.2514 150.354 89.1553C151.86 88.7386 153.367 88.2899 154.873 87.8732C154.937 87.8732 155.001 87.8091 155.033 87.8091C159.2 87.3283 162.918 85.3091 167.021 84.5719C167.694 84.4437 168.431 84.3796 169.072 84.5398C169.553 84.636 170.162 85.0206 170.354 85.4693C171.155 87.2642 172.053 89.1232 170.931 91.1745C170.803 91.3988 170.771 91.6232 170.642 91.9758C169.809 91.9758 169.104 92.0399 168.431 91.9758C165.482 91.5912 162.533 91.8476 159.585 92.1681C158.976 92.2322 158.335 92.2322 157.694 92.3283C156.668 92.5206 155.642 92.7771 154.617 92.9694C152.149 93.4181 149.841 94.4117 147.341 94.7643C144.617 95.1489 141.988 96.1425 139.328 96.8796C138.815 97.0079 138.27 97.1361 137.533 97.2963M173.559 85.7899C173.463 85.5014 173.463 85.1809 173.431 84.8924C173.687 84.7642 173.815 84.604 174.008 84.604C177.982 84.3155 181.86 83.5783 185.642 82.3924C187.501 81.8155 189.425 81.4309 191.316 80.918C192.79 80.5014 194.264 80.0527 195.739 79.5719C197.63 78.9629 200.194 80.7257 200.29 82.7129C200.322 84.0911 198.944 85.6296 197.566 85.4693C194.425 85.0527 191.476 86.1424 188.431 86.4309C183.463 86.9117 179.168 88.995 174.745 90.9501C174.521 91.0463 174.264 91.0783 173.751 91.2065C173.687 90.4694 173.335 89.7001 173.591 89.2194C174.264 88.0014 174.008 86.9437 173.591 85.7899M208.239 84.9886C207.021 85.0847 206.059 85.1488 204.969 85.2129C205.482 84.027 205.931 83.0014 206.348 81.9757C206.796 80.886 206.604 79.8924 205.899 78.9308C205.707 78.6744 205.578 78.386 205.418 78.1296C204.969 77.2321 204.521 76.3347 204.072 75.4052C205.386 74.636 206.252 74.7962 207.566 75.6936C209.136 76.7834 209.649 78.2578 209.681 80.0847C209.681 80.9501 209.553 81.7514 208.848 82.2962C208.014 82.9373 207.95 83.7386 208.239 84.9886ZM211.668 67.6488C211.508 68.9949 211.508 70.4052 211.412 71.7834C211.316 73.0654 210.835 73.5142 209.745 73.0334C207.918 72.2321 206.123 72.2001 204.36 73.0334C204.136 72.809 203.944 72.7129 203.848 72.5526C202.79 70.5013 202.277 70.277 199.969 70.7577C198.784 71.0142 197.534 72.0077 196.893 73.3218C197.662 73.0334 198.239 72.8411 198.784 72.6488C200.578 71.9757 201.059 72.1359 202.213 73.8988C201.668 74.7321 200.707 74.9244 199.809 75.0526C198.751 75.2129 197.758 75.3731 196.796 76.0462C195.995 76.6231 195.578 76.3347 195.034 75.0847C192.822 78.3219 189.392 78.9629 185.931 79.5719C185.45 79.668 184.969 79.8603 184.489 79.9885C180.867 81.1424 177.149 81.7193 173.367 81.7514C172.117 81.7514 170.867 81.4629 169.649 81.1424C168.591 80.886 167.694 80.918 166.764 81.527C166.187 81.9116 165.546 82.168 164.873 82.3603C162.405 83.1296 159.969 83.9309 157.469 84.636C153.976 85.6296 150.418 86.4629 146.924 87.4886C143.399 88.5142 139.841 88.386 136.251 88.1617C135.129 88.0976 133.911 88.5142 132.822 88.9629C131.7 89.4437 130.674 89.5399 129.52 89.2514C128.078 88.8988 126.7 88.5142 125.322 87.8091C122.854 86.5591 120.514 87.6488 118.431 89.0591C116.732 90.2129 115.45 91.7514 115.386 94.3476C113.11 94.3476 111.027 94.4758 108.975 94.3476C106.668 94.1873 104.745 94.7642 103.238 96.5271C102.982 96.8476 102.565 97.0399 102.181 97.3604C101.347 96.3027 101.54 95.1168 101.475 94.0591C101.379 92.4245 101.443 90.7899 101.475 89.1553C101.475 87.8411 101.572 86.527 101.54 85.2129C101.54 83.7065 101.411 82.2001 101.315 80.4693C102.822 80.2129 104.264 79.9565 105.738 79.668C111.059 78.6744 116.379 77.6808 121.668 76.6872C125.001 76.0462 128.27 75.2129 131.572 74.3795C136.123 73.1936 140.835 72.4885 145.45 71.559C149.136 70.7898 152.822 69.9565 156.476 69.1552C160.642 68.2577 164.809 67.3923 169.008 66.4628C169.873 66.2705 170.674 65.9821 171.54 65.7577C174.424 65.0846 177.309 64.4436 180.194 63.7705C183.014 63.0974 185.803 62.3923 188.591 61.7192C192.341 60.8218 196.059 60.0205 199.809 59.091C202.245 58.5141 204.681 57.841 207.085 57.1038C208.495 56.6872 209.873 56.4628 211.476 56.7833C211.476 58.5461 211.476 60.2449 211.476 61.9436C211.476 62.2641 211.412 62.6167 211.508 62.8731C212.149 64.4757 211.861 66.0782 211.636 67.7129M219.97 77.9052C219.905 78.3219 219.489 78.8347 219.136 79.027C217.405 79.9565 215.514 80.3411 213.335 80.3091C213.143 78.8347 213.014 77.5526 212.854 76.2706C214.361 75.9501 215.803 75.5975 217.277 75.277C218.848 74.9565 220.29 76.3347 220.002 77.9373" fill="#231F20"/>
<g id="box">
<path id="Vector_2" d="M74.1784 116.217L75.0055 121.811L79.4816 118.355L81.4414 119.145L75.6363 123.238L76.9789 130.213L75.019 129.423L74.099 124.059L69.7159 127.284L67.756 126.494L73.5035 122.378L72.2186 115.427L74.1784 116.217Z" fill="#231F20"/>
<path id="Vector_3" d="M61.2 124.118C60.2009 123.715 59.4201 123.124 58.8577 122.345C58.3001 121.567 57.9823 120.665 57.9043 119.64C57.8312 118.616 58.0251 117.533 58.4861 116.39C58.9509 115.237 59.5657 114.315 60.3303 113.623C61.0997 112.934 61.9549 112.502 62.8961 112.329C63.842 112.158 64.8145 112.273 65.8136 112.676C66.8128 113.079 67.5912 113.669 68.1488 114.447C68.7112 115.227 69.028 116.131 69.0992 117.159C69.1752 118.189 68.9808 119.281 68.516 120.434C68.055 121.577 67.4408 122.491 66.6733 123.175C65.9106 123.862 65.0563 124.291 64.1104 124.462C63.1693 124.636 62.1992 124.521 61.2 124.118ZM61.8159 122.591C62.5749 122.897 63.2778 122.954 63.9247 122.762C64.5715 122.571 65.1405 122.206 65.6315 121.666C66.1225 121.127 66.5172 120.488 66.8155 119.748C67.1138 119.008 67.274 118.272 67.2962 117.538C67.3185 116.804 67.164 116.141 66.8329 115.55C66.5017 114.958 65.9567 114.51 65.1977 114.204C64.4388 113.898 63.7349 113.843 63.0861 114.039C62.4373 114.235 61.8664 114.606 61.3734 115.15C60.8805 115.694 60.4848 116.335 60.1865 117.075C59.8883 117.815 59.729 118.549 59.7087 119.278C59.6884 120.007 59.8448 120.665 60.1779 121.252C60.511 121.838 61.057 122.285 61.8159 122.591Z" fill="#231F20"/>
<path id="Vector_4" d="M44.4249 117.086L50.3749 102.33L52.0754 103.015L49.879 108.463L50.0231 108.521C50.2255 108.379 50.4972 108.204 50.8382 107.995C51.186 107.783 51.6163 107.644 52.1291 107.577C52.6487 107.508 53.2687 107.618 53.9893 107.909C54.9212 108.284 55.6487 108.849 56.1717 109.601C56.6948 110.354 56.9833 111.238 57.0372 112.254C57.0911 113.27 56.8837 114.359 56.415 115.521C55.9424 116.693 55.3334 117.629 54.588 118.328C53.8446 119.022 53.0249 119.462 52.1289 119.648C51.2349 119.83 50.3268 119.734 49.4045 119.362C48.6935 119.076 48.1718 118.728 47.8392 118.321C47.5085 117.908 47.2889 117.504 47.1803 117.108C47.0737 116.708 46.9986 116.382 46.9551 116.13L46.7533 116.048L46.0677 117.749L44.4249 117.086ZM48.3278 112.227C47.9908 113.063 47.816 113.849 47.8033 114.587C47.7926 115.32 47.95 115.961 48.2755 116.511C48.603 117.057 49.1077 117.467 49.7898 117.742C50.5008 118.028 51.1695 118.08 51.7962 117.897C52.4295 117.712 52.9951 117.348 53.4929 116.806C53.9974 116.261 54.4085 115.594 54.7262 114.807C55.0399 114.028 55.2026 113.279 55.2142 112.557C55.2326 111.833 55.0752 111.192 54.742 110.633C54.4156 110.071 53.8921 109.645 53.1716 109.355C52.4799 109.076 51.828 109.017 51.2158 109.178C50.6056 109.334 50.0545 109.676 49.5626 110.203C49.0725 110.726 48.6609 111.401 48.3278 112.227Z" fill="#231F20"/>
</g>
<g id="acreditar">
<path id="Vector_5" d="M205.258 116.332L202.76 104.408L204.53 104.037L204.908 105.838L205.032 105.812C205.126 105.176 205.419 104.615 205.911 104.128C206.403 103.642 207.007 103.324 207.721 103.174C207.856 103.146 208.024 103.113 208.227 103.076C208.43 103.039 208.585 103.015 208.69 103.003L209.081 104.867C209.015 104.864 208.868 104.871 208.639 104.886C208.414 104.896 208.18 104.926 207.937 104.977C207.357 105.098 206.865 105.328 206.46 105.667C206.06 105.999 205.772 106.405 205.597 106.885C205.426 107.358 205.397 107.864 205.51 108.402L207.09 115.949L205.258 116.332Z" fill="#231F20"/>
<path id="Vector_6" d="M196.507 118.457C195.751 118.616 195.036 118.617 194.36 118.461C193.683 118.3 193.107 117.986 192.631 117.519C192.154 117.046 191.834 116.421 191.671 115.645C191.528 114.962 191.547 114.38 191.727 113.899C191.906 113.413 192.195 113.001 192.595 112.664C192.994 112.326 193.453 112.041 193.971 111.808C194.494 111.569 195.025 111.355 195.563 111.167C196.268 110.922 196.841 110.729 197.282 110.588C197.726 110.441 198.04 110.286 198.222 110.124C198.409 109.96 198.472 109.731 198.41 109.436L198.397 109.374C198.236 108.608 197.902 108.056 197.394 107.72C196.891 107.382 196.218 107.302 195.374 107.478C194.499 107.661 193.854 107.997 193.437 108.484C193.02 108.971 192.757 109.453 192.646 109.93L190.777 109.673C190.936 108.883 191.231 108.233 191.664 107.72C192.102 107.202 192.611 106.798 193.194 106.509C193.78 106.213 194.373 106.002 194.974 105.876C195.357 105.796 195.806 105.751 196.323 105.74C196.843 105.723 197.366 105.805 197.89 105.987C198.42 106.168 198.899 106.508 199.327 107.007C199.756 107.506 200.07 108.229 200.268 109.176L201.914 117.033L200.082 117.417L199.743 115.802L199.65 115.821C199.58 116.106 199.431 116.427 199.203 116.782C198.975 117.138 198.642 117.47 198.204 117.778C197.766 118.085 197.2 118.312 196.507 118.457ZM196.442 116.753C197.166 116.601 197.747 116.331 198.184 115.942C198.627 115.552 198.928 115.106 199.087 114.602C199.251 114.098 199.282 113.597 199.177 113.1L198.826 111.423C198.768 111.533 198.615 111.654 198.367 111.787C198.124 111.913 197.837 112.041 197.508 112.17C197.182 112.292 196.863 112.407 196.551 112.516C196.243 112.618 195.993 112.703 195.802 112.77C195.339 112.932 194.915 113.126 194.53 113.352C194.149 113.573 193.861 113.846 193.665 114.174C193.472 114.495 193.425 114.889 193.523 115.354C193.656 115.991 193.992 116.423 194.532 116.65C195.075 116.872 195.712 116.906 196.442 116.753Z" fill="#231F20"/>
<path id="Vector_7" d="M187.685 107.565L188.01 109.118L181.831 110.412L181.505 108.859L187.685 107.565ZM182.708 105.625L184.54 105.241L186.921 116.607C187.029 117.125 187.186 117.497 187.39 117.724C187.598 117.946 187.831 118.075 188.087 118.113C188.348 118.145 188.613 118.133 188.882 118.077C189.084 118.034 189.247 117.989 189.372 117.941C189.496 117.888 189.596 117.846 189.67 117.814L190.387 119.382C190.273 119.455 190.109 119.538 189.896 119.631C189.685 119.729 189.408 119.814 189.066 119.886C188.549 119.994 188.018 119.989 187.475 119.871C186.937 119.751 186.457 119.498 186.035 119.11C185.619 118.722 185.338 118.181 185.193 117.488L182.708 105.625Z" fill="#231F20"/>
<path id="Vector_8" d="M179.809 121.663L177.311 109.738L179.143 109.354L181.641 121.279L179.809 121.663ZM177.826 107.555C177.469 107.63 177.136 107.573 176.826 107.384C176.522 107.194 176.334 106.928 176.262 106.586C176.19 106.245 176.256 105.926 176.459 105.629C176.667 105.332 176.949 105.146 177.306 105.071C177.663 104.996 177.994 105.054 178.299 105.244C178.608 105.433 178.799 105.698 178.871 106.04C178.942 106.381 178.874 106.701 178.666 106.998C178.464 107.295 178.184 107.48 177.826 107.555Z" fill="#231F20"/>
<path id="Vector_9" d="M170.786 123.812C169.792 124.021 168.862 123.953 167.996 123.611C167.129 123.263 166.384 122.673 165.761 121.842C165.138 121.005 164.694 119.956 164.429 118.693C164.167 117.44 164.154 116.308 164.391 115.297C164.627 114.286 165.076 113.449 165.737 112.787C166.398 112.124 167.23 111.688 168.234 111.477C169.011 111.315 169.651 111.316 170.156 111.48C170.664 111.638 171.072 111.856 171.378 112.132C171.688 112.402 171.933 112.626 172.111 112.805L172.266 112.772L171.037 106.903L172.869 106.519L176.199 122.419L174.429 122.79L174.045 120.958L173.828 121.003C173.739 121.249 173.605 121.563 173.426 121.947C173.246 122.325 172.952 122.691 172.546 123.047C172.138 123.397 171.552 123.652 170.786 123.812ZM170.689 122.115C171.424 121.961 172.005 121.639 172.432 121.15C172.858 120.655 173.131 120.039 173.252 119.3C173.372 118.557 173.338 117.735 173.149 116.834C172.963 115.944 172.67 115.192 172.271 114.578C171.872 113.96 171.379 113.517 170.794 113.251C170.208 112.979 169.542 112.922 168.796 113.078C168.02 113.24 167.415 113.575 166.981 114.082C166.551 114.583 166.277 115.199 166.161 115.931C166.048 116.657 166.079 117.44 166.255 118.278C166.433 119.127 166.724 119.871 167.128 120.51C167.536 121.143 168.039 121.611 168.637 121.912C169.239 122.208 169.923 122.275 170.689 122.115Z" fill="#231F20"/>
<path id="Vector_10" d="M158.558 126.373C157.409 126.614 156.364 126.568 155.425 126.235C154.489 125.896 153.701 125.316 153.058 124.494C152.42 123.666 151.973 122.641 151.718 121.42C151.462 120.198 151.459 119.075 151.709 118.05C151.963 117.019 152.436 116.158 153.129 115.467C153.826 114.77 154.713 114.309 155.789 114.084C156.41 113.954 157.045 113.929 157.694 114.009C158.343 114.089 158.965 114.31 159.559 114.672C160.152 115.028 160.676 115.556 161.131 116.255C161.585 116.954 161.929 117.86 162.162 118.973L162.325 119.749L153.132 121.675L152.801 120.091L160.13 118.556C159.989 117.883 159.728 117.311 159.349 116.839C158.974 116.367 158.509 116.029 157.953 115.827C157.403 115.623 156.796 115.591 156.134 115.73C155.404 115.882 154.811 116.196 154.353 116.67C153.9 117.138 153.591 117.688 153.427 118.323C153.263 118.957 153.249 119.602 153.387 120.26L153.608 121.316C153.797 122.216 154.112 122.947 154.554 123.508C155 124.063 155.536 124.445 156.163 124.654C156.79 124.858 157.473 124.882 158.213 124.727C158.694 124.627 159.115 124.468 159.475 124.252C159.839 124.03 160.135 123.752 160.362 123.418C160.588 123.079 160.735 122.686 160.804 122.24L162.678 122.366C162.618 123.005 162.415 123.599 162.07 124.146C161.725 124.689 161.255 125.155 160.661 125.544C160.066 125.928 159.365 126.204 158.558 126.373Z" fill="#231F20"/>
<path id="Vector_11" d="M145.734 128.8L143.237 116.875L145.007 116.504L145.384 118.305L145.508 118.279C145.602 117.644 145.895 117.083 146.387 116.596C146.88 116.109 147.483 115.791 148.197 115.641C148.332 115.613 148.501 115.581 148.704 115.544C148.907 115.506 149.061 115.482 149.167 115.471L149.557 117.334C149.492 117.332 149.344 117.338 149.115 117.354C148.89 117.363 148.656 117.393 148.413 117.444C147.833 117.566 147.341 117.796 146.937 118.134C146.536 118.467 146.248 118.873 146.073 119.352C145.902 119.826 145.873 120.332 145.986 120.87L147.567 128.416L145.734 128.8Z" fill="#231F20"/>
<path id="Vector_12" d="M138.419 130.592C137.301 130.826 136.283 130.763 135.365 130.405C134.447 130.046 133.673 129.449 133.045 128.613C132.416 127.778 131.977 126.765 131.727 125.575C131.474 124.363 131.472 123.248 131.723 122.228C131.979 121.202 132.453 120.344 133.145 119.653C133.842 118.956 134.729 118.495 135.805 118.269C136.644 118.094 137.432 118.091 138.17 118.26C138.908 118.43 139.55 118.749 140.097 119.218C140.643 119.687 141.047 120.284 141.306 121.007L139.474 121.391C139.22 120.877 138.809 120.461 138.24 120.142C137.675 119.818 136.989 119.74 136.181 119.909C135.467 120.058 134.88 120.376 134.419 120.861C133.963 121.341 133.656 121.948 133.496 122.684C133.341 123.413 133.358 124.228 133.547 125.129C133.74 126.05 134.053 126.822 134.485 127.444C134.924 128.066 135.449 128.51 136.061 128.776C136.678 129.041 137.349 129.098 138.074 128.946C138.55 128.846 138.965 128.673 139.319 128.426C139.672 128.179 139.951 127.872 140.155 127.505C140.359 127.138 140.472 126.725 140.495 126.267L142.327 125.883C142.371 126.608 142.248 127.296 141.957 127.946C141.671 128.59 141.228 129.147 140.63 129.618C140.036 130.083 139.299 130.407 138.419 130.592Z" fill="#231F20"/>
<path id="Vector_13" d="M124.771 133.483C124.015 133.641 123.3 133.643 122.624 133.487C121.948 133.326 121.371 133.012 120.895 132.544C120.418 132.072 120.098 131.447 119.935 130.671C119.792 129.987 119.811 129.405 119.991 128.925C120.17 128.439 120.459 128.027 120.859 127.689C121.258 127.352 121.717 127.067 122.236 126.834C122.758 126.595 123.289 126.381 123.827 126.192C124.532 125.947 125.105 125.754 125.546 125.614C125.99 125.466 126.304 125.312 126.486 125.149C126.673 124.986 126.736 124.756 126.674 124.461L126.661 124.399C126.501 123.633 126.166 123.082 125.658 122.745C125.155 122.408 124.482 122.327 123.638 122.504C122.764 122.687 122.118 123.022 121.701 123.509C121.285 123.996 121.021 124.478 120.91 124.956L119.041 124.699C119.2 123.909 119.496 123.258 119.929 122.746C120.366 122.228 120.876 121.824 121.458 121.534C122.044 121.239 122.638 121.028 123.238 120.902C123.621 120.822 124.071 120.776 124.587 120.765C125.108 120.748 125.63 120.831 126.154 121.013C126.684 121.193 127.163 121.533 127.592 122.032C128.02 122.532 128.334 123.255 128.532 124.202L130.178 132.059L128.346 132.442L128.008 130.828L127.914 130.847C127.844 131.132 127.695 131.452 127.467 131.808C127.239 132.164 126.906 132.495 126.468 132.803C126.03 133.111 125.465 133.338 124.771 133.483ZM124.706 131.779C125.43 131.627 126.011 131.356 126.449 130.968C126.891 130.578 127.192 130.131 127.351 129.628C127.516 129.123 127.546 128.623 127.442 128.126L127.09 126.449C127.032 126.558 126.879 126.679 126.632 126.812C126.388 126.939 126.101 127.067 125.772 127.195C125.446 127.317 125.127 127.433 124.815 127.541C124.507 127.644 124.257 127.728 124.066 127.796C123.603 127.957 123.179 128.152 122.794 128.378C122.413 128.598 122.125 128.872 121.929 129.2C121.737 129.521 121.689 129.914 121.787 130.38C121.92 131.017 122.257 131.449 122.796 131.676C123.339 131.897 123.976 131.931 124.706 131.779Z" fill="#231F20"/>
</g>
</g>
</g>
</svg>
