<svg width="223" height="189" viewBox="0 0 223 189" fill="none" xmlns="http://www.w3.org/2000/svg">
<g id="box-evoluir">
<g id="Group 2608090">
<path id="Vector" fill-rule="evenodd" clip-rule="evenodd" d="M220.099 72.973C218.785 71.4673 217.824 71.3391 216.126 72.4284C215.133 73.0691 214.204 73.1653 213.051 72.909C213.115 71.6275 213.339 70.4421 213.243 69.2887C213.115 67.2383 212.634 65.2199 213.243 63.1695C213.435 62.5608 213.115 61.8239 213.051 61.1191C212.826 59.325 212.538 57.5309 213.499 55.7368C214.781 55.4164 216.094 55.064 217.376 54.7436C217.696 54.0708 217.376 53.8145 216.959 53.4301C215.582 52.3088 213.531 51.7641 213.531 49.4254C213.531 49.105 212.794 48.5924 212.346 48.4963C212.025 48.4322 211.545 48.9128 211.193 49.2652C211 49.4574 210.904 49.8098 210.744 50.0982C208.79 50.0982 206.932 49.8739 205.137 49.2011C203.023 48.4002 200.908 47.4711 198.73 46.9905C196.327 46.4459 194.02 45.1003 191.425 45.8372C191.361 45.8372 191.233 45.709 191.137 45.6129C191.329 45.1003 191.425 44.4916 191.714 44.0431C192.675 42.6014 193.54 40.9995 194.821 39.8461C196.391 38.4365 198.41 37.5394 200.14 36.29C202.542 34.5279 205.137 32.894 206.611 30.1388C207.06 29.3058 207.508 28.4728 208.053 27.7039C209.527 25.6215 210.808 23.507 210.648 20.8158C210.552 19.4382 210.648 18.0285 210.456 16.683C210.231 15.0811 209.334 14.4083 207.732 14.4083C206.964 14.4083 206.195 14.4724 205.458 14.3442C199.435 13.2549 193.412 13.8316 187.389 14.4403C186.908 14.5044 186.331 14.6966 186.043 15.017C184.922 16.2665 183.576 17.3237 183.608 19.31C183.608 20.2071 183.192 21.1362 182.967 22.0332C182.134 25.3652 181.814 28.7291 183.031 32.061C183.768 34.1435 184.826 36.0657 186.427 37.6356C186.876 38.0841 187.389 38.4685 187.1 39.2374C186.588 40.583 186.139 41.9606 185.627 43.3062C185.178 44.4275 184.986 44.4916 183.768 44.0431C182.871 43.7227 181.974 43.4664 181.045 43.2101C179.539 42.7936 178.034 42.3771 176.496 41.9606C175.15 41.6082 173.837 41.2238 172.491 40.9354C171.754 40.7752 171.017 40.5189 171.049 39.75C171.049 38.3724 171.242 36.9948 171.498 35.6813C171.85 34.0153 172.427 32.4134 172.779 30.7475C173.164 29.1456 173.644 27.5437 173.644 25.9418C173.612 23.7953 174.574 21.9371 175.022 19.9508C175.471 18.0285 175.727 18.0926 174.285 16.715C174.509 15.6898 174.734 14.5685 174.958 13.3831C174.702 13.1588 174.477 12.8064 174.157 12.6783C172.331 12.0055 170.537 11.9414 168.967 13.2229C167.461 14.4403 166.692 16.0742 167.173 18.0606C167.397 19.0537 167.557 20.0149 167.173 21.008C166.82 22.0012 166.532 23.0584 166.34 24.0837C166.02 25.6855 165.923 27.3515 165.507 28.9213C164.642 32.1571 163.969 35.3929 163.745 38.7248C163.681 39.718 163.36 40.4869 162.399 40.6791V41.5441C162.143 41.5441 162.015 41.5762 161.887 41.5441C159.452 41.1597 159.228 40.8393 159.708 38.4685C160.157 36.2579 160.701 34.1114 160.99 31.8367C161.63 26.8068 162.656 21.809 163.585 16.7791C163.745 15.8179 163.777 14.9529 163.328 14.0559C162.784 12.9346 162.495 11.7171 162.079 10.5317C160.605 9.85896 159.131 10.1153 157.658 10.5317C156.857 10.756 156.312 11.2045 156.152 12.0375C155.96 13.2229 155.703 14.3763 155.607 15.5616C155.447 17.7402 155.607 19.9828 155.223 22.1294C154.646 25.269 154.582 28.5048 153.493 31.5484C153.429 31.7086 153.429 31.9329 153.461 32.093C153.877 33.9512 152.596 35.1046 151.763 36.5783C149.937 36.0978 148.143 35.7133 146.445 35.1366C143.401 34.1114 140.421 32.9901 137.378 31.9008C137.09 31.8047 136.705 31.7406 136.545 31.5164C135.904 30.7154 135.071 30.4271 134.11 30.2669C133.021 30.0747 132.797 29.6262 132.989 28.5048C133.149 27.5757 133.373 26.6467 133.309 25.7176C133.277 24.8205 133.405 24.0196 133.501 23.1546C133.758 21.008 134.591 18.8615 133.918 16.6189C133.758 16.0743 134.014 15.4335 134.078 14.6966C136.128 14.7927 137.538 15.9781 139.172 16.5228C140.902 17.0995 142.632 17.6441 144.458 18.2528C144.65 17.8043 144.843 17.3878 145.035 17.0033C147.95 16.4907 148.847 15.6578 148.303 14.0559C147.918 14.2481 147.502 14.3763 147.117 14.6005C145.323 15.6898 144.106 15.0811 144.074 12.9666C144.074 12.422 144.298 11.8773 144.49 11.3327C144.779 10.5317 145.419 10.2434 146.252 10.1793C147.085 10.1473 147.566 10.5317 147.886 11.2045C148.11 11.6851 148.303 12.1657 148.591 12.9666C148.591 10.5745 147.641 9.13277 145.74 8.64153C145.74 8.64153 145.419 8.51338 145.259 8.4493C145.227 8.4493 145.195 8.4493 145.163 8.4493C143.465 10.6919 143.465 10.756 142.664 15.2733C140.357 14.2481 138.115 13.287 135.84 12.2618C135.263 12.0055 135.071 11.589 134.943 10.9482C134.719 9.66673 134.206 9.4745 133.245 10.3395C132.732 10.788 132.284 10.8521 131.707 10.724C131.515 10.6919 131.323 10.6279 131.163 10.5317C128.279 8.64153 124.787 8.76968 121.647 7.71244C121.135 7.55225 120.526 7.6804 119.949 7.64836C118.7 7.64836 117.963 7.10372 117.611 5.95037C117.226 4.73294 117.611 3.32328 118.668 2.84272C119.437 2.49031 120.334 2.45827 121.263 2.234C121.712 3.80385 122.833 4.1883 124.082 4.57275C126.293 5.27758 128.407 6.20667 130.586 7.00761C131.291 7.26391 131.996 7.48817 132.732 7.6804C134.366 8.06485 136.032 8.54541 137.698 8.73764C139.044 8.89783 140.454 8.80171 141.831 8.73764C142.92 8.7056 144.01 8.54541 145.099 8.4493C145.099 8.4493 145.099 8.41726 145.163 8.38523C145.163 8.38523 145.163 8.38523 145.227 8.38523C145.515 7.6804 145.259 7.13576 144.554 6.94353C143.657 6.71927 142.696 6.49501 141.799 6.59112C140.357 6.81538 139.044 6.49501 137.698 6.17463C136.673 5.91833 135.616 5.69407 134.591 5.40573C133.437 5.11739 132.252 4.89313 131.131 4.47664C129.016 3.73977 126.902 2.87476 124.723 2.04178C124.691 1.91363 124.595 1.75344 124.563 1.59325C124.114 -0.00862715 123.954 -0.10474 122.32 0.055448C121.391 0.151561 120.43 0.215636 119.501 0.375824C118.828 0.503974 118.123 0.6962 117.579 1.04861C115.913 2.16993 115.048 5.02128 115.72 6.78334C116.297 8.32115 119.341 10.2114 121.007 10.1473C123.185 10.0512 125.107 10.8842 127.126 11.8773C127.03 13.7035 126.934 15.3694 126.838 17.0674C126.677 19.7586 126.613 22.4497 126.389 25.1409C126.261 26.5185 126.677 28.0563 125.62 29.3058C123.506 28.9534 121.455 28.6971 119.437 28.1845C118.444 27.9282 117.418 27.4476 116.618 26.7748C114.984 25.3972 114.407 25.3011 112.389 26.102C109.185 27.3515 105.885 28.4087 102.361 28.4728C101.336 28.4728 100.214 28.7291 99.2852 29.1776C97.9076 29.8504 96.4979 30.2349 94.9601 30.331C93.9669 30.3951 92.9738 30.5873 91.9806 30.7475C89.3215 31.228 86.6624 31.7406 84.0033 32.2212C83.1382 32.3814 82.2732 32.5095 81.4082 32.6697C77.5957 33.2464 73.9755 34.9124 70.0349 34.9124C69.8426 34.9124 69.6504 34.9444 69.4902 35.0085C67.4398 35.5531 65.3574 36.1298 63.307 36.6104C62.3458 36.8346 61.3206 36.8667 60.3275 36.9628C59.2702 37.0589 58.213 37.0589 57.1878 37.2831C55.2335 37.6996 53.2471 38.1482 51.3569 38.7889C49.1463 39.4937 46.6474 38.7889 44.565 40.1025C44.4048 40.1986 44.0844 40.0063 43.8281 40.0384C41.6816 40.3588 39.503 40.6151 37.3565 41.0315C36.1391 41.2558 34.9857 41.7684 33.7683 42.0247C31.814 42.4092 29.7956 42.6975 27.8413 43.0499C27.6171 43.0819 27.3928 43.2742 27.1685 43.3382C25.7268 43.7547 24.3172 44.2673 22.8755 44.5877C20.4727 45.1003 18.0058 45.3887 15.635 45.9653C13.6487 46.4459 11.6623 46.574 9.64397 46.3498C8.45858 46.2216 7.40133 46.3498 6.53632 47.1507C6.53632 47.3109 6.53632 47.4391 6.53632 47.5672C6.53632 48.8487 7.72171 49.8419 7.46541 51.2195C7.14503 53.0456 7.56152 54.8398 7.68967 56.6339C7.78579 58.1076 7.68967 59.6134 7.68967 61.1191C7.24115 61.1512 6.95281 61.2473 6.76058 61.2152C4.22961 60.4463 3.23645 63.2016 1.21808 63.6501C0.993815 63.7142 0.801589 64.2588 0.705476 64.6433C-0.383802 68.1033 -0.479915 70.7624 2.37143 73.2614C2.53162 73.4216 2.69181 73.6138 2.81996 73.806C2.65977 74.0303 2.53162 74.1905 2.46754 74.3507C2.33939 74.7351 2.27532 75.1196 2.17921 75.504C2.59569 75.6001 3.01218 75.7923 3.39664 75.7283C3.8772 75.6642 4.32573 75.3438 4.80629 75.2157C6.08779 74.8312 7.33726 74.1584 8.87506 74.3186C9.00321 75.0555 9.19544 75.7283 9.22748 76.4011C9.61193 83.129 9.99638 89.8569 10.3808 96.5848C10.6692 102.223 10.9575 107.894 11.2458 113.533C11.4701 118.434 11.6623 123.304 11.9186 128.206C12.0468 130.897 12.2711 133.62 12.4953 136.311C12.6875 138.49 12.9438 140.668 13.1361 142.879C13.2322 144.032 13.2963 145.186 11.9827 145.923C11.9827 145.923 12.0147 145.955 12.0468 145.987C12.9438 146.595 13.905 147.108 14.8981 147.589C15.4748 147.589 15.9233 147.781 16.2758 148.197C17.2369 148.582 18.198 148.966 19.1591 149.351C19.3514 149.351 19.5756 149.447 19.7999 149.511C23.1959 150.856 26.6239 152.106 29.9878 153.516C36.3954 156.175 42.7708 158.834 49.1143 161.589C54.3044 163.864 59.2382 166.651 64.5885 168.637C68.6572 170.175 72.5017 172.193 76.4744 173.956C82.6897 176.679 88.937 179.402 95.1844 182.061C96.3057 182.542 97.2668 182.926 97.3309 184.336C97.3309 184.592 97.6833 184.816 97.9076 185.137C99.157 184.432 100.278 184.368 101.656 184.912C103.13 185.489 103.322 186.739 103.835 188.084C105.18 186.899 106.494 186.931 107.935 187.475C108.352 187.636 108.896 187.411 109.377 187.379C109.409 187.059 109.505 186.867 109.473 186.674C109.185 185.073 109.281 184.88 110.787 184.432C111.267 184.272 111.748 184.111 112.228 183.951C114.663 182.99 117.034 181.869 119.533 181.068C122.16 180.235 124.915 179.754 127.542 178.985C132.124 177.64 136.673 176.134 141.222 174.724C141.863 174.532 142.568 174.372 143.209 174.18C144.715 173.731 146.22 173.283 147.694 172.802C148.751 172.45 149.776 171.969 150.834 171.681C153.076 171.104 155.383 170.752 157.626 170.143C160.573 169.31 163.489 168.285 166.404 167.324C167.109 167.1 167.814 166.811 168.518 166.523C172.107 165.017 176.175 165.049 179.571 162.903C179.764 162.774 180.052 162.806 180.308 162.742C181.878 162.294 183.48 161.909 185.018 161.429C188.19 160.436 191.361 159.41 194.533 158.449C196.071 157.969 197.769 157.873 199.178 157.168C201.998 155.758 204.913 154.669 207.861 153.644C209.046 153.227 210.263 152.266 211.609 152.843C213.051 153.419 213.82 152.202 214.781 151.689C215.229 151.433 215.197 150.28 215.389 149.543C213.211 148.806 213.147 148.806 213.115 146.724C213.083 143.904 213.243 141.053 213.179 138.234C213.179 136.215 212.826 134.229 212.826 132.211C212.826 129.648 213.051 127.085 213.147 124.522C213.147 123.849 213.019 123.144 212.987 122.471C212.923 121.67 212.666 120.805 212.826 120.036C213.275 117.441 212.506 114.91 212.57 112.347C212.57 110.777 212.442 109.208 212.474 107.638C212.506 103.921 212.602 100.205 212.698 96.5207C212.73 94.5984 212.858 92.6762 212.923 90.7219C212.955 89.7928 213.051 88.8637 213.019 87.9346C212.987 86.3968 212.858 84.827 212.762 83.0969C214.781 82.7765 216.639 82.296 218.465 82.296C220.195 82.296 221.316 81.495 222.342 80.4058C222.726 79.9893 222.95 79.3165 222.982 78.7398C223.175 76.2088 221.765 74.3186 220.227 72.5565M5.57519 71.7877C2.88403 71.211 2.37143 69.545 2.43551 67.9111C2.46754 66.7577 2.852 66.5014 4.54999 66.1811C5.54315 67.8791 6.34409 69.6091 5.57519 71.8197M7.75375 66.6296C7.3693 65.9888 6.98485 65.3481 6.40817 64.387C8.01005 64.7073 7.8819 65.6685 7.75375 66.6296ZM206.996 54.8077C207.925 54.4233 209.078 54.5514 210.231 54.4233C210.007 55.4805 209.27 55.4164 208.726 55.5446C204.785 56.5057 200.812 57.4348 196.84 58.3959C192.899 59.3571 188.99 60.5424 184.954 61.1191C184.025 61.2473 183.096 61.6317 182.166 61.9201C182.134 61.7278 182.07 61.5356 182.006 61.3754C182.647 61.1832 183.288 61.055 183.929 60.8308C187.549 59.5813 191.361 59.0367 195.046 58.1076C199.05 57.1144 203.119 56.4416 206.964 54.8077M191.233 50.0661C192.963 50.2904 194.725 50.6428 196.423 51.0593C198.986 51.7001 201.517 52.4369 204.08 53.1418C204.369 53.2058 204.625 53.3981 204.977 53.5583C203.247 54.9679 201.133 54.5194 199.307 55.0961C197.48 55.6727 195.558 56.0251 193.668 56.4416C191.778 56.8581 189.92 57.2426 187.741 57.7231C188.222 55.6727 187.613 53.8786 188.254 52.0845C188.862 50.3865 189.439 49.7778 191.265 50.0341M207.06 24.1798C206.355 26.4544 205.682 28.7611 203.792 30.363C201.421 32.3814 198.954 34.3357 196.455 36.2579C195.943 36.6424 195.206 36.8987 194.565 36.9948C193.444 37.155 192.547 36.7705 191.842 35.7133C189.599 32.2853 189.279 28.7611 190.817 24.8846C194.341 24.5322 197.705 24.1798 201.101 23.8274C201.293 25.0448 200.941 25.9418 200.236 26.7107C198.602 28.601 196.968 30.5552 195.238 32.3814C194.661 32.9901 193.796 33.3425 192.835 33.9512C192.931 34.3677 192.899 35.2007 193.251 35.3929C193.7 35.6492 194.501 35.5211 195.014 35.2648C195.782 34.8803 196.487 34.2716 197.096 33.6629C198.826 31.8688 200.716 30.1708 202.094 28.1204C202.895 26.967 204.176 25.9418 204.24 24.2759C204.24 23.9875 204.913 23.539 205.33 23.4749C205.842 23.3788 206.419 23.6031 206.899 23.6672C206.996 23.9235 207.092 24.0516 207.06 24.1477M186.652 33.759C186.171 33.0221 185.819 32.2212 185.37 31.4843C183.896 29.1136 183.929 26.5505 184.505 24.0196C185.018 21.7769 185.883 19.6304 186.524 17.548C191.009 16.2024 202.094 16.1704 208.373 17.4839C207.957 18.5411 207.604 19.4702 207.188 20.5275C206.547 20.4634 205.842 20.5275 205.33 20.3032C204.144 19.7586 202.991 19.8867 201.87 20.3673C199.114 21.5527 196.071 21.4245 193.187 22.0332C192.835 22.0973 192.451 22.0012 192.066 21.9692C192.386 20.6236 192.675 19.3741 192.963 18.1247C191.489 17.2276 190.272 17.6441 188.894 18.1247V19.6304C188.894 20.143 189.087 20.7517 188.83 21.1042C187.677 23.0584 187.965 25.269 187.581 27.3515C187.228 29.2097 187.613 31.196 187.677 33.1503C187.677 33.5668 187.709 33.9833 187.773 34.7522C187.228 34.3036 186.844 34.1114 186.652 33.791M171.722 42.4732C173.869 43.7547 176.24 44.3314 178.61 44.9081C180.436 45.3246 182.231 45.9013 184.153 46.4459C183.864 50.6749 181.398 54.167 179.956 58.0115C181.782 58.6202 182.935 57.595 184.057 54.5514C182.647 53.334 183.8 52.0525 184.217 50.8671C185.21 48.1119 186.524 45.4848 187.485 42.6975C187.901 41.448 188.766 40.7112 189.599 39.9102C189.791 39.718 190.4 39.6539 190.592 39.7821C190.849 40.0063 191.137 40.5189 191.073 40.8393C190.753 42.0567 190.304 43.2101 189.92 44.3955C189.215 46.574 188.574 48.7846 187.805 50.9312C187.389 52.1166 186.748 53.2058 186.267 54.3592C185.723 55.6727 185.274 57.0183 184.665 58.7163C178.258 60.5424 171.274 61.3434 164.193 63.4579C164.674 62.721 164.866 62.3686 165.122 62.0162C165.731 61.1832 165.987 60.3182 165.795 59.1969C165.603 58.1717 165.859 57.0824 165.955 56.0251C166.052 55.2883 166.308 54.5514 166.34 53.8145C166.404 51.9564 167.077 50.4826 168.486 49.1691C169.159 48.5604 169.319 47.407 169.704 46.4779C169.832 46.1896 169.864 45.9013 170.024 45.2285C173.068 45.9974 175.919 46.7022 178.77 47.4391C180.084 47.7915 180.981 47.8235 182.839 47.2789C182.327 47.0226 182.006 46.7663 181.654 46.6702C179.635 46.1896 177.617 45.8372 175.599 45.3246C174.061 44.9401 172.587 44.3955 171.081 44.011C170.313 43.8188 169.896 43.4344 170.152 42.6975C170.441 41.8966 171.113 41.9927 171.722 42.3451M95.3125 72.5886C94.832 72.4925 94.2232 72.2041 93.8708 72.3643C92.1088 73.1973 90.571 72.3323 88.9691 71.9158C86.9827 71.4032 84.9644 70.8265 82.9781 70.2819C80.9276 69.7372 78.8132 69.2887 76.7948 68.6159C75.7375 68.2635 74.8085 67.5587 73.8473 67.014C73.591 66.8539 73.3347 66.4694 73.1105 66.5014C71.028 66.7898 68.8495 65.8927 66.799 66.7898C66.4466 66.9179 66.1583 67.1742 65.87 67.4305C64.8768 68.2315 64.8768 68.3276 65.7738 69.8654C65.4214 70.1217 64.9409 70.3459 64.6525 70.7304C64.1079 71.4352 63.5312 71.7236 62.6021 71.6915C61.3206 71.6595 61.1284 71.9478 60.808 73.1653C60.4876 74.4147 60.0712 75.6642 59.6867 76.9777C57.1557 77.17 55.0092 76.4011 53.0229 75.1196C52.4142 74.7351 51.8375 74.2545 51.2608 73.774C50.9725 73.5497 50.4919 73.1653 50.556 72.973C50.9404 71.3712 49.723 69.9615 50.2036 68.3276C50.4599 67.3665 50.8123 67.0781 51.7414 67.1742C52.4462 67.2383 53.1831 67.1422 54.016 67.0781C53.7918 66.2131 53.6316 65.5723 53.4073 64.7714C52.5744 64.6753 51.6453 64.6433 50.7482 64.419C50.1715 64.2908 49.5308 64.0025 49.1784 63.554C48.3454 62.4327 46.8396 57.1785 46.7115 55.5125C50.6841 55.0961 54.6888 54.7116 58.6615 54.231C60.0071 54.0708 61.4808 53.7825 62.6342 53.1097C64.5244 52.0204 66.5748 51.9564 68.6252 51.604C70.5475 51.2836 72.4377 51.1554 74.2959 50.4186C75.7055 49.8739 77.3394 49.8739 78.9093 49.6497C81.1519 49.3613 83.3945 49.105 85.6372 48.7846C86.1177 48.7206 86.6303 48.6245 87.1109 48.4322C88.5846 47.8556 90.0584 47.2789 91.6602 47.407C91.9806 47.407 92.333 47.407 92.5893 47.2468C94.6077 45.7731 97.1707 45.7731 99.4133 44.812C101.624 43.8508 104.091 43.4344 106.462 42.7295C107.711 42.3451 108.961 41.8325 110.242 41.5441C111.908 41.1917 112.485 41.416 113.125 42.9218C114.439 45.9653 115.624 49.073 116.938 52.1486C117.579 53.6864 118.38 55.1922 119.052 56.73C119.501 57.7872 119.885 58.8445 120.238 59.9017C120.462 60.5745 120.174 60.991 119.629 61.5036C118.444 62.5929 117.322 63.7782 116.361 65.0597C115.977 65.6044 115.913 66.4694 115.913 67.2063C115.913 68.648 116.009 70.0897 116.105 71.8838C113.286 71.8838 110.787 73.3575 107.999 72.6527C107.391 72.4925 106.654 72.8449 105.949 72.8769C103.706 73.0371 101.432 73.2934 99.1891 73.2934C97.9716 73.2934 96.7222 72.8129 95.5047 72.5565M95.8892 76.9777C95.3125 76.8816 94.7038 76.7535 94.0951 76.6574C94.864 75.8244 95.4407 76.2409 95.8892 76.9777ZM91.5 77.5864C92.9738 78.1952 93.4223 79.2524 92.9738 80.7582C92.2049 80.5659 91.468 80.2456 90.6991 80.1815C88.2963 79.9252 86.31 78.4515 84.0033 77.9389C83.1382 77.7466 82.2732 77.5864 81.4723 77.3302C80.0947 76.9457 78.7491 76.4972 77.3715 76.0166C74.2318 74.9594 71.0921 73.9021 67.8243 72.8129C67.9204 72.6847 68.0165 72.4284 68.1446 72.4284C70.0669 71.9799 71.9891 71.243 74.0396 71.8517C77.7559 72.973 81.4723 73.9982 85.1566 75.1836C87.3031 75.8885 89.4176 76.7214 91.5 77.5544M90.6991 74.3827C90.6991 74.3827 90.7952 74.1264 90.8593 73.9982C91.5321 74.2545 92.2049 74.5108 92.9097 74.7671C91.8845 75.4079 91.3078 74.8953 90.7311 74.3827M41.6816 63.4579C43.2835 64.0986 44.7892 64.9636 46.327 65.7005C46.2629 65.8607 46.2309 66.0209 46.1668 66.1811C45.3018 66.085 44.4048 66.085 43.6038 65.8287C41.201 65.1238 38.8302 64.3229 36.4594 63.586C33.2236 62.5928 29.9878 61.6958 26.7841 60.6065C24.2211 59.7415 21.6901 58.6843 19.1591 57.5309C20.0562 57.2746 20.8892 57.4989 21.7221 56.8261C22.1707 56.4416 23.324 56.73 24.0609 56.9542C26.3356 57.627 28.6102 58.3639 30.8529 59.2289C34.4731 60.5745 38.0934 61.9841 41.6816 63.4579ZM36.5235 58.6522C37.6769 57.7872 38.5098 57.2105 39.2788 56.5698C39.8554 56.0572 40.368 55.4485 41.0729 54.7116C42.8349 54.5514 43.8281 55.2562 44.1805 57.2426C44.3407 58.1717 44.4368 59.1008 44.629 60.0298C44.7892 60.7667 45.0776 61.4395 45.3339 62.3045C45.2057 62.3045 44.8853 62.4006 44.565 62.3366C41.7136 61.7599 39.5671 59.7735 36.4594 58.6522M46.0707 68.9363C50.8443 77.3301 52.7346 77.2661 55.7461 78.7078C54.4966 78.868 53.5035 79.0922 52.5423 79.1243C51.9656 79.1243 51.2288 78.9641 50.8443 78.6117C49.4987 77.3942 48.0891 76.1768 46.9998 74.7351C45.7824 73.1012 45.3659 71.1789 46.0707 68.9683M120.238 65.3481C120.494 66.95 120.718 68.5518 120.846 70.1537C120.846 70.4741 120.462 70.9547 120.142 71.1149C119.725 71.3391 119.181 71.275 118.444 71.4032C118.251 71.275 117.803 71.0828 117.643 70.7624C116.938 69.3848 117.483 66.085 118.604 64.9316C118.828 64.7073 119.277 64.5151 119.565 64.5792C119.821 64.6112 120.174 65.0277 120.206 65.3481M112.485 75.0875C114.887 74.671 117.29 74.1905 119.693 73.7099C120.174 73.6138 120.686 73.4536 121.167 73.4536C122 73.4536 122.801 73.5817 123.41 72.7808C123.538 72.6206 123.858 72.5565 124.082 72.5245C126.485 72.0119 128.856 71.4352 131.259 71.0187C133.469 70.6343 135.712 70.41 137.955 70.1217C138.275 70.0897 138.627 70.1217 138.884 69.9615C141.607 68.2635 144.875 68.8722 147.758 67.815C147.822 67.815 147.886 67.815 147.95 67.815C150.77 66.3412 154.069 67.3665 156.921 65.9888C157.722 65.6044 158.779 65.7966 159.708 65.6364C164.354 64.7394 168.967 63.7782 173.58 62.8812C174.766 62.6569 175.983 62.5608 177.201 62.4327C177.201 62.5929 177.233 62.721 177.265 62.8812C174.894 63.4258 172.555 63.9384 170.184 64.5151C168.486 64.8996 166.756 65.3481 165.058 65.7646C164.129 65.9888 163.232 66.1811 162.303 66.4053C161.63 66.5655 160.893 66.5655 160.317 66.8859C158.779 67.7509 157.049 67.9752 155.415 68.0392C152.852 68.1674 150.481 69.0324 148.046 69.513C146.637 69.8013 145.195 69.9935 143.785 70.1858C143.241 70.2498 142.664 70.2498 142.087 70.346C140.005 70.7304 137.89 71.1789 135.808 71.6275C134.783 71.8517 133.758 72.1401 132.7 72.4284C128.76 73.4856 124.883 74.7031 120.782 75.0555C119.02 75.2157 117.29 75.2477 115.528 75.3438C115.272 75.3438 115.016 75.3759 114.791 75.472C111.203 76.7535 107.391 76.5292 103.738 77.17C106.558 76.0486 109.505 75.5681 112.485 75.0875ZM128.6 68.0713C129.24 67.5907 129.881 67.0461 130.522 66.5655C131.707 67.1422 131.227 68.1674 131.643 69.1926C128.375 69.6091 125.46 70.6663 122.256 70.6023C122.256 68.7441 122.224 67.1422 122.256 65.5083C122.288 64.7073 123.025 64.2268 123.89 64.387C124.627 64.5151 125.332 64.8034 126.069 64.9957C127.446 65.3801 128.6 65.9248 128.247 67.6868C128.247 67.7509 128.407 67.847 128.6 68.0713ZM163.713 58.8445C163.521 59.3891 163.36 59.9017 163.168 60.4143V60.4784H163.136C163.136 61.5036 163.136 62.4967 163.136 63.554H160.605C161.278 62.4006 161.855 61.4395 162.463 60.5104C162.527 60.4143 162.88 60.5104 163.104 60.5104V60.4463C162.944 59.8376 162.72 59.2289 163.649 58.8765M170.088 14.2801C170.377 14.0879 170.953 14.12 171.338 14.2801C171.979 14.5044 172.523 14.8568 173.356 15.3053C172.811 16.2665 172.363 17.1956 171.786 18.0285C171.402 18.5732 170.056 18.7334 169.736 18.2208C169.255 17.4839 168.871 16.5548 168.839 15.6898C168.839 15.2413 169.576 14.6646 170.12 14.3122M164.546 42.6655C165.315 40.7752 164.834 38.7569 165.219 36.8346C165.635 34.8803 166.148 32.926 166.532 30.9717C166.885 29.1456 167.525 27.3835 167.685 25.4613C167.814 23.8914 168.679 22.3857 169.287 20.8799C169.383 20.6556 169.736 20.4314 170.024 20.3673C170.857 20.143 171.722 20.0149 172.587 19.8547C172.683 20.0469 172.844 20.2071 172.844 20.3673C172.844 20.8799 172.811 21.3925 172.715 21.8731C171.178 30.0426 169.8 38.2443 167.557 46.4779C166.628 46.0614 166.02 45.7411 165.699 45.6129C165.283 44.7159 164.994 44.0751 164.706 43.4344C164.61 43.2101 164.514 42.9218 164.578 42.7295M163.424 49.3934C164.898 50.2584 165.154 50.7069 164.706 51.636C164.257 52.5651 163.905 53.3981 163.969 54.4553C163.969 54.8077 163.36 55.1922 163.04 55.5446C162.912 55.4805 162.752 55.4164 162.624 55.3524C162.88 53.4621 163.136 51.5399 163.456 49.3934M158.971 12.5501C159.932 12.8385 160.701 13.1588 160.765 14.4403C159.9 14.9209 159.163 15.5296 158.138 15.1131C157.882 14.0238 158.298 13.287 158.971 12.5822M153.621 38.6928C153.973 36.4822 154.262 34.2075 155.383 32.1571C155.639 31.6766 155.383 30.9397 155.479 30.331C155.8 28.0243 156.12 25.7176 156.536 23.4429C156.761 22.2895 157.177 21.1682 157.433 20.0149C157.626 19.2139 157.69 18.381 157.818 17.4839C159.035 17.0995 160.221 16.683 161.759 16.1704C161.598 17.3558 161.47 18.1887 161.342 19.0537C160.926 21.5847 160.509 24.0837 160.093 26.5826C159.548 29.9786 159.067 33.3746 158.427 36.7385C158.074 38.6928 157.562 40.6151 156.921 42.5053C156.536 43.6586 155.767 44.7159 155.159 45.8372C153.685 45.9974 153.493 45.9653 153.461 44.7159C153.365 42.7295 153.269 40.6791 153.589 38.7248M153.973 48.5924C153.973 48.5924 154.358 48.8487 154.39 49.0089C154.902 51.7641 154.486 54.5194 153.941 57.2105C153.813 57.8513 152.916 58.3639 152.179 58.8124C152.115 55.2883 151.218 51.7001 153.941 48.5924M139.845 35.2327C138.723 34.9764 137.602 34.7201 136.481 34.4318C135.36 34.1435 134.27 33.791 133.021 33.4386C134.559 32.7018 136.929 33.3105 139.845 35.2327ZM133.854 35.489C134.783 35.6492 135.712 35.8414 136.609 36.0977C139.877 36.9948 143.145 37.8598 146.445 38.7889C147.502 39.0772 148.431 39.0132 149.104 37.9239C149.937 38.1161 150.738 38.3083 151.603 38.5006C151.603 40.2306 151.667 41.8325 151.571 43.4344C151.506 44.0751 151.026 44.6518 150.77 45.2925C150.545 45.8372 150.129 46.4779 150.225 46.9905C150.802 50.771 150.225 54.5194 149.937 58.2678C149.808 59.9337 149.776 61.6317 149.68 63.2977C149.841 63.3938 150.001 63.4899 150.193 63.586C150.898 63.2977 151.635 62.9773 152.468 62.6569C152.724 63.1055 152.948 63.5219 153.172 63.9384C155.095 63.7142 155.928 62.9453 156.568 60.8308C154.967 59.9337 155.031 59.9658 155.511 58.0756C155.864 56.6018 155.928 55.0961 156.184 53.5903C156.376 52.501 156.761 51.4117 157.017 50.3224C157.209 49.5535 157.498 48.7206 157.433 47.9517C157.273 45.9653 158.427 44.4916 159.324 42.9218C159.484 42.6655 160.253 42.5053 160.605 42.6014C162.752 43.3062 163.136 44.3314 162.303 46.51C161.951 47.4391 161.791 48.4322 161.598 49.3934C161.214 51.636 160.861 53.8466 160.477 56.0892C160.028 58.6202 159.548 61.1191 159.067 63.8103C158.619 63.9705 158.042 64.2268 157.433 64.3229C153.813 64.9636 150.225 65.7966 146.573 66.3413C142.664 66.95 138.788 67.9111 134.911 68.712C134.366 68.8081 133.854 68.8722 133.149 68.9683V64.7394C131.932 64.419 131.163 63.8103 131.451 62.4967C131.483 62.3365 131.451 62.0802 131.323 61.9521C129.657 60.4143 130.394 58.428 130.33 56.6018C130.266 54.7757 130.33 52.9816 130.362 51.1554C130.362 50.835 130.362 50.5467 130.362 50.2263C130.746 47.8556 131.515 45.5168 131.451 43.1781C131.387 40.9034 132.412 38.9171 132.316 36.6744C132.316 35.5211 132.764 35.2327 133.886 35.3929M125.748 32.5095C124.499 32.4455 122.224 31.6445 121.615 31.0358C123.41 30.8756 124.787 31.3241 125.748 32.5095ZM117.899 40.1665C116.073 37.6035 117.803 35.0085 117.643 32.4134C118.988 31.9649 120.014 32.6057 121.071 32.8299C122 33.0221 122.897 33.2464 123.826 33.3746C125.332 33.5668 125.876 34.0794 125.748 35.5851C125.332 40.2626 124.851 44.9722 124.371 49.6497C124.05 52.7573 123.794 55.897 123.442 59.0046C123.345 59.8376 123.377 60.5745 124.146 60.9269C124.467 61.0871 125.043 60.9589 125.364 60.7667C126.005 60.3823 126.581 58.9085 126.197 58.428C124.947 56.8581 125.652 55.2242 125.812 53.5583C126.005 51.7001 126.037 49.8098 126.229 47.9517C126.709 42.8897 127.35 37.8598 127.735 32.7979C127.991 29.1776 127.863 25.4933 127.959 21.8731C127.959 21.0721 128.151 20.2391 128.247 19.4382C128.407 17.7402 128.503 16.0422 128.664 14.3763C128.696 13.9598 128.856 13.5433 128.92 13.1909C129.144 13.1268 129.272 13.0627 129.401 13.0948C133.149 13.9277 132.732 14.3763 132.7 17.6121C132.7 19.8547 132.54 22.0973 132.284 24.34C132.06 26.2622 131.643 28.1845 131.355 30.1067C131.259 30.6514 131.195 31.228 131.131 31.7727C130.938 34.0794 130.81 36.4181 130.586 38.7248C130.33 41.4801 129.977 44.2033 129.657 46.9585C129.497 48.4002 129.336 49.8419 129.208 51.2836C128.984 53.9107 128.792 56.5377 128.536 59.1648C128.439 60.126 128.183 61.0871 127.991 62.0162C126.453 61.9201 125.332 61.824 124.21 61.7919C123.506 61.7599 123.057 61.5036 122.897 60.7347C122.32 57.3066 120.718 54.199 119.309 51.0593C118.476 49.1691 117.995 47.1507 117.322 45.1644C117.194 44.812 117.066 44.4596 116.938 44.1072C115.913 41.9286 115.977 41.6723 117.867 40.1986M54.0801 40.2947C60.4556 39.0772 66.7991 37.7957 73.1745 36.6424C77.7559 35.8094 82.3693 35.1046 86.9507 34.2716C89.3535 33.8231 91.7243 33.1823 94.1271 32.7018C97.6513 32.029 101.207 31.5164 104.7 30.7154C106.333 30.331 108.031 30.363 109.633 29.6262C111.427 28.8252 113.446 28.9213 115.496 29.2417C115.496 30.1388 115.048 30.6193 114.215 30.7475C110.306 31.3882 106.398 32.061 102.489 32.6697C98.0357 33.3746 93.5505 33.9833 89.0652 34.7201C85.2207 35.3609 81.4082 36.0337 77.5957 36.8026C75.0007 37.3152 72.4697 38.052 69.8747 38.5967C67.1515 39.1734 64.4283 39.686 61.7371 40.2306C59.8469 40.6151 57.9246 40.9995 56.0344 41.416C52.7025 42.0888 49.3706 42.6975 46.0707 43.5305C42.8349 44.3635 39.5351 44.5877 36.2672 45.0042C35.3381 45.1324 34.409 45.2925 33.4799 45.4527C32.3586 45.645 31.2693 45.8051 30.148 45.9653C30.116 45.8372 30.084 45.709 30.0519 45.5809C37.9972 43.4984 46.0387 41.8645 54.1122 40.3267M39.0545 46.3818C43.2514 45.5488 47.4163 44.6518 51.6132 43.7868C51.9336 43.7227 52.2219 43.6266 52.5423 43.5946C56.0024 42.9218 59.4945 42.313 62.9225 41.6082C67.1515 40.7112 71.3484 39.6539 75.6094 38.7889C79.9985 37.9239 84.3877 37.187 88.7768 36.4502C95.9853 35.2968 103.194 34.1435 110.434 33.0542C111.299 32.926 112.196 33.0542 113.157 33.0542C113.862 34.3998 114.567 35.7774 113.99 37.5074C113.702 37.6356 113.35 37.8278 112.997 37.8919C109.665 38.5646 106.494 39.8461 103.29 40.9675C100.695 41.8966 97.9716 42.5053 95.3446 43.2742C92.7495 44.0431 90.1865 44.9081 87.5594 45.5488C84.5479 46.2537 81.5043 46.6702 78.4928 47.3109C76.7948 47.6633 75.1288 48.208 73.4308 48.5924C72.6619 48.7526 71.7969 48.5924 71.028 48.7846C67.8243 49.4574 64.6525 50.3224 61.4488 50.8671C58.3411 51.4117 55.2014 51.636 52.0938 51.9884C51.453 52.0525 50.8443 52.0845 50.2356 52.1806C47.2241 52.5971 44.3407 52.1166 41.5534 51.0593C41.233 50.9312 40.7204 50.771 40.4962 50.9312C39.4069 51.7641 38.1895 52.533 37.3885 53.5903C36.6837 54.5835 35.9789 55.4805 35.0177 56.2174C34.6974 56.4737 34.377 56.8261 34.1527 57.1785C33.8003 57.6911 33.3838 57.7872 32.8392 57.595C31.9101 57.2426 30.981 56.9222 30.0199 56.5377C28.6743 56.0251 27.3287 55.5125 25.9511 54.9999C25.5346 54.8397 25.1181 54.7436 24.7016 54.5514C23.7726 54.0709 23.7085 53.6223 24.4774 52.533C22.6512 51.7001 20.1843 52.9816 18.6465 50.6428C19.896 50.2904 21.0494 49.8739 22.2347 49.6497C27.8413 48.5283 33.4799 47.5031 39.1186 46.3818M27.3287 46.1896C25.5987 47.5993 18.8388 48.9128 16.4359 48.272C20.0882 47.1828 23.6124 46.574 27.3287 46.1896ZM14.2253 48.7206C14.0652 49.2652 14.0331 49.8098 13.8089 49.906C13.1361 50.1943 12.5274 50.0021 11.9186 49.0089C12.7516 48.9128 13.3603 48.8167 14.2253 48.7206ZM13.7448 126.892C13.7448 125.162 13.4244 123.432 13.2963 121.67C13.1681 120.004 12.8157 118.306 13.2963 116.64C13.3924 116.288 13.2963 115.871 13.2642 115.519C12.8798 113.116 12.9118 110.713 12.9438 108.278C12.9438 107.157 12.6875 106.036 12.6235 104.915C12.3992 101.487 12.1429 98.0264 12.0788 94.5664C12.0147 91.6189 12.239 88.6715 12.207 85.724C12.1749 83.161 11.9507 80.5659 11.7905 78.0029C11.5983 75.1836 11.374 72.3643 11.1497 69.545C11.0536 68.1033 10.8934 66.6616 10.7973 65.2199C10.6692 63.3297 10.6371 61.4715 10.4449 59.6134C10.2206 57.4348 9.83619 55.2562 9.54785 53.0777C9.4197 52.1486 9.32359 51.2195 9.25952 50.2584C9.22748 49.6817 9.45174 49.2652 10.1245 49.2972C10.2206 49.3613 10.3808 49.4254 10.3808 49.5215C10.6371 51.604 10.8934 53.7184 11.1497 55.8009C11.2138 56.1853 11.0857 56.6339 11.2779 56.9222C12.5594 59.1648 12.3351 61.6958 12.5914 64.0986C13.104 68.9683 13.4564 73.8701 13.7768 78.7398C13.937 81.1747 13.8729 83.6416 14.0011 86.0764C14.0652 87.454 14.4176 88.7996 14.5137 90.1772C14.7059 92.9325 14.8341 95.6877 14.9942 98.4429C15.0583 100.141 15.1224 101.807 15.1544 103.505C15.1544 105.78 15.1544 108.022 15.1544 110.297C15.1544 112.251 15.1865 114.205 15.2185 116.128C15.2185 117.441 15.3146 118.755 15.3467 120.1C15.4107 122.183 15.4748 124.233 15.5389 126.316C15.635 131.153 15.7311 135.991 15.7952 140.829C15.7952 141.63 15.7952 142.431 15.7952 143.231C13.969 137.945 13.7448 132.403 13.8089 126.86M94.7679 180.651C92.5573 179.754 90.3787 178.793 88.2002 177.8C86.7264 177.127 85.3168 176.294 83.9071 175.557C83.7469 175.461 83.5547 175.365 83.3945 175.333C80.9917 174.949 78.8132 173.956 76.6666 172.962C73.9434 171.681 71.1562 170.528 68.4009 169.278C65.8059 168.093 63.2749 166.875 60.6799 165.69C57.4761 164.216 54.2724 162.742 51.0366 161.333C44.5009 158.513 37.9652 155.758 31.4295 152.971C28.0015 151.529 24.6055 150.056 21.1775 148.614C20.2484 148.229 19.5115 147.877 19.5436 146.627C19.5756 145.73 18.4543 145.154 18.6145 144.097C18.6786 143.552 18.4863 143.007 18.4863 142.463C18.4863 141.533 18.6465 140.604 17.7174 139.9C17.4291 139.675 17.333 139.099 17.301 138.682C17.1408 134.485 17.0447 130.32 16.8845 126.123C16.7563 122.792 16.5321 119.428 16.8845 116.064C17.0447 114.654 16.7563 113.212 16.5321 111.803C16.2758 110.105 16.0515 108.471 16.4039 106.773C16.5321 106.164 16.5321 105.491 16.4039 104.882C16.2117 104.017 15.9874 103.217 16.3398 102.319C16.468 101.967 16.1796 101.487 16.1476 101.038C16.0835 100.173 15.8272 99.2439 16.0195 98.4429C16.2117 97.674 16.1156 97.0012 16.0195 96.2323C15.8593 94.3101 15.7952 92.3878 15.6991 90.4656C15.5389 87.1016 15.4107 83.7377 15.1865 80.3737C15.0583 78.6116 14.7379 76.8816 14.5457 75.1516C14.4176 74.0303 14.5457 72.8769 14.3215 71.8197C13.8729 69.8974 13.937 68.0392 14.3215 66.085C14.5137 65.1879 14.1613 64.0666 13.7768 63.1695C13.104 61.5997 13.7127 60.126 13.7768 58.3639C14.6418 58.6202 15.3467 58.7804 16.0515 59.0367C18.5504 60.0298 21.0173 61.1832 23.5803 62.0482C26.5598 63.0734 29.6034 63.7782 32.6149 64.7394C34.7614 65.4122 36.8759 66.2131 39.0224 66.9179C40.368 67.3665 41.7777 67.7509 43.0271 68.1354C43.1873 68.4237 43.3155 68.5198 43.2835 68.648C43.0912 72.0439 44.8213 74.639 46.8396 77.1059C47.2882 77.6505 47.7367 78.1631 48.1852 78.6757C49.6269 80.2456 51.3249 81.3989 53.5996 81.3028C54.1762 81.3028 54.7529 81.3028 55.2976 81.3028C59.6226 81.3028 62.0895 79.3485 62.9545 75.0875C62.9866 74.9273 63.1147 74.7671 63.307 74.3827C64.7166 74.607 66.1903 74.7671 67.632 75.1516C70.0669 75.7923 72.4377 76.5612 74.8725 77.2661C78.8132 78.3874 82.7217 79.5087 86.6303 80.6621C88.873 81.3348 91.0515 82.1358 93.2621 82.8086C94.4155 83.161 94.6077 84.0901 94.6718 85.0192C94.896 88.7676 95.0242 92.548 95.2164 96.3285C95.3766 99.5963 95.6329 102.864 95.761 106.1C95.8251 107.702 95.5688 109.336 95.5688 110.938C95.5688 113.757 95.6329 116.576 95.6329 119.396C95.6329 120.517 95.5368 121.606 95.5047 122.727C95.5047 124.906 95.5048 127.085 95.5368 129.263C95.5368 129.904 95.4727 130.513 95.5368 131.153C96.0494 135.607 95.5688 140.092 95.6009 144.545C95.6009 145.41 95.7931 146.275 95.9212 147.14C95.9533 147.525 96.0173 147.877 96.0173 148.261C96.0173 152.907 95.8892 157.552 95.9533 162.198C96.0173 165.337 96.3377 168.477 96.4659 171.617C96.594 174.116 96.6261 176.647 96.6261 179.146C96.6261 180.812 96.2096 181.068 94.7358 180.459M102.361 182.734C102.201 182.702 101.88 182.702 101.848 182.606C101.304 181.388 100.246 180.748 99.2852 179.915C98.8687 179.53 98.7405 178.665 98.6765 178.024C98.4522 174.468 98.3241 170.88 98.1318 167.324C98.0037 164.729 97.8755 162.198 97.7474 159.603C97.6513 157.68 97.459 155.758 97.459 153.804C97.459 151.177 97.7474 148.55 97.5872 145.923C97.459 143.552 98.0037 141.213 97.4911 138.842C97.3629 138.266 97.5552 137.593 97.5872 136.952C97.6513 135.51 98.0998 134.069 97.2668 132.691C97.1707 132.563 97.1066 132.307 97.1707 132.146C97.8755 130.096 96.6261 128.174 96.8503 126.155C97.0746 124.361 97.0425 122.535 97.0425 120.709C97.0425 119.075 96.9144 117.473 96.9464 115.839C96.9785 114.302 97.0746 112.732 97.2989 111.226C97.5872 109.496 97.9716 107.798 97.1707 106.132C96.8503 105.459 96.7222 104.882 97.2348 104.21C97.459 103.889 97.5231 103.409 97.4911 102.992C97.3309 101.262 97.0105 99.5322 96.9144 97.7701C96.8503 96.4566 97.1066 95.1431 97.1066 93.8616C97.1066 90.9141 97.0105 87.9346 97.0105 84.9871C97.0105 83.9619 97.0105 82.9688 97.1066 81.9756C97.1066 81.6232 97.2668 81.2067 97.4911 80.9504C97.8115 80.63 98.3241 80.2456 98.6765 80.3096C99.0289 80.3737 99.5415 80.8863 99.6056 81.2387C99.8619 83.0328 100.118 84.859 100.15 86.6851C100.214 90.4656 99.8939 94.278 100.214 98.0264C100.535 101.839 100.086 105.683 100.599 109.496C100.823 111.226 101.047 112.988 101.143 114.75C101.207 116 100.983 117.249 100.983 118.498C100.983 120.325 101.047 122.151 101.079 123.945C101.079 124.682 100.983 125.419 101.015 126.155C101.207 132.05 101.4 137.977 101.656 143.872C101.784 147.012 102.137 150.12 102.265 153.259C102.361 155.566 102.265 157.905 102.329 160.243C102.617 166.395 102.937 172.546 103.29 178.697C103.386 180.139 103.162 181.516 102.393 182.766M211.289 149.19C211.16 150.344 210.52 150.985 209.463 151.337C206.932 152.234 204.401 153.195 201.838 153.996C197.577 155.342 193.284 156.591 189.023 157.873C187.1 158.449 185.146 158.994 183.256 159.635C178.002 161.397 172.844 163.319 167.557 164.921C162.271 166.523 156.857 167.74 151.539 169.246C146.893 170.56 142.28 172.065 137.666 173.379C133.822 174.5 129.913 175.461 126.037 176.519C124.819 176.839 123.602 177.159 122.416 177.576C118.988 178.793 115.592 180.139 112.132 181.228C110.146 181.837 108.16 182.926 105.917 182.221C105.725 182.189 105.565 182.093 105.276 181.965C105.02 177.384 104.86 172.962 104.571 168.509C104.219 162.935 103.77 157.392 103.418 151.818C103.29 149.639 103.354 147.428 103.258 145.25C103.066 141.309 102.809 137.369 102.553 133.396C102.521 132.787 102.361 132.146 102.489 131.57C102.937 129.167 102.233 126.828 102.137 124.457C102.072 122.759 102.265 121.094 102.265 119.428C102.265 116.352 102.265 113.308 102.265 110.233C102.265 108.246 101.944 106.26 102.201 104.146C102.681 104.242 103.034 104.21 103.258 104.37C104.443 105.235 105.693 105.267 107.038 104.85C107.391 104.754 107.839 104.69 108.128 104.85C109.249 105.363 110.114 104.915 111.139 104.498C112.869 103.761 114.727 103.345 116.553 102.896C116.906 102.8 117.386 103.088 117.771 103.281C118.764 103.793 119.821 104.306 120.718 104.947C121.423 105.427 121.936 106.196 122.544 106.773C122.865 107.093 123.249 107.317 123.922 107.83C123.794 106.965 123.73 106.58 123.698 106.164C123.57 104.338 123.858 103.953 125.716 103.793C126.645 103.697 127.638 103.729 128.536 103.889C130.81 104.37 131.451 104.082 132.284 101.967C132.412 101.647 132.508 101.294 132.572 101.134C133.694 100.718 134.687 100.333 135.648 99.9487C135.84 99.8846 136.032 99.7565 136.193 99.7885C139.364 100.365 141.959 98.3148 144.907 97.8983C145.772 97.7701 146.637 97.4818 147.47 97.2575C150.738 96.4246 154.037 95.5595 157.337 94.7266C157.818 94.5984 158.33 94.4382 158.811 94.4382C161.15 94.4382 163.456 94.4062 165.795 94.5343C166.596 94.5664 167.974 94.1499 167.974 95.8479C167.974 95.944 168.775 96.2003 169.095 96.0722C171.113 95.3032 173.292 94.9508 175.022 93.4771C176.015 92.6441 177.585 92.9004 178.546 91.7791C179.155 91.0743 179.86 90.4976 180.949 90.7219C181.269 90.7859 181.654 90.5296 182.006 90.3695C182.423 90.2093 182.775 89.8889 183.192 89.7928C186.652 89.12 190.048 88.1589 193.604 88.2229C193.956 88.2229 194.533 88.287 194.629 88.4792C195.526 90.1772 197.192 89.5044 198.089 89.152C199.723 88.5433 201.005 88.9278 202.414 89.4724C203.279 89.7928 204.08 90.3695 205.234 89.6967C204.785 89.1841 204.433 88.7355 204.112 88.3511C206.323 87.6783 208.597 86.9735 211.096 86.1725C211.513 86.3968 211.353 87.0375 211.321 87.6463C211.321 90.7859 211.321 93.9577 211.257 97.0974C211.193 100.814 211.064 104.498 210.968 108.214C210.968 109.592 210.968 110.97 211.032 112.347C211.16 115.615 211.353 118.883 211.481 122.151C211.545 124.489 211.481 126.828 211.481 129.135C211.481 132.467 211.481 135.799 211.481 139.131C211.481 140.124 211.321 141.117 211.257 142.142C211.225 142.655 211.16 143.167 211.257 143.648C211.769 145.474 211.513 147.268 211.321 149.094M104.475 98.2187H107.07C107.551 100.974 107.519 101.326 106.59 102.864C103.802 102.48 103.354 101.551 104.475 98.2187ZM117.579 96.5848C118.155 96.5848 118.732 96.9372 119.309 97.1614C119.981 97.4177 120.654 97.674 121.327 97.9303C121.359 97.8342 121.423 97.7701 121.455 97.674C120.943 97.1935 120.43 96.7449 119.693 96.0722C121.039 95.6877 122.096 95.3353 123.153 95.079C124.21 94.8227 125.236 95.6557 125.492 96.9051C125.748 98.1866 125.364 98.8274 123.986 98.9555C121.295 99.2439 118.636 99.5963 116.041 100.397C114.343 100.91 112.645 101.294 110.947 101.711C110.594 101.807 110.21 101.807 109.761 101.871V97.1614C112.485 96.9372 115.048 96.6809 117.611 96.5848M117.29 93.5412C117.867 90.0491 120.526 88.5754 124.114 89.6646C123.89 91.651 120.142 93.8295 117.29 93.5412ZM126.613 93.7654C126.197 93.1888 125.588 92.7402 124.979 92.1315C125.973 91.4908 126.709 90.9782 127.606 91.9393C127.799 92.1636 128.151 92.3558 128.407 92.3558C130.041 92.4199 130.458 93.6693 130.714 94.8868C130.97 96.2323 131.131 97.61 129.817 98.6992C128.76 99.5642 127.991 100.782 126.357 100.814C126.357 100.621 126.229 100.365 126.325 100.301C127.799 99.2118 127.703 97.5459 127.735 96.0401C127.735 95.2712 127.126 94.4703 126.645 93.7654M122.416 103.184C121.808 102.928 121.423 102.8 120.975 102.608C121.701 102.052 122.181 102.245 122.416 103.184ZM132.829 92.3558C134.398 92.0995 135.103 92.4839 135.424 93.8616C135.488 94.1499 135.52 94.4703 135.584 94.7906C135.936 96.3284 135.584 96.777 133.758 96.9692C133.085 96.3284 133.213 95.5595 133.213 94.6945C133.213 93.9256 132.957 93.1567 132.829 92.3878M137.474 97.3537C137.634 95.2712 137.762 93.381 137.923 91.2985C138.435 91.2985 139.044 91.2985 139.653 91.2985C142.888 91.3626 146.06 91.0422 149.008 89.5685C149.392 89.3763 149.873 89.3763 150.289 89.2802C151.795 88.8637 153.301 88.4152 154.806 87.9987C154.87 87.9987 154.935 87.9346 154.967 87.9346C159.131 87.454 162.848 85.4357 166.917 84.6668C167.589 84.5386 168.326 84.4745 168.967 84.6347C169.448 84.7308 170.056 85.1473 170.248 85.5638C171.049 87.3579 171.979 89.2161 170.825 91.2665C170.697 91.4908 170.665 91.7471 170.537 92.0675C169.704 92.0675 168.999 92.1315 168.326 92.0675C165.379 91.715 162.431 91.9393 159.484 92.2597C158.875 92.3238 158.234 92.3237 157.594 92.4199C156.568 92.6121 155.543 92.8684 154.518 93.0606C152.051 93.5091 149.776 94.5023 147.245 94.8547C144.522 95.2392 141.895 96.2323 139.236 96.9692C138.723 97.0974 138.179 97.2255 137.474 97.3857M173.484 85.9162C173.388 85.6279 173.388 85.3075 173.356 85.0192C173.612 84.891 173.741 84.7308 173.933 84.7308C177.905 84.4425 181.782 83.7056 185.562 82.5202C187.421 81.9436 189.343 81.5591 191.233 81.0465C192.707 80.63 194.181 80.1815 195.654 79.7009C197.545 79.0922 200.108 80.8543 200.204 82.8406C200.236 84.2182 198.858 85.756 197.48 85.5959C194.341 85.1794 191.393 86.2686 188.35 86.557C183.384 87.0375 179.091 89.12 174.67 91.0743C174.445 91.1704 174.189 91.2024 173.677 91.3306C173.612 90.5937 173.26 89.8248 173.516 89.3443C174.189 88.1268 173.933 87.0696 173.516 85.9162M208.149 85.1153C206.932 85.2114 205.97 85.2755 204.881 85.3396C205.394 84.1221 205.842 83.129 206.259 82.1038C206.707 81.0145 206.515 80.0213 205.81 79.0602C205.618 78.8039 205.49 78.5155 205.33 78.2272C204.881 77.3301 204.433 76.4331 203.984 75.504C205.298 74.7351 206.163 74.8953 207.476 75.7924C209.046 76.8816 209.559 78.3554 209.591 80.1815C209.591 81.0465 209.462 81.8475 208.758 82.3921C207.925 83.0328 207.861 83.8338 208.149 85.0833M211.577 67.7829C211.417 69.1606 211.417 70.5382 211.321 71.9158C211.225 73.1973 210.744 73.6458 209.655 73.1653C207.829 72.3643 206.034 72.3323 204.272 73.1332C204.048 72.909 203.856 72.8128 203.76 72.6527C202.703 70.6022 202.19 70.378 199.883 70.8586C198.698 71.1149 197.448 72.108 196.84 73.4216C197.609 73.1332 198.185 72.941 198.73 72.7488C200.524 72.0439 201.005 72.2362 202.158 73.9982C201.613 74.8312 200.652 75.0234 199.755 75.1516C198.698 75.3118 197.705 75.472 196.744 76.1448C195.943 76.7214 195.526 76.4331 194.982 75.1836C192.771 78.4194 189.343 79.0602 185.883 79.6689C185.402 79.765 184.922 79.9572 184.441 80.0854C180.821 81.2387 177.105 81.8154 173.324 81.8475C172.075 81.8475 170.825 81.5591 169.608 81.2387C168.55 80.9824 167.653 81.0145 166.724 81.6232C166.148 82.0076 165.507 82.2639 164.834 82.4562C162.367 83.2251 159.932 84.026 157.433 84.7308C153.941 85.724 150.385 86.557 146.893 87.5822C143.369 88.6074 139.813 88.4792 136.225 88.2229C135.103 88.1589 133.886 88.5753 132.797 89.0239C131.675 89.4724 130.65 89.5685 129.497 89.3122C128.055 88.9598 126.677 88.5753 125.3 87.8705C122.833 86.6211 120.494 87.7103 118.412 89.12C116.714 90.2733 115.432 91.8111 115.368 94.4062C113.093 94.4062 111.011 94.5343 108.961 94.4062C106.654 94.246 104.732 94.8227 103.226 96.6168C102.97 96.9372 102.553 97.1294 102.169 97.4498C101.336 96.3925 101.528 95.2071 101.464 94.1499C101.368 92.516 101.432 90.8821 101.464 89.2481C101.464 87.9346 101.56 86.6211 101.528 85.2755C101.528 83.7697 101.4 82.2639 101.304 80.5659C102.809 80.2776 104.251 80.0213 105.725 79.765C111.043 78.7718 116.361 77.7466 121.647 76.7855C124.979 76.1448 128.247 75.3118 131.547 74.4788C136.096 73.2934 140.806 72.5886 145.387 71.6595C149.072 70.8906 152.756 70.0576 156.44 69.2567C160.605 68.3596 164.802 67.4946 168.967 66.5655C169.832 66.3733 170.633 66.085 171.498 65.8607C174.381 65.1879 177.265 64.5471 180.148 63.8744C182.967 63.2016 185.755 62.4967 188.542 61.824C192.29 60.9269 196.007 60.126 199.755 59.1969C202.19 58.6202 204.625 57.9474 207.028 57.2105C208.437 56.794 209.815 56.5698 211.417 56.8902C211.417 58.6522 211.417 60.3502 211.417 62.0482C211.417 62.3686 211.353 62.721 211.481 62.9773C212.122 64.5792 211.833 66.1811 211.609 67.815M219.875 78.035C219.811 78.4515 219.394 78.9641 219.042 79.1563C217.28 80.0854 215.421 80.4698 213.243 80.4378C213.083 78.9641 212.923 77.6826 212.762 76.4011C214.268 76.0807 215.71 75.6962 217.184 75.4079C218.753 75.0875 220.195 76.4651 219.907 78.035" fill="#231F20"/>
<g id="box">
<path id="Vector_2" d="M74.1465 115.657L74.9732 121.249L79.4474 117.794L81.4064 118.584L75.6038 122.675L76.9458 129.647L74.9868 128.857L74.0671 123.496L69.6859 126.72L67.7269 125.93L73.4719 121.815L72.1875 114.867L74.1465 115.657Z" fill="#231F20"/>
<path id="Vector_3" d="M61.1736 123.555C60.1749 123.152 59.3944 122.561 58.8323 121.782C58.2749 121.004 57.9573 120.103 57.8793 119.078C57.8062 118.055 58.0001 116.972 58.4608 115.829C58.9255 114.677 59.5399 113.755 60.3042 113.064C61.0733 112.375 61.9282 111.944 62.8689 111.771C63.8144 111.599 64.7865 111.715 65.7852 112.118C66.784 112.52 67.562 113.11 68.1194 113.888C68.6815 114.667 68.9982 115.571 69.0694 116.599C69.1454 117.628 68.951 118.72 68.4864 119.872C68.0256 121.015 67.4116 121.928 66.6445 122.612C65.8822 123.299 65.0282 123.728 64.0827 123.899C63.142 124.072 62.1723 123.958 61.1736 123.555ZM61.7893 122.028C62.5479 122.334 63.2505 122.391 63.8971 122.2C64.5436 122.008 65.1123 121.643 65.6032 121.104C66.094 120.565 66.4885 119.926 66.7867 119.187C67.0848 118.447 67.245 117.711 67.2672 116.977C67.2894 116.244 67.135 115.581 66.804 114.99C66.473 114.399 65.9282 113.95 65.1696 113.645C64.4109 113.339 63.7074 113.284 63.0589 113.48C62.4103 113.676 61.8397 114.046 61.3469 114.59C60.8542 115.134 60.4587 115.775 60.1606 116.515C59.8624 117.254 59.7032 117.988 59.6829 118.717C59.6626 119.446 59.819 120.103 60.1519 120.69C60.4848 121.276 61.0306 121.722 61.7893 122.028Z" fill="#231F20"/>
<path id="Vector_4" d="M44.4058 116.526L50.3533 101.776L52.053 102.461L49.8575 107.906L50.0016 107.964C50.2039 107.822 50.4755 107.647 50.8164 107.438C51.164 107.227 51.5941 107.088 52.1067 107.021C52.6261 106.951 53.2458 107.062 53.9661 107.352C54.8976 107.728 55.6247 108.292 56.1475 109.044C56.6704 109.796 56.9587 110.68 57.0126 111.695C57.0666 112.711 56.8593 113.799 56.3907 114.961C55.9183 116.133 55.3096 117.068 54.5645 117.767C53.8214 118.461 53.002 118.901 52.1065 119.087C51.2129 119.268 50.3051 119.173 49.3832 118.801C48.6726 118.514 48.1511 118.167 47.8186 117.76C47.4881 117.347 47.2685 116.943 47.16 116.548C47.0535 116.148 46.9784 115.822 46.9349 115.57L46.7332 115.488L46.0479 117.188L44.4058 116.526ZM48.307 111.668C47.9701 112.504 47.7954 113.29 47.7828 114.027C47.7721 114.76 47.9294 115.401 48.2548 115.951C48.5821 116.496 49.0866 116.906 49.7684 117.181C50.479 117.468 51.1475 117.519 51.7739 117.337C52.407 117.151 52.9723 116.787 53.4699 116.245C53.9742 115.701 54.3851 115.035 54.7026 114.247C55.0163 113.469 55.1789 112.72 55.1905 111.999C55.2088 111.275 55.0515 110.634 54.7185 110.075C54.3922 109.514 53.869 109.088 53.1487 108.798C52.4573 108.519 51.8057 108.46 51.1938 108.621C50.5839 108.777 50.033 109.118 49.5412 109.646C49.0514 110.168 48.64 110.842 48.307 111.668Z" fill="#231F20"/>
</g>
<g id="evoluir">
<path id="Vector_5" d="M190.359 123.492L187.051 110.738L188.944 110.247L189.444 112.174L189.576 112.139C189.645 111.448 189.933 110.827 190.44 110.276C190.947 109.725 191.583 109.35 192.346 109.152C192.49 109.115 192.671 109.071 192.888 109.021C193.106 108.97 193.271 108.936 193.385 108.918L193.901 110.911C193.831 110.912 193.672 110.926 193.425 110.955C193.183 110.976 192.932 111.021 192.671 111.088C192.051 111.249 191.532 111.523 191.112 111.909C190.696 112.289 190.406 112.742 190.242 113.269C190.081 113.789 190.076 114.337 190.225 114.913L192.318 122.984L190.359 123.492Z" fill="#231F20"/>
<path id="Vector_6" d="M184.81 124.931L181.502 112.177L183.462 111.669L186.77 124.423L184.81 124.931ZM181.947 109.793C181.566 109.892 181.202 109.848 180.858 109.659C180.519 109.469 180.303 109.192 180.208 108.827C180.113 108.461 180.168 108.113 180.371 107.783C180.581 107.451 180.876 107.235 181.258 107.136C181.64 107.037 182.001 107.083 182.339 107.272C182.684 107.461 182.903 107.738 182.998 108.103C183.093 108.468 183.035 108.817 182.826 109.149C182.622 109.479 182.329 109.694 181.947 109.793Z" fill="#231F20"/>
<path id="Vector_7" d="M177.909 121.156L175.954 113.617L177.913 113.109L181.221 125.862L179.262 126.371L178.702 124.212L178.569 124.246C178.438 124.971 178.116 125.643 177.602 126.26C177.088 126.872 176.349 127.303 175.386 127.553C174.588 127.76 173.835 127.769 173.124 127.581C172.412 127.388 171.787 126.983 171.249 126.366C170.71 125.744 170.3 124.89 170.018 123.805L167.916 115.701L169.876 115.193L171.943 123.164C172.184 124.094 172.637 124.768 173.301 125.187C173.97 125.604 174.712 125.707 175.526 125.496C176.013 125.37 176.476 125.117 176.915 124.737C177.36 124.356 177.687 123.863 177.896 123.26C178.112 122.654 178.116 121.953 177.909 121.156Z" fill="#231F20"/>
<path id="Vector_8" d="M163.225 112.38L167.635 129.385L165.675 129.894L161.265 112.889L163.225 112.38Z" fill="#231F20"/>
<path id="Vector_9" d="M156.974 132.435C155.823 132.733 154.742 132.721 153.73 132.399C152.725 132.075 151.851 131.483 151.108 130.624C150.371 129.764 149.831 128.675 149.49 127.357C149.145 126.029 149.085 124.807 149.31 123.691C149.54 122.574 150.016 121.629 150.737 120.857C151.464 120.084 152.403 119.548 153.554 119.249C154.706 118.951 155.784 118.963 156.79 119.287C157.801 119.61 158.676 120.204 159.415 121.07C160.159 121.935 160.703 123.031 161.048 124.36C161.389 125.677 161.444 126.892 161.213 128.003C160.987 129.114 160.51 130.055 159.783 130.829C159.062 131.601 158.126 132.136 156.974 132.435ZM156.518 130.674C157.392 130.448 158.054 130.037 158.502 129.442C158.95 128.847 159.215 128.149 159.297 127.348C159.379 126.547 159.309 125.72 159.088 124.868C158.867 124.015 158.525 123.256 158.063 122.59C157.601 121.925 157.029 121.438 156.346 121.13C155.664 120.823 154.886 120.783 154.011 121.009C153.136 121.236 152.476 121.65 152.029 122.25C151.582 122.851 151.318 123.554 151.238 124.361C151.158 125.167 151.228 125.997 151.449 126.849C151.67 127.702 152.011 128.458 152.472 129.118C152.933 129.779 153.504 130.26 154.184 130.562C154.865 130.864 155.643 130.901 156.518 130.674Z" fill="#231F20"/>
<path id="Vector_10" d="M146.286 121.311L144.878 135.288L142.885 135.804L134.861 124.274L136.987 123.723L143.143 132.973L143.276 132.938L144.161 121.862L146.286 121.311Z" fill="#231F20"/>
<path id="Vector_11" d="M131.361 139.077C130.132 139.396 129.002 139.4 127.97 139.088C126.942 138.77 126.06 138.184 125.324 137.329C124.593 136.467 124.058 135.383 123.719 134.076C123.38 132.77 123.319 131.557 123.537 130.437C123.759 129.31 124.226 128.356 124.939 127.574C125.656 126.786 126.59 126.242 127.742 125.944C128.406 125.771 129.091 125.712 129.796 125.765C130.501 125.819 131.184 126.026 131.844 126.386C132.504 126.741 133.096 127.284 133.623 128.016C134.15 128.748 134.567 129.709 134.876 130.899L135.091 131.729L125.26 134.279L124.821 132.585L132.659 130.552C132.472 129.833 132.162 129.228 131.728 128.738C131.299 128.247 130.779 127.906 130.169 127.716C129.564 127.524 128.907 127.52 128.198 127.704C127.418 127.906 126.793 128.275 126.323 128.811C125.858 129.339 125.552 129.95 125.407 130.643C125.262 131.337 125.281 132.035 125.463 132.738L125.756 133.867C126.006 134.83 126.384 135.604 126.889 136.187C127.399 136.764 127.998 137.149 128.687 137.343C129.374 137.531 130.113 137.522 130.904 137.317C131.419 137.184 131.865 136.991 132.243 136.739C132.625 136.481 132.93 136.165 133.159 135.793C133.386 135.415 133.525 134.983 133.576 134.497L135.607 134.538C135.574 135.232 135.386 135.883 135.042 136.492C134.696 137.096 134.212 137.623 133.591 138.074C132.968 138.519 132.224 138.853 131.361 139.077Z" fill="#231F20"/>
</g>
</g>
</g>
</svg>
