<svg width="223" height="189" viewBox="0 0 223 189" fill="none" xmlns="http://www.w3.org/2000/svg">
<g id="box-agir" clip-path="url(#clip0_577_1023)">
<path id="Vector" fill-rule="evenodd" clip-rule="evenodd" d="M220.214 72.6029C218.9 71.097 217.939 70.9688 216.241 72.0582C215.248 72.699 214.319 72.7631 213.165 72.5388C213.229 71.2572 213.453 70.0717 213.357 68.9183C213.229 66.8677 212.749 64.8812 213.357 62.7986C213.55 62.1898 213.229 61.4208 213.165 60.748C212.941 58.9537 212.652 57.1595 213.614 55.3652C214.895 55.0448 216.209 54.6924 217.491 54.372C217.811 53.6991 217.491 53.4428 217.074 53.0583C215.696 51.9369 213.646 51.3922 213.646 49.0533C213.646 48.7009 212.909 48.1882 212.46 48.1241C212.14 48.0601 211.659 48.5407 211.307 48.8611C211.115 49.0533 211.018 49.4057 210.858 49.6941C208.904 49.6941 207.045 49.5019 205.251 48.797C203.137 47.996 201.022 47.0668 198.843 46.5542C196.44 46.0095 194.133 44.6638 191.538 45.4007C191.474 45.4007 191.346 45.2726 191.25 45.1764C191.442 44.6638 191.538 44.055 191.826 43.6065C192.788 42.1647 193.653 40.5306 194.934 39.4092C196.504 37.9994 198.523 37.1023 200.253 35.8527C202.656 34.0905 205.251 32.4565 206.725 29.701C207.174 28.868 207.622 28.0349 208.167 27.2659C209.641 25.1833 210.922 23.0687 210.762 20.3773C210.666 18.9996 210.762 17.5898 210.57 16.2441C210.346 14.6421 209.448 13.9692 207.846 14.0013C207.077 14.0013 206.309 14.0654 205.572 13.9372C199.548 12.8478 193.524 13.4246 187.501 14.0333C187.02 14.0974 186.444 14.2896 186.155 14.6101C185.034 15.8276 183.688 16.9169 183.72 18.9034C183.72 19.8006 183.304 20.7297 183.079 21.6269C182.246 24.9911 181.926 28.3233 183.143 31.6555C183.88 33.7381 184.938 35.6605 186.54 37.2305C186.988 37.679 187.501 38.0635 187.213 38.8325C186.7 40.1782 186.251 41.5559 185.739 42.9016C185.29 44.023 185.098 44.055 183.88 43.6385C182.983 43.3181 182.086 43.0618 181.157 42.8055C179.651 42.3889 178.145 41.9724 176.607 41.5559C175.262 41.2034 173.948 40.819 172.602 40.5306C171.865 40.3704 171.128 40.1141 171.16 39.3131C171.16 37.9353 171.353 36.5576 171.609 35.244C171.961 33.5779 172.538 31.9759 172.891 30.3098C173.275 28.7078 173.756 27.1057 173.756 25.5037C173.724 23.357 174.685 21.4987 175.133 19.5122C175.582 17.5898 175.838 17.6539 174.396 16.3082C174.621 15.2829 174.845 14.1615 175.069 12.976C174.813 12.7517 174.589 12.3993 174.268 12.3032C172.442 11.6624 170.648 11.5662 169.078 12.8478C167.572 14.0654 166.803 15.6994 167.284 17.718C167.508 18.7112 167.668 19.6724 167.284 20.6657C166.931 21.6589 166.643 22.7162 166.45 23.7415C166.13 25.3435 166.034 27.0096 165.617 28.5796C164.752 31.8157 164.079 35.0517 163.855 38.3839C163.791 39.3772 163.471 40.1461 162.51 40.3384V41.2034C162.253 41.2034 162.125 41.2355 161.997 41.2034C159.562 40.819 159.338 40.4986 159.818 38.1276C160.267 35.9168 160.811 33.7701 161.1 31.4953C161.741 26.4649 162.766 21.4667 163.695 16.4363C163.855 15.4751 163.887 14.6101 163.439 13.7129C162.894 12.5915 162.606 11.374 162.189 10.1885C160.715 9.51565 159.241 9.77198 157.768 10.1885C156.967 10.4128 156.422 10.8613 156.262 11.7264C156.069 12.9119 155.813 14.0654 155.717 15.2509C155.557 17.4616 155.717 19.7044 155.333 21.8191C154.756 24.959 154.692 28.1951 153.602 31.2389C153.538 31.3991 153.538 31.6234 153.57 31.8157C153.987 33.674 152.705 34.8274 151.872 36.3013C150.046 35.8207 148.252 35.4362 146.553 34.8595C143.51 33.8342 140.53 32.7128 137.486 31.6234C137.198 31.5273 136.813 31.4632 136.653 31.2389C136.012 30.4379 135.179 30.1496 134.218 29.9894C133.129 29.7971 132.904 29.3486 133.097 28.2272C133.257 27.298 133.481 26.3688 133.417 25.4397C133.385 24.5746 133.513 23.7415 133.609 22.8764C133.866 20.7297 134.699 18.583 134.026 16.3082C133.866 15.7635 134.122 15.1227 134.186 14.3858C136.237 14.4819 137.646 15.6674 139.28 16.2121C141.011 16.7888 142.741 17.3335 144.567 17.9102C144.759 17.4616 144.951 17.0451 145.144 16.6606C148.059 16.148 148.956 15.3149 148.412 13.7129C148.027 13.9052 147.611 14.0333 147.226 14.2576C145.432 15.347 144.215 14.7382 144.182 12.6236C144.182 12.0789 144.407 11.5342 144.599 10.9895C144.887 10.1885 145.528 9.90014 146.361 9.83606C147.194 9.80402 147.675 10.1885 147.995 10.8613C148.22 11.3419 148.412 11.8546 148.7 12.6236C148.7 10.2312 147.75 8.78941 145.849 8.29813C145.849 8.29813 145.528 8.16996 145.368 8.10588C145.368 8.10588 145.368 8.10588 145.368 8.13792C145.336 8.13792 145.304 8.13792 145.272 8.13792C143.574 10.3807 143.574 10.4448 142.773 14.9625C140.466 13.9372 138.223 12.944 135.948 11.9507C135.371 11.6944 135.179 11.2779 135.051 10.6371C134.827 9.35545 134.314 9.16321 133.353 10.0283C132.84 10.4769 132.392 10.5409 131.815 10.4128C131.623 10.3807 131.43 10.3167 131.27 10.2205C128.387 8.33017 124.894 8.45833 121.754 7.401C121.242 7.2408 120.633 7.33692 120.056 7.33692C118.807 7.33692 118.07 6.79223 117.717 5.63879C117.333 4.42126 117.717 3.01149 118.775 2.53088C119.544 2.17844 120.441 2.11436 121.37 1.92212C121.818 3.49209 122.94 3.84453 124.189 4.26106C126.4 4.96594 128.515 5.89511 130.694 6.69611C131.398 6.95244 132.103 7.17672 132.84 7.36896C134.474 7.75344 136.14 8.23405 137.806 8.42629C139.152 8.58649 140.562 8.45833 141.94 8.42629C143.029 8.36221 144.118 8.23404 145.208 8.13792C145.208 8.13792 145.208 8.10588 145.272 8.07384C145.272 8.07384 145.272 8.07384 145.336 8.07384C145.624 7.36896 145.368 6.82427 144.663 6.66407C143.766 6.43979 142.805 6.18347 141.908 6.31163C140.466 6.50387 139.152 6.21551 137.806 5.89511C136.781 5.63879 135.724 5.4145 134.699 5.12614C133.545 4.83778 132.36 4.6135 131.238 4.19698C129.124 3.46005 127.009 2.59496 124.83 1.76192C124.798 1.63376 124.702 1.47356 124.67 1.31335C124.221 -0.288657 124.061 -0.384778 122.427 -0.224577C121.498 -0.128456 120.537 -0.0643756 119.608 0.0958256C118.935 0.223987 118.23 0.416228 117.685 0.768671C116.019 1.89008 115.154 4.74166 115.827 6.50387C116.404 8.0418 119.447 9.93218 121.114 9.8681C123.292 9.77198 125.215 10.605 127.233 11.5983C127.137 13.4246 127.041 15.1227 126.945 16.7888C126.785 19.4802 126.721 22.1715 126.496 24.8629C126.368 26.2407 126.785 27.7786 125.727 29.0282C123.613 28.6757 121.562 28.4194 119.544 27.9067C118.55 27.6504 117.525 27.1378 116.724 26.497C115.09 25.1192 114.513 25.0231 112.495 25.8241C109.291 27.0737 105.991 28.1631 102.466 28.2272C101.441 28.2272 100.319 28.4835 99.3903 28.932C98.0125 29.6049 96.6028 29.9894 95.0648 30.0855C94.0716 30.1496 93.0783 30.3418 92.0851 30.502C89.4257 30.9826 86.7664 31.4632 84.1071 31.9759C83.242 32.1361 82.3769 32.2963 81.5118 32.4244C77.699 33.0011 74.0785 34.6672 70.1375 34.6672C69.9453 34.6672 69.753 34.6993 69.5928 34.7634C67.5423 35.308 65.4597 35.8848 63.4091 36.3654C62.4479 36.5897 61.4226 36.6217 60.4293 36.7178C59.372 36.8139 58.3147 36.8139 57.2894 37.0382C55.3349 37.4547 53.3484 37.9353 51.4581 38.5441C49.2473 39.249 46.7482 38.5761 44.6655 39.8578C44.5053 39.9539 44.1849 39.7616 43.9286 39.7937C41.7819 40.1141 39.6032 40.4024 37.4565 40.7869C36.239 41.0112 35.0855 41.5238 33.868 41.7802C31.9135 42.1647 29.895 42.453 27.9405 42.8055C27.7163 42.8375 27.492 43.0297 27.2677 43.0938C25.8259 43.5103 24.4161 44.023 22.9743 44.3434C20.5713 44.856 18.1042 45.1444 15.7332 45.7211C13.7467 46.2017 11.7602 46.3299 9.74168 46.1056C8.55619 45.9774 7.49887 46.1056 6.63378 46.9066C6.63378 47.0668 6.63378 47.195 6.63378 47.3231C6.63378 48.6047 7.81927 49.5659 7.56295 50.9757C7.24254 52.802 7.65907 54.5963 7.78723 56.3905C7.88335 57.8644 7.78723 59.3703 7.78723 60.8761C7.33867 60.9082 7.0503 61.0364 6.85806 60.9402C4.32688 60.1713 3.33364 62.9267 1.3151 63.3753C1.09082 63.4394 0.898579 63.9841 0.802458 64.3685C-0.28691 67.8289 -0.383031 70.4882 2.46855 72.9874C2.62875 73.1476 2.78895 73.3398 2.91711 73.532C2.75691 73.7563 2.62875 73.9165 2.56467 74.0767C2.43651 74.4612 2.37243 74.8457 2.27631 75.2302C2.69283 75.3263 3.10935 75.4865 3.49384 75.4545C3.97444 75.3904 4.423 75.07 4.90361 74.9418C6.18522 74.5573 7.43479 73.8845 8.97272 74.0447C9.10088 74.7816 9.29312 75.4545 9.32516 76.1273C9.70964 82.8557 10.0941 89.5842 10.4786 96.3126C10.767 101.952 11.0553 107.623 11.3437 113.262C11.568 118.164 11.7602 123.034 12.0165 127.936C12.1447 130.628 12.369 133.351 12.5933 136.043C12.7855 138.221 13.0418 140.4 13.2341 142.611C13.3302 143.764 13.3943 144.886 12.0806 145.655C12.0806 145.655 12.1127 145.687 12.1447 145.719C13.0418 146.327 14.003 146.84 14.9963 147.321C15.573 147.321 16.0216 147.513 16.374 147.929C17.3352 148.314 18.2964 148.698 19.2576 149.083C19.4499 149.083 19.6742 149.179 19.8984 149.243C23.2947 150.589 26.723 151.87 30.0872 153.248C36.4953 155.907 42.8713 158.567 49.2152 161.354C54.4058 163.597 59.34 166.385 64.6907 168.403C68.7598 169.941 72.6046 171.96 76.5776 173.69C82.7934 176.445 89.0413 179.137 95.2891 181.828C96.4105 182.309 97.3717 182.661 97.4358 184.103C97.4358 184.359 97.7882 184.583 98.0125 184.904C99.2621 184.167 100.384 184.135 101.761 184.68C103.235 185.256 103.427 186.506 103.94 187.852C105.286 186.666 106.599 186.698 108.041 187.243C108.458 187.403 109.002 187.179 109.483 187.115C109.515 186.794 109.611 186.602 109.579 186.442C109.291 184.84 109.387 184.68 110.893 184.199C111.373 184.039 111.854 183.879 112.335 183.718C114.77 182.757 117.141 181.636 119.64 180.835C122.267 180.002 125.022 179.553 127.65 178.752C132.231 177.406 136.781 175.933 141.331 174.491C141.972 174.299 142.677 174.138 143.317 173.946C144.823 173.498 146.329 173.049 147.803 172.568C148.86 172.216 149.886 171.735 150.943 171.447C153.186 170.902 155.493 170.55 157.736 169.909C160.683 169.076 163.599 168.051 166.515 167.122C167.219 166.897 167.924 166.609 168.629 166.321C172.218 164.815 176.287 164.847 179.683 162.7C179.875 162.572 180.164 162.604 180.42 162.54C181.99 162.123 183.592 161.707 185.13 161.226C188.302 160.233 191.474 159.208 194.646 158.246C196.184 157.798 197.882 157.67 199.292 156.965C202.111 155.555 205.027 154.466 207.975 153.44C209.16 153.024 210.378 152.063 211.723 152.639C213.165 153.216 213.934 151.999 214.895 151.486C215.344 151.23 215.312 150.044 215.504 149.339C213.325 148.602 213.261 148.602 213.229 146.52C213.197 143.7 213.357 140.849 213.293 138.029C213.293 136.043 212.941 134.024 212.941 132.005C212.941 129.442 213.165 126.879 213.261 124.316C213.261 123.643 213.133 122.97 213.101 122.265C213.037 121.432 212.781 120.599 212.941 119.83C213.389 117.235 212.62 114.704 212.685 112.141C212.685 110.571 212.556 109.001 212.588 107.431C212.62 103.714 212.717 99.9973 212.813 96.3126C212.845 94.3902 212.973 92.4678 213.037 90.5134C213.069 89.5842 213.165 88.655 213.133 87.7259C213.101 86.1879 212.973 84.618 212.877 82.8558C214.895 82.5674 216.754 82.0547 218.58 82.0547C220.31 82.0547 221.431 81.2537 222.457 80.1644C222.841 79.7799 223.066 79.075 223.098 78.4983C223.29 75.9671 221.88 74.0767 220.342 72.3145M5.67257 71.4174C2.98119 70.8407 2.46855 69.1746 2.53263 67.5405C2.56467 66.3871 2.94915 66.1308 4.64729 65.8103C5.64053 67.5085 6.44154 69.2386 5.67257 71.4494M7.85131 66.2589C7.46683 65.6181 7.08234 64.9773 6.50562 64.0161C8.10763 64.3365 7.97947 65.2977 7.85131 66.2589ZM207.11 54.4361C208.039 54.0516 209.192 54.1797 210.346 54.0516C210.121 55.0769 209.384 55.0448 208.84 55.173C204.899 56.1342 200.926 57.0954 196.953 58.0246C193.012 58.9858 189.103 60.1713 185.066 60.748C184.137 60.8761 183.208 61.2606 182.278 61.549C182.246 61.3567 182.182 61.1966 182.118 61.0043C182.759 60.8441 183.4 60.6839 184.041 60.4596C187.661 59.2421 191.474 58.6654 195.159 57.7362C199.164 56.743 203.233 56.0701 207.077 54.4361M191.346 49.6941C193.076 49.9504 194.838 50.2708 196.536 50.6874C199.099 51.3282 201.631 52.0651 204.194 52.802C204.482 52.8661 204.739 53.0583 205.091 53.2185C203.361 54.6603 201.246 54.1797 199.42 54.7565C197.594 55.3332 195.671 55.6856 193.781 56.1022C191.89 56.5187 190.032 56.9032 187.853 57.3838C188.334 55.3011 187.725 53.5389 188.366 51.7447C188.975 50.0465 189.551 49.4378 191.378 49.6941M207.174 23.8056C206.469 26.0805 205.796 28.3874 203.905 29.9894C201.535 32.0079 199.067 33.9624 196.568 35.8848C196.056 36.3013 195.319 36.5256 194.678 36.6217C193.557 36.7819 192.659 36.3974 191.954 35.3401C189.712 31.9118 189.391 28.3553 190.929 24.5105C194.454 24.158 197.818 23.8056 201.214 23.4532C201.406 24.6707 201.054 25.5678 200.349 26.3368C198.715 28.2272 197.081 30.1816 195.351 32.0079C194.774 32.6167 193.909 32.9691 192.948 33.5779C193.044 33.9944 193.012 34.8274 193.364 35.0197C193.813 35.276 194.614 35.1478 195.126 34.8915C195.895 34.507 196.6 33.9303 197.209 33.2895C198.939 31.4953 200.83 29.7971 202.207 27.7465C203.008 26.5931 204.29 25.5678 204.354 23.9017C204.354 23.6134 205.027 23.1328 205.443 23.0687C205.956 22.9726 206.533 23.1968 207.013 23.293C207.11 23.5493 207.206 23.6774 207.174 23.7736M186.764 33.3856C186.283 32.6487 185.931 31.8477 185.482 31.0787C184.009 28.7078 184.041 26.1445 184.617 23.6134C185.13 21.3705 185.995 19.2238 186.636 17.1412C191.121 15.7955 202.207 15.7635 208.487 17.0771C208.071 18.1345 207.718 19.0636 207.302 20.121C206.661 20.0569 205.956 20.121 205.443 19.8967C204.258 19.352 203.104 19.4802 201.983 19.9608C199.228 21.1463 196.184 21.0501 193.3 21.6269C192.948 21.6909 192.563 21.5948 192.179 21.5628C192.499 20.2171 192.788 18.9675 193.076 17.718C191.602 16.8208 190.385 17.2374 189.007 17.718V19.2238C189.007 19.7365 189.199 20.3453 188.943 20.6977C187.789 22.6521 188.078 24.8629 187.693 26.9455C187.341 28.8039 187.725 30.7904 187.789 32.7448C187.789 33.1613 187.821 33.5779 187.885 34.3468C187.341 33.8983 186.956 33.706 186.764 33.3856ZM171.833 42.1006C173.98 43.3501 176.351 43.9589 178.722 44.5036C180.548 44.9201 182.342 45.5289 184.265 46.0415C183.976 50.2708 181.509 53.7632 180.068 57.608C181.894 58.2168 183.047 57.1915 184.169 54.1477C182.759 52.9302 183.912 51.6486 184.329 50.4631C185.322 47.7076 186.636 45.0803 187.597 42.2928C188.014 41.0432 188.879 40.3063 189.712 39.5053C189.904 39.3131 190.513 39.249 190.705 39.4092C190.961 39.6335 191.25 40.1461 191.186 40.4665C190.865 41.684 190.417 42.8375 190.032 44.023C189.327 46.2017 188.686 48.4125 187.917 50.5592C187.501 51.7447 186.86 52.8341 186.379 53.9875C185.835 55.3011 185.386 56.6468 184.777 58.345C178.369 60.1713 171.385 60.9723 164.304 63.0869C164.784 62.35 164.977 61.9655 165.233 61.6451C165.842 60.8121 166.098 59.947 165.906 58.8256C165.714 57.8003 165.97 56.7109 166.066 55.6536C166.162 54.9167 166.418 54.1797 166.45 53.4108C166.515 51.5524 167.187 50.0786 168.597 48.797C169.27 48.1882 169.43 47.0348 169.815 46.1056C169.943 45.8172 169.975 45.5289 170.135 44.856C173.179 45.625 176.031 46.2978 178.882 47.0668C180.196 47.4192 181.093 47.4513 182.951 46.9066C182.439 46.6503 182.118 46.394 181.766 46.2978C179.747 45.8493 177.729 45.4648 175.71 44.9522C174.172 44.5677 172.698 44.023 171.192 43.6385C170.423 43.4463 170.007 43.0618 170.263 42.3569C170.552 41.5559 171.224 41.652 171.833 42.0044M95.4173 72.2184C94.9367 72.1223 94.3279 71.8339 93.9755 71.9941C92.2132 72.8272 90.6753 71.93 89.0733 71.5455C87.0868 71.0329 85.0683 70.4562 83.0818 69.9115C81.0312 69.3668 78.9165 68.9182 76.898 68.2454C75.8407 67.893 74.9115 67.1881 73.9503 66.6434C73.694 66.4832 73.4377 66.0987 73.2134 66.1307C71.1308 66.4191 68.952 65.522 66.9015 66.4191C66.549 66.5793 66.2607 66.8036 65.9723 67.0599C64.9791 67.8609 64.979 67.957 65.8762 69.495C65.5237 69.7513 65.0431 69.9756 64.7548 70.3601C64.2101 71.0649 63.6334 71.3533 62.7042 71.3213C61.4226 71.2892 61.2303 71.5776 60.9099 72.7951C60.5895 74.0447 60.173 75.2943 59.7885 76.6079C57.2573 76.8001 55.1107 76.0312 53.1242 74.7496C52.5154 74.3651 51.9387 73.8845 51.3619 73.4039C51.0736 73.1796 50.593 72.7951 50.6571 72.6029C51.0415 71.0009 49.824 69.5911 50.3046 67.957C50.5609 66.9958 50.9134 66.7395 51.8426 66.8036C52.5474 66.8677 53.2844 66.7715 54.1174 66.7075C53.8931 65.8424 53.7329 65.2016 53.5086 64.4006C52.6756 64.3045 51.7464 64.2724 50.8493 64.0802C50.2726 63.952 49.6318 63.6316 49.2793 63.2151C48.4463 62.0937 46.9404 56.8391 46.8122 55.173C50.7852 54.7565 54.7903 54.372 58.7632 53.8914C60.1089 53.7312 61.5828 53.4428 62.7362 52.77C64.6266 51.6806 66.6772 51.6165 68.7278 51.2641C70.6502 50.9437 72.5405 50.8155 74.3989 50.0786C75.8086 49.5339 77.4427 49.5339 79.0127 49.3096C81.2555 49.0213 83.4983 48.7649 85.7411 48.4766C86.2217 48.4125 86.7344 48.3164 87.215 48.1241C88.6888 47.5474 90.1627 46.9707 91.7647 47.0988C92.0851 47.0988 92.4375 47.0988 92.6939 46.9386C94.7124 45.4648 97.2756 45.4648 99.5184 44.5036C101.729 43.5424 104.196 43.1259 106.567 42.421C107.817 42.0365 109.066 41.5238 110.348 41.2355C112.014 40.883 112.591 41.1073 113.232 42.6132C114.545 45.657 115.731 48.7649 117.044 51.8408C117.685 53.3787 118.486 54.8846 119.159 56.4226C119.608 57.4478 119.992 58.5372 120.345 59.5945C120.569 60.2674 120.28 60.6839 119.736 61.1966C118.55 62.2859 117.429 63.4714 116.468 64.753C116.083 65.2977 116.019 66.1628 116.019 66.8997C116.019 68.3415 116.115 69.7833 116.211 71.5455C113.392 71.5455 110.893 73.0194 108.105 72.3145C107.496 72.1543 106.76 72.5067 106.055 72.5388C103.812 72.699 101.537 72.9553 99.2941 72.9553C98.0766 72.9553 96.827 72.4747 95.6095 72.2184M95.994 76.6079C95.4173 76.5118 94.8085 76.3836 94.1997 76.2875C94.9687 75.4545 95.5454 75.871 95.994 76.6079ZM91.6045 77.2167C93.0783 77.8254 93.5269 78.8828 93.0783 80.4207C92.3094 80.2285 91.5724 79.908 90.8035 79.844C88.4005 79.5876 86.414 78.1138 84.1071 77.6012C83.242 77.4089 82.3769 77.2487 81.5759 77.0244C80.1982 76.6079 78.8525 76.1914 77.4747 75.7108C74.3348 74.6534 71.1949 73.5961 67.9268 72.5068C68.0229 72.3786 68.119 72.1223 68.2471 72.0902C70.1696 71.6417 72.092 70.9047 74.1425 71.5135C77.8592 72.6349 81.5759 73.6922 85.2605 74.8457C87.4072 75.5506 89.5219 76.3836 91.6045 77.2167ZM90.8035 74.0126C90.8035 74.0126 90.8996 73.7563 90.9637 73.6282C91.6365 73.8845 92.3094 74.1408 93.0143 74.3971C91.989 75.0379 91.4122 74.5253 90.8355 73.9806M41.7819 63.0869C43.3839 63.7277 44.8898 64.5928 46.4277 65.3297C46.3637 65.4899 46.3316 65.6501 46.2675 65.8103C45.4025 65.7142 44.5053 65.7142 43.7043 65.4579C41.3013 64.753 38.9303 63.952 36.5594 63.2151C33.3233 62.2218 30.0872 61.3247 26.8832 60.2353C24.32 59.3703 21.7888 58.2809 19.2576 57.1595C20.1548 56.9032 20.9878 57.0954 21.8208 56.4546C22.2694 56.1022 23.4229 56.3585 24.1598 56.6148C26.4346 57.2876 28.7095 58.0246 30.9523 58.8576C34.5729 60.2033 38.1934 61.6131 41.7819 63.0869ZM36.6234 58.2809C37.7769 57.4158 38.6099 56.8391 39.3789 56.1983C39.9556 55.6856 40.4683 55.0769 41.1732 54.3399C42.9354 54.1797 43.9286 54.8846 44.2811 56.8711C44.4413 57.8003 44.5374 58.7295 44.7296 59.6586C44.8898 60.3635 45.1782 61.0684 45.4345 61.9335C45.3063 61.9335 44.9859 62.0296 44.6655 61.9655C41.814 61.3888 39.6673 59.4023 36.5594 58.2809M46.1714 68.5658C50.9454 76.9603 52.8358 76.8963 55.8476 78.3381C54.598 78.4983 53.6048 78.7226 52.6436 78.7546C52.0668 78.7546 51.3299 78.5944 50.9454 78.242C49.5997 77.0244 48.19 75.8069 47.1006 74.3971C45.8831 72.7631 45.4665 70.8407 46.1714 68.6299M120.345 64.9773C120.601 66.5793 120.825 68.1813 120.953 69.7833C120.953 70.1037 120.569 70.5843 120.248 70.7445C119.832 70.9688 119.287 70.9368 118.55 71.0329C118.358 70.8727 117.91 70.7125 117.749 70.3921C117.044 69.0144 117.589 65.7463 118.711 64.5608C118.935 64.3365 119.383 64.1122 119.672 64.1763C119.928 64.2404 120.28 64.6569 120.313 64.9453M112.591 74.7175C114.994 74.301 117.397 73.8204 119.8 73.3398C120.28 73.2437 120.793 73.0835 121.274 73.0835C122.107 73.0835 122.908 73.2116 123.517 72.4106C123.645 72.2504 123.965 72.1864 124.189 72.1543C126.592 71.6417 128.963 71.0649 131.366 70.6484C133.577 70.2639 135.82 70.0397 138.063 69.7513C138.383 69.7193 138.736 69.7513 138.992 69.5911C141.715 67.893 144.984 68.5017 147.867 67.4444C147.931 67.4444 147.995 67.4444 148.059 67.4444C150.879 65.9705 154.179 66.9958 157.031 65.6181C157.832 65.2336 158.889 65.4579 159.818 65.2657C164.464 64.3685 169.078 63.4073 173.692 62.5102C174.877 62.2859 176.095 62.2218 177.312 62.0616C177.312 62.2218 177.344 62.35 177.376 62.5102C175.005 63.0549 172.666 63.5996 170.295 64.1443C168.597 64.5608 166.867 64.9773 165.169 65.3938C164.24 65.6181 163.343 65.8103 162.413 66.0346C161.741 66.1948 161.004 66.1948 160.427 66.5152C158.889 67.3803 157.159 67.6046 155.525 67.6687C152.962 67.7968 150.591 68.6619 148.155 69.1425C146.746 69.4309 145.304 69.6231 143.894 69.8154C143.349 69.9115 142.773 69.8795 142.196 69.9756C140.113 70.3921 137.999 70.8086 135.916 71.2572C134.891 71.4815 133.866 71.8019 132.808 72.0582C128.867 73.1155 124.99 74.333 120.889 74.6534C119.127 74.8136 117.397 74.8457 115.635 74.9738C115.378 74.9738 115.122 75.0059 114.898 75.07C111.309 76.3516 107.496 76.1273 103.844 76.8001C106.663 75.6787 109.611 75.1981 112.591 74.7175ZM128.707 67.7007C129.348 67.2201 129.989 66.7075 130.629 66.2269C131.815 66.8036 131.334 67.8289 131.751 68.8221C128.483 69.2387 125.567 70.296 122.363 70.2319C122.363 68.4056 122.331 66.7716 122.363 65.1695C122.395 64.3685 123.132 63.8879 123.997 64.0481C124.734 64.1763 125.439 64.4647 126.176 64.6569C127.554 65.0414 128.707 65.5861 128.355 67.3483C128.355 67.4124 128.515 67.5085 128.707 67.7328M163.823 58.4731C163.631 58.9858 163.471 59.5305 163.278 60.0431C163.278 60.0431 163.278 60.1072 163.278 60.1392C163.278 60.1392 163.278 60.1392 163.246 60.1392C163.246 61.1645 163.246 62.1578 163.246 63.2151H160.715C161.388 62.0937 161.965 61.1004 162.574 60.1713C162.638 60.0751 162.99 60.1392 163.214 60.1713V60.1072C163.054 59.4984 162.83 58.8897 163.759 58.5372M170.199 13.9052C170.488 13.7129 171.064 13.745 171.449 13.9052C172.09 14.1294 172.634 14.4819 173.467 14.8984C172.923 15.8596 172.474 16.7888 171.897 17.6539C171.513 18.1986 170.167 18.3588 169.847 17.8461C169.366 17.0771 168.982 16.18 168.95 15.3149C168.95 14.8664 169.687 14.2896 170.231 13.9372M164.656 42.3249C165.425 40.4345 164.945 38.3839 165.329 36.4615C165.746 34.475 166.258 32.5526 166.643 30.5661C166.995 28.7398 167.636 26.9776 167.796 25.0872C167.924 23.5172 168.789 22.0113 169.398 20.5055C169.494 20.2812 169.847 20.0569 170.135 19.9928C170.968 19.7685 171.833 19.6404 172.698 19.4802C172.794 19.6724 172.955 19.8326 172.955 19.9928C172.955 20.5055 172.923 21.0181 172.826 21.4987C171.289 29.669 169.911 37.8713 167.668 46.1056C166.739 45.6891 166.13 45.3687 165.81 45.2405C165.393 44.3434 165.105 43.7026 164.816 43.0618C164.72 42.8375 164.624 42.5491 164.688 42.3569M163.535 49.0213C165.009 49.9184 165.265 50.3349 164.816 51.2641C164.368 52.1612 164.015 53.0263 164.079 54.0836C164.079 54.4361 163.471 54.8205 163.15 55.173C163.022 55.1089 162.862 55.0448 162.734 54.9487C162.99 53.0583 163.246 51.1359 163.567 48.9892M159.081 12.175C160.042 12.4313 160.811 12.7838 160.875 14.0654C160.01 14.546 159.273 15.1547 158.248 14.7062C157.992 13.6168 158.408 12.8799 159.081 12.175ZM153.73 38.3198C154.083 36.109 154.371 33.8342 155.493 31.7836C155.749 31.303 155.493 30.5661 155.589 29.9573C155.909 27.6504 156.23 25.3756 156.646 23.0687C156.87 21.9152 157.287 20.7618 157.543 19.6083C157.736 18.8073 157.8 18.0063 157.928 17.0771C159.145 16.6927 160.331 16.2761 161.869 15.7635C161.709 16.949 161.58 17.782 161.452 18.6471C161.036 21.1783 160.619 23.6774 160.203 26.1766C159.658 29.5728 159.177 32.9691 158.537 36.3333C158.184 38.2878 157.671 40.2102 157.031 42.1006C156.646 43.254 155.877 44.3113 155.268 45.4007C153.795 45.5609 153.602 45.5609 153.57 44.2793C153.474 42.2928 153.378 40.2422 153.698 38.2557M154.083 48.2203C154.083 48.2203 154.467 48.4445 154.499 48.6368C155.012 51.3922 154.596 54.1477 154.051 56.8391C153.923 57.4799 153.026 57.9605 152.289 58.4411C152.225 54.9167 151.327 51.3282 154.051 48.2203M139.953 34.8595C138.832 34.6032 137.71 34.3468 136.589 34.0585C135.468 33.7701 134.378 33.4177 133.129 33.0652C134.667 32.3283 137.038 32.9371 139.953 34.8595ZM133.962 35.1158C134.891 35.244 135.82 35.4682 136.717 35.7246C139.985 36.5896 143.253 37.4868 146.553 38.4159C147.611 38.7043 148.54 38.6402 149.213 37.5509C150.046 37.7431 150.847 37.9353 151.712 38.1276C151.712 39.8578 151.776 41.4598 151.68 43.0618C151.616 43.7026 151.135 44.2793 150.879 44.9201C150.655 45.4648 150.238 46.1056 150.334 46.6182C150.911 50.399 150.334 54.1477 150.046 57.8964C149.918 59.5625 149.886 61.2606 149.79 62.9267C149.95 63.0228 150.11 63.151 150.302 63.2151C151.007 62.9267 151.744 62.6384 152.577 62.2859C152.833 62.7345 153.058 63.151 153.282 63.5355C155.204 63.3112 156.037 62.5422 156.678 60.3955C155.076 59.4984 155.14 59.5305 155.621 57.6401C155.973 56.1983 156.037 54.6603 156.294 53.1865C156.486 52.0971 156.87 51.0398 157.127 49.9184C157.319 49.1494 157.607 48.3164 157.543 47.5474C157.383 45.5289 158.537 44.0871 159.434 42.5171C159.594 42.2608 160.363 42.0685 160.715 42.1967C162.862 42.9016 163.246 43.9269 162.413 46.1056C162.061 47.0348 161.901 48.028 161.709 48.9892C161.324 51.2 160.972 53.4428 160.587 55.6856C160.139 58.2168 159.658 60.716 159.177 63.4073C158.729 63.5675 158.152 63.8239 157.543 63.92C153.923 64.5608 150.334 65.3938 146.682 65.9385C142.773 66.5473 138.896 67.5085 135.019 68.3095C134.474 68.4056 133.962 68.4697 133.257 68.5658V64.3365C132.039 64.0161 131.27 63.4394 131.559 62.0937C131.591 61.9335 131.559 61.6451 131.43 61.549C129.764 60.0111 130.501 58.0246 130.437 56.2303C130.373 54.404 130.437 52.5777 130.469 50.7835C130.469 50.4951 130.469 50.1747 130.469 49.8543C130.854 47.5154 131.623 45.1444 131.559 42.8055C131.495 40.5306 132.52 38.5441 132.424 36.3013C132.424 35.1478 132.872 34.8595 133.994 35.0197M125.855 32.1361C124.606 32.072 122.331 31.2389 121.722 30.6622C123.517 30.502 124.894 30.9826 125.855 32.1361ZM118.006 39.7937C116.179 37.2305 117.91 34.6352 117.749 32.0399C119.095 31.5914 120.12 32.2322 121.178 32.4244C122.107 32.6167 123.004 32.8409 123.933 32.9691C125.439 33.1613 125.984 33.674 125.855 35.1799C125.439 39.8898 124.958 44.5677 124.478 49.2776C124.157 52.3855 123.901 55.5254 123.549 58.6333C123.452 59.4664 123.485 60.2033 124.253 60.5557C124.574 60.7159 125.151 60.5878 125.471 60.3955C126.112 60.0111 126.689 58.5372 126.304 58.0566C125.054 56.4866 125.759 54.8526 125.92 53.2185C126.112 51.3602 126.144 49.4698 126.336 47.6115C126.817 42.5491 127.458 37.5188 127.842 32.4244C128.098 28.7718 127.97 25.1192 128.066 21.4987C128.066 20.6977 128.259 19.8646 128.355 19.0636C128.515 17.3655 128.611 15.6674 128.771 13.9692C128.803 13.5527 128.963 13.1362 129.027 12.7838C129.252 12.7197 129.38 12.6556 129.508 12.6876C133.257 13.5207 132.84 13.9692 132.808 17.2053C132.808 19.4481 132.648 21.6909 132.392 23.9338C132.167 25.8562 131.751 27.7786 131.463 29.701C131.366 30.2457 131.302 30.8224 131.238 31.3671C131.046 33.674 130.918 36.0129 130.694 38.3198C130.437 41.0753 130.085 43.8307 129.764 46.5542C129.604 47.996 129.444 49.4378 129.316 50.8796C129.092 53.5069 128.899 56.1342 128.643 58.7615C128.547 59.7227 128.291 60.6839 128.098 61.6131C126.56 61.517 125.439 61.4529 124.318 61.3888C123.613 61.3567 123.164 61.1004 123.004 60.2994C122.427 56.8711 120.825 53.7953 119.415 50.6233C118.582 48.7329 118.102 46.7144 117.429 44.7279C117.301 44.3754 117.173 44.023 117.044 43.6705C116.019 41.4918 116.083 41.2355 117.974 39.7616M54.1815 39.9218C60.5575 38.7043 66.9015 37.4227 73.2775 36.2692C77.8592 35.4362 82.473 34.7313 87.0548 33.8983C89.4578 33.4497 91.8288 32.8089 94.2318 32.3283C97.7562 31.6555 101.313 31.1428 104.805 30.3418C106.439 29.9573 108.137 29.9894 109.739 29.2524C111.534 28.4514 113.552 28.5476 115.603 28.868C115.603 29.7651 115.154 30.2457 114.321 30.3738C110.412 31.0146 106.503 31.6875 102.594 32.2963C98.1407 33.0011 93.6551 33.6099 89.1694 34.3468C85.3246 34.9876 81.5118 35.6605 77.699 36.3974C75.1038 36.9101 72.5726 37.647 69.9773 38.1917C67.2539 38.8004 64.5305 39.281 61.8391 39.8257C59.9487 40.2102 58.0263 40.6267 56.1359 41.0112C52.8038 41.7161 49.4716 42.2928 46.1714 43.1259C42.9354 43.9589 39.6352 44.1832 36.3671 44.5997C35.4379 44.7279 34.5088 44.8881 33.5796 45.0162C32.4582 45.2085 31.3688 45.3687 30.2474 45.5289C30.2154 45.4007 30.1833 45.2726 30.1513 45.1444C38.0973 43.0618 46.1394 41.4277 54.2135 39.8578M39.1546 46.0415C43.3519 45.2085 47.5171 44.3113 51.7144 43.4463C52.0348 43.3822 52.3232 43.2861 52.6436 43.254C56.1039 42.5812 59.5963 41.9724 63.0246 41.2675C67.2539 40.3704 71.4512 39.281 75.7125 38.448C80.102 37.5829 84.4915 36.846 88.8811 36.1091C96.0901 34.9556 103.299 33.8022 110.54 32.7128C111.405 32.5846 112.302 32.7128 113.264 32.7128C113.969 34.0905 114.673 35.4682 114.097 37.1984C113.808 37.3266 113.456 37.5188 113.103 37.5829C109.771 38.2557 106.599 39.5374 103.395 40.6588C100.8 41.5879 98.0766 42.1967 95.4493 42.9657C92.8541 43.7346 90.2908 44.5997 87.6635 45.2405C84.6517 45.9454 81.6079 46.3619 78.5961 47.0027C76.898 47.3552 75.2319 47.8999 73.5338 48.2843C72.7648 48.4445 71.8997 48.2843 71.1308 48.4766C67.9268 49.1494 64.7548 50.0145 61.5507 50.5592C58.4428 51.1039 55.3029 51.3282 52.195 51.6806C51.5542 51.7447 50.9454 51.7767 50.3367 51.8728C47.3249 52.2894 44.4413 51.8088 41.6538 50.7514C41.3334 50.6233 40.8207 50.4631 40.5964 50.6233C39.5071 51.4563 38.2895 52.2253 37.4885 53.3147C36.7836 54.2759 36.0788 55.205 35.1175 55.9419C34.7971 56.1983 34.4767 56.5507 34.2525 56.8711C33.9 57.3838 33.4835 57.4799 32.9388 57.2876C32.0096 56.9672 31.0805 56.6148 30.1193 56.2303C28.7736 55.7177 27.4279 55.205 26.0502 54.6603C25.6336 54.5001 25.2171 54.404 24.8006 54.2118C23.8714 53.7312 23.8073 53.2826 24.5763 52.2253C22.75 51.3922 20.2829 52.6738 18.745 50.3349C19.9946 49.9825 21.148 49.5659 22.3335 49.3096C27.9405 48.1882 33.5796 47.1629 39.2187 46.0415M27.4279 45.8172C25.6977 47.227 18.9372 48.5407 16.5342 47.8999C20.1868 46.8105 23.7112 46.2017 27.4279 45.8172ZM14.3234 48.3164C14.1632 48.8611 14.1312 49.4057 13.9069 49.5019C13.2341 49.7902 12.6253 49.598 12.0165 48.6047C12.8496 48.4766 13.4583 48.4125 14.3234 48.2843M13.8428 126.527C13.8428 124.796 13.5224 123.066 13.3943 121.336C13.2661 119.67 12.9137 117.972 13.3943 116.274C13.4904 115.921 13.3943 115.537 13.3622 115.152C12.9777 112.749 13.0098 110.346 13.0418 107.911C13.0418 106.79 12.7855 105.668 12.7214 104.547C12.4971 101.087 12.2408 97.6583 12.1767 94.198C12.1127 91.2503 12.3369 88.3026 12.3049 85.3869C12.2729 82.8237 12.0486 80.2284 11.8884 77.6652C11.6961 74.8457 11.4719 72.0262 11.2476 69.2066C11.1515 67.7648 10.9913 66.323 10.8951 64.8812C10.767 62.9908 10.7349 61.1325 10.5427 59.2421C10.3184 57.0634 9.93392 54.8846 9.64556 52.7059C9.5174 51.7767 9.42128 50.8476 9.3572 49.8863C9.32516 49.3096 9.54944 48.8931 10.2223 48.9251C10.3184 48.9892 10.4786 49.0853 10.4786 49.1494C10.7349 51.232 10.9913 53.3467 11.2476 55.4293C11.3117 55.7817 11.1835 56.2624 11.3757 56.5507C12.6573 58.7935 12.4331 61.3247 12.6894 63.7277C13.202 68.5978 13.5545 73.5 13.8749 78.3701C14.0351 80.8052 13.971 83.2723 14.0992 85.7073C14.1632 87.0851 14.5157 88.4307 14.6118 89.8085C14.804 92.5639 14.9322 95.3194 15.0924 98.0749C15.1565 99.773 15.2206 101.439 15.2526 103.137C15.2526 105.412 15.2526 107.655 15.2526 109.93C15.2526 111.884 15.2846 113.839 15.3167 115.761C15.3167 117.075 15.4128 118.388 15.4448 119.734C15.5089 121.817 15.573 123.867 15.6371 125.95C15.7332 130.788 15.8293 135.626 15.8934 140.464C15.8934 141.265 15.8934 142.066 15.8934 142.867C14.0671 137.58 13.8428 132.038 13.9069 126.495M94.8726 180.29C92.6618 179.361 90.4831 178.432 88.3043 177.439C86.8305 176.766 85.4207 175.933 84.0109 175.196C83.8507 175.1 83.6585 175.003 83.4983 174.971C81.0953 174.619 78.9165 173.594 76.7698 172.6C74.0464 171.351 71.2589 170.165 68.5035 168.916C65.9082 167.73 63.377 166.513 60.7818 165.327C57.5777 163.853 54.3737 162.38 51.1377 160.97C44.6015 158.15 38.0652 155.395 31.529 152.607C28.1007 151.166 24.7045 149.692 21.2762 148.25C20.347 147.865 19.6101 147.513 19.6421 146.263C19.6742 145.366 18.5527 144.79 18.7129 143.732C18.777 143.188 18.5848 142.643 18.5848 142.098C18.5848 141.169 18.745 140.24 17.8158 139.535C17.5275 139.343 17.4313 138.734 17.3993 138.317C17.2391 134.152 17.143 129.955 16.9828 125.758C16.8546 122.393 16.6303 119.061 16.9828 115.697C17.143 114.287 16.8546 112.845 16.6303 111.436C16.374 109.737 16.1497 108.071 16.5022 106.373C16.6303 105.765 16.6303 105.092 16.5022 104.515C16.3099 103.65 16.0856 102.849 16.4381 101.952C16.5663 101.599 16.2779 101.119 16.2458 100.67C16.1818 99.805 15.9254 98.8759 16.1177 98.0428C16.3099 97.2739 16.2138 96.601 16.1177 95.8641C15.9575 93.9417 15.8934 92.0193 15.7973 90.0968C15.6371 86.7326 15.5089 83.3684 15.2846 80.0042C15.1565 78.242 14.8361 76.5118 14.6438 74.7816C14.5157 73.6602 14.6438 72.5388 14.4196 71.4494C13.971 69.527 14.0351 67.6687 14.4196 65.7142C14.6118 64.8171 14.2594 63.6957 13.8749 62.7986C13.202 61.2286 13.8108 59.7547 13.8749 57.9925C14.74 58.2488 15.4448 58.409 16.1497 58.6654C18.6489 59.6586 21.116 60.8121 23.6792 61.6772C26.6589 62.7024 29.7027 63.4394 32.7145 64.3685C34.8612 65.0414 36.9759 65.8424 39.1226 66.5473C40.4683 66.9958 41.878 67.4124 43.1276 67.7968C43.2878 68.0852 43.416 68.1813 43.3839 68.3095C43.1917 71.7057 44.9219 74.301 46.9404 76.7681C47.389 77.3128 47.8375 77.8254 48.2861 78.3381C49.7279 79.9401 51.426 81.0615 53.7009 80.9974C54.2776 80.9974 54.8543 80.9974 55.399 80.9974C59.7245 81.0295 62.1915 79.043 63.0566 74.7816C63.0887 74.6214 63.2168 74.4612 63.4091 74.0767C64.8188 74.3331 66.2927 74.4612 67.7345 74.8457C70.1696 75.4865 72.5405 76.2875 74.9756 76.9604C78.9165 78.1138 82.8255 79.2032 86.7344 80.3566C88.9772 81.0295 91.1559 81.8305 93.3667 82.5033C94.5201 82.8557 94.7124 83.7849 94.7765 84.7141C95.0007 88.4628 95.1289 92.2435 95.3211 95.9922C95.4813 99.2603 95.7377 102.528 95.8658 105.765C95.9299 107.367 95.6736 109.001 95.6736 110.603C95.6736 113.422 95.7377 116.242 95.7377 119.061C95.7377 120.183 95.6415 121.272 95.6095 122.393C95.6095 124.572 95.6095 126.751 95.6416 128.93C95.6416 129.57 95.5775 130.211 95.6416 130.82C96.1542 135.274 95.6736 139.727 95.7056 144.213C95.7056 145.078 95.8979 145.943 96.026 146.808C96.0581 147.193 96.1222 147.545 96.1222 147.929C96.1222 152.575 95.994 157.221 96.0581 161.867C96.1222 165.007 96.4426 168.147 96.5707 171.287C96.6989 173.818 96.7309 176.317 96.7309 178.848C96.7309 180.514 96.3144 180.771 94.8405 180.162M102.466 182.373C102.306 182.341 101.986 182.341 101.953 182.245C101.409 181.027 100.351 180.386 99.3903 179.553C98.9737 179.169 98.8456 178.304 98.7815 177.663C98.5572 174.074 98.429 170.518 98.2368 166.929C98.1086 164.366 97.9805 161.771 97.8523 159.208C97.7562 157.285 97.564 155.363 97.564 153.44C97.564 150.813 97.8523 148.186 97.6921 145.558C97.564 143.188 98.1086 140.849 97.596 138.478C97.4678 137.901 97.6601 137.228 97.6921 136.587C97.7562 135.145 98.2048 133.704 97.3717 132.326C97.2756 132.166 97.2115 131.941 97.2756 131.781C97.9805 129.731 96.7309 127.808 96.9552 125.79C97.1795 123.995 97.1474 122.137 97.1474 120.343C97.1474 118.709 97.0193 117.075 97.0513 115.473C97.0834 113.935 97.1795 112.365 97.4038 110.859C97.6921 109.129 98.0766 107.431 97.2756 105.765C96.9552 105.092 96.827 104.515 97.3397 103.81C97.564 103.522 97.628 103.009 97.596 102.593C97.4358 100.862 97.1154 99.1322 97.0193 97.37C96.9552 96.0884 97.2115 94.7747 97.2115 93.4611C97.2115 90.4813 97.1154 87.5336 97.1154 84.5859C97.1154 83.5606 97.1154 82.5674 97.2115 81.5741C97.2115 81.2217 97.3717 80.7731 97.596 80.5489C97.9164 80.2284 98.429 79.844 98.7815 79.9081C99.1339 79.9721 99.6466 80.4848 99.7107 80.8693C99.967 82.6635 100.223 84.4898 100.255 86.3161C100.319 90.0968 99.999 93.9096 100.319 97.6583C100.64 101.471 100.191 105.316 100.704 109.129C100.928 110.859 101.152 112.621 101.249 114.383C101.313 115.633 101.088 116.882 101.088 118.132C101.088 119.958 101.152 121.785 101.185 123.579C101.185 124.316 101.088 125.053 101.12 125.79C101.313 131.717 101.505 137.613 101.761 143.54C101.889 146.68 102.242 149.788 102.37 152.928C102.466 155.235 102.37 157.574 102.434 159.913C102.722 166.064 103.043 172.216 103.395 178.368C103.491 179.809 103.267 181.187 102.498 182.437M211.403 148.795C211.275 149.948 210.634 150.589 209.577 150.973C207.045 151.838 204.514 152.832 201.951 153.633C197.69 154.978 193.396 156.228 189.135 157.509C187.213 158.086 185.258 158.631 183.368 159.272C178.113 161.034 172.955 162.956 167.668 164.558C162.381 166.16 156.967 167.378 151.648 168.884C147.002 170.197 142.388 171.703 137.774 173.049C133.93 174.17 130.021 175.132 126.144 176.189C124.926 176.509 123.709 176.83 122.523 177.246C119.095 178.464 115.699 179.809 112.238 180.899C110.252 181.508 108.265 182.597 106.023 181.892C105.83 181.86 105.67 181.764 105.382 181.636C105.125 177.054 104.965 172.632 104.677 168.179C104.324 162.604 103.876 157.061 103.523 151.486C103.395 149.307 103.459 147.096 103.363 144.918C103.171 140.977 102.915 137.036 102.658 133.063C102.626 132.454 102.466 131.813 102.594 131.236C103.043 128.833 102.338 126.495 102.242 124.124C102.178 122.457 102.37 120.759 102.37 119.061C102.37 116.017 102.37 112.942 102.37 109.866C102.37 107.879 102.05 105.893 102.306 103.778C102.787 103.874 103.139 103.874 103.363 104.034C104.549 104.899 105.798 104.931 107.144 104.515C107.496 104.419 107.945 104.355 108.233 104.515C109.355 105.028 110.22 104.579 111.245 104.162C112.975 103.426 114.834 103.009 116.66 102.56C117.012 102.464 117.493 102.753 117.877 102.945C118.871 103.458 119.928 103.97 120.825 104.611C121.53 105.092 122.043 105.861 122.651 106.469C122.972 106.79 123.356 107.014 124.029 107.527C123.901 106.662 123.837 106.277 123.805 105.893C123.677 104.066 123.965 103.682 125.823 103.522C126.753 103.458 127.746 103.458 128.643 103.65C130.918 104.098 131.559 103.81 132.392 101.727C132.52 101.407 132.616 101.055 132.68 100.894C133.801 100.478 134.795 100.093 135.756 99.7089C135.948 99.6448 136.14 99.5167 136.301 99.5487C139.473 100.125 142.068 98.0749 145.016 97.6583C145.881 97.5302 146.746 97.2418 147.579 97.0175C150.847 96.1845 154.147 95.3194 157.447 94.4864C157.928 94.3582 158.44 94.198 158.921 94.198C161.26 94.198 163.567 94.166 165.906 94.2941C166.707 94.3582 168.085 93.9096 168.085 95.6078C168.085 95.6718 168.886 95.9602 169.206 95.832C171.224 95.0631 173.403 94.7106 175.133 93.2368C176.127 92.4037 177.697 92.628 178.658 91.5387C179.267 90.8338 179.971 90.257 181.061 90.4493C181.381 90.5134 181.766 90.257 182.118 90.0968C182.535 89.9366 182.887 89.6162 183.304 89.5522C186.764 88.8793 190.16 87.9181 193.717 87.9822C194.069 87.9822 194.646 88.0463 194.742 88.2385C195.639 89.9366 197.305 89.2638 198.202 88.9114C199.836 88.3026 201.118 88.6871 202.528 89.2318C203.393 89.5522 204.194 90.1289 205.347 89.456C204.899 88.9434 204.546 88.4948 204.226 88.1103C206.437 87.4375 208.712 86.7326 211.211 85.9316C211.627 86.1559 211.467 86.7967 211.435 87.4055C211.435 90.5454 211.435 93.7174 211.371 96.8573C211.307 100.574 211.179 104.259 211.082 107.975C211.082 109.353 211.083 110.731 211.147 112.141C211.275 115.409 211.467 118.677 211.595 121.945C211.659 124.284 211.595 126.591 211.595 128.93C211.595 132.262 211.595 135.594 211.595 138.894C211.595 139.887 211.435 140.881 211.371 141.906C211.339 142.419 211.275 142.931 211.371 143.412C211.884 145.238 211.627 147.032 211.435 148.859M104.581 97.8506H107.176C107.657 100.638 107.625 100.958 106.695 102.496C103.908 102.112 103.459 101.183 104.581 97.8506ZM117.685 96.2165C118.262 96.1845 118.839 96.569 119.415 96.7932C120.088 97.0175 120.761 97.3059 121.434 97.5622C121.466 97.4981 121.53 97.402 121.562 97.3059C121.049 96.8253 120.537 96.3447 119.8 95.7039C121.146 95.3194 122.203 94.967 123.26 94.6786C124.318 94.4223 125.343 95.2553 125.599 96.5049C125.855 97.7865 125.471 98.4273 124.093 98.5555C121.402 98.8438 118.743 99.1963 116.147 99.9973C114.449 100.51 112.751 100.894 111.053 101.311C110.7 101.407 110.316 101.407 109.867 101.471V96.7612C112.591 96.5369 115.154 96.2806 117.717 96.1845M117.397 93.1727C117.974 89.6803 120.633 88.2065 124.221 89.2958C123.997 91.2823 120.248 93.4931 117.397 93.1727ZM126.721 93.397C126.304 92.8203 125.695 92.3717 125.087 91.7629C126.08 91.1221 126.817 90.6095 127.714 91.5707C127.906 91.795 128.259 91.9872 128.515 91.9872C130.149 92.0513 130.565 93.3009 130.822 94.5184C131.078 95.8641 131.238 97.2739 129.925 98.3312C128.867 99.1963 128.098 100.414 126.464 100.446C126.464 100.254 126.336 99.9973 126.432 99.9332C127.906 98.8438 127.81 97.1777 127.842 95.6718C127.842 94.9029 127.233 94.1019 126.753 93.397M122.523 102.817C121.915 102.56 121.53 102.4 121.081 102.24C121.808 101.685 122.288 101.877 122.523 102.817ZM132.936 91.9872C134.506 91.7309 135.211 92.1154 135.532 93.4931C135.596 93.7815 135.628 94.1019 135.692 94.4223C136.044 95.9602 135.692 96.4088 133.866 96.601C133.193 95.9602 133.321 95.1592 133.321 94.3262C133.321 93.5572 133.065 92.7882 132.936 91.9872ZM137.582 96.9855C137.742 94.9029 137.871 93.0125 138.031 90.9299C138.543 90.9299 139.152 90.9299 139.761 90.9299C142.997 90.994 146.169 90.6736 149.117 89.1997C149.501 89.0075 149.982 89.0075 150.398 88.9114C151.904 88.4948 153.41 88.0463 154.916 87.6297C154.98 87.6297 155.044 87.5657 155.076 87.5657C159.241 87.0851 162.958 85.0665 167.027 84.2976C167.7 84.1694 168.437 84.1053 169.078 84.2655C169.558 84.3616 170.167 84.7461 170.359 85.1947C171.16 87.021 172.09 88.8473 170.936 90.8979C170.808 91.1221 170.776 91.3785 170.648 91.6989C169.815 91.6989 169.11 91.7629 168.437 91.6989C165.489 91.3144 162.542 91.5707 159.594 91.8911C158.985 91.9552 158.344 91.9552 157.703 92.0513C156.678 92.2435 155.653 92.4999 154.628 92.6921C152.161 93.1407 149.886 94.1339 147.354 94.4864C144.631 94.8708 142.004 95.8641 139.344 96.601C138.832 96.7292 138.287 96.8573 137.582 97.0175M173.595 85.5471C173.499 85.2588 173.499 84.9384 173.467 84.65C173.724 84.5218 173.852 84.3616 174.044 84.3616C178.017 84.0733 181.894 83.3364 185.675 82.1509C187.533 81.5741 189.455 81.1897 191.346 80.677C192.82 80.2605 194.293 79.8119 195.767 79.3313C197.658 78.7226 200.221 80.4848 200.317 82.4713C200.349 83.849 198.971 85.3869 197.594 85.2267C194.454 84.8102 191.506 85.8996 188.462 86.1879C183.496 86.6685 179.202 88.7512 174.781 90.7056C174.557 90.8017 174.3 90.8338 173.788 90.9619C173.724 90.225 173.371 89.424 173.627 88.9754C174.3 87.7579 174.044 86.7006 173.627 85.5471M208.263 84.7461C207.045 84.8422 206.084 84.9063 204.995 84.9704C205.508 83.7849 205.956 82.7917 206.373 81.7343C206.821 80.645 206.629 79.6517 205.924 78.7226C205.732 78.4662 205.604 78.1779 205.443 77.8895C204.995 76.9924 204.546 76.0953 204.098 75.1661C205.411 74.3971 206.276 74.5573 207.59 75.4545C209.16 76.5438 209.673 78.0177 209.705 79.844C209.705 80.709 209.577 81.5101 208.872 82.0547C208.039 82.6955 207.975 83.4966 208.263 84.7461ZM211.691 67.4124C211.531 68.7901 211.531 70.1678 211.435 71.5455C211.339 72.8272 210.858 73.3078 209.769 72.8272C207.943 72.0262 206.148 71.9941 204.386 72.7951C204.162 72.5708 203.97 72.4747 203.873 72.3145C202.816 70.2639 202.303 70.0397 199.997 70.5203C198.811 70.7766 197.562 71.7698 196.953 73.0835C197.722 72.7951 198.298 72.6029 198.843 72.4106C200.637 71.7058 201.118 71.898 202.271 73.6602C201.727 74.4932 200.766 74.6855 199.868 74.8137C198.811 74.9739 197.818 75.1341 196.857 75.7749C196.056 76.3516 195.639 76.0632 195.094 74.8137C192.884 78.0497 189.455 78.6905 185.995 79.2993C185.514 79.3634 185.034 79.5876 184.553 79.7158C180.933 80.8372 177.216 81.446 173.435 81.478C172.186 81.478 170.936 81.1897 169.719 80.9013C168.661 80.645 167.764 80.677 166.835 81.2858C166.258 81.6382 165.617 81.9266 164.945 82.1188C162.477 82.8878 160.042 83.6888 157.543 84.3937C154.051 85.3869 150.494 86.22 147.002 87.2453C143.478 88.2705 139.921 88.1424 136.333 87.9181C135.211 87.854 133.994 88.2706 132.904 88.7191C131.783 89.1677 130.758 89.2638 129.604 89.0075C128.162 88.655 126.785 88.2385 125.407 87.5657C122.94 86.3161 120.601 87.4055 118.518 88.8152C116.82 89.9687 115.539 91.5066 115.474 94.1019C113.2 94.1019 111.117 94.23 109.066 94.1019C106.76 93.9417 104.837 94.5184 103.331 96.2806C103.075 96.601 102.658 96.7932 102.274 97.1136C101.441 96.0563 101.633 94.8708 101.569 93.8135C101.473 92.1795 101.537 90.5454 101.569 88.9114C101.569 87.5977 101.665 86.2841 101.633 84.9704C101.633 83.4645 101.505 81.9586 101.409 80.2285C102.915 79.9401 104.356 79.6838 105.83 79.4274C111.149 78.4342 116.468 77.4409 121.754 76.4477C125.087 75.8069 128.355 74.9738 131.655 74.1408C136.204 72.9553 140.914 72.2504 145.496 71.3213C149.181 70.5523 152.865 69.7193 156.55 68.9183C160.715 68.0211 164.913 67.156 169.078 66.2269C169.943 66.0346 170.744 65.7463 171.609 65.522C174.493 64.8491 177.376 64.2083 180.26 63.5355C183.079 62.8626 185.867 62.1578 188.654 61.4849C192.403 60.6198 196.12 59.7868 199.868 58.8576C202.303 58.2809 204.739 57.608 207.142 56.8711C208.551 56.4546 209.929 56.2303 211.531 56.5507C211.531 58.3129 211.531 60.0111 211.531 61.6772C211.531 61.9976 211.467 62.35 211.595 62.6063C212.236 64.2083 211.948 65.8103 211.723 67.4444M219.99 77.6332C219.926 78.0497 219.509 78.5624 219.157 78.7546C217.394 79.6838 215.536 80.1003 213.357 80.0362C213.197 78.5624 213.037 77.2807 212.877 75.9991C214.383 75.6467 215.824 75.2943 217.298 75.0059C218.868 74.6855 220.31 76.0632 220.022 77.6332" fill="#231F20"/>
<g id="box">
<path id="Vector_2" d="M69.1576 111.277C69.2243 111.304 69.2821 111.353 69.331 111.425C69.331 111.425 69.3532 111.434 69.3977 111.452C69.42 111.461 69.4423 111.47 69.4645 111.479C69.5223 111.528 69.5712 111.599 69.5887 111.684L69.5927 111.867C69.601 112.103 69.6002 112.361 69.6085 112.598C69.5992 112.749 69.6121 112.91 69.6028 113.061C69.6114 113.168 69.611 113.297 69.5974 113.395L69.5967 113.654C69.5999 114.095 69.5942 114.559 69.5974 115C69.5956 115.646 69.6207 116.225 69.6549 116.783C69.6764 117.05 69.68 117.362 69.6926 117.652C69.7008 117.888 69.7091 118.124 69.7084 118.383L69.7033 118.588L69.6944 118.61C69.7069 118.9 69.7105 119.212 69.7231 119.501C69.7184 119.577 69.7048 119.675 69.7001 119.751C69.7493 119.693 69.7895 119.658 69.8387 119.6L69.8297 119.622C70.0577 119.378 70.2677 119.178 70.4242 118.982L70.5136 118.889C70.5808 118.786 70.6612 118.715 70.7506 118.622C70.84 118.528 70.9383 118.413 71.0277 118.319L71.0769 118.262C71.5328 117.773 72.0021 117.315 72.4533 116.902C72.7036 116.666 72.9538 116.431 73.204 116.195C73.3649 116.053 73.5034 115.902 73.642 115.751C73.7224 115.68 73.8118 115.586 73.8922 115.515C74.1425 115.28 74.3837 115.066 74.6652 114.818C74.9064 114.604 75.1254 114.382 75.3667 114.169L75.4159 114.111C75.465 114.053 75.572 114.045 75.6478 114.049C75.67 114.058 75.6923 114.067 75.7145 114.076C75.7813 114.103 75.8258 114.121 75.8614 114.161C75.9102 114.233 75.9278 114.318 75.9231 114.393C75.9095 114.491 75.8603 114.549 75.8111 114.607C75.5519 114.865 75.2303 115.149 74.9086 115.433C74.6271 115.682 74.4081 115.904 74.1981 116.104C73.9791 116.327 73.7289 116.562 73.4787 116.798C73.3178 116.94 73.148 117.104 72.9872 117.246C72.6788 117.562 72.3169 117.882 71.9996 118.22C71.651 118.571 71.3516 118.864 71.1056 119.153L71.0162 119.246C70.9089 119.384 70.8105 119.5 70.6809 119.629C70.5513 119.758 70.4128 119.909 70.2742 120.06C70.1446 120.189 70.015 120.318 69.8764 120.469L69.778 120.584C69.7378 120.62 69.7288 120.642 69.6976 120.656L69.6746 120.905C69.6786 121.088 69.6736 121.293 69.6775 121.476C69.6682 121.627 69.6811 121.788 69.6718 121.939C69.6535 122.113 69.6484 122.318 69.6524 122.501C69.656 122.813 69.6506 123.147 69.6542 123.459C69.6578 123.771 69.6614 124.083 69.7005 124.435C69.7174 124.778 69.712 125.112 69.7246 125.402C69.7372 125.692 69.7364 125.95 69.7447 126.186C69.7443 126.316 69.7662 126.454 69.7792 126.614C69.7878 126.721 69.7874 126.851 69.796 126.958L69.8 127.14C69.8039 127.323 69.8302 127.515 69.8251 127.72C69.8384 127.751 69.8427 127.805 69.847 127.858C69.8646 127.943 69.851 128.041 69.8686 128.125C69.8772 128.232 69.8546 128.353 69.8632 128.46L69.8765 128.491C69.8671 128.642 69.8801 128.803 69.893 128.963C69.9282 129.133 69.8119 129.293 69.6647 129.337C69.6424 129.328 69.6334 129.35 69.6334 129.35C69.571 129.377 69.464 129.386 69.3972 129.359C69.3972 129.359 69.3972 129.359 69.3749 129.35C69.2949 129.292 69.1836 129.247 69.0946 129.211C69.0278 129.184 68.961 129.157 68.9032 129.108C68.6451 128.978 68.4537 128.875 68.2624 128.772C68.2046 128.723 68.1557 128.651 68.1604 128.575C68.1471 128.544 68.1471 128.544 68.1561 128.522C68.09 128.236 68.0552 127.938 68.0071 127.608C68.0075 127.479 67.9766 127.363 67.968 127.256C67.9285 127.033 67.9023 126.841 67.885 126.627C67.8369 126.297 67.8111 125.976 67.7942 125.633C67.7551 125.281 67.7159 124.929 67.7256 124.648L67.6904 124.478C67.6689 124.211 67.6563 123.921 67.6437 123.631C67.6315 123.212 67.615 122.74 67.6211 122.147C67.4693 122.267 67.3397 122.396 67.2101 122.525C67.0894 122.632 67 122.725 66.8884 122.809C66.7096 122.996 66.5086 123.174 66.3387 123.338C66.1689 123.503 65.9858 123.636 65.816 123.8C65.6864 123.929 65.5658 124.036 65.4452 124.142C65.3558 124.236 65.2531 124.298 65.1415 124.382C65.1012 124.418 65.0923 124.44 65.0521 124.475C64.7975 124.658 64.5563 124.871 64.2971 125.129C64.0336 125.333 63.8146 125.555 63.5913 125.724C63.4706 125.83 63.35 125.937 63.2294 126.044C63.1982 126.057 63.1579 126.092 63.1177 126.128C63.1088 126.15 63.0775 126.164 63.0463 126.177L63.0373 126.199C62.9881 126.257 62.9257 126.283 62.8765 126.341C62.7738 126.403 62.6578 126.434 62.5466 126.389C62.502 126.371 62.4665 126.331 62.431 126.291C62.3821 126.22 62.3423 126.126 62.3692 126.059C62.3828 125.961 62.4098 125.894 62.4812 125.845C62.6331 125.726 62.7939 125.583 62.9547 125.441L62.9949 125.406C63.0843 125.312 63.187 125.25 63.2764 125.157C63.3479 125.108 63.397 125.05 63.4685 125.001C63.5981 124.873 63.7499 124.753 63.8706 124.646C64.0716 124.468 64.2816 124.268 64.5049 124.1C64.5541 124.042 64.6256 123.993 64.697 123.944C64.8891 123.789 65.0901 123.611 65.2912 123.433C65.4118 123.327 65.5234 123.242 65.6218 123.127C65.7737 123.007 65.9033 122.878 66.0329 122.749C66.1847 122.629 66.3143 122.5 66.4439 122.371C66.5556 122.287 66.6539 122.171 66.7746 122.065C66.9846 121.865 67.2973 121.603 67.5744 121.3C67.5744 121.3 67.5744 121.3 67.6057 121.287L67.6017 121.104C67.5978 120.922 67.5938 120.739 67.5988 120.534C67.5906 120.298 67.5913 120.039 67.592 119.781L67.5838 119.544C67.5895 119.081 67.6042 118.595 67.601 118.154C67.615 117.927 67.6067 117.691 67.6207 117.463L67.6168 117.281C67.6264 117 67.6272 116.741 67.6369 116.461C67.6239 116.3 67.6333 116.149 67.6336 116.019C67.6297 115.837 67.6347 115.632 67.6307 115.449C67.6541 115.07 67.6774 114.691 67.7007 114.313C67.7327 114.041 67.7424 113.76 67.7521 113.479C67.7794 113.283 67.7844 113.078 67.7804 112.896C67.8041 112.388 67.8188 111.902 67.887 111.412C67.8827 111.358 67.8917 111.336 67.9097 111.292C67.9053 111.238 67.9233 111.194 67.9412 111.149C68.013 110.971 68.1692 110.905 68.3563 110.954C68.423 110.981 68.5121 111.017 68.6011 111.053C68.7792 111.125 68.9572 111.196 69.1576 111.277Z" fill="#231F20"/>
<path id="Vector_3" d="M61.5123 107.962C61.5791 107.989 61.6771 108.002 61.7662 108.038C61.7884 108.047 61.7884 108.047 61.7884 108.047C61.9442 108.11 62.1133 108.204 62.2824 108.298C62.3402 108.347 62.398 108.397 62.4425 108.414C62.5226 108.473 62.5804 108.522 62.6694 108.558C62.8073 108.665 62.9319 108.741 63.0475 108.84L63.0697 108.848C63.2521 108.974 63.4255 109.121 63.5587 109.304C63.6786 109.456 63.8251 109.671 63.8958 109.88C63.9357 109.974 63.9533 110.059 63.9931 110.152C64.0197 110.215 64.024 110.268 64.0506 110.331C64.108 110.509 64.1744 110.665 64.2006 110.857L64.2139 110.888C64.2491 111.058 64.2843 111.227 64.3195 111.397C64.35 111.642 64.336 111.869 64.304 112.141C64.3037 112.27 64.2811 112.39 64.2807 112.52L64.2581 112.64C64.2398 112.814 64.2215 112.988 64.1899 113.13C64.1493 113.295 64.1177 113.437 64.0772 113.602L64.0904 113.633C64.0499 113.798 64.0003 113.985 63.9598 114.15C63.8564 114.471 63.7752 114.8 63.6629 115.143C63.474 115.74 63.245 116.372 62.9937 116.995C62.6573 117.765 62.4017 118.335 62.1328 118.873C61.8327 119.425 61.4701 120.004 61.0048 120.644C60.9197 120.791 60.8214 120.907 60.714 121.044C60.6067 121.182 60.4681 121.333 60.3787 121.427C60.2401 121.578 60.0926 121.751 59.954 121.902C59.8646 121.996 59.7752 122.089 59.7081 122.191C59.6187 122.285 59.507 122.369 59.4177 122.463L59.3774 122.498L59.3193 122.578C59.2791 122.614 59.2299 122.671 59.1897 122.707L59.1405 122.765C59.0511 122.858 58.9617 122.952 58.8501 123.036C58.7294 123.143 58.649 123.214 58.5463 123.276C58.4839 123.302 58.4437 123.338 58.3722 123.387C58.2875 123.404 58.2161 123.453 58.1446 123.502C57.8947 123.608 57.6269 123.759 57.3193 123.816C57.181 123.838 57.0428 123.86 56.9136 123.859L56.9046 123.882C56.6684 123.89 56.4634 123.885 56.2763 123.835C56.1561 123.813 56.0225 123.759 55.8667 123.696C55.7554 123.651 55.6441 123.606 55.5328 123.561C55.2747 123.432 55.0568 123.266 54.8923 123.096C54.7412 122.958 54.6123 122.828 54.5057 122.707C54.4213 122.596 54.3459 122.462 54.2616 122.35L54.2483 122.319L54.2084 122.225C54.1241 122.114 54.0619 122.011 53.9866 121.877C53.9334 121.752 53.867 121.596 53.8228 121.449L53.8096 121.418C53.7654 121.27 53.699 121.114 53.6638 120.945C53.6064 120.766 53.5934 120.606 53.5938 120.477C53.5898 120.294 53.5859 120.111 53.6042 119.937C53.6006 119.625 53.6595 119.287 53.6781 118.984L53.6828 118.908C53.7237 118.614 53.7514 118.289 53.8192 117.928C53.8824 117.643 53.9323 117.327 54.0181 116.921C54.1172 116.547 54.2295 116.204 54.3329 115.884C54.4274 115.585 54.544 115.296 54.6474 114.975C54.9436 114.241 55.1726 113.609 55.4372 113.017C55.5808 112.661 55.7108 112.402 55.8407 112.144C55.9036 111.988 56.0066 111.797 56.1096 111.606C56.1409 111.592 56.1498 111.57 56.1588 111.548C56.1857 111.481 56.226 111.446 56.2529 111.379C56.311 111.299 56.3692 111.219 56.3961 111.152C56.4722 111.027 56.5394 110.925 56.6288 110.832L56.6959 110.729C56.772 110.605 56.8481 110.48 56.9465 110.365L57.0359 110.271L57.1432 110.133C57.1924 110.076 57.2103 110.031 57.2506 109.996C57.2818 109.982 57.2908 109.96 57.2997 109.938C57.3489 109.88 57.3981 109.822 57.4695 109.773C57.4785 109.751 57.5187 109.716 57.5277 109.693C57.5679 109.658 57.6171 109.6 57.6885 109.551L57.7377 109.493C57.8494 109.409 57.9477 109.293 58.0594 109.209C58.0684 109.187 58.0996 109.173 58.1086 109.151C58.1488 109.116 58.2113 109.089 58.2515 109.054L58.4837 108.863C58.832 108.641 59.2025 108.428 59.6128 108.309C59.876 108.234 60.1169 108.15 60.3621 108.119C60.478 108.088 60.6162 108.066 60.7767 108.053C60.7857 108.031 60.808 108.04 60.8169 108.018L60.8392 108.027C60.9329 107.987 61.0489 107.956 61.1469 107.97L61.1781 107.956C61.2851 107.948 61.3921 107.939 61.5123 107.962ZM55.9442 123.055C56.011 123.081 56.0555 123.099 56.1223 123.126C56.2113 123.162 56.3004 123.198 56.3761 123.203C56.4874 123.248 56.5944 123.239 56.7147 123.262C56.9599 123.231 57.1204 123.218 57.2898 123.183C57.6154 123.081 57.9145 122.917 58.16 122.758C58.2537 122.718 58.3252 122.669 58.3744 122.611C58.4458 122.562 58.5262 122.491 58.6067 122.42C58.705 122.305 58.8256 122.198 58.924 122.082C59.1118 121.873 59.2906 121.687 59.4693 121.5C59.5185 121.442 59.5677 121.384 59.6169 121.327L59.7063 121.233C59.7957 121.14 59.8851 121.047 59.9745 120.953C60.0818 120.815 60.1892 120.678 60.2875 120.562C60.4932 120.308 60.6857 120.024 60.8781 119.739C61.0213 119.512 61.2048 119.25 61.3749 118.956C61.581 118.573 61.7648 118.182 61.9935 117.679C62.3252 116.984 62.5586 116.406 62.7607 115.84C62.882 115.475 63.0077 115.163 63.1021 114.865C63.2055 114.545 63.2776 114.237 63.3588 113.908L63.3767 113.863C63.4579 113.534 63.548 113.182 63.6068 112.843C63.6524 112.473 63.698 112.104 63.7081 111.694C63.7041 111.511 63.6689 111.341 63.6205 111.141C63.6119 111.034 63.572 110.94 63.5501 110.802C63.5235 110.739 63.497 110.677 63.4794 110.592C63.4528 110.53 63.4485 110.476 63.4219 110.414C63.3645 110.235 63.3203 110.088 63.2449 109.954C63.1473 109.811 63.0629 109.7 62.9785 109.588C62.8629 109.49 62.7696 109.4 62.6673 109.333C62.565 109.266 62.4716 109.177 62.3603 109.132C62.2803 109.074 62.2002 109.015 62.1201 108.957C61.9956 108.881 61.871 108.805 61.7687 108.738C61.6886 108.68 61.6218 108.653 61.5551 108.626C61.5328 108.617 61.5105 108.608 61.466 108.59C61.4125 108.594 61.368 108.576 61.2923 108.572L61.261 108.585C61.2298 108.598 61.1896 108.634 61.1451 108.616C61.0603 108.633 60.9979 108.66 60.9221 108.655C60.8062 108.686 60.7125 108.726 60.641 108.775L60.6008 108.81L60.5294 108.859C60.3642 108.948 60.1811 109.081 60.0293 109.201C59.8774 109.321 59.7256 109.441 59.587 109.592C59.4484 109.743 59.3009 109.917 59.1533 110.09C59.0592 110.259 58.9429 110.419 58.8087 110.624C58.6967 110.837 58.5757 111.073 58.4547 111.309C58.347 111.576 58.235 111.79 58.1452 112.012C57.9388 112.524 57.7593 112.97 57.5798 113.415L57.5529 113.482C57.4452 113.749 57.3285 114.038 57.2341 114.336C57.1217 114.679 57.0183 115 56.9149 115.32C56.879 115.409 56.8431 115.498 56.8072 115.588C56.7397 115.819 56.6722 116.051 56.6048 116.282C56.5103 116.581 56.4069 116.901 56.3301 117.284C56.2447 117.56 56.1905 117.823 56.105 118.099C56.0645 118.264 56.0149 118.451 55.9654 118.638C55.8527 119.11 55.7442 119.636 55.6624 120.224C55.6082 120.487 55.5852 120.736 55.54 120.977C55.517 121.226 55.494 121.476 55.5113 121.69C55.4976 121.788 55.5152 121.872 55.5238 121.979L55.5149 122.002C55.5325 122.086 55.5278 122.162 55.5454 122.247C55.5497 122.3 55.563 122.332 55.5763 122.363C55.5806 122.416 55.6071 122.479 55.6114 122.532L55.6025 122.554C55.629 122.617 55.6333 122.67 55.6376 122.724L55.6599 122.733C55.7087 122.804 55.7353 122.867 55.7306 122.943C55.7884 122.992 55.8775 123.028 55.9442 123.055Z" fill="#231F20"/>
<path id="Vector_4" d="M50.3014 103.545C50.3682 103.572 50.4127 103.59 50.4795 103.617C50.7243 103.715 50.9602 103.836 51.2051 103.935C51.3741 104.029 51.53 104.092 51.6545 104.168C51.8236 104.262 51.9705 104.347 52.1396 104.441L52.1751 104.481C52.2997 104.558 52.4243 104.634 52.5266 104.701C52.6422 104.799 52.78 104.907 52.9089 105.036C53.1312 105.255 53.3889 105.514 53.5975 105.831C53.8018 106.095 53.9881 106.403 54.1565 106.755C54.1963 106.849 54.2362 106.943 54.285 107.014C54.3026 107.099 54.3292 107.161 54.3558 107.224L54.3823 107.286C54.4175 107.456 54.4617 107.603 54.4836 107.741C54.5539 108.08 54.5532 108.339 54.5302 108.588C54.5076 108.708 54.476 108.851 54.4534 108.971C54.4265 109.038 54.4039 109.158 54.3457 109.238C54.2919 109.372 54.2068 109.519 54.0905 109.679C53.8891 109.986 53.7056 110.248 53.4999 110.502C53.3613 110.653 53.2317 110.782 53.0799 110.902C52.919 111.044 52.7582 111.186 52.5841 111.297C52.4591 111.35 52.3475 111.434 52.2003 111.479C52.0976 111.541 51.9817 111.572 51.8657 111.602C51.7185 111.647 51.5803 111.668 51.4198 111.681C51.2281 111.708 51.0231 111.703 50.8404 111.707C50.6889 111.697 50.5374 111.688 50.3726 111.647C50.2211 111.638 50.0696 111.629 49.9048 111.588C49.7935 111.543 49.6955 111.53 49.5752 111.507C49.553 111.498 49.5307 111.489 49.5084 111.48C49.4639 111.462 49.4104 111.466 49.3437 111.439C49.526 111.565 49.7217 111.721 49.8861 111.891C50.024 111.998 50.1306 112.119 50.2728 112.28C50.3572 112.392 50.4638 112.512 50.5837 112.664C50.6813 112.807 50.77 112.972 50.8587 113.137C50.9251 113.293 50.9915 113.45 51.058 113.606C51.1685 113.909 51.2612 114.257 51.3226 114.618C51.4019 114.935 51.4188 115.278 51.4267 115.643C51.4306 115.826 51.4256 116.031 51.4073 116.205C51.3797 116.53 51.2852 116.829 51.1686 117.118C51.1057 117.274 51.0429 117.43 50.9489 117.599C50.8458 117.79 50.7428 117.981 50.6667 118.106C50.5816 118.253 50.4965 118.4 50.3981 118.515C50.3041 118.684 50.2057 118.8 50.0851 118.906C49.9286 119.102 49.7677 119.244 49.6069 119.386C49.4148 119.542 49.2095 119.666 49.0131 119.768C48.8882 119.821 48.7945 119.861 48.7097 119.879C48.6071 119.941 48.4911 119.972 48.3841 119.98C48.1924 120.007 47.9917 120.055 47.7555 120.063C47.6708 120.081 47.5728 120.067 47.4658 120.076L47.4123 120.08C47.3588 120.084 47.283 120.08 47.2295 120.084C47.0558 120.066 46.9043 120.056 46.7305 120.038C46.5435 119.989 46.3697 119.97 46.2049 119.93C45.8976 119.858 45.5235 119.758 45.1584 119.637C44.8511 119.565 44.5305 119.462 44.1966 119.327C44.0986 119.313 44.0096 119.277 43.8983 119.233C43.698 119.152 43.4843 119.04 43.3063 118.968C43.0036 118.82 42.6787 118.663 42.305 118.435C42.2605 118.417 42.1937 118.39 42.1582 118.35L42.1316 118.287L42.1093 118.278C42.0426 118.251 41.9625 118.193 41.9449 118.108C41.8961 118.037 41.9097 117.939 41.9366 117.872C42.0221 117.596 42.1075 117.32 42.2152 117.053L42.2242 117.031C42.3409 116.741 42.4263 116.465 42.5028 116.211C42.5656 116.056 42.6284 115.9 42.669 115.735C42.7228 115.602 42.7455 115.481 42.7993 115.348C42.8758 115.094 42.9655 114.871 43.033 114.64L43.1048 114.462C43.289 113.941 43.5044 113.407 43.7108 112.895L43.8185 112.627L43.8634 112.516C44.0967 111.937 44.3391 111.336 44.5947 110.767C45.0075 109.743 45.4294 108.697 45.8332 107.695L46.1204 106.983L46.1833 106.827C46.3987 106.293 46.623 105.736 46.8474 105.18C47.1123 104.459 47.3995 103.746 47.6645 103.025C47.6781 102.927 47.7496 102.878 47.812 102.852C47.9057 102.812 47.9815 102.816 48.0705 102.852C48.1373 102.879 48.1728 102.919 48.2306 102.969C48.2306 102.969 48.2306 102.969 48.2396 102.946C48.3243 102.929 48.4001 102.933 48.4891 102.969L48.5426 102.965C48.6094 102.992 48.6762 103.019 48.743 103.046C48.8097 103.073 48.8765 103.1 48.921 103.118C49.0546 103.171 49.2194 103.212 49.4064 103.262C49.4732 103.288 49.54 103.315 49.6067 103.342C49.8383 103.41 50.0699 103.477 50.3014 103.545ZM47.1641 109.914C47.5202 110.057 47.8229 110.205 48.1345 110.331C48.2681 110.385 48.4016 110.439 48.5574 110.501C48.789 110.569 49.0338 110.668 49.2342 110.748C49.4435 110.807 49.6305 110.856 49.8175 110.906L49.8621 110.924C49.9378 110.929 50.0269 110.964 50.1249 110.978C50.2451 111.001 50.3431 111.014 50.4411 111.028C50.5614 111.051 50.6594 111.064 50.8109 111.074C50.8867 111.078 50.9624 111.083 51.0382 111.088L51.0694 111.074L51.0917 111.083C51.1452 111.079 51.1987 111.075 51.2834 111.057C51.4661 111.053 51.6133 111.009 51.7515 110.987C51.8765 110.934 52.0237 110.89 52.1353 110.805C52.3005 110.717 52.4523 110.597 52.6042 110.477C52.6354 110.464 52.6444 110.441 52.6756 110.428C52.7158 110.393 52.756 110.357 52.7962 110.321L52.9258 110.193C53.0644 110.041 53.203 109.89 53.3283 109.708L53.3552 109.641C53.4715 109.481 53.5879 109.321 53.6909 109.13C53.767 109.005 53.8119 108.894 53.8657 108.76C53.884 108.586 53.9156 108.444 53.9027 108.283C53.912 108.132 53.8812 108.016 53.8725 107.909C53.8639 107.802 53.833 107.686 53.8065 107.623C53.7713 107.454 53.6916 107.267 53.6029 107.101C53.5232 106.914 53.4345 106.749 53.3459 106.584C53.2482 106.441 53.1462 106.245 53.0041 106.084C52.8842 105.932 52.742 105.771 52.5998 105.61L52.5776 105.601C52.4264 105.463 52.2842 105.302 52.1019 105.176C51.9418 105.06 51.7504 104.957 51.5458 104.823C51.2743 104.662 51.0072 104.554 50.7491 104.424C50.5933 104.361 50.4152 104.289 50.2149 104.209C50.1259 104.173 50.0146 104.128 49.9255 104.092C49.792 104.038 49.6495 104.007 49.5382 103.962L49.5202 104.006C49.4168 104.327 49.3134 104.647 49.1878 104.959C49.0844 105.28 48.9498 105.613 48.8241 105.925C48.7792 106.036 48.7656 106.134 48.7297 106.223C48.6489 106.424 48.5682 106.624 48.4874 106.824L48.4246 106.98C48.3348 107.203 48.2583 107.457 48.1596 107.701C48.0297 107.96 47.904 108.271 47.7694 108.605C47.6843 108.752 47.6125 108.93 47.5274 109.077C47.4736 109.21 47.4197 109.344 47.3436 109.469C47.2897 109.602 47.2359 109.736 47.1641 109.914ZM43.7622 118.479C43.8958 118.533 43.9848 118.569 44.0738 118.605C44.1183 118.623 44.1406 118.632 44.1629 118.641C44.6748 118.847 45.227 119.018 45.8104 119.175C46.0642 119.252 46.3492 119.315 46.6655 119.365C46.8081 119.397 46.9728 119.437 47.1556 119.433L47.2001 119.451C47.2536 119.447 47.3293 119.451 47.3828 119.447C47.4363 119.443 47.4898 119.439 47.5343 119.457L47.5878 119.452C47.8553 119.431 48.1227 119.409 48.3547 119.347C48.5554 119.299 48.7205 119.21 48.9169 119.108C49.082 119.02 49.2339 118.9 49.3322 118.784L49.4127 118.713L49.4931 118.642C49.5512 118.562 49.6317 118.491 49.6898 118.411C49.7702 118.34 49.8374 118.237 49.9045 118.135C49.9627 118.055 50.0208 117.975 50.088 117.873C50.1371 117.815 50.1641 117.748 50.191 117.681C50.191 117.681 50.191 117.681 50.2 117.659C50.3971 117.298 50.6121 116.894 50.7291 116.475C50.7607 116.332 50.7833 116.212 50.7837 116.083C50.8016 116.038 50.7973 115.985 50.793 115.931L50.802 115.909C50.8156 115.811 50.7981 115.726 50.8027 115.651C50.7898 115.49 50.7901 115.361 50.7815 115.254C50.7729 115.147 50.7643 115.04 50.7557 114.933L50.7424 114.902C50.7119 114.657 50.6501 114.425 50.6017 114.224C50.5575 114.077 50.4868 113.867 50.416 113.657C50.3274 113.492 50.2387 113.327 50.1633 113.193C50.0524 113.019 49.9547 112.876 49.8481 112.756C49.7637 112.644 49.6481 112.546 49.5415 112.425C49.2037 112.108 48.8479 111.835 48.5054 111.593C48.1539 111.374 47.8114 111.132 47.451 110.935C47.3486 110.868 47.2373 110.823 47.1128 110.747L47.0683 110.729C47.0015 110.702 46.9347 110.675 46.8457 110.639C46.7559 110.862 46.6662 111.084 46.5764 111.307C46.4913 111.454 46.4285 111.61 46.3747 111.743C46.2985 111.868 46.2357 112.024 46.1819 112.157C46.0831 112.402 45.9754 112.669 45.8545 112.905L45.7916 113.061C45.5583 113.639 45.307 114.263 45.0557 114.886C44.8044 115.509 44.5753 116.141 44.3553 116.751C44.2788 117.005 44.2113 117.237 44.1126 117.482L44.0631 117.669C44.0092 117.802 43.9554 117.936 43.9238 118.078L43.9058 118.123C43.8879 118.167 43.8699 118.212 43.852 118.256C43.825 118.323 43.7891 118.412 43.7622 118.479Z" fill="#231F20"/>
</g>
<g id="agir">
<path id="Vector_5" d="M165.965 108.923L165.988 108.917C166.011 108.911 166.058 108.898 166.087 108.915C166.196 108.86 166.312 108.828 166.428 108.797C166.451 108.791 166.474 108.784 166.497 108.778C166.613 108.746 166.775 108.702 166.944 108.681C167.106 108.637 167.274 108.616 167.512 108.576C167.611 108.574 167.68 108.555 167.779 108.553C167.849 108.534 167.901 108.544 167.971 108.525C168.139 108.504 168.308 108.483 168.459 108.492C169.063 108.427 169.75 108.389 170.444 108.473C170.596 108.482 170.8 108.5 170.987 108.549C171.234 108.631 171.539 108.747 171.781 108.905C171.928 108.989 172.059 109.103 172.248 109.25C172.408 109.38 172.509 109.477 172.61 109.574L172.795 109.797C172.974 109.997 173.124 110.18 173.303 110.38C173.41 110.5 173.5 110.65 173.62 110.816C173.711 110.966 173.801 111.115 173.892 111.265C174.031 111.5 174.14 111.719 174.203 111.951L174.21 111.974C174.229 112.043 174.248 112.113 174.267 112.182C174.342 112.46 174.418 112.738 174.395 113.018C174.37 113.199 174.361 113.351 174.33 113.508C174.319 113.561 174.308 113.614 174.321 113.66C174.306 113.788 174.292 113.917 174.247 114.028C174.214 114.087 174.186 114.169 174.153 114.228C174.125 114.31 174.098 114.392 174.047 114.481C173.936 114.71 173.795 114.923 173.618 115.095C173.487 115.255 173.391 115.356 173.271 115.464C173.111 115.607 172.967 115.721 172.818 115.811C172.652 115.931 172.502 116.022 172.37 116.083C172.024 116.276 171.614 116.413 171.128 116.546C170.85 116.621 170.595 116.691 170.38 116.724L170.218 116.769C169.964 116.838 169.703 116.884 169.448 116.954C169.332 116.985 169.216 117.017 169.101 117.048L169.254 117.156L169.284 117.173C169.408 117.263 169.532 117.354 169.656 117.444L169.745 117.495C170.094 117.773 170.408 118.011 170.692 118.232C170.858 118.385 171.047 118.533 171.214 118.686C171.308 118.76 171.41 118.857 171.504 118.931C171.729 119.118 171.99 119.345 172.304 119.583C172.458 119.69 172.618 119.821 172.748 119.935C173.098 120.213 173.476 120.507 173.849 120.779L173.826 120.785L173.855 120.802L173.885 120.819C174.293 121.13 174.767 121.499 175.257 121.838C175.476 122.002 175.718 122.16 175.96 122.318C176.025 122.375 176.114 122.425 176.173 122.459L176.32 122.543C176.356 122.583 176.385 122.6 176.421 122.64C176.509 122.69 176.598 122.741 176.663 122.798C176.722 122.831 176.781 122.865 176.794 122.911C176.842 122.998 176.861 123.067 176.834 123.149C176.806 123.231 176.749 123.297 176.686 123.339C176.669 123.368 176.646 123.374 176.6 123.387C176.554 123.4 176.501 123.389 176.448 123.379C176.337 123.334 176.242 123.261 176.124 123.193C176.095 123.177 176.065 123.16 176.029 123.12L175.882 123.036C175.67 122.894 175.451 122.73 175.238 122.589C174.967 122.414 174.718 122.233 174.47 122.052L174.434 122.012C173.931 121.627 173.34 121.191 172.742 120.732C172.618 120.642 172.487 120.528 172.357 120.415C172.226 120.301 172.102 120.21 171.971 120.097L171.847 120.006C171.635 119.865 171.439 119.695 171.22 119.53C171.119 119.434 171.018 119.337 170.917 119.24C170.757 119.109 170.597 118.979 170.437 118.848L170.342 118.775C170.248 118.701 170.147 118.604 170.052 118.53L169.921 118.417C169.827 118.343 169.732 118.269 169.614 118.202C169.519 118.128 169.425 118.055 169.33 117.981C169.3 117.964 169.271 117.947 169.235 117.907C169.199 117.867 169.14 117.834 169.075 117.777L168.928 117.693C168.839 117.642 168.745 117.568 168.627 117.501C168.734 117.895 168.871 118.305 168.985 118.722C169.016 118.838 169.041 118.93 169.073 119.046C169.13 119.254 169.187 119.463 169.243 119.671C169.368 120.035 169.462 120.383 169.568 120.677C169.612 120.84 169.65 120.978 169.694 121.141C169.761 121.296 169.805 121.458 169.85 121.62C169.923 121.799 169.974 121.985 170.024 122.17C170.056 122.286 170.094 122.425 170.131 122.564L170.144 122.61C170.249 122.905 170.331 123.206 170.437 123.5C170.481 123.662 170.548 123.818 170.586 123.957C170.611 124.05 170.63 124.119 170.655 124.212L170.668 124.258C170.681 124.304 170.7 124.374 170.719 124.443C170.744 124.536 170.74 124.612 170.683 124.677C170.649 124.736 170.569 124.807 170.5 124.826C170.43 124.845 170.354 124.841 170.295 124.807C170.272 124.814 170.249 124.82 170.226 124.826C170.093 124.887 169.914 124.961 169.729 125.012C169.573 125.079 169.435 125.117 169.272 125.161L169.186 125.209L169.163 125.216C169.024 125.254 168.841 125.129 168.797 124.967C168.797 124.967 168.79 124.944 168.784 124.921C168.698 124.696 168.635 124.464 168.572 124.233L168.553 124.163C168.515 124.024 168.471 123.862 168.426 123.7C168.395 123.584 168.363 123.468 168.332 123.353C168.25 123.052 168.168 122.751 168.109 122.443C168.046 122.212 167.976 121.957 167.907 121.702C167.812 121.355 167.717 121.008 167.623 120.66C167.591 120.545 167.553 120.406 167.522 120.29C167.471 120.105 167.421 119.919 167.37 119.734C167.244 119.271 167.118 118.808 166.998 118.368L166.846 117.812C166.758 117.488 166.669 117.164 166.581 116.84C166.316 115.867 166.044 114.872 165.773 113.876C165.436 112.55 165.047 111.213 164.626 109.761C164.584 109.698 164.605 109.592 164.639 109.533C164.689 109.445 164.752 109.403 164.845 109.378C164.891 109.365 164.938 109.352 164.967 109.369C165.123 109.302 165.279 109.235 165.428 109.144L165.521 109.119C165.67 109.028 165.803 108.967 165.965 108.923ZM170.1 116.154C170.355 116.085 170.616 116.038 170.894 115.962L170.964 115.944L171.033 115.925C171.172 115.887 171.288 115.855 171.397 115.8C171.42 115.794 171.443 115.788 171.49 115.775C171.536 115.763 171.582 115.75 171.629 115.737L171.715 115.689L171.784 115.67L171.848 115.628C171.957 115.573 172.09 115.512 172.199 115.457C172.222 115.451 172.245 115.445 172.262 115.415C172.309 115.403 172.349 115.367 172.395 115.354L172.498 115.276L172.584 115.228C172.681 115.127 172.808 115.043 172.904 114.942C173.024 114.834 173.138 114.704 173.269 114.544C173.359 114.42 173.426 114.302 173.494 114.184C173.521 114.102 173.572 114.014 173.622 113.925C173.643 113.82 173.664 113.715 173.692 113.633L173.696 113.557C173.694 113.458 173.721 113.376 173.725 113.3C173.751 113.119 173.776 112.938 173.749 112.746C173.74 112.624 173.709 112.509 173.664 112.346C173.627 112.208 173.582 112.045 173.521 111.913C173.441 111.711 173.309 111.498 173.189 111.332C173.176 111.286 173.14 111.246 173.128 111.199C173.044 111.073 172.936 110.953 172.852 110.827C172.709 110.667 172.56 110.483 172.41 110.3L172.28 110.187C172.195 110.06 172.088 109.94 171.958 109.827C171.833 109.736 171.732 109.639 171.638 109.566C171.513 109.475 171.36 109.368 171.189 109.29C171.078 109.246 170.943 109.208 170.808 109.17C170.703 109.149 170.598 109.128 170.493 109.107L170.44 109.096C170.341 109.098 170.236 109.077 170.137 109.079C170.008 109.065 169.857 109.056 169.735 109.064C169.461 109.064 169.188 109.064 168.967 109.075C168.699 109.098 168.432 109.121 168.188 109.138L168.066 109.146C167.874 109.174 167.676 109.178 167.462 109.212C167.247 109.245 166.992 109.315 166.708 109.367C166.662 109.38 166.638 109.386 166.592 109.399C166.546 109.412 166.5 109.424 166.453 109.437L167.419 112.979C167.59 113.605 167.766 114.253 167.937 114.878C168.095 115.457 168.223 116.019 168.374 116.575C169 116.404 169.562 116.276 170.1 116.154Z" fill="#231F20"/>
<path id="Vector_6" d="M160.035 110.913C160.085 110.825 160.142 110.759 160.235 110.734C160.304 110.715 160.386 110.743 160.445 110.776C160.677 110.713 160.902 110.627 161.197 110.522C161.243 110.509 161.29 110.496 161.359 110.477C161.475 110.446 161.607 110.385 161.746 110.347C161.769 110.341 161.816 110.328 161.862 110.315C161.984 110.307 162.119 110.345 162.19 110.425C162.279 110.475 162.321 110.539 162.346 110.631C162.51 111.233 162.681 111.858 162.883 112.599C162.933 112.785 162.984 112.97 163.034 113.155C163.154 113.595 163.274 114.035 163.365 114.458C163.434 114.713 163.503 114.967 163.55 115.228L163.594 115.391L163.691 115.837C163.741 116.022 163.792 116.207 163.819 116.399C163.895 116.677 163.971 116.955 164.017 117.216C164.118 117.586 164.225 117.98 164.303 118.356C164.305 118.455 164.337 118.571 164.362 118.664C164.402 118.902 164.459 119.11 164.499 119.348C164.587 119.672 164.676 119.996 164.758 120.297C164.859 120.668 164.96 121.038 165.084 121.402C165.159 121.68 165.235 121.958 165.311 122.236C165.416 122.531 165.498 122.832 165.58 123.133C165.669 123.457 165.763 123.804 165.852 124.128L165.902 124.314C165.972 124.568 166.041 124.823 166.111 125.078C166.172 125.21 166.21 125.349 166.254 125.511C166.26 125.534 166.273 125.581 166.285 125.627C166.317 125.743 166.342 125.836 166.374 125.951C166.418 126.113 166.317 126.29 166.155 126.334C166.132 126.341 166.132 126.341 166.108 126.347C166.081 126.429 165.995 126.477 165.925 126.496C165.856 126.515 165.809 126.528 165.763 126.541C165.671 126.566 165.578 126.591 165.485 126.616C165.439 126.629 165.393 126.642 165.353 126.677C165.144 126.734 164.913 126.797 164.704 126.854C164.542 126.898 164.365 126.797 164.321 126.635C164.315 126.612 164.315 126.612 164.309 126.589C164.309 126.589 164.302 126.566 164.296 126.543C164.271 126.45 164.222 126.364 164.197 126.271C164.098 125.999 164.022 125.722 163.947 125.444L163.934 125.397C163.846 125.073 163.757 124.749 163.682 124.471L162.16 118.891L161.863 117.803C161.611 116.876 161.365 115.973 161.112 115.047C160.942 114.422 160.765 113.774 160.588 113.125C160.393 112.408 160.21 111.736 160.022 111.14C159.974 111.054 160.001 110.972 160.035 110.913Z" fill="#231F20"/>
<path id="Vector_7" d="M152.684 113.091C152.863 113.017 153.042 112.944 153.251 112.887C153.32 112.868 153.389 112.849 153.459 112.83C153.644 112.78 153.789 112.765 153.935 112.75C153.958 112.744 153.981 112.738 154.004 112.731L154.027 112.725C154.05 112.719 154.074 112.712 154.074 112.712C154.097 112.706 154.126 112.723 154.149 112.717C154.173 112.71 154.196 112.704 154.219 112.698L154.242 112.691C154.265 112.685 154.271 112.708 154.295 112.702L154.341 112.689C154.417 112.693 154.509 112.668 154.585 112.672C154.737 112.681 154.911 112.683 155.086 112.685C155.343 112.715 155.56 112.78 155.835 112.879C155.917 112.906 156.006 112.957 156.094 113.007C156.242 113.091 156.395 113.199 156.549 113.306C156.679 113.42 156.804 113.51 156.934 113.624C157.065 113.738 157.172 113.858 157.309 113.995C157.582 114.268 157.803 114.531 158.001 114.801C158.163 115.03 158.315 115.312 158.46 115.571L158.515 115.681C158.708 116.026 158.849 116.361 158.944 116.708C158.963 116.777 158.959 116.853 158.931 116.935C158.875 117.001 158.795 117.072 158.725 117.091C158.563 117.135 158.386 117.034 158.342 116.872C158.317 116.78 158.268 116.693 158.243 116.601L158.224 116.531C158.169 116.422 158.108 116.289 158.054 116.18C157.986 116.024 157.896 115.874 157.835 115.742C157.774 115.609 157.696 115.506 157.605 115.357C157.551 115.247 157.473 115.144 157.395 115.041L157.389 115.018C157.21 114.818 157.018 114.571 156.78 114.338C156.608 114.161 156.383 113.973 156.134 113.792L156.098 113.752C156.04 113.719 155.974 113.662 155.886 113.611C155.768 113.544 155.656 113.5 155.545 113.456C155.404 113.395 155.269 113.357 155.111 113.325C154.878 113.289 154.633 113.306 154.337 113.312C154.313 113.319 154.313 113.319 154.29 113.325L154.267 113.331C154.244 113.338 154.244 113.338 154.221 113.344L154.191 113.327C154.168 113.333 154.168 113.333 154.145 113.34L154.122 113.346L154.099 113.352C154.076 113.359 154.052 113.365 154.052 113.365C153.838 113.399 153.623 113.432 153.415 113.489L153.392 113.495C153.324 113.613 153.24 113.761 153.179 113.902C153.107 114.095 153.071 114.329 153.013 114.569C152.983 114.826 152.97 115.053 152.981 115.274C152.989 115.396 152.998 115.518 153.023 115.611C153.038 115.756 153.046 115.878 153.067 116.047C153.107 116.284 153.153 116.545 153.193 116.783L153.214 116.952L153.233 117.021C153.286 117.305 153.322 117.619 153.404 117.92C153.515 118.511 153.669 119.166 153.877 119.93C153.978 120.301 154.067 120.625 154.149 120.926C154.237 121.25 154.349 121.568 154.454 121.863L154.466 121.909C154.534 122.065 154.578 122.227 154.645 122.383C154.683 122.521 154.75 122.677 154.788 122.816L154.795 122.839C154.906 123.157 155.018 123.475 155.146 123.763C155.418 124.485 155.657 125.092 155.885 125.652C156.068 126.049 156.215 126.407 156.403 126.729L156.421 126.799C156.464 126.862 156.482 126.931 156.525 126.995C156.567 127.058 156.602 127.098 156.621 127.167L156.699 127.27L156.706 127.294C156.748 127.357 156.796 127.443 156.844 127.529C156.88 127.569 156.945 127.626 156.988 127.689C157.03 127.752 157.095 127.809 157.166 127.889C157.202 127.929 157.244 127.992 157.303 128.026C157.339 128.066 157.369 128.083 157.398 128.1C157.421 128.093 157.444 128.087 157.444 128.087C157.514 128.068 157.583 128.049 157.63 128.037C157.785 127.969 157.935 127.879 158.067 127.818C158.194 127.734 158.314 127.626 158.417 127.548C158.623 127.393 158.857 127.155 159.084 126.894C159.192 126.74 159.316 126.557 159.417 126.38C159.45 126.321 159.501 126.233 159.535 126.174C159.608 126.079 159.653 125.968 159.72 125.85C159.77 125.761 159.798 125.679 159.848 125.591L159.842 125.568C159.886 125.456 159.931 125.345 159.975 125.233C159.968 125.21 159.985 125.18 159.985 125.18C159.996 125.128 160.006 125.075 160.023 125.046L160.021 124.947L160.042 124.842C160.057 124.713 160.072 124.585 160.08 124.433C160.088 124.282 160.074 124.136 160.07 123.939C160.078 123.787 160.063 123.642 160.042 123.473C160.034 123.351 160.025 123.229 160.011 123.084C159.929 122.509 159.813 121.994 159.687 121.53C159.617 121.276 159.525 121.027 159.419 120.733C159.4 120.663 159.388 120.617 159.375 120.571C159.302 120.392 159.257 120.23 159.19 120.074C159.114 120.07 159.038 120.065 158.992 120.078L158.94 120.067C158.893 120.08 158.841 120.07 158.794 120.082C158.695 120.084 158.603 120.11 158.504 120.112C158.411 120.137 158.289 120.145 158.196 120.171C158.127 120.189 158.058 120.208 157.988 120.227C157.773 120.261 157.582 120.288 157.367 120.322C157.268 120.324 157.18 120.274 157.144 120.234C157.079 120.177 157.03 120.09 157.028 119.992C157.032 119.916 157.06 119.834 157.123 119.792C157.157 119.733 157.226 119.714 157.272 119.701C157.296 119.695 157.319 119.688 157.342 119.682C157.557 119.648 157.771 119.615 158.009 119.575C158.194 119.524 158.455 119.478 158.7 119.461C158.822 119.453 158.944 119.444 159.043 119.442C159.188 119.428 159.34 119.436 159.481 119.497C159.563 119.524 159.605 119.588 159.641 119.628C159.676 119.668 159.706 119.684 159.718 119.731C159.754 119.771 159.76 119.794 159.773 119.84C159.84 119.996 159.885 120.158 159.946 120.291C159.958 120.337 159.971 120.383 159.984 120.43L160.003 120.499C160.101 120.771 160.207 121.065 160.289 121.366C160.39 121.737 160.472 122.038 160.531 122.345C160.59 122.652 160.632 122.989 160.686 123.372C160.684 123.547 160.705 123.715 160.691 123.844L160.709 123.913C160.718 124.035 160.709 124.187 160.718 124.309C160.699 124.513 160.697 124.688 160.671 124.869C160.674 124.968 160.646 125.05 160.625 125.155L160.631 125.178C160.621 125.231 160.587 125.29 160.577 125.343L160.573 125.418C160.541 125.576 160.457 125.724 160.396 125.865L160.391 125.94C160.307 126.088 160.246 126.229 160.162 126.376C160.105 126.441 160.078 126.523 160.021 126.589C159.987 126.648 159.954 126.707 159.92 126.765C159.762 127.008 159.638 127.191 159.467 127.386C159.337 127.546 159.183 127.713 159.023 127.856C158.966 127.921 158.909 127.986 158.806 128.064C158.783 128.07 158.76 128.077 158.743 128.106C158.68 128.148 158.617 128.19 158.577 128.226C158.434 128.34 158.278 128.407 158.105 128.504L158.059 128.517C157.926 128.578 157.794 128.639 157.655 128.677L157.632 128.683C157.4 128.746 157.133 128.769 156.806 128.759L156.731 128.754C156.632 128.756 156.533 128.759 156.428 128.737C156.329 128.74 156.2 128.725 156.095 128.704C155.96 128.666 155.849 128.622 155.767 128.594C155.373 128.428 155.007 128.18 154.71 127.912L154.668 127.849C154.544 127.759 154.443 127.662 154.335 127.542L154.323 127.495C154.108 127.255 153.893 127.015 153.742 126.733C153.578 126.405 153.414 126.077 153.273 125.742L153.254 125.672C153.096 125.367 152.978 125.026 152.866 124.708C152.841 124.616 152.81 124.5 152.755 124.39C152.698 124.182 152.612 123.957 152.555 123.748C152.431 123.384 152.313 123.043 152.218 122.696C152.136 122.395 152.031 122.1 151.926 121.806C151.844 121.505 151.732 121.187 151.625 120.793C151.587 120.654 151.543 120.492 151.499 120.33C151.461 120.191 151.416 120.029 151.372 119.867C151.261 119.549 151.196 119.218 151.107 118.894L151.095 118.848L151.05 118.686C150.975 118.408 150.899 118.13 150.829 117.876C150.741 117.551 150.699 117.215 150.651 116.855C150.648 116.756 150.623 116.663 150.627 116.587L150.638 116.535C150.623 116.389 150.615 116.267 150.63 116.139C150.644 116.011 150.659 115.882 150.703 115.771C150.714 115.718 150.724 115.665 150.735 115.613C150.745 115.56 150.773 115.478 150.783 115.425L150.8 115.396C150.914 114.992 151.053 114.68 151.228 114.409C151.329 114.232 151.436 114.078 151.543 113.925C151.68 113.788 151.857 113.615 152.063 113.459C152.27 113.304 152.489 113.194 152.684 113.091Z" fill="#231F20"/>
<path id="Vector_8" d="M151.545 129.745C151.635 129.895 151.593 130.105 151.444 130.196C151.42 130.202 151.397 130.208 151.374 130.215C151.235 130.253 151.071 130.198 151.01 130.065C150.92 129.916 150.852 129.76 150.762 129.611L150.749 129.564C150.701 129.478 150.682 129.408 150.633 129.322C150.585 129.236 150.537 129.15 150.518 129.08C150.347 128.729 150.17 128.354 149.994 127.979C149.707 127.385 149.438 126.762 149.156 126.093C149.028 125.805 148.922 125.51 148.794 125.222C148.682 124.904 148.548 124.592 148.413 124.281C148.272 123.946 148.125 123.588 147.954 123.237C147.929 123.144 147.874 123.034 147.82 122.925L147.796 122.931L147.803 122.954C147.756 122.967 147.71 122.98 147.641 122.999C147.618 123.005 147.571 123.018 147.525 123.03L147.479 123.043C147.363 123.074 147.27 123.1 147.154 123.131L147.108 123.144C146.923 123.194 146.714 123.251 146.529 123.302L146.46 123.321L146.39 123.34C146.235 123.407 146.049 123.457 145.864 123.508L145.818 123.52C145.632 123.571 145.47 123.615 145.216 123.685C145.224 123.807 145.233 123.929 145.241 124.051L145.258 124.295C145.293 124.882 145.342 125.516 145.407 126.12C145.47 126.899 145.525 127.556 145.59 128.16L145.63 128.398C145.676 128.932 145.735 129.513 145.811 130.065C145.859 130.425 145.914 130.808 145.985 131.161C146.004 131.231 145.994 131.284 145.983 131.336L145.95 131.395L145.956 131.418C145.899 131.483 145.836 131.526 145.767 131.545C145.72 131.557 145.697 131.563 145.651 131.576C145.564 131.624 145.472 131.65 145.385 131.698C145.362 131.704 145.339 131.711 145.299 131.747C145.143 131.814 145.011 131.875 144.872 131.913L144.849 131.919C144.703 131.934 144.588 131.965 144.442 131.98L144.419 131.986C144.32 131.989 144.251 132.007 144.152 132.01C144.106 132.022 144.053 132.012 143.977 132.007C143.901 132.003 143.849 131.993 143.79 131.959C143.737 131.948 143.702 131.908 143.672 131.892C143.63 131.828 143.594 131.788 143.552 131.725C143.539 131.679 143.533 131.656 143.521 131.61C143.514 131.586 143.478 131.546 143.495 131.517C143.476 131.447 143.457 131.378 143.445 131.332C143.424 131.163 143.403 130.995 143.399 130.797L143.369 130.507C143.329 130.269 143.319 130.048 143.302 129.803C143.277 129.711 143.281 129.635 143.279 129.536C143.262 129.292 143.222 129.054 143.205 128.81C143.192 128.49 143.174 128.147 143.155 127.804C143.117 127.391 143.096 126.949 143.081 126.53C143.064 126.286 143.047 126.042 143.031 125.798C143.033 125.623 143.012 125.455 142.991 125.286C142.999 125.135 142.984 124.989 142.963 124.821C142.944 124.478 142.932 124.158 142.919 123.838C142.909 123.617 142.892 123.373 142.905 123.146C142.884 122.704 142.856 122.238 142.835 121.796C142.825 121.028 142.806 120.411 142.81 119.788C142.802 119.666 142.816 119.538 142.814 119.439C142.804 119.218 142.823 119.014 142.812 118.793C142.802 118.571 142.814 118.344 142.804 118.123C142.802 118.024 142.777 117.932 142.775 117.833C142.781 117.582 142.764 117.338 142.747 117.094C142.749 116.645 142.728 116.203 142.707 115.761C142.672 115.721 142.659 115.675 142.646 115.629C142.602 115.467 142.703 115.29 142.865 115.246L143.074 115.189C143.213 115.151 143.375 115.107 143.514 115.069L143.56 115.056C143.676 115.025 143.791 114.993 143.884 114.968C143.907 114.962 143.93 114.955 143.954 114.949C144.069 114.917 144.208 114.88 144.337 114.894C144.389 114.905 144.442 114.915 144.501 114.949L144.56 114.983C144.589 115 144.596 115.023 144.602 115.046C144.707 115.067 144.772 115.124 144.814 115.187C144.966 115.469 145.117 115.751 145.269 116.033C145.391 116.298 145.53 116.534 145.675 116.793C145.772 116.966 145.875 117.161 145.978 117.357C146.13 117.639 146.288 117.945 146.445 118.25C146.584 118.486 146.677 118.734 146.793 118.976C146.835 119.039 146.854 119.109 146.896 119.172C146.908 119.218 146.927 119.288 146.963 119.328L146.988 119.42C146.995 119.443 147.024 119.46 147.037 119.506C147.043 119.53 147.043 119.53 147.049 119.553C147.056 119.576 147.056 119.576 147.056 119.576L147.104 119.662C147.111 119.685 147.117 119.709 147.117 119.709C147.123 119.732 147.129 119.755 147.159 119.772C147.233 119.951 147.283 120.136 147.357 120.315C147.411 120.424 147.472 120.557 147.504 120.673C147.773 121.296 148.043 121.919 148.335 122.536C148.457 122.801 148.586 123.089 148.714 123.378L148.746 123.493C148.904 123.799 149.045 124.133 149.156 124.451C149.266 124.67 149.345 124.872 149.425 125.074C149.585 125.478 149.745 125.883 149.928 126.28C150.162 126.864 150.425 127.463 150.711 128.057L150.753 128.12C150.875 128.385 150.998 128.651 151.12 128.916C151.21 129.065 151.271 129.198 151.338 129.354C151.423 129.48 151.484 129.613 151.545 129.745ZM147.477 122.397C147.5 122.39 147.546 122.378 147.569 122.371C147.527 122.308 147.508 122.239 147.466 122.176C147.392 121.997 147.319 121.818 147.245 121.639C147.184 121.506 147.117 121.35 147.049 121.195C146.934 120.953 146.835 120.681 146.736 120.409L146.668 120.254L146.614 120.144C146.601 120.098 146.588 120.052 146.546 119.988C146.54 119.965 146.534 119.942 146.527 119.919C146.521 119.896 146.515 119.873 146.515 119.873L146.502 119.826C146.473 119.81 146.466 119.786 146.46 119.763C146.454 119.74 146.454 119.74 146.447 119.717C146.38 119.561 146.283 119.389 146.216 119.233C146.081 118.921 145.923 118.616 145.766 118.311C145.662 118.115 145.553 117.896 145.45 117.7C145.401 117.614 145.347 117.505 145.275 117.425C145.117 117.119 144.96 116.814 144.814 116.555C144.858 116.991 144.886 117.456 144.907 117.898L144.934 118.09C144.976 118.7 145.025 119.334 145.05 119.974C145.064 120.392 145.085 120.835 145.1 121.253C145.123 121.521 145.123 121.794 145.146 122.062C145.159 122.382 145.172 122.702 145.184 123.022C145.353 123.001 145.515 122.956 145.677 122.912L145.723 122.9C145.885 122.855 146.064 122.782 146.249 122.731L146.296 122.719C146.527 122.655 146.752 122.569 146.961 122.512C147.077 122.481 147.192 122.449 147.308 122.418L147.361 122.428C147.407 122.416 147.453 122.403 147.477 122.397Z" fill="#231F20"/>
</g>
</g>
<defs>
<clipPath id="clip0_577_1023">
<rect width="223" height="188.14" fill="white"/>
</clipPath>
</defs>
</svg>
