<svg width="223" height="189" viewBox="0 0 223 189" fill="none" xmlns="http://www.w3.org/2000/svg">
<g id="box-germinar">
<g id="Group 2608091">
<path id="Vector" fill-rule="evenodd" clip-rule="evenodd" d="M220.131 72.9163C218.817 71.4103 217.856 71.2821 216.157 72.3716C215.164 73.0124 214.235 73.0765 213.081 72.8522C213.145 71.5705 213.37 70.3849 213.274 69.2314C213.145 67.1807 212.665 65.1941 213.274 63.1114C213.466 62.5026 213.145 61.7656 213.081 61.0606C212.857 59.2663 212.569 57.4719 213.53 55.6776C214.812 55.3571 216.125 55.0047 217.407 54.6842C217.727 54.0114 217.407 53.755 216.99 53.3705C215.613 52.249 213.562 51.7043 213.562 49.3652C213.562 49.0448 212.825 48.5322 212.376 48.436C212.056 48.3719 211.575 48.8526 211.223 49.173C211.031 49.3652 210.934 49.7177 210.774 50.0061C208.82 50.0061 206.961 49.7818 205.167 49.1089C203.052 48.3079 200.937 47.3786 198.758 46.866C196.355 46.3212 194.048 44.9755 191.453 45.7124C191.389 45.7124 191.261 45.5843 191.164 45.4881C191.357 44.9755 191.453 44.3667 191.741 43.9181C192.702 42.4762 193.568 40.8741 194.849 39.7205C196.419 38.3107 198.438 37.4135 200.168 36.1639C202.571 34.4015 205.167 32.7674 206.641 30.0118C207.089 29.1787 207.538 28.3456 208.083 27.5765C209.557 25.4938 210.838 23.379 210.678 20.6875C210.582 19.3097 210.678 17.8998 210.486 16.554C210.262 14.9519 209.364 14.279 207.762 14.279C207.025 14.279 206.224 14.3752 205.487 14.2149C199.463 13.1255 193.439 13.7023 187.416 14.3111C186.935 14.3752 186.358 14.5674 186.07 14.8878C184.948 16.1054 183.602 17.1949 183.635 19.1815C183.635 20.0787 183.218 21.0079 182.994 21.9051C182.161 25.2375 181.84 28.6019 183.058 31.9343C183.795 34.017 184.852 35.9396 186.454 37.5096C186.903 37.9582 187.416 38.3748 187.127 39.1117C186.614 40.4575 186.166 41.8353 185.653 43.1811C185.205 44.3026 185.012 44.3667 183.795 43.9181C182.898 43.5976 182 43.3413 181.103 43.085C179.597 42.6684 178.091 42.2519 176.553 41.8353C175.207 41.4829 173.894 41.0984 172.548 40.81C171.811 40.6498 171.074 40.3934 171.106 39.5924C171.106 38.2146 171.298 36.8688 171.555 35.523C171.907 33.8568 172.484 32.2547 172.836 30.5885C173.221 29.0184 173.733 27.3843 173.701 25.7822C173.669 23.6354 174.599 21.7769 175.079 19.7903C175.528 17.8678 175.784 17.9318 174.342 16.5861C174.567 15.5607 174.791 14.4392 175.015 13.2537C174.759 13.0294 174.535 12.6769 174.214 12.5808C172.388 11.9079 170.593 11.8438 169.023 13.1255C167.517 14.3431 166.748 15.9773 167.229 17.9639C167.453 18.9572 167.613 19.9185 167.229 20.9118C166.876 21.9051 166.588 22.9625 166.364 23.9878C166.043 25.5899 165.947 27.2561 165.531 28.8262C164.666 32.0625 163.993 35.2987 163.768 38.6311C163.704 39.6244 163.384 40.3934 162.423 40.5857V41.4508C162.166 41.4508 162.038 41.4829 161.91 41.4508C159.475 41.0984 159.218 40.7459 159.731 38.3748C160.18 36.1639 160.724 34.017 161.013 31.742C161.654 26.6794 162.679 21.7128 163.576 16.6822C163.736 15.7209 163.768 14.8878 163.32 13.9586C162.775 12.8371 162.487 11.6195 162.07 10.434C160.596 9.76108 159.122 10.0174 157.648 10.434C156.847 10.6583 156.303 11.1069 156.142 11.972C155.95 13.1576 155.694 14.3111 155.598 15.4966C155.437 17.6755 155.598 19.9185 155.213 22.0653C154.636 25.2054 154.572 28.4417 153.483 31.4857C153.419 31.6459 153.387 31.8702 153.451 32.0304C153.867 33.8889 152.586 35.0424 151.753 36.5163C149.926 36.0357 148.132 35.6512 146.434 35.0744C143.39 34.0491 140.41 32.9276 137.366 31.8382C137.077 31.742 136.693 31.678 136.532 31.4537C135.892 30.6526 135.059 30.3642 134.097 30.204C133.008 30.0118 132.784 29.5632 132.976 28.4737C133.136 27.5445 133.36 26.6153 133.296 25.6861C133.264 24.7889 133.392 23.9878 133.488 23.1227C133.745 20.9759 134.578 18.797 133.905 16.5861C133.745 16.0414 134.001 15.4005 134.065 14.6635C136.116 14.7597 137.526 15.9452 139.16 16.4899C140.89 17.0667 142.621 17.6114 144.447 18.1882C144.639 17.7396 144.831 17.323 145.024 16.9385C147.94 16.4259 148.837 15.5928 148.292 13.9907C147.907 14.1829 147.491 14.3111 147.106 14.5354C145.312 15.6248 144.094 15.016 144.062 12.9012C144.062 12.3565 144.287 11.8118 144.479 11.2671C144.767 10.466 145.408 10.1776 146.241 10.1135C147.074 10.0815 147.555 10.466 147.875 11.1389C148.1 11.6195 148.292 12.1322 148.58 12.9012C148.58 10.5087 147.63 9.06683 145.729 8.57552C145.729 8.57552 145.408 8.44735 145.248 8.38327C145.248 8.38327 145.248 8.38327 145.248 8.41531C145.216 8.41531 145.184 8.41531 145.152 8.41531C143.454 10.6583 143.454 10.7223 142.653 15.2403C140.346 14.2149 138.103 13.2216 135.828 12.2283C135.251 11.972 135.059 11.5554 134.93 10.9146C134.706 9.63291 134.193 9.44066 133.232 10.3058C132.719 10.7544 132.271 10.8185 131.694 10.6903C131.502 10.6583 131.31 10.5942 131.149 10.4981C128.266 8.63961 124.773 8.73573 121.633 7.67834C121.12 7.51813 120.511 7.61425 119.935 7.61425C118.685 7.61425 117.948 7.06954 117.596 5.91602C117.211 4.66637 117.596 3.28856 118.685 2.80792C119.454 2.45546 120.351 2.39138 121.28 2.19912C121.729 3.76919 122.85 4.12166 124.1 4.5382C126.311 5.24313 128.426 6.17236 130.605 6.97341C131.31 7.22975 132.015 7.45404 132.752 7.6463C134.386 8.0308 136.052 8.51144 137.718 8.70369C139.064 8.8639 140.474 8.73573 141.819 8.70369C142.909 8.6396 143.998 8.51144 145.12 8.41531C145.12 8.41531 145.12 8.38327 145.184 8.35123C145.184 8.35123 145.184 8.35123 145.248 8.35123C145.536 7.6463 145.28 7.10158 144.575 6.90933C143.678 6.71707 142.717 6.46074 141.819 6.5889C140.378 6.8132 139.064 6.49278 137.718 6.17236C136.693 5.91602 135.635 5.65968 134.61 5.40334C133.456 5.11496 132.271 4.89067 131.149 4.47412C129.035 3.73715 126.92 2.87201 124.741 2.03891C124.709 1.91074 124.613 1.75053 124.581 1.59032C124.132 0.0202531 123.972 -0.107916 122.338 0.0522953C121.409 0.148422 120.447 0.212506 119.518 0.372717C118.845 0.500886 118.14 0.693139 117.596 1.0456C115.929 2.16708 115.064 5.01884 115.737 6.78116C116.314 8.31918 119.358 10.2097 121.024 10.1456C123.203 10.0495 125.125 10.8826 127.144 11.8759C127.048 13.7023 126.952 15.4005 126.856 17.0667C126.696 19.7582 126.631 22.4498 126.407 25.1413C126.279 26.5192 126.696 28.0572 125.638 29.3068C123.523 28.9544 121.473 28.698 119.454 28.2174C118.461 27.9611 117.435 27.4484 116.634 26.8075C115 25.4618 114.423 25.3336 112.405 26.1347C109.2 27.3843 105.9 28.4737 102.375 28.5058C101.35 28.5058 100.229 28.7621 99.2994 29.2107C97.9216 29.8836 96.5118 30.2681 94.9737 30.3642C93.9804 30.4283 92.9871 30.6206 91.9938 30.7808C89.3343 31.2614 86.6748 31.742 84.0153 32.2227C83.1502 32.3829 82.285 32.5431 81.4199 32.6713C77.6069 33.248 73.9861 34.9142 70.0449 34.9463C69.8527 34.9463 69.6604 34.9463 69.5002 35.0103C67.4495 35.5551 65.3668 36.1318 63.3161 36.6124C62.3548 36.8367 61.3294 36.8367 60.3361 36.9649C59.2787 37.061 58.2213 37.061 57.196 37.2853C55.2414 37.7019 53.2548 38.1825 51.3643 38.7913C49.1534 39.5283 46.6541 38.7913 44.5714 40.105C44.4111 40.2012 44.0907 40.0089 43.8344 40.041C41.6876 40.3614 39.5087 40.6498 37.3619 41.0343C36.1443 41.2586 34.9907 41.7712 33.7731 42.0276C31.8186 42.4121 29.7999 42.7005 27.8453 43.0529C27.621 43.085 27.3967 43.2772 27.1724 43.3413C25.7305 43.7579 24.3207 44.2705 22.8788 44.591C20.4756 45.1036 18.0084 45.392 15.6372 45.9688C13.6506 46.4494 11.664 46.5776 9.64535 46.3533C8.45979 46.2251 7.4024 46.3533 6.53726 47.1543C6.53726 47.3145 6.53726 47.4427 6.53726 47.5709C6.53726 48.8526 7.72282 49.8459 7.46648 51.2237C7.14606 53.0501 7.56261 54.8445 7.69078 56.6388C7.7869 58.1128 7.69078 59.6188 7.69078 61.1247C7.24219 61.1568 6.95381 61.2849 6.76155 61.2209C4.23022 60.4519 3.23691 63.2075 1.21825 63.6561C0.993957 63.7202 0.801704 64.2649 0.705577 64.6173C-0.383858 68.0779 -0.479984 70.7374 2.37177 73.2367C2.53198 73.3969 2.69219 73.5891 2.82036 73.7814C2.66015 74.0057 2.53198 74.1659 2.4679 74.3261C2.33973 74.7106 2.27565 75.0951 2.17952 75.4796C2.59607 75.5758 3.01262 75.736 3.39712 75.7039C3.87776 75.6399 4.32635 75.3194 4.80698 75.1913C6.08867 74.8068 7.33831 74.1339 8.87634 74.2941C9.00451 75.0311 9.19676 75.7039 9.2288 76.3768C9.61331 83.1057 9.99782 89.8345 10.3823 96.5634C10.6707 102.203 10.9591 107.874 11.2475 113.514C11.4718 118.416 11.664 123.287 11.9203 128.189C12.0485 130.881 12.2728 133.604 12.4971 136.296C12.6894 138.475 12.9457 140.686 13.138 142.864C13.2341 144.018 13.2982 145.171 11.9844 145.876C11.9844 145.876 12.0165 145.908 12.0485 145.94C12.9457 146.549 13.907 147.062 14.9003 147.543C15.477 147.543 15.9256 147.735 16.2781 148.151C17.2394 148.536 18.2006 148.92 19.1619 149.305C19.3541 149.305 19.5784 149.401 19.8027 149.465C23.1992 150.811 26.6277 152.093 29.9922 153.47C36.4006 156.13 42.777 158.789 49.1213 161.545C54.3122 163.788 59.2467 166.576 64.5977 168.594C68.6671 170.132 72.5122 172.151 76.4854 173.881C82.7016 176.637 88.9498 179.328 95.198 181.988C96.3195 182.469 97.2808 182.853 97.3449 184.263C97.3449 184.519 97.6973 184.744 97.9216 185.064C99.1713 184.327 100.293 184.295 101.671 184.84C103.145 185.416 103.337 186.634 103.849 188.012C105.195 186.826 106.509 186.858 107.951 187.403C108.367 187.563 108.912 187.339 109.393 187.307C109.425 186.987 109.521 186.794 109.489 186.602C109.2 185 109.297 184.84 110.803 184.359C111.283 184.199 111.764 184.039 112.244 183.878C114.68 182.917 117.051 181.796 119.55 181.027C122.178 180.194 124.933 179.745 127.561 178.944C132.143 177.598 136.693 176.124 141.243 174.682C141.884 174.49 142.588 174.33 143.229 174.138C144.735 173.689 146.241 173.24 147.715 172.76C148.773 172.407 149.798 171.927 150.855 171.638C153.098 171.094 155.405 170.741 157.648 170.1C160.596 169.267 163.512 168.242 166.428 167.313C167.133 167.088 167.838 166.8 168.543 166.512C172.131 165.006 176.233 165.038 179.597 162.891C179.789 162.763 180.078 162.795 180.334 162.731C181.904 162.282 183.506 161.897 185.044 161.417C188.217 160.424 191.389 159.398 194.561 158.437C196.099 157.956 197.797 157.86 199.207 157.155C202.027 155.745 204.943 154.624 207.89 153.631C209.076 153.214 210.294 152.253 211.639 152.83C213.081 153.406 213.85 152.221 214.812 151.676C215.26 151.42 215.228 150.266 215.42 149.529C213.242 148.792 213.177 148.792 213.145 146.709C213.113 143.89 213.274 141.038 213.209 138.218C213.209 136.232 212.857 134.213 212.857 132.194C212.857 129.631 213.081 127.068 213.145 124.504C213.145 123.831 213.017 123.126 212.985 122.454C212.921 121.62 212.665 120.787 212.825 120.018C213.274 117.423 212.505 114.892 212.569 112.328C212.569 110.758 212.44 109.188 212.472 107.618C212.505 103.901 212.601 100.184 212.697 96.4993C212.761 94.5768 212.857 92.6222 212.921 90.6997C212.953 89.7705 213.049 88.8412 213.017 87.912C212.985 86.374 212.857 84.836 212.761 83.0736C214.78 82.7532 216.638 82.2726 218.464 82.2726C220.195 82.2726 221.316 81.4715 222.341 80.3821C222.726 79.9976 222.95 79.2927 222.982 78.7159C223.175 76.1846 221.765 74.2941 220.227 72.5318M5.57599 71.7307C2.88445 71.1539 2.37177 69.4877 2.43586 67.8536C2.4679 66.7001 2.85241 66.4437 4.55064 66.1233C5.54395 67.8216 6.34501 69.5518 5.57599 71.7627M7.75486 66.5719C7.37036 65.9311 6.98585 65.2902 6.40909 64.329C8.0112 64.6494 7.88303 65.6106 7.75486 66.5719ZM207.025 54.7483C207.955 54.3638 209.108 54.492 210.262 54.3638C210.037 55.3892 209.3 55.3571 208.756 55.4853C204.814 56.4466 200.841 57.4078 196.868 58.3691C192.927 59.3304 189.018 60.5159 184.98 61.0606C184.051 61.1888 183.122 61.5733 182.193 61.8617C182.161 61.6694 182.097 61.5092 182.032 61.317C182.673 61.1247 183.314 60.9966 183.955 60.7723C187.576 59.5226 191.389 58.9779 195.074 58.0487C199.079 57.0554 203.148 56.3825 206.993 54.7483M191.261 50.0061C192.991 50.2304 194.753 50.5829 196.451 50.9994C199.015 51.6402 201.546 52.3772 204.109 53.0821C204.398 53.1783 204.654 53.3385 205.007 53.4987C203.276 54.9086 201.162 54.46 199.335 55.0367C197.509 55.6135 195.586 55.9659 193.696 56.3825C191.805 56.799 189.947 57.1835 187.768 57.6642C188.249 55.6135 187.64 53.8191 188.281 52.0247C188.889 50.3265 189.466 49.7177 191.293 49.974M207.089 24.116C206.384 26.391 205.712 28.698 203.821 30.3001C201.45 32.3508 198.983 34.2734 196.483 36.1959C195.971 36.5804 195.234 36.8367 194.593 36.9329C193.471 37.0931 192.574 36.7086 191.869 35.6512C189.626 32.2227 189.306 28.698 190.844 24.8209C194.337 24.4685 197.733 24.116 201.13 23.7635C201.322 24.9811 200.969 25.8783 200.264 26.6473C198.63 28.5378 196.996 30.4924 195.298 32.3188C194.721 32.9276 193.856 33.2801 192.895 33.8889C192.991 34.3054 192.959 35.1385 193.311 35.3308C193.76 35.5871 194.561 35.4589 195.074 35.2026C195.843 34.8181 196.548 34.2413 197.156 33.6005C198.887 31.8061 200.777 30.1079 202.155 28.0572C202.956 26.9037 204.238 25.8783 204.302 24.2121C204.302 23.9237 204.975 23.4751 205.391 23.379C205.904 23.2829 206.481 23.5072 206.961 23.6033C207.057 23.8597 207.153 23.9878 207.121 24.0839M186.679 33.6966C186.198 32.9596 185.845 32.1586 185.397 31.4216C183.923 29.0505 183.955 26.4871 184.532 23.9558C185.044 21.7128 185.91 19.566 186.55 17.4833C191.036 16.1375 202.123 16.1054 208.403 17.4192C207.987 18.4766 207.634 19.4058 207.218 20.4632C206.577 20.3991 205.904 20.4632 205.359 20.2389C204.174 19.6942 203.052 19.8223 201.899 20.303C199.143 21.4885 196.099 21.3604 193.215 21.9692C192.863 22.0332 192.478 21.9371 192.094 21.9051C192.414 20.5593 192.702 19.3097 192.991 18.06C191.517 17.1628 190.299 17.5794 188.921 18.06V19.566C188.921 20.0787 189.114 20.6875 188.857 21.0399C187.736 22.9945 187.992 25.2054 187.608 27.2882C187.255 29.1466 187.64 31.1653 187.704 33.0878C187.704 33.5044 187.736 33.9209 187.8 34.6899C187.255 34.2413 186.871 34.0491 186.679 33.7287M171.747 42.4121C173.894 43.6617 176.265 44.2705 178.636 44.8153C180.462 45.2318 182.257 45.8086 184.179 46.3533C183.891 50.5829 181.456 54.0754 179.982 57.9205C181.808 58.5293 182.962 57.504 184.083 54.492C182.673 53.2744 183.827 51.9927 184.243 50.8071C185.237 48.0515 186.55 45.4241 187.512 42.6684C187.928 41.4188 188.793 40.6818 189.626 39.8808C189.819 39.6885 190.427 39.6244 190.62 39.7846C190.876 40.0089 191.164 40.5216 191.1 40.842C190.78 42.0276 190.331 43.2131 189.947 44.3987C189.242 46.5776 188.601 48.7885 187.832 50.9353C187.416 52.1209 186.775 53.2103 186.294 54.3638C185.749 55.6776 185.301 57.0233 184.692 58.6895C178.283 60.5159 171.298 61.317 164.217 63.4318C164.698 62.6628 164.89 62.3423 165.146 61.9899C165.755 61.1568 166.011 60.2916 165.819 59.1702C165.627 58.1448 165.883 57.0554 165.979 55.998C166.075 55.261 166.332 54.524 166.364 53.755C166.428 51.8966 167.101 50.4226 168.511 49.1409C169.183 48.5322 169.344 47.3786 169.728 46.4494C169.856 46.161 169.888 45.8726 170.049 45.1998C173.125 45.9688 175.944 46.6417 178.796 47.4107C180.11 47.7631 181.007 47.7952 182.866 47.2505C182.353 46.9941 182.032 46.7378 181.68 46.6417C179.661 46.1931 177.643 45.8086 175.624 45.2959C174.086 44.9114 172.612 44.3667 171.106 43.9822C170.337 43.7899 169.92 43.4054 170.177 42.7005C170.465 41.8674 171.138 41.9955 171.747 42.348M95.3262 72.5318C94.8456 72.4356 94.2368 72.1472 93.8843 72.3075C92.122 73.1406 90.584 72.2754 88.9819 71.8589C86.9952 71.3462 84.9766 70.7694 82.99 70.2247C80.9072 69.68 78.8245 69.2314 76.8058 68.5585C75.7484 68.2061 74.8192 67.5011 73.8579 66.9564C73.6016 66.7962 73.3453 66.4117 73.121 66.4437C71.0382 66.7321 68.8593 65.8349 66.8086 66.7321C66.4562 66.8923 66.1678 67.1166 65.8794 67.373C64.8861 68.174 64.8861 68.2701 65.7833 69.8082C65.4308 70.0645 64.9502 70.2888 64.6618 70.6733C64.1171 71.3782 63.5403 71.6666 62.6111 71.6346C61.3294 71.6025 61.1372 71.8909 60.8168 73.1085C60.4963 74.3582 60.0798 75.6078 59.6953 76.9215C57.1639 77.1138 55.0171 76.3768 53.0305 75.0631C52.4217 74.6786 51.8449 74.198 51.2682 73.7173C50.9798 73.493 50.4992 73.1085 50.5633 72.9163C50.9478 71.3142 49.7302 69.9043 50.2108 68.2701C50.4992 67.3089 50.8196 67.0525 51.7488 67.1166C52.4537 67.1807 53.1907 67.0846 54.0238 67.0205C53.7995 66.1554 53.6393 65.5145 53.415 64.7135C52.5819 64.6173 51.6527 64.5853 50.7555 64.393C50.1787 64.2649 49.5379 63.9444 49.1854 63.5279C48.3523 62.4064 46.8464 57.1515 46.7182 55.4853C50.6914 55.0688 54.6967 54.6842 58.6699 54.2036C60.0157 54.0434 61.4896 53.755 62.6111 53.0821C64.5016 51.9927 66.5523 51.9286 68.603 51.5762C70.4935 51.2557 72.416 51.1276 74.2745 50.3906C75.6843 49.8459 77.3185 49.8459 78.8886 49.6216C81.1315 49.3332 83.3745 49.0769 85.6174 48.7885C86.0981 48.7244 86.6107 48.6283 87.0914 48.436C88.5653 47.8593 90.0072 47.2825 91.6414 47.4107C91.9297 47.4107 92.3142 47.4107 92.5706 47.2505C94.5892 45.7765 97.1526 45.7765 99.3956 44.8153C101.606 43.8219 104.074 43.4054 106.445 42.7325C107.695 42.348 108.944 41.8353 110.226 41.5469C111.892 41.1945 112.469 41.4188 113.11 42.9248C114.423 45.9688 115.609 49.0769 116.923 52.1529C117.564 53.6909 118.365 55.1969 119.037 56.735C119.486 57.7603 119.871 58.8497 120.223 59.9071C120.447 60.58 120.159 60.9966 119.614 61.5092C118.429 62.5987 117.307 63.7842 116.346 65.0659C115.961 65.6106 115.897 66.4758 115.897 67.2128C115.897 68.6546 115.993 70.0965 116.09 71.8909C113.27 71.8909 110.771 73.3649 107.983 72.6599C107.374 72.4997 106.637 72.8522 105.932 72.8842C103.689 73.0444 101.414 73.3008 99.1713 73.3008C97.9537 73.3008 96.704 72.8201 95.4864 72.5638M95.903 76.9215C95.3262 76.8254 94.7174 76.6972 94.1086 76.6011C94.8776 75.768 95.4544 76.1846 95.903 76.9215ZM91.5132 77.5303C92.9871 78.1391 93.4357 79.1965 92.9871 80.7346C92.2181 80.5423 91.4811 80.2219 90.7121 80.1258C88.309 79.8694 86.3223 78.3955 84.0153 77.8828C83.1502 77.6906 82.285 77.5303 81.484 77.3061C80.1062 76.8895 78.7604 76.4409 77.3826 75.9923C74.2424 74.9349 71.1023 73.8775 67.834 72.7881C67.9301 72.6599 68.0263 72.4036 68.1544 72.3716C70.077 71.923 71.9995 71.186 74.0502 71.7948C77.7671 72.9483 81.484 73.9737 85.1688 75.1272C87.3157 75.8001 89.4305 76.6652 91.5132 77.4983M90.7121 74.3261C90.7121 74.3261 90.8083 74.0698 90.8403 73.9416C91.5132 74.198 92.1861 74.4543 92.891 74.7106C91.8657 75.3515 91.2889 74.8388 90.7121 74.2941M41.6876 63.3997C43.2897 64.0406 44.7957 64.9057 46.3337 65.6427C46.2696 65.8029 46.2375 65.9631 46.1735 66.1233C45.3083 66.0272 44.4111 66.0272 43.6101 65.8029C41.2069 65.098 38.8358 64.2969 36.4647 63.5599C33.2284 62.5666 29.9922 61.6695 26.7879 60.58C24.2246 59.7149 21.6932 58.6575 19.1619 57.4719C20.0591 57.2156 20.8922 57.4399 21.7253 56.767C22.1739 56.4145 23.3274 56.7029 24.0643 56.9272C26.3393 57.6001 28.6143 58.3371 30.8573 59.2022C34.4781 60.548 38.0988 61.9578 41.6876 63.4318M36.5288 58.5934C37.6823 57.7283 38.5154 57.1515 39.2844 56.5107C39.8612 55.998 40.3738 55.3892 41.0788 54.6522C42.8411 54.492 43.8344 55.1969 44.1868 57.1835C44.3471 58.1128 44.4432 59.042 44.6675 59.9712C44.8277 60.7082 45.1161 61.3811 45.3724 62.2462C45.2442 62.2462 44.9238 62.3423 44.6034 62.2783C41.7516 61.7015 39.6048 59.7149 36.4967 58.5934M46.0773 68.8789C50.8516 77.274 52.7421 77.2099 55.7541 78.6518C54.5044 78.812 53.5111 79.0363 52.5499 79.0684C51.9731 79.0684 51.2361 78.9082 50.8516 78.5237C49.5059 77.306 48.096 76.1205 47.0066 74.6786C45.789 73.0444 45.3724 71.1219 46.0773 68.8789ZM120.255 65.2902C120.511 66.8923 120.736 68.4944 120.864 70.0966C120.864 70.417 120.479 70.8976 120.159 71.0578C119.742 71.2821 119.198 71.218 118.461 71.3462C118.268 71.186 117.82 71.0258 117.66 70.7054C116.955 69.3275 117.499 66.0272 118.621 64.8737C118.845 64.6494 119.294 64.4251 119.582 64.4892C119.838 64.5533 120.191 64.9698 120.223 65.2582M112.501 75.0311C114.904 74.6465 117.307 74.1339 119.71 73.6532C120.191 73.5571 120.704 73.3969 121.184 73.3969C122.017 73.3969 122.818 73.5251 123.427 72.724C123.555 72.5638 123.876 72.4997 124.132 72.4677C126.535 71.955 128.906 71.3782 131.31 70.9617C133.521 70.5772 135.763 70.3529 138.006 70.0645C138.327 70.0325 138.679 70.0645 138.936 69.9043C141.659 68.2061 144.928 68.8149 147.811 67.7575C147.875 67.7575 147.94 67.7575 148.004 67.7575C150.823 66.2835 154.124 67.3089 156.975 65.9311C157.776 65.5466 158.834 65.7709 159.763 65.5786C164.409 64.6814 169.023 63.7202 173.637 62.823C174.823 62.5987 176.041 62.5026 177.258 62.3744C177.258 62.5026 177.29 62.6628 177.322 62.823C174.951 63.3677 172.612 63.8804 170.241 64.4571C168.543 64.8737 166.812 65.2902 165.114 65.7068C164.217 65.9311 163.288 66.1233 162.391 66.3476C161.718 66.5078 160.981 66.5078 160.404 66.8282C158.866 67.6934 157.136 67.9177 155.501 67.9818C152.938 68.1099 150.567 68.9751 148.132 69.4557C146.722 69.7441 145.28 69.9363 143.87 70.1286C143.325 70.1927 142.749 70.1927 142.172 70.2888C140.089 70.7054 137.974 71.1219 135.892 71.5705C134.866 71.7948 133.841 72.1152 132.784 72.3716C128.842 73.4289 124.965 74.6465 120.864 74.999C119.134 75.1592 117.371 75.1913 115.609 75.3194C115.353 75.3194 115.096 75.3194 114.872 75.4156C111.283 76.6973 107.47 76.4729 103.785 77.1458C106.605 76.0244 109.553 75.5437 112.533 75.0631M128.618 68.0138C129.259 67.5332 129.9 67.0205 130.509 66.5078C131.694 67.0846 131.213 68.1099 131.63 69.1353C128.362 69.5518 125.446 70.6092 122.242 70.5451C122.242 68.6867 122.21 67.0846 122.242 65.4825C122.274 64.6814 123.011 64.2008 123.876 64.361C124.613 64.4892 125.318 64.7775 126.055 64.9698C127.433 65.3543 128.586 65.899 128.234 67.6613C128.234 67.7254 128.394 67.8536 128.586 68.0459M163.736 58.7857C163.544 59.2983 163.384 59.843 163.192 60.3557C163.192 60.3557 163.192 60.4198 163.192 60.4519C163.192 60.4519 163.192 60.4519 163.16 60.4519C163.16 61.4772 163.16 62.4705 163.16 63.5279H160.628C161.301 62.3744 161.878 61.4131 162.487 60.4839C162.551 60.3878 162.903 60.4839 163.128 60.4839V60.4198C162.967 59.811 162.743 59.2342 163.672 58.8497M170.113 14.2149C170.401 14.0227 170.978 14.0547 171.362 14.2149C172.003 14.4392 172.548 14.7917 173.381 15.2083C172.836 16.1695 172.388 17.0987 171.811 17.9639C171.458 18.5086 170.081 18.6688 169.76 18.1561C169.28 17.4192 168.895 16.4899 168.863 15.6248C168.863 15.1442 169.6 14.5674 170.145 14.2149M164.569 42.6043C165.338 40.7139 164.858 38.6632 165.242 36.7727C165.659 34.8181 166.139 32.8635 166.556 30.9089C166.908 29.0825 167.549 27.3202 167.71 25.3977C167.838 23.8276 168.703 22.3216 169.312 20.8156C169.408 20.5913 169.76 20.3671 170.049 20.303C170.882 20.0787 171.747 19.9505 172.612 19.7903C172.708 19.9825 172.868 20.1428 172.868 20.303C172.868 20.8156 172.804 21.2963 172.74 21.809C171.202 29.9797 169.824 38.1825 167.581 46.4174C166.652 46.0008 166.043 45.6804 165.723 45.5522C165.306 44.655 165.018 44.0142 164.73 43.3734C164.633 43.1491 164.537 42.8607 164.601 42.6684M163.448 49.3332C164.922 50.1983 165.178 50.6469 164.73 51.5762C164.281 52.4733 163.929 53.3385 163.993 54.3959C163.993 54.7483 163.384 55.1328 163.063 55.5173C162.935 55.4533 162.775 55.3892 162.647 55.2931C162.903 53.4026 163.16 51.48 163.48 49.3332M158.994 12.4847C159.955 12.741 160.724 13.0935 160.788 14.3752C159.923 14.8558 159.186 15.4646 158.161 15.048C157.905 13.9586 158.321 13.2216 158.994 12.5167M153.643 38.6311C153.995 36.4202 154.284 34.1452 155.405 32.0945C155.662 31.6139 155.405 30.8769 155.501 30.2681C155.822 27.9611 156.142 25.654 156.559 23.379C156.783 22.2255 157.2 21.104 157.456 19.9505C157.648 19.1494 157.712 18.3164 157.841 17.4192C159.058 17.0347 160.244 16.6181 161.782 16.1054C161.622 17.291 161.493 18.1241 161.365 18.9892C160.949 21.5206 160.532 24.0199 160.116 26.5192C159.571 29.9156 159.09 33.3121 158.449 36.6765C158.097 38.6311 157.584 40.5536 156.943 42.4441C156.559 43.5976 155.79 44.655 155.181 45.7765C153.707 45.9367 153.515 45.9367 153.483 44.655C153.387 42.6684 153.291 40.6177 153.611 38.6311M153.995 48.5322C153.995 48.5322 154.38 48.7564 154.412 48.9487C154.925 51.7043 154.508 54.46 153.963 57.1515C153.835 57.7923 152.938 58.273 152.201 58.7536C152.137 55.229 151.24 51.6402 153.963 48.5322M139.865 35.1706C138.743 34.8822 137.622 34.6579 136.5 34.3695C135.379 34.0811 134.29 33.7286 133.04 33.3762C134.578 32.6392 136.949 33.248 139.865 35.1706ZM133.873 35.4269C134.802 35.5551 135.731 35.7794 136.629 36.0357C139.897 36.9329 143.165 37.8301 146.466 38.7272C147.523 39.0156 148.452 38.9515 149.125 37.8621C149.958 38.0544 150.759 38.2466 151.624 38.4389C151.624 40.1691 151.688 41.7712 151.592 43.3734C151.528 44.0142 151.048 44.591 150.791 45.2318C150.567 45.7765 150.15 46.3853 150.247 46.93C150.823 50.711 150.247 54.46 149.958 58.2089C149.83 59.8751 149.798 61.5733 149.702 63.2395C149.862 63.3356 150.022 63.4318 150.215 63.5279C150.919 63.2395 151.656 62.9511 152.49 62.5987C152.746 63.0473 152.97 63.4638 153.194 63.8804C155.117 63.6561 155.95 62.8871 156.591 60.7723C154.989 59.8751 155.053 59.9071 155.534 58.0166C155.886 56.5427 155.95 55.0367 156.206 53.5628C156.399 52.4733 156.783 51.3839 157.04 50.2945C157.232 49.5255 157.52 48.6924 157.456 47.9233C157.296 45.9367 158.449 44.4628 159.347 42.8927C159.507 42.6364 160.276 42.4762 160.628 42.5723C162.775 43.2772 163.16 44.3026 162.326 46.4814C161.974 47.4107 161.814 48.404 161.622 49.3652C161.237 51.5762 160.885 53.8191 160.5 56.0621C160.051 58.5934 159.571 61.0927 159.09 63.7842C158.61 63.9444 158.065 64.2008 157.456 64.2969C153.835 64.9378 150.247 65.7709 146.594 66.3476C142.685 66.9564 138.807 67.9177 134.93 68.7187C134.418 68.8149 133.873 68.879 133.168 68.9751V64.7455C131.95 64.4251 131.181 63.8483 131.47 62.5025C131.502 62.3423 131.47 62.086 131.342 61.9578C129.675 60.4198 130.412 58.4332 130.348 56.6068C130.284 54.7804 130.348 52.986 130.38 51.1596C130.38 50.8392 130.38 50.5508 130.38 50.2304C130.765 47.8593 131.534 45.5202 131.47 43.1811C131.406 40.9061 132.431 38.9195 132.335 36.6765C132.335 35.523 132.784 35.2346 133.905 35.3948M125.766 32.447C124.485 32.3829 122.242 31.5498 121.633 30.973C123.427 30.8128 124.805 31.2614 125.766 32.447ZM117.916 40.105C116.09 37.5417 117.82 34.9463 117.66 32.3508C119.005 31.9022 120.031 32.5431 121.088 32.7674C122.017 32.9596 122.915 33.1839 123.844 33.3121C125.35 33.5044 125.894 34.017 125.766 35.523C125.35 40.2012 124.869 44.9114 124.388 49.5895C124.1 52.6976 123.812 55.8378 123.459 58.9459C123.363 59.779 123.395 60.5159 124.164 60.8684C124.485 61.0286 125.061 60.9004 125.382 60.7082C126.023 60.3237 126.599 58.8497 126.215 58.3691C124.965 56.799 125.67 55.1649 125.83 53.5307C126.023 51.6723 126.055 49.7818 126.247 47.9233C126.728 42.8607 127.368 37.798 127.753 32.7353C128.009 29.1146 127.881 25.4297 127.977 21.809C127.977 21.0079 128.169 20.1748 128.266 19.3737C128.426 17.6755 128.522 15.9773 128.682 14.3111C128.714 13.8945 128.874 13.478 128.971 13.1255C129.195 13.0614 129.323 12.9973 129.451 13.0294C133.2 13.8625 132.752 14.3111 132.752 17.5473C132.752 19.7903 132.591 22.0332 132.335 24.2762C132.111 26.1987 131.694 28.1213 131.406 30.0118C131.31 30.5565 131.246 31.1332 131.181 31.6779C130.989 33.985 130.861 36.3241 130.637 38.6311C130.38 41.3867 130.028 44.1103 129.707 46.866C129.547 48.3079 129.387 49.7498 129.259 51.1917C129.035 53.8191 128.842 56.4466 128.586 59.074C128.49 60.0673 128.234 60.9966 128.041 61.9258C126.503 61.8297 125.382 61.7335 124.26 61.7015C123.555 61.7015 123.107 61.4131 122.947 60.6441C122.37 57.1835 120.768 54.1075 119.358 50.9674C118.525 49.0769 118.044 47.0582 117.371 45.0716C117.243 44.7191 117.115 44.3667 116.987 44.0142C115.961 41.8353 116.025 41.579 117.916 40.105ZM54.0879 40.2332C60.4643 39.0156 66.8087 37.7339 73.1851 36.5804C77.7671 35.7153 82.3812 35.0424 86.9632 34.2093C89.3664 33.7607 91.7375 33.1199 94.1406 32.6392C97.6653 31.9663 101.222 31.4537 104.715 30.6526C106.349 30.2681 108.047 30.2681 109.649 29.5632C111.443 28.7621 113.462 28.8582 115.513 29.1787C115.513 30.0758 115.064 30.5565 114.231 30.6846C110.322 31.3255 106.413 31.9984 102.504 32.6072C98.0498 33.3121 93.5639 33.9209 89.078 34.6579C85.2329 35.2987 81.4199 35.9716 77.6069 36.7086C75.0115 37.2213 72.4801 37.9262 69.8847 38.5029C67.1611 39.0797 64.4375 39.5924 61.746 40.1371C59.8555 40.5216 57.933 40.9381 56.0425 41.3227C52.7101 42.0276 49.3777 42.6043 46.0773 43.4374C42.8411 44.2385 39.5407 44.4948 36.2724 44.9114C35.3432 45.0396 34.414 45.1998 33.4848 45.36C32.3633 45.5522 31.2738 45.7124 30.1524 45.8726C30.1203 45.7445 30.0883 45.6163 30.0562 45.4881C38.0027 43.4054 46.0453 41.7712 54.1199 40.2012M39.0601 46.3533C43.2576 45.5202 47.4231 44.623 51.6206 43.7579C51.9411 43.6938 52.2294 43.5976 52.5499 43.5656C56.0104 42.8927 59.503 42.2839 62.9315 41.579C67.1611 40.6818 71.3586 39.6244 75.6203 38.7593C80.01 37.8941 84.3998 37.1572 88.7896 36.4202C95.9991 35.2346 103.209 34.1132 110.45 33.0237C111.315 32.8956 112.212 33.0237 113.174 33.0237C113.879 34.4015 114.584 35.7794 114.007 37.5096C113.718 37.6378 113.366 37.8301 113.014 37.8941C109.681 38.567 106.509 39.8487 103.305 40.9702C100.709 41.8994 97.9857 42.5082 95.3583 43.2772C92.7628 44.0462 90.1995 44.9114 87.572 45.5522C84.56 46.2572 81.516 46.6737 78.5041 47.3145C76.8058 47.667 75.1396 48.2438 73.4414 48.5962C72.6724 48.7564 71.8072 48.5962 71.0382 48.7885C67.834 49.4614 64.6618 50.3265 61.4576 50.8712C58.3495 51.3839 55.2094 51.6402 52.1013 51.9927C51.4604 52.0568 50.8516 52.0888 50.2108 52.185C47.1988 52.6015 44.315 52.1209 41.5273 51.0635C41.2069 50.9353 40.6942 50.7751 40.47 50.9353C39.3805 51.7684 38.1629 52.5374 37.3619 53.5948C36.6569 54.5561 35.952 55.4853 34.9907 56.2223C34.6703 56.4786 34.3499 56.8311 34.1256 57.1835C33.7731 57.6962 33.3566 57.7923 32.8119 57.6001C31.8826 57.2476 30.9534 56.9272 29.9922 56.5427C28.6464 56.03 27.3006 55.4853 25.9228 54.9726C25.5062 54.8124 25.0897 54.7163 24.6731 54.524C23.7439 54.0434 23.6798 53.5948 24.4489 52.5054C22.6224 51.6723 20.1552 52.954 18.6172 50.6149C19.8668 50.2624 21.0203 49.8459 22.2059 49.6216C27.8133 48.5001 33.4527 47.4748 39.0921 46.3853M27.3327 46.129C25.6024 47.5388 18.8415 48.8526 16.4383 48.2117C20.0911 47.1223 23.6158 46.5135 27.3327 46.129ZM14.2274 48.6603C14.0672 49.205 14.0351 49.7498 13.8108 49.8459C13.138 50.1343 12.5292 49.942 11.9203 48.9487C12.7534 48.8205 13.3622 48.7564 14.2274 48.6283M13.7468 126.843C13.7468 125.113 13.4263 123.383 13.2982 121.652C13.17 119.986 12.8175 118.288 13.2982 116.59C13.3943 116.237 13.2982 115.821 13.2661 115.468C12.8816 113.065 12.9137 110.662 12.9457 108.227C12.9457 107.105 12.6894 105.984 12.6253 104.862C12.401 101.402 12.1446 97.9733 12.0806 94.5127C12.0165 91.5648 12.2408 88.6169 12.2087 85.6691C12.1767 83.1057 11.9524 80.5103 11.7922 77.9469C11.5999 75.1272 11.3756 72.3075 11.1513 69.5198C11.0552 68.0779 10.895 66.636 10.7989 65.1941C10.6707 63.3036 10.6387 61.4452 10.4464 59.5547C10.2221 57.3758 9.83761 55.1969 9.54923 53.0181C9.42106 52.0888 9.32493 51.1596 9.26085 50.1983C9.2288 49.6216 9.4531 49.205 10.126 49.2371C10.2221 49.3012 10.3823 49.3652 10.3823 49.4614C10.6387 51.5441 10.895 53.6589 11.1513 55.7416C11.2154 56.1261 11.0873 56.5747 11.2795 56.8631C12.5612 59.1061 12.3369 61.6374 12.5932 64.0406C13.1059 68.911 13.4584 73.8134 13.7788 78.6839C13.939 81.1191 13.8749 83.5863 14.0031 86.0215C14.0672 87.3993 14.4196 88.7451 14.5158 90.1229C14.708 92.8786 14.8362 95.6342 14.9964 98.3898C15.0605 100.056 15.1246 101.754 15.1566 103.452C15.1566 105.727 15.1566 107.97 15.1566 110.245C15.1566 112.2 15.1887 114.155 15.2207 116.077C15.2207 117.391 15.3168 118.737 15.3489 120.05C15.4129 122.133 15.477 124.184 15.5411 126.267C15.6372 131.105 15.7334 135.943 15.7975 140.782C15.7975 141.583 15.7975 142.384 15.7975 143.185C13.9711 137.898 13.7468 132.355 13.8108 126.811M94.7815 180.61C92.5706 179.681 90.3917 178.752 88.2128 177.758C86.7389 177.085 85.329 176.252 83.9192 175.515C83.759 175.419 83.5988 175.323 83.4065 175.291C81.0033 174.939 78.8245 173.913 76.6776 172.92C73.9541 171.638 71.1664 170.485 68.4108 169.235C65.8153 168.082 63.284 166.832 60.6886 165.678C57.4844 164.204 54.2801 162.731 51.0439 161.321C44.5073 158.501 37.9707 155.745 31.4341 152.958C28.0055 151.516 24.6091 150.042 21.1805 148.6C20.2513 148.215 19.5144 147.863 19.5464 146.613C19.5784 145.716 18.457 145.139 18.6172 144.082C18.6813 143.537 18.489 142.993 18.489 142.448C18.489 141.519 18.6492 140.589 17.72 139.884C17.4316 139.692 17.3355 139.083 17.3034 138.667C17.1432 134.501 17.0471 130.304 16.8869 126.106C16.7587 122.774 16.5344 119.41 16.8869 116.045C17.0471 114.667 16.7587 113.193 16.5344 111.783C16.2781 110.085 16.0538 108.451 16.4063 106.753C16.5344 106.144 16.5344 105.471 16.4063 104.894C16.214 104.029 15.9897 103.228 16.3422 102.331C16.4703 101.979 16.214 101.498 16.1499 101.049C16.0858 100.184 15.8295 99.255 16.0218 98.4539C16.214 97.6849 16.1179 97.012 16.0218 96.243C15.8615 94.3205 15.7975 92.3979 15.7013 90.4754C15.5411 87.111 15.4129 83.7465 15.1887 80.3821C15.0605 78.6198 14.708 76.8895 14.5478 75.1592C14.4196 74.0377 14.5478 72.8842 14.3235 71.8268C13.8749 69.9043 13.939 68.0459 14.3235 66.0913C14.5158 65.1941 14.1633 64.0726 13.7788 63.1754C13.1059 61.6054 13.7147 60.0994 13.7788 58.3691C14.6439 58.6254 15.3489 58.7857 16.0538 59.042C18.5531 60.0353 21.0203 61.1888 23.5837 62.054C26.5636 63.0793 29.6076 63.8163 32.6196 64.7455C34.7664 65.4184 36.8812 66.2195 39.0281 66.9244C40.3738 67.373 41.7837 67.7575 43.0333 68.174C43.1935 68.4624 43.3217 68.5585 43.2897 68.6867C43.0974 72.0832 44.8277 74.6786 46.8464 77.1458C47.2949 77.6906 47.7435 78.2032 48.1921 78.7159C49.634 80.318 51.3323 81.4395 53.6073 81.3434C54.184 81.3434 54.7608 81.3434 55.3055 81.3434C59.6312 81.3754 62.0984 79.3888 62.9636 75.1272C62.9956 74.967 63.1238 74.8068 63.284 74.4222C64.6939 74.6786 66.1678 74.8068 67.6097 75.1913C70.0449 75.8321 72.416 76.6332 74.8512 77.3061C78.7604 78.4275 82.7016 79.549 86.6107 80.7025C88.8537 81.3754 91.0326 82.1765 93.2435 82.8493C94.397 83.2018 94.5892 84.131 94.6533 85.0603C94.8776 88.8412 95.0058 92.5902 95.198 96.3712C95.3583 99.6395 95.6146 102.908 95.7428 106.144C95.8068 107.746 95.5505 109.38 95.5505 110.982C95.5505 113.802 95.6146 116.622 95.6146 119.442C95.6146 120.563 95.5185 121.652 95.5185 122.774C95.5185 124.953 95.5185 127.132 95.5505 129.311C95.5505 129.951 95.4864 130.592 95.5505 131.201C96.0632 135.655 95.5826 140.109 95.6146 144.595C95.6146 145.46 95.8068 146.325 95.935 147.19C95.9671 147.575 96.0311 147.927 96.0311 148.312C96.0311 152.958 95.903 157.604 95.9671 162.25C96.0311 165.39 96.3195 168.53 96.4797 171.67C96.6079 174.17 96.6399 176.701 96.6399 179.232C96.6399 180.898 96.2234 181.155 94.7495 180.546M102.375 182.693C102.215 182.661 101.895 182.661 101.863 182.565C101.318 181.347 100.261 180.706 99.2994 179.873C98.8829 179.489 98.7547 178.623 98.6906 177.983C98.4663 174.426 98.3382 170.837 98.1459 167.281C98.0178 164.717 97.8896 162.154 97.7614 159.558C97.6653 157.636 97.473 155.713 97.473 153.759C97.473 151.131 97.7614 148.504 97.6012 145.876C97.473 143.505 98.0178 141.166 97.5051 138.795C97.3769 138.218 97.5692 137.545 97.6012 136.905C97.6653 135.463 98.1139 134.021 97.2808 132.643C97.1847 132.483 97.1206 132.258 97.1847 132.098C97.8896 130.048 96.6399 128.125 96.8642 126.106C97.0885 124.312 97.0565 122.486 97.0565 120.659C97.0565 119.025 96.9283 117.423 96.9604 115.789C96.9924 114.251 97.0885 112.681 97.3128 111.175C97.6012 109.444 97.9857 107.746 97.1847 106.08C96.8642 105.407 96.7361 104.83 97.2487 104.157C97.473 103.837 97.5371 103.324 97.5051 102.94C97.3449 101.21 97.0245 99.4792 96.9283 97.7169C96.8642 96.4352 97.1206 95.1215 97.1206 93.8078C97.1206 90.8599 97.0244 87.88 97.0244 84.9321C97.0244 83.9067 97.0245 82.9134 97.1206 81.8881C97.1206 81.5356 97.2808 81.1191 97.5051 80.8627C97.8255 80.5423 98.3382 80.1578 98.6906 80.2219C99.0431 80.286 99.5558 80.7986 99.6199 81.1511C99.8762 82.9455 100.133 84.7719 100.165 86.5983C100.229 90.3793 99.9082 94.1923 100.229 97.9412C100.549 101.754 100.101 105.599 100.613 109.412C100.837 111.143 101.062 112.905 101.158 114.635C101.222 115.885 100.998 117.134 100.998 118.384C100.998 120.211 101.062 122.037 101.094 123.831C101.094 124.568 100.998 125.305 101.03 126.042C101.222 131.938 101.414 137.866 101.671 143.762C101.799 146.902 102.151 150.01 102.279 153.15C102.376 155.489 102.279 157.796 102.343 160.135C102.632 166.287 102.952 172.439 103.305 178.591C103.401 180.065 103.177 181.411 102.408 182.661M211.319 149.113C211.191 150.266 210.55 150.907 209.493 151.291C206.961 152.189 204.43 153.15 201.867 153.951C197.605 155.297 193.343 156.546 189.05 157.828C187.127 158.405 185.173 158.95 183.282 159.59C178.027 161.353 172.868 163.275 167.581 164.877C162.294 166.48 156.879 167.697 151.56 169.203C146.914 170.517 142.3 172.023 137.686 173.369C133.841 174.49 129.932 175.451 126.055 176.509C124.837 176.829 123.619 177.15 122.434 177.566C119.005 178.784 115.609 180.162 112.148 181.219C110.162 181.828 108.175 182.917 105.932 182.212C105.74 182.148 105.58 182.084 105.291 181.956C105.035 177.374 104.875 172.952 104.586 168.498C104.234 162.923 103.785 157.38 103.433 151.804C103.305 149.625 103.369 147.414 103.273 145.236C103.08 141.294 102.824 137.353 102.568 133.38C102.536 132.771 102.375 132.13 102.504 131.553C102.952 129.15 102.247 126.811 102.151 124.44C102.087 122.774 102.279 121.076 102.279 119.41C102.279 116.333 102.279 113.289 102.279 110.213C102.279 108.227 101.959 106.24 102.215 104.125C102.696 104.222 103.048 104.222 103.273 104.35C104.458 105.215 105.708 105.247 107.054 104.83C107.406 104.734 107.855 104.67 108.143 104.83C109.265 105.343 110.13 104.926 111.155 104.478C112.885 103.741 114.744 103.324 116.57 102.876C116.923 102.78 117.403 103.068 117.788 103.26C118.781 103.773 119.838 104.286 120.736 104.926C121.441 105.407 121.953 106.176 122.562 106.785C122.883 107.073 123.267 107.33 123.94 107.842C123.812 106.977 123.748 106.593 123.716 106.208C123.587 104.382 123.876 103.997 125.734 103.837C126.663 103.773 127.657 103.773 128.554 103.933C130.829 104.382 131.47 104.125 132.303 102.011C132.431 101.69 132.527 101.338 132.591 101.177C133.713 100.761 134.706 100.376 135.667 99.9919C135.86 99.9278 136.052 99.7997 136.212 99.8317C139.384 100.408 141.98 98.3578 144.928 97.9412C145.793 97.8131 146.626 97.5247 147.491 97.3004C150.791 96.4673 154.06 95.6021 157.36 94.7691C157.841 94.6409 158.353 94.4807 158.834 94.4807C161.173 94.4807 163.48 94.4486 165.819 94.5768C166.62 94.6088 167.998 94.1923 167.998 95.8905C167.998 95.9866 168.799 96.243 169.119 96.1148C171.138 95.3458 173.317 94.9933 175.047 93.5194C176.041 92.6863 177.611 92.9426 178.572 91.8212C179.181 91.1162 179.886 90.5395 180.975 90.7317C181.295 90.7958 181.68 90.5395 182.032 90.3793C182.449 90.2191 182.801 89.8986 183.218 89.8025C186.679 89.1296 190.075 88.1684 193.632 88.2324C193.984 88.2324 194.561 88.2965 194.657 88.4888C195.554 90.187 197.22 89.5141 198.118 89.1617C199.752 88.5529 201.033 88.9374 202.443 89.4821C203.308 89.8025 204.109 90.3793 205.263 89.7064C204.814 89.1937 204.462 88.7451 204.142 88.3606C206.352 87.6557 208.627 86.9507 211.127 86.1817C211.543 86.406 211.383 87.0469 211.383 87.6557C211.351 90.7958 211.383 93.968 211.319 97.1081C211.255 100.793 211.127 104.51 211.031 108.227C211.031 109.605 211.031 110.982 211.095 112.36C211.223 115.629 211.415 118.897 211.543 122.165C211.607 124.504 211.543 126.811 211.543 129.15C211.543 132.483 211.543 135.815 211.543 139.115C211.543 140.109 211.383 141.134 211.319 142.127C211.287 142.608 211.223 143.153 211.319 143.601C211.832 145.428 211.575 147.222 211.383 149.049M104.49 98.1655H107.086C107.566 100.921 107.534 101.274 106.605 102.812C103.817 102.427 103.369 101.498 104.49 98.1655ZM117.596 96.5314C118.172 96.5314 118.749 96.8838 119.326 97.1081C119.999 97.3645 120.672 97.6208 121.344 97.8771C121.377 97.8131 121.441 97.7169 121.473 97.6208C120.96 97.1402 120.447 96.6916 119.742 96.0187C121.088 95.6342 122.146 95.2817 123.203 95.0254C124.26 94.769 125.286 95.6342 125.542 96.8518C125.798 98.1335 125.414 98.7743 124.036 98.9025C121.344 99.1909 118.685 99.5433 116.09 100.344C114.391 100.857 112.693 101.242 110.995 101.658C110.642 101.754 110.29 101.754 109.809 101.818V97.1081C112.533 96.8838 115.096 96.6275 117.66 96.4993M117.307 93.4874C117.884 89.9948 120.543 88.5208 124.132 89.6103C123.908 91.5969 120.159 93.8078 117.307 93.4874ZM126.631 93.7437C126.215 93.1349 125.606 92.7183 124.997 92.0775C125.991 91.4367 126.728 90.956 127.625 91.8852C127.817 92.1095 128.169 92.3018 128.426 92.3018C130.06 92.3659 130.477 93.6155 130.733 94.8331C130.989 96.1789 131.149 97.5567 129.836 98.6462C128.778 99.5113 128.009 100.729 126.375 100.761C126.375 100.569 126.247 100.312 126.311 100.28C127.785 99.1909 127.689 97.5247 127.721 96.0187C127.721 95.2497 127.112 94.4486 126.631 93.7437ZM122.434 103.132C121.825 102.876 121.441 102.716 120.992 102.555C121.718 102 122.199 102.192 122.434 103.132ZM132.848 92.3338C134.418 92.0775 135.123 92.462 135.443 93.8078C135.507 94.1282 135.539 94.4166 135.603 94.737C135.956 96.275 135.603 96.7236 133.777 96.9159C133.104 96.275 133.232 95.506 133.232 94.6409C133.232 93.8719 132.976 93.1029 132.848 92.3338ZM137.494 97.3004C137.654 95.2176 137.782 93.3271 137.942 91.2444C138.455 91.2444 139.064 91.2444 139.673 91.2444C142.909 91.3085 146.081 90.9881 149.029 89.5141C149.413 89.3219 149.894 89.3219 150.311 89.2257C151.817 88.8092 153.323 88.3606 154.829 87.9441C154.893 87.9441 154.957 87.88 154.989 87.88C159.154 87.3993 162.871 85.3807 166.941 84.6117C167.613 84.4835 168.35 84.4194 168.991 84.5796C169.472 84.6758 170.081 85.0923 170.273 85.5089C171.074 87.3032 171.971 89.1617 170.85 91.2124C170.722 91.4367 170.689 91.693 170.561 92.0134C169.728 92.0134 169.023 92.0775 168.35 92.0134C165.403 91.661 162.455 91.8853 159.507 92.2057C158.866 92.2698 158.257 92.2698 157.616 92.3659C156.591 92.5581 155.566 92.8145 154.54 93.0067C152.073 93.4553 149.798 94.4486 147.267 94.8011C144.543 95.1856 141.948 96.1789 139.256 96.9159C138.743 97.044 138.199 97.1722 137.494 97.3324M173.509 85.8613C173.413 85.5729 173.413 85.2525 173.381 84.9641C173.637 84.836 173.766 84.6758 173.926 84.6758C177.899 84.3874 181.776 83.6504 185.557 82.4648C187.416 81.8881 189.338 81.5036 191.229 80.9909C192.702 80.5744 194.176 80.1258 195.65 79.6451C197.541 79.0363 200.104 80.7986 200.2 82.7532C200.232 84.131 198.855 85.6691 197.477 85.5089C194.337 85.0923 191.389 86.1817 188.345 86.4701C183.378 86.9508 179.053 89.0335 174.663 90.9881C174.438 91.0842 174.182 91.1162 173.669 91.2444C173.605 90.5074 173.253 89.7384 173.509 89.2898C174.182 88.0722 173.926 87.0148 173.509 85.8613ZM208.179 85.0603C206.961 85.1564 206 85.2205 204.911 85.2846C205.423 84.099 205.872 83.0736 206.288 82.0483C206.737 80.9589 206.545 79.9655 205.84 79.0043C205.648 78.7479 205.519 78.4596 205.359 78.2032C204.911 77.306 204.462 76.4089 204.013 75.4796C205.327 74.7106 206.192 74.8708 207.506 75.768C209.076 76.8575 209.589 78.3314 209.621 80.1578C209.621 81.0229 209.525 81.856 208.788 82.3687C207.955 83.0096 207.89 83.8106 208.179 85.0603ZM211.607 67.7254C211.447 69.1032 211.447 70.4811 211.351 71.8589C211.255 73.1406 210.774 73.5891 209.685 73.1406C207.858 72.3395 206.064 72.2754 204.302 73.1085C204.077 72.8842 203.885 72.7881 203.789 72.6279C202.732 70.5772 202.219 70.3529 199.912 70.8656C198.726 71.1219 197.477 72.1152 196.836 73.4289C197.605 73.1406 198.182 72.9483 198.726 72.724C200.521 72.0511 201.001 72.2113 202.155 73.9737C201.61 74.8068 200.649 74.999 199.752 75.1272C198.694 75.2874 197.701 75.4476 196.74 76.0884C195.939 76.6652 195.522 76.3768 194.977 75.1272C192.767 78.3634 189.338 79.0043 185.877 79.6131C185.397 79.7092 184.916 79.9015 184.436 80.0296C180.815 81.1832 177.098 81.7599 173.317 81.792C172.067 81.792 170.818 81.5036 169.6 81.2152C168.543 80.9589 167.645 80.9909 166.716 81.5997C166.139 81.9842 165.499 82.2405 164.826 82.4328C162.359 83.2018 159.923 84.0029 157.456 84.7078C153.963 85.6691 150.407 86.5342 146.914 87.5595C143.39 88.5849 139.833 88.4567 136.244 88.2004C135.123 88.1363 133.905 88.5529 132.816 89.0014C131.694 89.4821 130.669 89.5782 129.515 89.2898C128.073 88.9374 126.696 88.5208 125.318 87.8479C122.85 86.5983 120.511 87.6877 118.397 89.0976C116.698 90.2511 115.417 91.7891 115.353 94.3845C113.078 94.3845 110.995 94.5127 108.944 94.3845C106.637 94.2243 104.715 94.8011 103.209 96.5955C102.952 96.9159 102.536 97.1081 102.151 97.4286C101.318 96.3712 101.51 95.1856 101.446 94.1282C101.35 92.4941 101.414 90.8599 101.446 89.2257C101.446 87.912 101.542 86.5983 101.51 85.2525C101.51 83.7465 101.382 82.2405 101.286 80.5103C102.792 80.2219 104.234 79.9656 105.708 79.7092C111.027 78.7159 116.346 77.7226 121.633 76.7293C124.965 76.0884 128.234 75.2553 131.534 74.4222C136.084 73.2367 140.794 72.5318 145.408 71.6025C149.093 70.8335 152.778 70.0004 156.463 69.1994C160.628 68.3022 164.794 67.437 168.991 66.5078C169.856 66.3156 170.657 65.9952 171.523 65.8029C174.406 65.13 177.29 64.4892 180.174 63.8163C182.994 63.1434 185.781 62.4385 188.569 61.7976C192.286 60.9004 196.035 60.0994 199.784 59.1702C202.219 58.5614 204.654 57.9205 207.057 57.1835C208.467 56.767 209.845 56.5427 211.447 56.8631C211.447 58.6254 211.447 60.3237 211.447 61.9899C211.447 62.3103 211.383 62.6628 211.511 62.9191C212.152 64.5212 211.864 66.1233 211.639 67.7575M219.906 77.9789C219.842 78.3955 219.426 78.9082 219.073 79.1004C217.343 80.0296 215.452 80.4141 213.274 80.3501C213.113 78.8761 212.953 77.5944 212.793 76.3127C214.299 75.9923 215.741 75.6399 217.215 75.3194C218.785 74.999 220.227 76.3768 219.938 77.9469" fill="#231F20"/>
<g id="box">
<path id="Vector_2" d="M74.2855 115.671L75.1123 121.264L79.5871 117.809L81.5464 118.599L75.7429 122.69L77.0851 129.663L75.1258 128.873L74.2061 123.511L69.8242 126.735L67.8649 125.945L73.6107 121.831L72.3262 114.881L74.2855 115.671Z" fill="#231F20"/>
<path id="Vector_3" d="M61.3107 123.57C60.3119 123.167 59.5313 122.576 58.9691 121.797C58.4116 121.019 58.0939 120.118 58.016 119.093C57.9429 118.07 58.1367 116.987 58.5976 115.844C59.0623 114.691 59.6769 113.769 60.4412 113.078C61.2104 112.389 62.0655 111.958 63.0063 111.784C63.9519 111.613 64.9242 111.729 65.923 112.131C66.9219 112.534 67.7001 113.124 68.2575 113.902C68.8197 114.681 69.1365 115.585 69.2077 116.613C69.2837 117.643 69.0893 118.734 68.6246 119.887C68.1637 121.03 67.5497 121.943 66.7824 122.628C66.02 123.314 65.1659 123.743 64.2203 123.914C63.2794 124.088 62.3096 123.973 61.3107 123.57ZM61.9265 122.043C62.6852 122.349 63.3879 122.406 64.0346 122.215C64.6813 122.023 65.2501 121.658 65.741 121.119C66.2319 120.58 66.6264 119.941 66.9246 119.201C67.2228 118.462 67.383 117.725 67.4052 116.992C67.4274 116.258 67.273 115.596 66.942 115.004C66.6109 114.413 66.066 113.964 65.3073 113.658C64.5485 113.353 63.8449 113.298 63.1963 113.494C62.5477 113.69 61.9769 114.06 61.4841 114.604C60.9913 115.148 60.5958 115.79 60.2976 116.529C59.9994 117.269 59.8401 118.003 59.8198 118.732C59.7996 119.46 59.9559 120.118 60.2889 120.704C60.6219 121.291 61.1677 121.737 61.9265 122.043Z" fill="#231F20"/>
<path id="Vector_4" d="M44.5404 116.54L50.4888 101.788L52.1887 102.474L49.993 107.919L50.137 107.977C50.3393 107.836 50.611 107.66 50.9519 107.452C51.2996 107.24 51.7298 107.101 52.2425 107.034C52.7619 106.964 53.3817 107.075 54.1021 107.365C55.0337 107.741 55.761 108.305 56.2839 109.057C56.8068 109.81 57.0952 110.694 57.1491 111.709C57.203 112.725 56.9957 113.813 56.5271 114.976C56.0546 116.147 55.4458 117.083 54.7006 117.782C53.9574 118.476 53.1379 118.916 52.2422 119.102C51.3485 119.283 50.4406 119.187 49.5186 118.816C48.8079 118.529 48.2862 118.182 47.9537 117.774C47.6231 117.362 47.4036 116.958 47.2951 116.562C47.1885 116.162 47.1134 115.836 47.0699 115.584L46.8682 115.503L46.1828 117.203L44.5404 116.54ZM48.4422 111.682C48.1053 112.518 47.9305 113.304 47.9179 114.042C47.9072 114.774 48.0646 115.416 48.39 115.966C48.7173 116.511 49.2219 116.921 49.9038 117.196C50.6146 117.482 51.2831 117.534 51.9096 117.351C52.5428 117.165 53.1082 116.802 53.6058 116.26C54.1102 115.715 54.5212 115.049 54.8387 114.261C55.1524 113.483 55.3151 112.734 55.3267 112.013C55.345 111.289 55.1877 110.647 54.8546 110.089C54.5283 109.527 54.005 109.101 53.2846 108.811C52.5931 108.532 51.9414 108.473 51.3294 108.634C50.7194 108.79 50.1685 109.132 49.6766 109.659C49.1867 110.182 48.7753 110.856 48.4422 111.682Z" fill="#231F20"/>
</g>
<g id="germinar">
<path id="Vector_5" d="M205.579 113.821L202.271 101.066L204.164 100.575L204.664 102.501L204.797 102.467C204.866 101.775 205.154 101.154 205.661 100.603C206.168 100.052 206.803 99.6775 207.567 99.4794C207.711 99.442 207.892 99.3981 208.109 99.3477C208.326 99.2972 208.492 99.2632 208.606 99.2455L209.122 101.239C209.052 101.239 208.893 101.254 208.646 101.282C208.404 101.304 208.152 101.348 207.892 101.416C207.272 101.577 206.752 101.85 206.332 102.237C205.917 102.617 205.627 103.07 205.462 103.597C205.302 104.117 205.296 104.665 205.445 105.241L207.539 113.313L205.579 113.821Z" fill="#231F20"/>
<path id="Vector_6" d="M196.233 116.564C195.425 116.774 194.652 116.812 193.914 116.678C193.175 116.539 192.536 116.229 191.998 115.748C191.458 115.262 191.08 114.604 190.865 113.773C190.675 113.042 190.666 112.413 190.836 111.884C191.004 111.35 191.296 110.89 191.71 110.505C192.124 110.12 192.605 109.788 193.154 109.51C193.706 109.225 194.268 108.967 194.841 108.736C195.59 108.435 196.199 108.197 196.668 108.023C197.14 107.841 197.471 107.658 197.66 107.473C197.853 107.287 197.91 107.036 197.828 106.72L197.81 106.654C197.598 105.834 197.209 105.256 196.642 104.918C196.082 104.579 195.35 104.527 194.448 104.761C193.512 105.003 192.832 105.398 192.407 105.946C191.981 106.494 191.721 107.028 191.626 107.549L189.593 107.367C189.724 106.506 190.011 105.787 190.452 105.212C190.898 104.63 191.428 104.167 192.043 103.825C192.661 103.475 193.291 103.217 193.933 103.051C194.343 102.944 194.827 102.872 195.384 102.834C195.945 102.789 196.514 102.851 197.09 103.021C197.671 103.189 198.206 103.532 198.695 104.049C199.184 104.566 199.559 105.332 199.822 106.345L202.002 114.749L200.042 115.257L199.594 113.53L199.494 113.556C199.433 113.867 199.289 114.221 199.06 114.617C198.832 115.013 198.489 115.388 198.032 115.743C197.574 116.098 196.975 116.372 196.233 116.564ZM196.075 114.726C196.85 114.525 197.464 114.203 197.917 113.761C198.375 113.317 198.677 112.819 198.823 112.267C198.975 111.714 198.982 111.171 198.844 110.64L198.379 108.846C198.322 108.967 198.163 109.106 197.902 109.262C197.645 109.412 197.342 109.564 196.993 109.72C196.647 109.869 196.308 110.01 195.977 110.143C195.649 110.269 195.384 110.374 195.18 110.456C194.688 110.654 194.24 110.886 193.836 111.15C193.436 111.407 193.138 111.718 192.943 112.082C192.752 112.439 192.721 112.866 192.851 113.364C193.027 114.045 193.413 114.495 194.007 114.713C194.605 114.924 195.295 114.929 196.075 114.726Z" fill="#231F20"/>
<path id="Vector_7" d="M178.692 112.605L180.682 120.278L178.723 120.786L175.414 108.031L177.308 107.54L177.825 109.533L177.991 109.49C178.122 108.764 178.441 108.126 178.948 107.575C179.453 107.019 180.188 106.616 181.151 106.366C182.015 106.142 182.816 106.123 183.556 106.309C184.294 106.49 184.936 106.891 185.481 107.512C186.025 108.127 186.437 108.977 186.719 110.062L188.821 118.167L186.861 118.676L184.793 110.703C184.533 109.701 184.071 108.988 183.405 108.564C182.738 108.134 181.951 108.037 181.043 108.273C180.417 108.435 179.893 108.716 179.471 109.115C179.054 109.512 178.772 110.008 178.625 110.602C178.477 111.195 178.5 111.863 178.692 112.605Z" fill="#231F20"/>
<path id="Vector_8" d="M173.173 122.226L169.865 109.47L171.825 108.962L175.133 121.718L173.173 122.226ZM170.31 107.086C169.928 107.185 169.565 107.14 169.22 106.952C168.882 106.762 168.665 106.485 168.57 106.119C168.475 105.754 168.53 105.406 168.734 105.075C168.943 104.743 169.239 104.528 169.621 104.429C170.003 104.33 170.363 104.375 170.702 104.565C171.046 104.753 171.266 105.03 171.36 105.396C171.455 105.761 171.398 106.11 171.189 106.442C170.985 106.772 170.692 106.987 170.31 107.086Z" fill="#231F20"/>
<path id="Vector_9" d="M152.848 127.498L149.54 114.742L151.433 114.251L151.95 116.244L152.116 116.201C152.206 115.451 152.497 114.811 152.992 114.281C153.486 113.745 154.147 113.37 154.978 113.154C155.819 112.936 156.569 112.945 157.227 113.182C157.89 113.412 158.467 113.827 158.959 114.426L159.092 114.392C159.248 113.648 159.602 112.998 160.155 112.441C160.706 111.878 161.439 111.479 162.352 111.242C163.493 110.946 164.518 111.061 165.429 111.587C166.338 112.108 166.987 113.118 167.376 114.618L169.59 123.155L167.63 123.664L165.416 115.127C165.172 114.186 164.74 113.58 164.12 113.309C163.501 113.039 162.842 112.994 162.144 113.175C161.248 113.407 160.623 113.859 160.271 114.529C159.918 115.194 159.848 115.939 160.062 116.764L162.216 125.068L160.223 125.585L157.957 116.849C157.769 116.123 157.382 115.6 156.796 115.28C156.21 114.953 155.545 114.886 154.803 115.079C154.294 115.211 153.853 115.47 153.481 115.856C153.114 116.241 152.857 116.709 152.71 117.261C152.568 117.806 152.578 118.391 152.74 119.017L154.808 126.989L152.848 127.498Z" fill="#231F20"/>
<path id="Vector_10" d="M144.147 129.754L140.839 116.999L142.732 116.508L143.232 118.434L143.365 118.4C143.433 117.708 143.721 117.087 144.228 116.536C144.735 115.985 145.371 115.61 146.135 115.412C146.279 115.375 146.46 115.331 146.677 115.281C146.894 115.23 147.06 115.196 147.173 115.178L147.69 117.171C147.62 117.172 147.461 117.187 147.214 117.215C146.972 117.237 146.72 117.281 146.46 117.349C145.84 117.51 145.32 117.783 144.9 118.17C144.485 118.549 144.195 119.003 144.03 119.53C143.87 120.05 143.864 120.598 144.013 121.174L146.107 129.246L144.147 129.754Z" fill="#231F20"/>
<path id="Vector_11" d="M135.953 132.163C134.724 132.481 133.594 132.485 132.562 132.174C131.534 131.855 130.652 131.269 129.916 130.414C129.184 129.552 128.649 128.467 128.31 127.161C127.971 125.854 127.911 124.641 128.128 123.521C128.35 122.394 128.817 121.44 129.531 120.658C130.248 119.869 131.182 119.326 132.334 119.027C132.998 118.855 133.683 118.795 134.388 118.849C135.093 118.902 135.776 119.109 136.437 119.469C137.096 119.824 137.689 120.368 138.216 121.1C138.742 121.832 139.16 122.793 139.469 123.983L139.684 124.814L129.852 127.364L129.412 125.67L137.252 123.636C137.065 122.917 136.755 122.312 136.32 121.822C135.891 121.33 135.372 120.989 134.761 120.799C134.156 120.608 133.499 120.604 132.79 120.787C132.01 120.99 131.385 121.359 130.915 121.894C130.449 122.423 130.144 123.034 129.999 123.727C129.854 124.421 129.872 125.119 130.055 125.822L130.347 126.951C130.597 127.915 130.975 128.688 131.481 129.272C131.991 129.849 132.59 130.234 133.279 130.428C133.966 130.616 134.705 130.607 135.497 130.402C136.012 130.268 136.458 130.076 136.836 129.824C137.218 129.566 137.523 129.25 137.751 128.878C137.978 128.5 138.117 128.068 138.169 127.582L140.2 127.622C140.167 128.316 139.979 128.968 139.634 129.577C139.289 130.181 138.805 130.708 138.183 131.159C137.56 131.604 136.817 131.939 135.953 132.163Z" fill="#231F20"/>
<path id="Vector_12" d="M122.744 140.694C121.798 140.939 120.952 141.029 120.208 140.962C119.465 140.9 118.816 140.732 118.26 140.457C117.711 140.185 117.246 139.863 116.866 139.489L118.143 137.988C118.38 138.174 118.673 138.382 119.022 138.61C119.372 138.845 119.811 139.011 120.339 139.111C120.874 139.214 121.527 139.166 122.296 138.967C123.326 138.699 124.111 138.23 124.652 137.558C125.192 136.886 125.325 136.018 125.049 134.955L124.377 132.365L124.211 132.408C124.128 132.677 123.997 133.018 123.821 133.431C123.648 133.836 123.35 134.235 122.926 134.629C122.506 135.015 121.881 135.316 121.051 135.532C120.021 135.799 119.033 135.795 118.088 135.52C117.147 135.244 116.319 134.703 115.601 133.896C114.89 133.088 114.361 132.02 114.017 130.691C113.678 129.384 113.612 128.187 113.821 127.099C114.027 126.006 114.472 125.087 115.153 124.343C115.833 123.593 116.71 123.079 117.784 122.801C118.615 122.585 119.31 122.553 119.868 122.703C120.432 122.847 120.888 123.059 121.239 123.34C121.594 123.615 121.872 123.844 122.073 124.028L122.273 123.976L121.747 121.95L123.641 121.459L127.044 134.58C127.328 135.676 127.31 136.632 126.99 137.448C126.676 138.268 126.144 138.947 125.391 139.485C124.645 140.027 123.763 140.43 122.744 140.694ZM120.86 133.702C121.646 133.498 122.264 133.146 122.713 132.645C123.162 132.145 123.44 131.52 123.548 130.772C123.655 130.023 123.586 129.178 123.342 128.237C123.104 127.318 122.755 126.543 122.296 125.911C121.837 125.28 121.284 124.835 120.638 124.578C119.992 124.32 119.271 124.294 118.473 124.501C117.643 124.716 117.006 125.106 116.561 125.671C116.122 126.233 115.856 126.905 115.763 127.686C115.676 128.465 115.744 129.286 115.968 130.15C116.198 131.035 116.539 131.783 116.993 132.392C117.45 132.994 118.003 133.418 118.652 133.663C119.305 133.902 120.041 133.915 120.86 133.702Z" fill="#231F20"/>
</g>
</g>
</g>
</svg>
