<svg width="28" height="29" viewBox="0 0 28 29" fill="none" xmlns="http://www.w3.org/2000/svg">
<path d="M9.09992 2.91162H18.8999C22.6333 2.91162 25.6666 5.94496 25.6666 9.67829V19.4783C25.6666 21.2729 24.9537 22.9941 23.6847 24.2631C22.4157 25.5321 20.6946 26.245 18.8999 26.245H9.09992C5.36659 26.245 2.33325 23.2116 2.33325 19.4783V9.67829C2.33325 7.88366 3.04617 6.16253 4.31516 4.89353C5.58416 3.62454 7.30529 2.91162 9.09992 2.91162ZM8.86659 5.24496C7.75268 5.24496 6.68439 5.68746 5.89674 6.47511C5.10908 7.26276 4.66659 8.33105 4.66659 9.44496V19.7116C4.66659 22.0333 6.54492 23.9116 8.86659 23.9116H19.1333C20.2472 23.9116 21.3154 23.4691 22.1031 22.6815C22.8908 21.8938 23.3333 20.8256 23.3333 19.7116V9.44496C23.3333 7.12329 21.4549 5.24496 19.1333 5.24496H8.86659ZM20.1249 6.99496C20.5117 6.99496 20.8826 7.1486 21.1561 7.42209C21.4296 7.69558 21.5833 8.06652 21.5833 8.45329C21.5833 8.84006 21.4296 9.211 21.1561 9.48449C20.8826 9.75798 20.5117 9.91162 20.1249 9.91162C19.7381 9.91162 19.3672 9.75798 19.0937 9.48449C18.8202 9.211 18.6666 8.84006 18.6666 8.45329C18.6666 8.06652 18.8202 7.69558 19.0937 7.42209C19.3672 7.1486 19.7381 6.99496 20.1249 6.99496ZM13.9999 8.74496C15.547 8.74496 17.0307 9.35954 18.1247 10.4535C19.2187 11.5475 19.8333 13.0312 19.8333 14.5783C19.8333 16.1254 19.2187 17.6091 18.1247 18.7031C17.0307 19.7971 15.547 20.4116 13.9999 20.4116C12.4528 20.4116 10.9691 19.7971 9.87513 18.7031C8.78117 17.6091 8.16659 16.1254 8.16659 14.5783C8.16659 13.0312 8.78117 11.5475 9.87513 10.4535C10.9691 9.35954 12.4528 8.74496 13.9999 8.74496ZM13.9999 11.0783C13.0717 11.0783 12.1814 11.4471 11.525 12.1034C10.8687 12.7598 10.4999 13.6501 10.4999 14.5783C10.4999 15.5066 10.8687 16.3968 11.525 17.0532C12.1814 17.7096 13.0717 18.0783 13.9999 18.0783C14.9282 18.0783 15.8184 17.7096 16.4748 17.0532C17.1312 16.3968 17.4999 15.5066 17.4999 14.5783C17.4999 13.6501 17.1312 12.7598 16.4748 12.1034C15.8184 11.4471 14.9282 11.0783 13.9999 11.0783Z" fill="black"/>
</svg>
