<svg width="28" height="28" viewBox="0 0 28 28" fill="none" xmlns="http://www.w3.org/2000/svg">
<path fill-rule="evenodd" clip-rule="evenodd" d="M11.042 10.6173H14.4723V12.326C14.9665 11.3433 16.2337 10.4603 18.1372 10.4603C21.7864 10.4603 22.6528 12.4165 22.6528 16.0057V22.6529H18.9583V16.823C18.9583 14.7791 18.4642 13.6264 17.2062 13.6264C15.4615 13.6264 14.7365 14.8687 14.7365 16.8221V22.6529H11.042V10.6173ZM4.707 22.4959H8.40144V10.4603H4.707V22.4959ZM8.93067 6.53587C8.93081 6.84554 8.8694 7.15214 8.75 7.43786C8.63061 7.72358 8.45562 7.98272 8.23519 8.20022C7.78854 8.64413 7.18395 8.89261 6.55422 8.89108C5.9256 8.89066 5.32241 8.64281 4.8751 8.20114C4.65547 7.9829 4.48107 7.72347 4.36189 7.43771C4.2427 7.15196 4.18108 6.84549 4.18054 6.53587C4.18054 5.91059 4.42992 5.31209 4.87602 4.8706C5.32294 4.42834 5.92639 4.18039 6.55515 4.18066C7.18505 4.18066 7.78909 4.42912 8.23519 4.8706C8.68037 5.31209 8.93067 5.91059 8.93067 6.53587Z" fill="black"/>
</svg>
